<svg viewBox="0 0 1445 4651" fill="none" xmlns="http://www.w3.org/2000/svg">
<path d="M605.349 155.51L608.453 150.375L608.253 150.254L608.044 150.149L605.349 155.51ZM8.05401 603.099L2.08832 603.74L8.05401 603.099ZM489.017 1802.41L487.58 1796.58L489.017 1802.41ZM489.017 2698.05L489.94 2692.12L489.017 2698.05ZM1100.48 3674.24L1102.79 3679.77L1100.48 3674.24ZM1200.02 4270.98L1203.15 4265.86L1200.02 4270.98ZM809.687 4577.3V4583.3V4577.3ZM775.788 4647.42C779.075 4647 781.399 4644 780.979 4640.71C780.559 4637.42 777.553 4635.1 774.266 4635.52L775.788 4647.42ZM740.395 4638.99C737.09 4639.22 734.604 4642.1 734.843 4645.4C735.082 4648.71 737.955 4651.19 741.26 4650.95L740.395 4638.99ZM670.027 4644.73C672.928 4646.33 676.578 4645.27 678.179 4642.37C679.78 4639.47 678.726 4635.82 675.825 4634.22L670.027 4644.73ZM711.284 4602.15C714.352 4600.9 715.825 4597.39 714.574 4594.32C713.323 4591.26 709.821 4589.78 706.753 4591.03L711.284 4602.15ZM774.66 4573.58C771.374 4574.01 769.052 4577.01 769.474 4580.3C769.896 4583.59 772.903 4585.91 776.19 4585.49L774.66 4573.58ZM851.489 4582.59C854.801 4582.48 857.393 4579.7 857.279 4576.39C857.165 4573.08 854.388 4570.48 851.076 4570.6L851.489 4582.59ZM933.574 4564.57C930.282 4564.95 927.919 4567.92 928.297 4571.22C928.674 4574.51 931.649 4576.87 934.941 4576.49L933.574 4564.57ZM1017.32 4563.02C1020.56 4562.31 1022.61 4559.12 1021.91 4555.88C1021.2 4552.64 1018.01 4550.59 1014.77 4551.29L1017.32 4563.02ZM1093.85 4528.77C1090.74 4529.9 1089.13 4533.34 1090.26 4536.46C1091.39 4539.57 1094.83 4541.18 1097.94 4540.05L1093.85 4528.77ZM1174.21 4504.22C1177.05 4502.5 1177.95 4498.81 1176.23 4495.98C1174.52 4493.14 1170.83 4492.24 1167.99 4493.95L1174.21 4504.22ZM1229.86 4442.29C1227.76 4444.86 1228.13 4448.64 1230.69 4450.74C1233.25 4452.84 1237.04 4452.47 1239.14 4449.91L1229.86 4442.29ZM1271.15 4370.66C1271.18 4367.35 1268.52 4364.63 1265.21 4364.6C1261.9 4364.56 1259.18 4367.22 1259.15 4370.54L1271.15 4370.66ZM1228.52 4300.74C1230.85 4303.1 1234.65 4303.13 1237.01 4300.8C1239.36 4298.47 1239.39 4294.67 1237.06 4292.32L1228.52 4300.74ZM1168.18 4243.63C1165.41 4241.8 1161.69 4242.56 1159.87 4245.33C1158.04 4248.09 1158.8 4251.81 1161.57 4253.64L1168.18 4243.63ZM1092.82 4204.9C1095.45 4206.91 1099.22 4206.4 1101.22 4203.76C1103.23 4201.12 1102.72 4197.36 1100.09 4195.35L1092.82 4204.9ZM1035.81 4142.37C1033.35 4140.16 1029.55 4140.36 1027.34 4142.83C1025.13 4145.3 1025.33 4149.09 1027.8 4151.3L1035.81 4142.37ZM968.004 4091.67C970.207 4094.14 973.999 4094.37 976.475 4092.16C978.951 4089.96 979.172 4086.17 976.97 4083.69L968.004 4091.67ZM927.207 4017.76C925.472 4014.94 921.777 4014.06 918.954 4015.79C916.131 4017.53 915.248 4021.22 916.983 4024.05L927.207 4017.76ZM882.85 3945.86C883.648 3949.07 886.901 3951.03 890.118 3950.24C893.334 3949.44 895.295 3946.18 894.497 3942.97L882.85 3945.86ZM893.7 3863.01C894.508 3859.8 892.558 3856.54 889.345 3855.73C886.131 3854.92 882.871 3856.87 882.063 3860.08L893.7 3863.01ZM922.172 3784.55C920.036 3787.08 920.359 3790.87 922.893 3793C925.427 3795.14 929.212 3794.81 931.348 3792.28L922.172 3784.55ZM992.97 3737.92C995.7 3736.05 996.392 3732.31 994.515 3729.58C992.638 3726.85 988.902 3726.16 986.172 3728.04L992.97 3737.92ZM1059.48 3686.09C1056.49 3687.53 1055.24 3691.12 1056.68 3694.1C1058.13 3697.09 1061.71 3698.34 1064.7 3696.89L1059.48 3686.09ZM1140.26 3662.87C1143.24 3661.42 1144.48 3657.83 1143.03 3654.85C1141.58 3651.87 1137.99 3650.62 1135.01 3652.07L1140.26 3662.87ZM1204.32 3612.63C1201.56 3614.47 1200.82 3618.19 1202.66 3620.95C1204.5 3623.7 1208.23 3624.44 1210.99 3622.6L1204.32 3612.63ZM1274.51 3571.74C1276.89 3569.43 1276.95 3565.63 1274.64 3563.25C1272.33 3560.87 1268.53 3560.82 1266.15 3563.12L1274.51 3571.74ZM1316.28 3501.97C1314.51 3504.77 1315.35 3508.48 1318.15 3510.25C1320.95 3512.01 1324.66 3511.17 1326.42 3508.37L1316.28 3501.97ZM1360.17 3433.45C1361.08 3430.27 1359.24 3426.95 1356.05 3426.03C1352.87 3425.12 1349.54 3426.96 1348.63 3430.15L1360.17 3433.45ZM1359.09 3352.21C1359.12 3355.52 1361.83 3358.19 1365.14 3358.16C1368.45 3358.13 1371.12 3355.43 1371.09 3352.11L1359.09 3352.21ZM1360.03 3270.96C1359.2 3267.75 1355.92 3265.83 1352.71 3266.67C1349.51 3267.5 1347.58 3270.78 1348.42 3273.98L1360.03 3270.96ZM1320.77 3199.59C1322.2 3202.58 1325.79 3203.83 1328.78 3202.39C1331.76 3200.95 1333.01 3197.37 1331.58 3194.38L1320.77 3199.59ZM1290.49 3123.97C1288.62 3121.24 1284.88 3120.54 1282.15 3122.42C1279.42 3124.29 1278.72 3128.03 1280.59 3130.76L1290.49 3123.97ZM1231.24 3067.75C1233.43 3070.23 1237.22 3070.47 1239.71 3068.27C1242.19 3066.08 1242.43 3062.29 1240.23 3059.81L1231.24 3067.75ZM1183.44 3001.85C1181 2999.6 1177.21 2999.74 1174.96 3002.18C1172.71 3004.61 1172.86 3008.41 1175.29 3010.66L1183.44 3001.85ZM1114.09 2958.88C1116.71 2960.91 1120.47 2960.43 1122.51 2957.82C1124.54 2955.2 1124.06 2951.43 1121.44 2949.4L1114.09 2958.88ZM1055.49 2902.21C1052.73 2900.38 1049.01 2901.14 1047.18 2903.91C1045.36 2906.67 1046.12 2910.4 1048.88 2912.22L1055.49 2902.21ZM980.289 2870.3C983.174 2871.93 986.834 2870.91 988.465 2868.03C990.096 2865.15 989.08 2861.48 986.195 2859.85L980.289 2870.3ZM914.532 2822.31C911.55 2820.87 907.962 2822.11 906.516 2825.09C905.071 2828.08 906.317 2831.67 909.299 2833.11L914.532 2822.31ZM835.987 2800.26C839.049 2801.52 842.558 2800.07 843.823 2797.01C845.089 2793.94 843.632 2790.43 840.57 2789.17L835.987 2800.26ZM764.739 2760.33C761.61 2759.23 758.189 2760.89 757.098 2764.02C756.007 2767.14 757.659 2770.57 760.788 2771.66L764.739 2760.33ZM684.26 2747.28C687.444 2748.2 690.771 2746.36 691.692 2743.18C692.613 2740 690.779 2736.67 687.596 2735.75L684.26 2747.28ZM609.316 2715.3C606.09 2714.54 602.862 2716.55 602.108 2719.77C601.353 2723 603.357 2726.23 606.584 2726.98L609.316 2715.3ZM527.916 2710.68C531.176 2711.27 534.298 2709.1 534.889 2705.84C535.48 2702.58 533.316 2699.46 530.055 2698.87L527.916 2710.68ZM448.947 2684.17C445.72 2683.42 442.494 2685.43 441.742 2688.65C440.99 2691.88 442.997 2695.11 446.224 2695.86L448.947 2684.17ZM364.955 2670.24C368.028 2671.48 371.524 2669.99 372.761 2666.92C373.999 2663.84 372.511 2660.35 369.437 2659.11L364.955 2670.24ZM294.863 2621.99C292.024 2620.28 288.337 2621.19 286.629 2624.03C284.92 2626.87 285.837 2630.56 288.676 2632.27L294.863 2621.99ZM219.46 2582.56C221.985 2584.71 225.771 2584.4 227.918 2581.88C230.064 2579.35 229.757 2575.56 227.233 2573.42L219.46 2582.56ZM168.52 2514.39C166.39 2511.86 162.605 2511.53 160.067 2513.66C157.529 2515.79 157.199 2519.57 159.329 2522.11L168.52 2514.39ZM110.352 2452.24C112.007 2455.11 115.676 2456.1 118.547 2454.45C121.417 2452.79 122.403 2449.12 120.748 2446.25L110.352 2452.24ZM86.0382 2370.73C84.9445 2367.6 81.5221 2365.95 78.3941 2367.04C75.2661 2368.14 73.617 2371.56 74.7107 2374.69L86.0382 2370.73ZM54.6663 2291.67C55.1116 2294.96 58.1346 2297.26 61.4182 2296.81C64.7019 2296.37 67.0028 2293.34 66.5574 2290.06L54.6663 2291.67ZM64.2915 2207.21C64.5648 2203.91 62.1092 2201.01 58.8067 2200.74C55.5043 2200.47 52.6056 2202.92 52.3324 2206.23L64.2915 2207.21ZM68.9687 2122.37C67.9581 2125.53 69.6972 2128.91 72.8531 2129.92C76.0089 2130.93 79.3865 2129.19 80.3971 2126.03L68.9687 2122.37ZM114.376 2050.54C116.062 2047.69 115.118 2044.01 112.265 2042.32C109.413 2040.64 105.733 2041.58 104.047 2044.43L114.376 2050.54ZM154.971 1975.89C152.737 1978.33 152.911 1982.13 155.358 1984.36C157.806 1986.6 161.601 1986.42 163.835 1983.98L154.971 1975.89ZM225.21 1927.96C227.84 1925.95 228.34 1922.18 226.325 1919.55C224.31 1916.92 220.544 1916.42 217.913 1918.43L225.21 1927.96ZM289.255 1871.96C286.357 1873.57 285.309 1877.22 286.914 1880.12C288.52 1883.01 292.172 1884.06 295.07 1882.46L289.255 1871.96ZM370.703 1846.56C373.774 1845.32 375.257 1841.82 374.014 1838.75C372.771 1835.67 369.273 1834.19 366.201 1835.44L370.703 1846.56ZM446.196 1807.74C443.016 1808.67 441.195 1812 442.128 1815.18C443.06 1818.36 446.394 1820.18 449.574 1819.25L446.196 1807.74ZM531.27 1797.2C534.45 1796.27 536.271 1792.94 535.338 1789.76C534.405 1786.58 531.071 1784.76 527.892 1785.69L531.27 1797.2ZM607.252 1758.92C604.155 1760.1 602.598 1763.56 603.776 1766.66C604.954 1769.76 608.419 1771.31 611.517 1770.14L607.252 1758.92ZM689.538 1737.31C692.547 1735.92 693.862 1732.35 692.474 1729.34C691.087 1726.34 687.522 1725.02 684.513 1726.41L689.538 1737.31ZM759.523 1688.89C756.607 1690.47 755.518 1694.11 757.091 1697.02C758.665 1699.94 762.304 1701.03 765.221 1699.46L759.523 1688.89ZM838.439 1657.09C841.257 1655.35 842.128 1651.65 840.385 1648.83C838.641 1646.01 834.943 1645.14 832.126 1646.88L838.439 1657.09ZM902.139 1600.68C899.428 1602.59 898.775 1606.33 900.68 1609.04C902.586 1611.75 906.328 1612.41 909.039 1610.5L902.139 1600.68ZM976.791 1559.8C979.382 1557.73 979.809 1553.96 977.744 1551.37C975.678 1548.78 971.904 1548.35 969.312 1550.41L976.791 1559.8ZM1033.18 1496.09C1030.72 1498.32 1030.54 1502.11 1032.77 1504.56C1035 1507.01 1038.8 1507.19 1041.25 1504.96L1033.18 1496.09ZM1101.73 1445.8C1104.01 1443.39 1103.9 1439.59 1101.5 1437.32C1099.09 1435.04 1095.29 1435.14 1093.01 1437.55L1101.73 1445.8ZM1147.86 1374.19C1145.82 1376.8 1146.27 1380.57 1148.88 1382.61C1151.49 1384.66 1155.26 1384.2 1157.3 1381.6L1147.86 1374.19ZM1205.71 1311.75C1207.41 1308.91 1206.48 1305.22 1203.64 1303.52C1200.79 1301.82 1197.11 1302.74 1195.41 1305.59L1205.71 1311.75ZM1231.53 1230.94C1230.41 1234.05 1232.02 1237.49 1235.14 1238.61C1238.26 1239.74 1241.7 1238.12 1242.82 1235L1231.53 1230.94ZM1259.23 1150.91C1259.25 1147.59 1256.58 1144.89 1253.27 1144.87C1249.96 1144.85 1247.25 1147.51 1247.23 1150.83L1259.23 1150.91ZM1227.14 1073.46C1228.85 1076.3 1232.53 1077.22 1235.37 1075.52C1238.22 1073.82 1239.14 1070.14 1237.44 1067.29L1227.14 1073.46ZM1175.96 1007.32C1173.13 1005.58 1169.44 1006.46 1167.7 1009.28C1165.96 1012.11 1166.84 1015.8 1169.67 1017.54L1175.96 1007.32ZM1094.07 985.239C1097.25 986.168 1100.59 984.342 1101.51 981.161C1102.44 977.98 1100.62 974.648 1097.44 973.72L1094.07 985.239ZM1013.55 956.585C1010.27 956.149 1007.25 958.459 1006.81 961.744C1006.38 965.029 1008.69 968.045 1011.97 968.481L1013.55 956.585ZM929.348 961.761C932.66 961.883 935.443 959.297 935.565 955.986C935.687 952.674 933.102 949.891 929.79 949.769L929.348 961.761ZM844.32 948.692C841.006 948.644 838.282 951.291 838.234 954.605C838.186 957.918 840.834 960.643 844.147 960.69L844.32 948.692ZM758.98 958.213C762.291 958.359 765.093 955.794 765.239 952.483C765.385 949.173 762.819 946.371 759.509 946.225L758.98 958.213ZM674.792 941.135C671.488 940.882 668.605 943.355 668.351 946.659C668.098 949.963 670.571 952.847 673.875 953.1L674.792 941.135ZM589.088 945.057C592.38 945.433 595.354 943.068 595.729 939.776C596.105 936.483 593.74 933.51 590.448 933.135L589.088 945.057ZM506.483 921.751C503.21 921.232 500.136 923.464 499.617 926.737C499.098 930.009 501.33 933.083 504.603 933.603L506.483 921.751ZM420.73 918.065C423.97 918.759 427.16 916.695 427.854 913.454C428.548 910.214 426.484 907.025 423.243 906.331L420.73 918.065ZM341.15 885.918C337.965 885.004 334.642 886.846 333.728 890.031C332.814 893.216 334.655 896.539 337.841 897.453L341.15 885.918ZM256.816 870.368C259.905 871.568 263.382 870.036 264.581 866.947C265.781 863.858 264.249 860.382 261.16 859.182L256.816 870.368ZM184.597 824.035C181.686 822.452 178.043 823.528 176.46 826.44C174.877 829.351 175.954 832.994 178.865 834.577L184.597 824.035ZM107.2 787.095C109.768 789.189 113.547 788.806 115.642 786.238C117.736 783.671 117.353 779.891 114.785 777.796L107.2 787.095ZM57.6264 717.533C55.7123 714.828 51.9678 714.187 49.2629 716.101C46.5579 718.015 45.9168 721.759 47.831 724.464L57.6264 717.533ZM10.3226 646.507C11.2244 649.695 14.5403 651.549 17.729 650.647C20.9176 649.746 22.7715 646.43 21.8698 643.241L10.3226 646.507ZM12.0407 559.736C12.0918 556.423 9.4472 553.696 6.13389 553.644C2.82057 553.593 0.0931983 556.238 0.0421238 559.551L12.0407 559.736ZM12.4427 472.329C11.5693 475.526 13.4526 478.825 16.6492 479.699C19.8457 480.572 23.145 478.689 24.0184 475.492L12.4427 472.329ZM56.1556 396.541C57.7488 393.635 56.685 389.988 53.7794 388.395C50.8739 386.801 47.2269 387.865 45.6336 390.771L56.1556 396.541ZM95.6832 318.477C93.5385 321.003 93.8477 324.789 96.3737 326.934C98.8997 329.078 102.686 328.769 104.831 326.243L95.6832 318.477ZM165.867 266.029C168.413 263.907 168.757 260.124 166.635 257.578C164.514 255.032 160.731 254.688 158.185 256.81L165.867 266.029ZM229.716 206.039C226.878 207.748 225.962 211.435 227.671 214.274C229.38 217.113 233.067 218.028 235.906 216.319L229.716 206.039ZM312.573 177.503C315.632 176.228 317.077 172.714 315.801 169.656C314.526 166.598 311.013 165.152 307.954 166.428L312.573 177.503ZM391.294 138.996C388.073 139.775 386.094 143.017 386.873 146.238C387.651 149.459 390.894 151.439 394.115 150.66L391.294 138.996ZM478.758 138.385C482.069 138.249 484.643 135.456 484.508 132.145C484.373 128.834 481.579 126.259 478.269 126.395L478.758 138.385ZM566.197 134.678C562.988 133.853 559.717 135.785 558.892 138.995C558.067 142.204 559.999 145.475 563.208 146.3L566.197 134.678ZM638.584 182.074C641.456 183.725 645.124 182.735 646.776 179.863C648.427 176.99 647.437 173.322 644.565 171.67L638.584 182.074ZM716.784 211.016C713.837 209.501 710.22 210.661 708.704 213.608C707.188 216.555 708.349 220.172 711.296 221.688L716.784 211.016ZM785.944 257.67C788.967 259.028 792.518 257.679 793.876 254.656C795.234 251.633 793.884 248.082 790.861 246.724L785.944 257.67ZM866.81 278.186C863.711 277.013 860.247 278.574 859.074 281.673C857.901 284.772 859.462 288.236 862.562 289.409L866.81 278.186ZM941.039 316.097C944.212 317.051 947.558 315.251 948.512 312.078C949.465 308.904 947.666 305.559 944.492 304.605L941.039 316.097ZM1023.54 324.962C1020.3 324.272 1017.11 326.34 1016.42 329.581C1015.73 332.822 1017.8 336.009 1021.04 336.699L1023.54 324.962ZM1103.54 350.095C1106.84 350.454 1109.8 348.075 1110.16 344.781C1110.52 341.487 1108.14 338.525 1104.84 338.165L1103.54 350.095ZM1186.03 342.1C1182.72 342.157 1180.08 344.89 1180.14 348.203C1180.2 351.516 1182.93 354.155 1186.24 354.098L1186.03 342.1ZM1269.54 345.925C1272.79 345.307 1274.93 342.166 1274.31 338.911C1273.69 335.655 1270.55 333.517 1267.3 334.136L1269.54 345.925ZM1344.5 309.908C1341.5 311.32 1340.22 314.895 1341.63 317.893C1343.04 320.89 1346.62 322.176 1349.62 320.763L1344.5 309.908ZM1417.47 270.508C1419.59 267.954 1419.23 264.172 1416.67 262.061C1414.12 259.949 1410.34 260.308 1408.23 262.862L1417.47 270.508ZM1432.67 190.911C1432.95 194.212 1435.86 196.659 1439.16 196.376C1442.46 196.093 1444.91 193.186 1444.62 189.885L1432.67 190.911ZM1407.59 113.355C1405.34 110.931 1401.54 110.797 1399.11 113.057C1396.69 115.316 1396.56 119.113 1398.82 121.537L1407.59 113.355ZM1334.43 74.1743C1337.36 75.7198 1340.99 74.5965 1342.54 71.6653C1344.08 68.734 1342.96 65.1049 1340.03 63.5594L1334.43 74.1743ZM1262.44 32.3494C1259.27 31.387 1255.92 33.1774 1254.96 36.3483C1254 39.5192 1255.79 42.8699 1258.96 43.8322L1262.44 32.3494ZM1179.13 25.311C1182.4 25.868 1185.5 23.6715 1186.06 20.4049C1186.61 17.1384 1184.42 14.0387 1181.15 13.4817L1179.13 25.311ZM1098.84 3.45135C1095.53 3.19362 1092.65 5.66283 1092.39 8.9665C1092.13 12.2702 1094.6 15.1573 1097.9 15.415L1098.84 3.45135ZM1016.09 12.0361C1019.4 12.0607 1022.11 9.39439 1022.13 6.08078C1022.16 2.76716 1019.49 0.0610271 1016.18 0.0364614L1016.09 12.0361ZM774.266 4635.52C761.735 4637.12 750.471 4638.26 740.395 4638.99L741.26 4650.95C751.586 4650.21 763.072 4649.05 775.788 4647.42L774.266 4635.52ZM675.825 4634.22C672.478 4632.37 672.179 4630.91 672.145 4630.33C672.084 4629.31 672.628 4627.12 675.62 4623.74C681.524 4617.08 693.934 4609.22 711.284 4602.15L706.753 4591.03C688.855 4598.33 674.385 4607.04 666.638 4615.79C662.804 4620.11 659.829 4625.35 660.166 4631.03C660.527 4637.16 664.54 4641.7 670.027 4644.73L675.825 4634.22ZM776.19 4585.49C787.099 4584.08 798.348 4583.3 809.687 4583.3V4571.3C797.799 4571.3 786.039 4572.12 774.66 4573.58L776.19 4585.49ZM809.687 4583.3C823.955 4583.3 837.889 4583.06 851.489 4582.59L851.076 4570.6C837.616 4571.06 823.82 4571.3 809.687 4571.3V4583.3ZM934.941 4576.49C964.337 4573.12 991.794 4568.57 1017.32 4563.02L1014.77 4551.29C989.658 4556.76 962.597 4561.24 933.574 4564.57L934.941 4576.49ZM1097.94 4540.05C1127.01 4529.5 1152.44 4517.41 1174.21 4504.22L1167.99 4493.95C1146.97 4506.69 1122.27 4518.46 1093.85 4528.77L1097.94 4540.05ZM1239.14 4449.91C1260.01 4424.48 1270.87 4397.33 1271.15 4370.66L1259.15 4370.54C1258.91 4393.92 1249.39 4418.51 1229.86 4442.29L1239.14 4449.91ZM1237.06 4292.32C1227.64 4282.77 1216.32 4273.9 1203.15 4265.86L1196.9 4276.1C1209.34 4283.69 1219.87 4291.97 1228.52 4300.74L1237.06 4292.32ZM1203.15 4265.86C1193.2 4259.79 1181.35 4252.32 1168.18 4243.63L1161.57 4253.64C1174.86 4262.42 1186.83 4269.96 1196.9 4276.1L1203.15 4265.86ZM1100.09 4195.35C1078.99 4179.29 1057.13 4161.51 1035.81 4142.37L1027.8 4151.3C1049.39 4170.69 1071.51 4188.68 1092.82 4204.9L1100.09 4195.35ZM976.97 4083.69C958.129 4062.51 941.126 4040.42 927.207 4017.76L916.983 4024.05C931.35 4047.43 948.807 4070.09 968.004 4091.67L976.97 4083.69ZM894.497 3942.97C887.886 3916.3 887.038 3889.51 893.7 3863.01L882.063 3860.08C874.854 3888.75 875.835 3917.56 882.85 3945.86L894.497 3942.97ZM931.348 3792.28C946.866 3773.87 967.152 3755.67 992.97 3737.92L986.172 3728.04C959.628 3746.28 938.498 3765.17 922.172 3784.55L931.348 3792.28ZM1064.7 3696.89C1076.68 3691.11 1089.36 3685.4 1102.79 3679.77L1098.16 3668.71C1084.54 3674.41 1071.66 3680.21 1059.48 3686.09L1064.7 3696.89ZM1102.79 3679.77C1115.78 3674.33 1128.27 3668.69 1140.26 3662.87L1135.01 3652.07C1123.23 3657.8 1110.95 3663.35 1098.16 3668.71L1102.79 3679.77ZM1210.99 3622.6C1234.95 3606.6 1256.1 3589.6 1274.51 3571.74L1266.15 3563.12C1248.3 3580.44 1227.73 3596.99 1204.32 3612.63L1210.99 3622.6ZM1326.42 3508.37C1341.59 3484.33 1352.78 3459.26 1360.17 3433.45L1348.63 3430.15C1341.57 3454.84 1330.85 3478.87 1316.28 3501.97L1326.42 3508.37ZM1371.09 3352.11C1370.88 3325.35 1367.12 3298.21 1360.03 3270.96L1348.42 3273.98C1355.28 3300.35 1358.89 3326.51 1359.09 3352.21L1371.09 3352.11ZM1331.58 3194.38C1320.19 3170.76 1306.45 3147.23 1290.49 3123.97L1280.59 3130.76C1296.24 3153.56 1309.66 3176.56 1320.77 3199.59L1331.58 3194.38ZM1240.23 3059.81C1222.86 3040.13 1203.9 3020.78 1183.44 3001.85L1175.29 3010.66C1195.47 3029.33 1214.15 3048.4 1231.24 3067.75L1240.23 3059.81ZM1121.44 2949.4C1100.59 2933.22 1078.59 2917.46 1055.49 2902.21L1048.88 2912.22C1071.73 2927.31 1093.48 2942.89 1114.09 2958.88L1121.44 2949.4ZM986.195 2859.85C963.162 2846.83 939.259 2834.29 914.532 2822.31L909.299 2833.11C933.801 2844.98 957.48 2857.4 980.289 2870.3L986.195 2859.85ZM840.57 2789.17C815.964 2779 790.674 2769.37 764.739 2760.33L760.788 2771.66C786.512 2780.63 811.591 2790.18 835.987 2800.26L840.57 2789.17ZM687.596 2735.75C662.033 2728.35 635.93 2721.52 609.316 2715.3L606.584 2726.98C632.996 2733.16 658.898 2739.94 684.26 2747.28L687.596 2735.75ZM530.055 2698.87C516.793 2696.47 503.42 2694.22 489.94 2692.12L488.095 2703.97C501.477 2706.06 514.751 2708.29 527.916 2710.68L530.055 2698.87ZM489.94 2692.12C476.015 2689.95 462.347 2687.29 448.947 2684.17L446.224 2695.86C459.915 2699.05 473.876 2701.76 488.095 2703.97L489.94 2692.12ZM369.437 2659.11C343.173 2648.53 318.272 2636.07 294.863 2621.99L288.676 2632.27C312.627 2646.68 338.099 2659.43 364.955 2670.24L369.437 2659.11ZM227.233 2573.42C205.765 2555.17 186.142 2535.39 168.52 2514.39L159.329 2522.11C177.384 2543.62 197.483 2563.88 219.46 2582.56L227.233 2573.42ZM120.748 2446.25C106.725 2421.93 95.0955 2396.63 86.0382 2370.73L74.7107 2374.69C84.0206 2401.31 95.9656 2427.29 110.352 2452.24L120.748 2446.25ZM66.5574 2290.06C62.8275 2262.56 62.0077 2234.81 64.2915 2207.21L52.3324 2206.23C49.9744 2234.72 50.8233 2263.34 54.6663 2291.67L66.5574 2290.06ZM80.3971 2126.03C88.6427 2100.28 99.9086 2075.01 114.376 2050.54L104.047 2044.43C89.123 2069.67 77.4883 2095.77 68.9687 2122.37L80.3971 2126.03ZM163.835 1983.98C181.713 1964.39 202.13 1945.64 225.21 1927.96L217.913 1918.43C194.293 1936.52 173.347 1955.75 154.971 1975.89L163.835 1983.98ZM295.07 1882.46C318.344 1869.56 343.532 1857.55 370.703 1846.56L366.201 1835.44C338.604 1846.6 312.976 1858.82 289.255 1871.96L295.07 1882.46ZM449.574 1819.25C462.821 1815.36 476.446 1811.69 490.454 1808.23L487.58 1796.58C473.408 1800.08 459.615 1803.8 446.196 1807.74L449.574 1819.25ZM490.454 1808.23C504.04 1804.88 517.652 1801.2 531.27 1797.2L527.892 1785.69C514.434 1789.64 500.991 1793.27 487.58 1796.58L490.454 1808.23ZM611.517 1770.14C637.689 1760.18 663.744 1749.2 689.538 1737.31L684.513 1726.41C658.957 1738.19 633.156 1749.07 607.252 1758.92L611.517 1770.14ZM765.221 1699.46C790.064 1686.05 814.517 1671.89 838.439 1657.09L832.126 1646.88C808.401 1661.56 784.154 1675.61 759.523 1688.89L765.221 1699.46ZM909.039 1610.5C932.377 1594.1 955.011 1577.15 976.791 1559.8L969.312 1550.41C947.724 1567.62 925.283 1584.42 902.139 1600.68L909.039 1610.5ZM1041.25 1504.96C1062.64 1485.51 1082.86 1465.73 1101.73 1445.8L1093.01 1437.55C1074.37 1457.25 1054.36 1476.82 1033.18 1496.09L1041.25 1504.96ZM1157.3 1381.6C1175.65 1358.21 1191.88 1334.84 1205.71 1311.75L1195.41 1305.59C1181.88 1328.2 1165.93 1351.15 1147.86 1374.19L1157.3 1381.6ZM1242.82 1235C1253.3 1205.9 1259.05 1177.65 1259.23 1150.91L1247.23 1150.83C1247.06 1175.93 1241.66 1202.81 1231.53 1230.94L1242.82 1235ZM1237.44 1067.29C1223.73 1044.4 1203.41 1024.22 1175.96 1007.32L1169.67 1017.54C1195.71 1033.57 1214.56 1052.44 1227.14 1073.46L1237.44 1067.29ZM1097.44 973.72C1072.62 966.477 1044.72 960.717 1013.55 956.585L1011.97 968.481C1042.63 972.546 1069.93 978.193 1094.07 985.239L1097.44 973.72ZM929.79 949.769C915.869 949.256 901.453 948.995 886.532 948.995V960.995C901.313 960.995 915.582 961.253 929.348 961.761L929.79 949.769ZM886.532 948.995C873.123 948.995 859.02 948.903 844.32 948.692L844.147 960.69C858.908 960.903 873.068 960.995 886.532 960.995V948.995ZM759.509 946.225C732.278 945.023 703.897 943.367 674.792 941.135L673.875 953.1C703.12 955.343 731.631 957.007 758.98 958.213L759.509 946.225ZM590.448 933.135C562.616 929.961 534.516 926.198 506.483 921.751L504.603 933.603C532.826 938.08 561.101 941.866 589.088 945.057L590.448 933.135ZM423.243 906.331C395.341 900.355 367.862 893.583 341.15 885.918L337.841 897.453C364.845 905.201 392.593 912.038 420.73 918.065L423.243 906.331ZM261.16 859.182C234.121 848.681 208.453 837.006 184.597 824.035L178.865 834.577C203.233 847.827 229.374 859.711 256.816 870.368L261.16 859.182ZM114.785 777.796C92.4871 759.606 73.2261 739.577 57.6264 717.533L47.831 724.464C64.1426 747.515 84.1846 768.32 107.2 787.095L114.785 777.796ZM21.8698 643.241C18.1869 630.219 15.5422 616.633 14.0197 602.458L2.08832 603.74C3.68181 618.576 6.4535 632.825 10.3226 646.507L21.8698 643.241ZM14.0197 602.458C12.4637 587.971 11.8251 573.725 12.0407 559.736L0.0421238 559.551C-0.181091 574.032 0.480198 588.767 2.08832 603.74L14.0197 602.458ZM24.0184 475.492C31.5744 447.838 42.4858 421.469 56.1556 396.541L45.6336 390.771C31.5422 416.469 20.2627 443.709 12.4427 472.329L24.0184 475.492ZM104.831 326.243C123.258 304.539 143.801 284.415 165.867 266.029L158.185 256.81C135.628 275.605 114.588 296.211 95.6832 318.477L104.831 326.243ZM235.906 216.319C260.741 201.366 286.507 188.374 312.573 177.503L307.954 166.428C281.35 177.523 255.059 190.78 229.716 206.039L235.906 216.319ZM394.115 150.66C423.107 143.65 451.611 139.492 478.758 138.385L478.269 126.395C450.254 127.538 420.967 131.821 391.294 138.996L394.115 150.66ZM563.208 146.3C577.322 149.93 590.531 154.777 602.654 160.871L608.044 150.149C595.078 143.632 581.054 138.499 566.197 134.678L563.208 146.3ZM602.245 160.645C614.466 168.031 626.579 175.172 638.584 182.074L644.565 171.67C632.637 164.813 620.599 157.716 608.453 150.375L602.245 160.645ZM711.296 221.688C736.73 234.768 761.619 246.743 785.944 257.67L790.861 246.724C766.734 235.886 742.035 224.003 716.784 211.016L711.296 221.688ZM862.562 289.409C889.527 299.616 915.696 308.481 941.039 316.097L944.492 304.605C919.427 297.072 893.522 288.297 866.81 278.186L862.562 289.409ZM1021.04 336.699C1049.85 342.829 1077.37 347.237 1103.54 350.095L1104.84 338.165C1079.09 335.354 1051.97 331.012 1023.54 324.962L1021.04 336.699ZM1186.24 354.098C1216.44 353.576 1244.25 350.726 1269.54 345.925L1267.3 334.136C1242.74 338.799 1215.61 341.588 1186.03 342.1L1186.24 354.098ZM1349.62 320.763C1378.55 307.133 1401.39 289.963 1417.47 270.508L1408.23 262.862C1393.47 280.705 1372.16 296.877 1344.5 309.908L1349.62 320.763ZM1444.62 189.885C1442.37 163.675 1430.06 137.459 1407.59 113.355L1398.82 121.537C1419.81 144.062 1430.69 167.854 1432.67 190.911L1444.62 189.885ZM1340.03 63.5594C1317.83 51.8547 1292 41.3204 1262.44 32.3494L1258.96 43.8322C1287.89 52.6118 1312.99 62.8708 1334.43 74.1743L1340.03 63.5594ZM1181.15 13.4817C1155.68 9.13817 1128.25 5.74641 1098.84 3.45135L1097.9 15.415C1126.99 17.6838 1154.05 21.0331 1179.13 25.311L1181.15 13.4817ZM1016.18 0.0364614C1002.44 -0.0653872 988.346 0.0452943 973.896 0.379068L974.173 12.3759C988.504 12.0448 1002.47 11.9352 1016.09 12.0361L1016.18 0.0364614Z" fill="#305964"/>
</svg>
