<svg xmlns="http://www.w3.org/2000/svg" xmlns:xlink="http://www.w3.org/1999/xlink" viewBox="0 0 1316.68 944.35"><defs><style>.cls-1{fill:#c13950;}.cls-2{fill:#df4f50;}.cls-3{fill:url(#linear-gradient);}.cls-4{fill:#fabe0a;}.cls-19,.cls-5{fill:none;}.cls-5{stroke:#000;stroke-linecap:round;stroke-miterlimit:10;stroke-width:4px;}.cls-17,.cls-6{fill:#53003b;}.cls-6{opacity:0.31;}.cls-7{fill:#d58400;}.cls-8{fill:#a85a35;}.cls-9{fill:#5fe3f3;}.cls-10{fill:#fff;}.cls-11{fill:#2d9aea;}.cls-12{fill:#e72250;}.cls-13{fill:#f8d13d;}.cls-14{fill:#f8d963;}.cls-15{fill:#d88e20;}.cls-16{opacity:0.3;}.cls-18{fill:url(#radial-gradient);}.cls-20{fill:#bc3b20;fill-rule:evenodd;}.cls-21{fill:#b21f00;}.cls-22{fill:#fa940a;}.cls-23{fill:#2dacea;}.cls-24{fill:url(#linear-gradient-2);}.cls-25{fill:#ffe59e;}.cls-26{fill:#577cd0;}.cls-27{fill:#cf3f50;}.cls-28{fill:#e85859;}.cls-29{fill:url(#linear-gradient-3);}.cls-30{fill:url(#linear-gradient-4);}.cls-31{fill:#ffb4c1;}.cls-32{fill:#faa00a;}.cls-33{fill:#a5312e;}.cls-34{fill:#5374ea;}.cls-35{fill:#fad787;}</style><linearGradient id="linear-gradient" x1="990" y1="41.71" x2="826.43" y2="370.35" gradientUnits="userSpaceOnUse"><stop offset="0" stop-color="#df4f50"/><stop offset="0.17" stop-color="#da4d50"/><stop offset="0.37" stop-color="#cc494e"/><stop offset="0.59" stop-color="#b4424c"/><stop offset="0.81" stop-color="#943748"/><stop offset="1" stop-color="#732d45"/></linearGradient><radialGradient id="radial-gradient" cx="292.49" cy="856.51" r="321.89" gradientUnits="userSpaceOnUse"><stop offset="0" stop-color="#ffd388"/><stop offset="1" stop-color="#df8720"/></radialGradient><linearGradient id="linear-gradient-2" x1="289" y1="538.85" x2="47.43" y2="830.31" gradientUnits="userSpaceOnUse"><stop offset="0" stop-color="#fabe0a"/><stop offset="0.27" stop-color="#fabb0a"/><stop offset="0.49" stop-color="#fab10a"/><stop offset="0.69" stop-color="#faa00a"/><stop offset="0.88" stop-color="#fa880a"/><stop offset="1" stop-color="#fa750a"/></linearGradient><linearGradient id="linear-gradient-3" x1="999.04" y1="448.04" x2="1227.44" y2="802.69" gradientUnits="userSpaceOnUse"><stop offset="0" stop-color="#2dacea"/><stop offset="0.53" stop-color="#2da9e5"/><stop offset="1" stop-color="#2ca2db"/></linearGradient><linearGradient id="linear-gradient-4" x1="998.61" y1="447.97" x2="1227.01" y2="802.62" gradientUnits="userSpaceOnUse"><stop offset="0" stop-color="#2dacea"/><stop offset="0.18" stop-color="#2da7e6"/><stop offset="0.4" stop-color="#2d98d9"/><stop offset="0.64" stop-color="#2d7fc4"/><stop offset="0.9" stop-color="#2d5da7"/><stop offset="1" stop-color="#2d4d99"/></linearGradient></defs><g id="Layer_2" data-name="Layer 2"><g id="RED"><path class="cls-1" d="M1040.7,241.53s62,35.94,101.35-29.37c24.57-40.85,9-59.81-6.08-68.28-9.5-5.33-20.79-3.88-26.24,3.09-9,11.51-30.4,27-31,51.79Z"/><path class="cls-2" d="M1088,213.82c0,92.45-82.18,167.41-183.55,167.41s-183.55-75-183.55-167.41S803.11,46.41,904.48,46.41c15.34,0,77.69-1.65,128.88,48.21C1041.29,102.35,1088,149,1088,213.82Z"/><path class="cls-3" d="M1087.31,215c0,92.46-82.18,167.41-183.55,167.41S720.21,307.44,720.21,215,802.39,47.57,903.76,47.57c15.34,0,77.69-1.65,128.88,48.21C1040.57,103.51,1087.31,150.13,1087.31,215Z"/><path class="cls-4" d="M880.84,254.27s60.76,14.75,81,25.16,66.82,34.05,109.17,4.77c0,0-47.48,101.71-134.18,91.95S880.84,254.27,880.84,254.27Z"/><path class="cls-4" d="M923.76,0c-22.75,0-33.2,56.92-33.2,56.92s33.82,21.47,56,24.08,42.43-13.67,42.43-13.67C980.33,51.72,946.51,0,923.76,0Z"/><ellipse cx="883.19" cy="116.85" rx="25.68" ry="10.9" transform="translate(365.35 841.77) rotate(-62)"/><path class="cls-5" d="M877.44,161.45s34.67,32.52,70.75,1.29c0,0,11.24,50.33,64.94,41.65"/><path class="cls-6" d="M997.48,143.14s.29,42.78,22,44.52,68.17,16.19,68.17,16.19c-3.36-17.62-2.48-25.16-13.23-51.83l-76.92-8.88"/><path class="cls-7" d="M1082.54,49l55.09-19.73s19.73-18,34.7-1.52c0,0,38.17,14.53,39.32,57s-4.34,58.41-23.13,73.45c0,0-3.76,9.25-14.75,4.63l-69.68,14.45s-10.25-2.34-21.53-15.06c-1.08,1-20-14.77-25.46-36.69-2.84-11.4,5.79-26.07,5.8-37.44C1062.92,64.8,1075.37,50.15,1082.54,49Z"/><ellipse class="cls-7" cx="1018.87" cy="140.27" rx="22.17" ry="42.1" transform="translate(-4.34 244.31) rotate(-13.64)"/><path class="cls-8" d="M1063.3,78.35c-16.52,10.44-43.74,19.77-47.48,21.25,0,0-19.17,41.79,18.56,77.79,0,0,50.3-11.69,50.31-13C1084.71,162.13,1059.39,146.88,1063.3,78.35Z"/><path class="cls-9" d="M1172.33,27.73s-46.56-11.5-36.44,64.26,52.63,66.22,52.63,66.22c6-1.36,21.74-23.13,17.64-69.11C1201.92,41.51,1173.43,27.6,1172.33,27.73Z"/><ellipse class="cls-9" cx="1173.68" cy="93.3" rx="34.37" ry="70.47" transform="translate(-3.3 124.21) rotate(-6.05)"/><path class="cls-8" d="M1144.09,96.23c-4.2-33.92,7-64.14,26-75.09a32.58,32.58,0,0,0-13.22-1.31c-26.35,2.93-43.61,38.43-38.55,79.27s30.52,71.58,56.87,68.65a32.11,32.11,0,0,0,12.54-4.19C1166.57,157.09,1148.29,130.16,1144.09,96.23Z"/><path class="cls-8" d="M1202.51,93c-.86-34.18-20.82-62.4-41.24-70.43a32.34,32.34,0,0,1,12.88-3.25c26.49-1,48.8,31.56,49.83,72.71s-19.61,75.3-46.1,76.29a32,32,0,0,1-13-2.29C1184.83,156.47,1203.36,127.14,1202.51,93Z"/><path class="cls-10" d="M1170.64,37.4s14.95,8.83,17.1,26.17C1187.74,63.57,1178,56.92,1170.64,37.4Z"/><path class="cls-10" d="M1158.09,117.55s.88,13.88,14.06,25.26C1172.15,142.81,1170.83,133.25,1158.09,117.55Z"/><path class="cls-10" d="M1188.66,66.57a12.74,12.74,0,0,1,1.68,10S1188.41,73.43,1188.66,66.57Z"/></g><g id="Delta"><polygon class="cls-11" points="585.65 37.4 809.61 454.01 642.15 435.14 565 306.3 317.57 650.47 248.75 515.06 585.65 37.4"/><polygon class="cls-12" points="317.57 650.47 565 306.3 642.15 435.14 565 550.91 1032.15 604.74 954.39 723.33 317.57 650.47"/><polygon class="cls-13" points="585.65 37.4 737.03 55.75 1032.15 604.74 565 550.91 642.15 435.14 809.61 454.01 585.65 37.4"/><polygon class="cls-14" points="585.65 37.4 624.48 7.87 777 25.33 737.03 55.75 585.65 37.4"/><polygon class="cls-15" points="737.03 55.75 777 25.33 1071.93 574.3 1032.15 604.74 737.03 55.75"/><polygon class="cls-15" points="1032.15 604.74 954.39 723.33 1007.01 685.08 1071.93 574.3 1032.15 604.74"/></g><g id="shsading_copy_2" data-name="shsading copy 2" class="cls-16"><path class="cls-17" d="M890.56,56.92s47.17,52.34,67.71,47.14,30.67-36.73,30.67-36.73-17.66,14.45-38.48,14S890.56,56.92,890.56,56.92Z"/><path class="cls-17" d="M1010.75,423s32.23,29,60.31,28.33c48.5-1.15,37.28-21.83,37.28-21.83s-31.69,9.5-60.13,4.07C1020,428.19,1010.75,423,1010.75,423Z"/><path class="cls-17" d="M1158.21,589c-29.78,25.81-59.56,0-59.56,0s4.48,26.46,29.78,25.81C1154.84,614.11,1158.21,589,1158.21,589Z"/><path class="cls-17" d="M236.75,622.73s36.94,41,55.52,34.92c18.29-6,21.93-13.48,21.93-13.48s-14.95,2.4-38.73-2.52A89.35,89.35,0,0,1,236.75,622.73Z"/><path class="cls-17" d="M1032.15,338.31s-65.21-41.95-152-121l85,158.16S999.76,371.38,1032.15,338.31Z"/><path class="cls-17" d="M996.72,142.81s6.93,33.23,26,38.3c7.63,2,12.51-3.82,12.51-3.82l49.44-12.92s8,9.61,19.4,12.92c.31.1,55.74-11.58,55.74-11.58a43.62,43.62,0,0,0,28.81.28c15.12-5.4,37.84-32.92,35.23-77,0,0-10,45.73-21.36,4,0,0,1.6,41.05-26.08,65.13,3.12,1.29-27-12.75-32.71-65.25,0,0-8.49,30.15-25.39,6.25,0,0-19,7.56-53.36,21.1-7,8.29-24.9,25.53-51.84,20.46C1013.13,140.66,1014.8,178.66,996.72,142.81Z"/></g><g id="YELLOW"><g id="map"><path class="cls-18" d="M53.08,834.16l28.17,46.43L109,884.06l-28,19.51,8.44,21.69,1.31,14.31L109,944.35c89.1-34.69,236.19-44.67,330.51-62.46l-27.33-15.62L432.14,868l38.61,12.58,61.15-15.18-23-7.81-20-19.52-16.48-7.14c-15.52-6.46-13.43-5.53-29.93-5.44-16.15-8.33-51.34-24.63-68.53-29.92l-46.84-26.9L107.71,809.31C95,815,65.38,828.21,53.08,834.16Z"/><path class="cls-19" d="M132.87,797.1c-3.46,1.75-6.91,3.52-10.37,5.58-1.72,1-3.46,2.11-5.19,3.18s-3.46,2.29-5.21,3.59l-1.3.95c-.42.3-.93.72-1.39,1.07L108,812.59c-.48.39-.87.68-1.57,1.33l-3.78,3.39-3.5,3.63a48.75,48.75,0,0,0-10,16.52l47.11,10.16,2.35-1.79c1-.74,2.1-1.46,3.17-2.19s2.27-1.45,3.5-2.14c2.38-1.42,5-2.75,7.57-4.07Z"/><path class="cls-20" d="M119.14,834.89l-3.65-2.72a39.67,39.67,0,0,0-5.32,6.56l4.44,1.52A35.21,35.21,0,0,1,119.14,834.89Z"/><path class="cls-20" d="M129.31,826.81l-2.49-3.74c-1.08.71-2.16,1.44-3.2,2.22s-2.11,1.58-3.15,2.4l2.86,3.48c1-.76,1.92-1.52,2.94-2.24S128.28,827.5,129.31,826.81Z"/><path class="cls-20" d="M140.83,820.08l-2.08-4c-2.27,1.19-4.53,2.43-6.75,3.74l2.29,3.87Q137.5,821.8,140.83,820.08Z"/><path class="cls-19" d="M89.12,837.46a35.89,35.89,0,0,0,6.18,35.18,50,50,0,0,0,15,12.31l2.19,1.24,2.29,1.08,2.31,1.07,1.15.54.28.12.2.08.41.17,3.25,1.26c.57.23,1,.38,1.55.55l1.5.51,14.3-42.66-3.54-1.29h0Z"/><path class="cls-20" d="M123.81,864.89l-2.65,3.69c.63.33,1.25.67,1.89,1l2,.87c1.32.63,2.51,1,3.76,1.53l1.59-4.21c-1.14-.45-2.33-.86-3.37-1.35l-1.6-.72C124.85,865.43,124.33,865.16,123.81,864.89Z"/><path class="cls-20" d="M114,857.2l-4.4,1.89a27.37,27.37,0,0,0,5.89,5.93l3.58-3A22.54,22.54,0,0,1,114,857.2Z"/><path class="cls-20" d="M112.08,845.29l-4.76-.45a16.41,16.41,0,0,0-.4,8.26l4.73-.88A13.07,13.07,0,0,1,112.08,845.29Z"/><path class="cls-19" d="M125.47,891.57c1,.33,2,.69,3,1l1.87.56h0s0,0,0,0l.6.26c1.06.48,2.06.85,3.1,1.26a116.35,116.35,0,0,0,12.06,3.91,148.56,148.56,0,0,0,23.72,4.17L174,857.9c-2.79-.28-5.57-.63-8.32-1.11s-5.43-1.07-8-1.75a73.87,73.87,0,0,1-7.31-2.36c-.54-.22-1.14-.42-1.62-.66l-1.7-.75-1.17-.51-1.22-.37-3-.88c-.66-.18-1.25-.4-1.86-.6Z"/><path class="cls-20" d="M161.73,877.32l-.78,4.43,3.82.62c1.27.17,2.55.36,3.83.5l.52-4.47c-1.23-.14-2.47-.32-3.7-.48Z"/><path class="cls-20" d="M148.74,874.22l-1.32,4.31c1.24.38,2.49.72,3.74,1.07s2.5.65,3.77.92l1-4.38c-1.21-.27-2.41-.6-3.62-.89S149.92,874.59,148.74,874.22Z"/><path class="cls-20" d="M136,869.65,134.73,874l1.74.51a8.63,8.63,0,0,1,1.53.59c1.11.51,2.4,1,3.6,1.48l1.6-4.2c-1.16-.46-2.27-.89-3.44-1.42A22.63,22.63,0,0,0,136,869.65Z"/><path class="cls-19" d="M169.84,902.7A144.75,144.75,0,0,0,194,903a118.11,118.11,0,0,0,24.78-4.45l-12.9-43.11c-9.36,2.81-20.68,3.52-31.82,2.5Z"/><polygon class="cls-20" points="201.73 877.78 202.49 882.22 206.32 881.48 210.12 880.58 208.99 876.23 205.38 877.08 201.73 877.78"/><path class="cls-20" d="M188.45,879.15l.19,4.49c1.29,0,2.58-.1,3.87-.22s2.58-.2,3.87-.36l-.5-4.47c-1.23.15-2.47.25-3.71.34S189.69,879.1,188.45,879.15Z"/><path class="cls-20" d="M175.12,879l-.31,4.49q3.85.25,7.73.3l0-4.5C180.09,879.22,177.6,879.13,175.12,879Z"/><path class="cls-19" d="M218.74,898.51a95.89,95.89,0,0,0,12.48-4.7l1.55-.71,1.54-.79c1-.53,2.05-1,3.06-1.61,2-1.21,4-2.35,6-3.75s3.88-2.81,5.77-4.33c.94-.75,1.83-1.61,2.74-2.42s1.8-1.64,2.64-2.55l2.55-2.68,2.5-3c.51-.64,1-1.25,1.54-2l1.35-2.2,1.14-1.93a18.08,18.08,0,0,0,1-1.85l-40-20.51a1.69,1.69,0,0,1-.22.39l-.17.26s.08,0,0,0l-.73.91c-.33.33-.65.66-1,1a27.93,27.93,0,0,1-4.47,3.72c-.8.6-1.75,1.09-2.63,1.65l-1.45.75-.72.39-.77.34a49.24,49.24,0,0,1-6.57,2.46Z"/><path class="cls-20" d="M237.09,861l3.19,3.18a42.78,42.78,0,0,0,5.24-6.25l-3.78-2.45A37.92,37.92,0,0,1,237.09,861Z"/><path class="cls-20" d="M226.69,869,229,872.9l1.7-1c.56-.35,1.1-.74,1.65-1.11l1.64-1.13,1.57-1.23-2.8-3.53L231.3,866l-1.51,1c-.51.34-1,.7-1.52,1Z"/><path class="cls-20" d="M214.71,874.5l1.46,4.26a74.17,74.17,0,0,0,7.3-2.94l-1.91-4.08A66.65,66.65,0,0,1,214.71,874.5Z"/><path class="cls-19" d="M264.59,864a57.26,57.26,0,0,0,5.31-15.65,111.71,111.71,0,0,0,1.47-12.56,43.22,43.22,0,0,1,.84-6.7,12.38,12.38,0,0,1,1.28-3.24l-38.86-22.69a57.56,57.56,0,0,0-6.22,15.62,85,85,0,0,0-1.89,13.47,72.41,72.41,0,0,1-.82,7.66,12,12,0,0,1-1.15,3.58Z"/><path class="cls-20" d="M248.68,824l4.39,1a13.94,13.94,0,0,1,.43-1.69l.48-1.66.63-1.61a11.06,11.06,0,0,1,.68-1.58l-4.07-1.92a15.39,15.39,0,0,0-.79,1.82l-.71,1.85-.56,1.89A19.06,19.06,0,0,0,248.68,824Z"/><path class="cls-20" d="M247.06,837.65l4.48.4c.23-2.56.37-5.08.64-7.48l-4.47-.49C247.42,832.65,247.28,835.16,247.06,837.65Z"/><path class="cls-20" d="M244.38,850.37l4.17,1.67a36.81,36.81,0,0,0,1.3-3.88c.17-.66.36-1.31.52-2l.38-2-4.43-.8L246,845.2l-.47,1.75A34.21,34.21,0,0,1,244.38,850.37Z"/><path class="cls-19" d="M273.49,825.87a18.3,18.3,0,0,1,6.53-6.28,43.09,43.09,0,0,1,12.37-4.71l-10.23-43.82a87.72,87.72,0,0,0-25.43,10,63.3,63.3,0,0,0-22.1,22.09Z"/><path class="cls-20" d="M276.6,794.57l1.62,4.19c2.25-.86,4.56-1.6,6.9-2.24l-1.18-4.34A73.92,73.92,0,0,0,276.6,794.57Z"/><path class="cls-20" d="M264.31,801.13l2.63,3.65A44.48,44.48,0,0,1,273,801.1l-2-4A47.74,47.74,0,0,0,264.31,801.13Z"/><path class="cls-20" d="M254.41,811l3.68,2.59a39.6,39.6,0,0,1,4.57-5.29l-3.11-3.25A44.26,44.26,0,0,0,254.41,811Z"/><path class="cls-19" d="M322.64,852.8c1.53-3,3.07-6.09,4.69-8.91.79-1.45,1.62-2.77,2.42-4.15s1.65-2.61,2.48-3.79a49.67,49.67,0,0,1,4.8-6.08,15,15,0,0,1,3.18-2.71l-21.29-39.64a52.07,52.07,0,0,0-8.17,5.48L309,794.45l-1.58,1.46c-1.09,1-2,2-3,2.93a94.21,94.21,0,0,0-9.29,11.61c-1.35,1.92-2.52,3.8-3.72,5.7s-2.28,3.76-3.3,5.62c-2.13,3.74-4,7.44-5.86,11.14Z"/><path class="cls-20" d="M319.28,813.58l3.28,3.07a37.24,37.24,0,0,1,5.84-5.16l-2.58-3.69A41.12,41.12,0,0,0,319.28,813.58Z"/><path class="cls-20" d="M310,825.85l3.81,2.41c1.44-2.33,3-4.56,4.62-6.73l-3.58-2.72C313.18,821.1,311.54,823.44,310,825.85Z"/><path class="cls-20" d="M302.59,839.06l4,2.05c1.26-2.46,2.56-4.9,3.93-7.29l-3.92-2.22C305.2,834.06,303.87,836.55,302.59,839.06Z"/><path class="cls-19" d="M340.21,827.16a.08.08,0,0,0,.07,0s0,0,0,0h0s0,0,0,0,0,0,0,0l.24,0a1.12,1.12,0,0,1,.35.07c.23,0,.59.17.94.25l.61.22a6.1,6.1,0,0,1,.68.26,56.35,56.35,0,0,1,7.21,3.63c2.78,1.59,5.81,3.47,9,5.46l23.72-38.23c-3.22-2-6.59-4.1-10.37-6.27a101.18,101.18,0,0,0-13.05-6.44c-.63-.26-1.28-.51-2-.75s-1.36-.48-2.07-.71c-1.46-.44-2.89-.88-4.51-1.24-.78-.19-1.57-.37-2.43-.51s-1.65-.3-2.55-.41-1.85-.2-2.77-.28-1.88-.08-2.82-.1a43.64,43.64,0,0,0-11.21,1.32c-.92.21-1.82.51-2.72.79s-1.79.59-2.66.95-1.76.71-2.6,1.1-1.64.81-2.46,1.24Z"/><path class="cls-20" d="M362,810.48l-2.23,3.92c2.39,1.35,4.76,2.79,7.13,4.26l2.37-3.83C366.84,813.35,364.43,811.89,362,810.48Z"/><path class="cls-20" d="M347.89,804.16l-1.21,4.33a46,46,0,0,1,7.35,2.88l2-4.06A51,51,0,0,0,347.89,804.16Z"/><path class="cls-20" d="M332.15,804.42l1.52,4.23a19.11,19.11,0,0,1,7.19-1.12L341,803A23.34,23.34,0,0,0,332.15,804.42Z"/><path class="cls-19" d="M359.39,837.06c6.4,4,13.46,8.34,21.13,12.28a143.62,143.62,0,0,0,24.76,10.13l12.92-43.1a99.33,99.33,0,0,1-17.09-7c-5.76-3-11.59-6.52-18-10.51Z"/><path class="cls-20" d="M401.3,832.49l-1.74,4.15c2.66,1.09,5.34,2.13,8.07,3l1.43-4.27C406.43,834.54,403.86,833.53,401.3,832.49Z"/><path class="cls-20" d="M387.88,826l-2.16,3.95c2.51,1.36,5,2.68,7.62,3.91l1.94-4.05C392.78,828.59,390.32,827.31,387.88,826Z"/><path class="cls-20" d="M375,818.4l-2.36,3.82c2.39,1.48,4.8,3,7.25,4.39l2.28-3.88C379.76,821.32,377.38,819.86,375,818.4Z"/><path class="cls-19" d="M405.28,859.47a123.76,123.76,0,0,0,27.17,4.95,134.15,134.15,0,0,0,27.24-1l-6.22-44.57a81.61,81.61,0,0,1-35.27-2.46Z"/><path class="cls-20" d="M444.81,840.55l.17,4.5q4.31-.16,8.6-.64l-.5-4.47Q449,840.39,444.81,840.55Z"/><path class="cls-20" d="M430,840l-.5,4.48c2.87.29,5.75.52,8.63.57l.12-4.49C435.48,840.52,432.73,840.31,430,840Z"/><path class="cls-20" d="M415.45,837.31l-1.15,4.36c1.39.37,2.8.69,4.21,1s2.81.61,4.24.84l.79-4.44c-1.37-.21-2.71-.53-4.06-.79S416.79,837.68,415.45,837.31Z"/><path class="cls-21" d="M316.13,846a25.13,25.13,0,0,1-.76,6.18,34.85,34.85,0,0,1-1.79,5.34,37.71,37.71,0,0,1-5.57,9,38.6,38.6,0,0,1-7.81,7.19,34.5,34.5,0,0,1-4.89,2.78,24.85,24.85,0,0,1-5.91,1.94l-.61-.5L292,873.8l3.25-4.12c2.18-2.75,4.41-5.45,6.61-8.18s4.48-5.39,6.75-8.06l3.43-4,3.49-3.94Z"/><path class="cls-21" d="M286.18,852.11a35.53,35.53,0,0,1,12,2.84,50.34,50.34,0,0,1,10.06,5.62,51.52,51.52,0,0,1,8.58,7.69,35.92,35.92,0,0,1,6.62,10.45l-.41.57-4.76-3.19-4.7-3.27-9.39-6.56L295,859.52l-4.62-3.38-4.57-3.46Z"/></g><g id="shsading_copy" data-name="shsading copy" class="cls-16"><path class="cls-17" d="M75.61,823.72s8.12,20.32,24.44,25.2c18.36,5.5,31,2.82,46.2-3.14s70.57,6.2,87.68,4c24.91-3.18,42.07-10.81,63.76-18.63,0,0,19.88,11.69,40.8,9,18.2-2.37,26.86-7.8,24.69-21.41s-14.31-18.81-14.31-18.81L245.2,804.59l-137.49,4.72Z"/></g><g id="yellow-2" data-name="yellow"><path class="cls-22" d="M357.54,746.13c39.29,79-43.42,112.5-59.85,59Z"/><path class="cls-12" d="M352.77,772.71c10.61-3.44,17.35-9.71,20.72-17,17-37-1.61-32.42-2.07-32Z"/><path class="cls-23" d="M57.07,590c15.6-79.27,34.48-72.08,94-35.56Z"/><path class="cls-23" d="M272.53,545.74c-20.35-73-57.61-48.31-82.84-8.24Z"/><path class="cls-4" d="M356.89,600.83c-71.49-97.08-191-75-239.85-46.31a156.37,156.37,0,0,0-24.8,18.74c-23.39,8.26-56.7,13.48-82.12-8.87,0,0-22.77,25.38,0,125.57l.34.18C-11.69,738.79,21.78,785.83,69.21,758c-3.37,59.59,42.43,96.83,91.5,63.93,55.36,15.69,127.92,12.54,174.06-28.48C378.06,747.61,394.15,670,356.89,600.83Z"/><path class="cls-24" d="M357.06,601c-71.49-97.08-191-75-239.85-46.31a156.6,156.6,0,0,0-24.8,18.75c-23.4,8.26-56.7,13.48-82.12-8.87,0,0-22.77,25.37,0,125.57l.33.17C-11.52,738.93,22,786,69.37,758.09c-3.36,59.6,42.44,96.84,91.5,63.94,55.37,15.69,127.93,12.54,174.07-28.48C378.22,747.75,394.32,670.09,357.06,601Z"/><path class="cls-23" d="M236.75,622.73c36.77-70.9,84.88-62.61,77.45,21.44C314.2,644.17,269.25,650.39,236.75,622.73Z"/><path class="cls-12" d="M168.24,750.42c-5,40.22-47.83,35.52-44-4.83C129.25,705.37,172.09,710.07,168.24,750.42Z"/><path d="M218.66,734.33c-13,33.9-39.23,24.14-26.91-10C204.73,690.42,231,700.19,218.66,734.33Z"/><path d="M334.25,723.58c14.44,33.31-11.44,44.83-26.53,11.82C293.28,702.1,319.16,690.57,334.25,723.58Z"/><path class="cls-25" d="M55,764.72s-20.13-42-18-43.75c29.9-48,33.4,33,32.2,37A42.69,42.69,0,0,1,55,764.72Z"/><path class="cls-25" d="M177.94,809.31l-17.23,12.58c54.51,19.75,118.23,1.08,120.52.68C239.25,823,197,824.55,177.94,809.31Z"/><path class="cls-5" d="M194,779.41s56.82,29.5,129.69-3"/></g><ellipse class="cls-10" cx="206.6" cy="710.74" rx="4.58" ry="2.89" transform="translate(-533.28 690.41) rotate(-72.22)"/><ellipse class="cls-10" cx="311.93" cy="711.65" rx="4.58" ry="2.89" transform="matrix(0.31, -0.95, 0.95, 0.31, -460.98, 791.33)"/></g><g id="BLUE"><path class="cls-26" d="M928.77,648.25c-19.58,109.54,88.85,125,93.69,49.16C1024.48,644.49,928.77,648.25,928.77,648.25Z"/><path class="cls-27" d="M913.59,515.85c-51.22-26.64-43.55,57-12.18,57.22Z"/><path class="cls-28" d="M1154.53,443.17c83.82-31.92,115,5.63,67,84.14Z"/><path class="cls-28" d="M1239.33,551.82c33.26-8.86,71.61,21.33,34.26,50.31Z"/><path class="cls-29" d="M1316.68,617.09c-1.92,3.9-81.08-50.63-100-130.55h0c-14.37-39.42-83.22-76.59-127.87-86.1C931.06,359.71,841.44,557.4,929.43,662c3,8.64,66.61,68.53,119.61,61-5,11.79-9.44,24.54-7.79,30.19,3.33,11.35,75.82,51.57,120.31-33.58a317.43,317.43,0,0,0,39-5.72c33.19,43.33,107.67,25.93,84.72-40.44A107.33,107.33,0,0,0,1316.68,617.09Z"/><path class="cls-30" d="M1316.25,617c-1.92,3.9-81.08-50.63-100-130.55h0c-14.37-39.42-83.21-76.59-127.86-86.1C930.63,359.64,841,557.33,929,661.92c3,8.64,66.61,68.53,119.61,61-5,11.79-9.44,24.54-7.79,30.19,3.32,11.35,75.82,51.57,120.31-33.58a317.43,317.43,0,0,0,39-5.72c33.18,43.33,107.67,25.93,84.71-40.44A107.28,107.28,0,0,0,1316.25,617Z"/><path class="cls-25" d="M925.35,656.48s60.38,37,114.31,30.23c0,0,26.3,5.65,9.38,36.31C1027.81,727.84,963.76,713.89,925.35,656.48Z"/><path class="cls-25" d="M1161.25,720.54c-2.86-.41,11.57-9.54,11.28-27.18h23.13s6.07,16.19,6.65,19.66S1187.86,724.3,1161.25,720.54Z"/><path class="cls-25" d="M1266.51,652.59s46.41-15.26,50.17-35.5c0,0-5.79,38.39-31.35,56.38Z"/><path class="cls-28" d="M1159.52,578c-.77,49.07-61.41,49.07-62.17,0C1098.12,528.91,1158.75,528.92,1159.52,578Z"/><path class="cls-27" d="M909.11,540.68s67.37,48.58,166,30.36C1088,630.28,967.66,683.4,923,600.25,927.93,580.48,916.57,554.77,909.11,540.68Z"/><path class="cls-28" d="M1010.75,423c25.08-48.63,91.8-74.14,97.59,6.5C1073.29,439.22,1040.63,436.32,1010.75,423Z"/><path d="M1083.18,517.43c5.25,31.19-22.06,36.12-28,5.06C1049.88,491.3,1077.2,486.37,1083.18,517.43Z"/><path d="M940.43,494c-10.24,22.5-29.44,13.85-19.35-8.72S950.51,471.43,940.43,494Z"/><path class="cls-31" d="M923,600.25s19.37-23,63.9-16.43a349.11,349.11,0,0,1,80.62,22.56S1044,645.46,990,643.17C939.18,641,923,600.25,923,600.25Z"/><ellipse class="cls-10" cx="932.39" cy="479.82" rx="4.58" ry="2.89" transform="translate(190.74 1221.12) rotate(-72.22)"/><ellipse class="cls-10" cx="1064.24" cy="504.97" rx="4.58" ry="2.89" transform="translate(258.37 1364.15) rotate(-72.22)"/><ellipse class="cls-10" cx="890.56" cy="100.73" rx="4.58" ry="2.89" transform="translate(522.66 917.98) rotate(-72.22)"/></g><g id="yellow_lines" data-name="yellow lines"><path class="cls-32" d="M355.62,765.65a61.47,61.47,0,0,1-9.88,19,87.29,87.29,0,0,1-14.83,15.66,91.5,91.5,0,0,1-18.14,11.61,87.47,87.47,0,0,1-9.91,4.14l-1.26.45-1.29.37c-.86.24-1.72.49-2.58.7-1.73.47-3.46.88-5.19,1.27h0a.16.16,0,0,1-.18-.12.17.17,0,0,1,.09-.17l4.91-1.94,2.45-1,1.23-.49,1.19-.57,4.75-2.28c.79-.39,1.6-.72,2.36-1.17l2.29-1.3c1.53-.88,3.07-1.73,4.57-2.62l4.4-2.92c.72-.49,1.48-.94,2.17-1.48l2.1-1.59,2.09-1.6c.71-.53,1.4-1.06,2.05-1.65l4-3.42c1.29-1.19,2.54-2.43,3.81-3.64s2.42-2.54,3.64-3.81,2.33-2.63,3.45-4a83.67,83.67,0,0,0,11.43-17.64.16.16,0,0,1,.2-.07.15.15,0,0,1,.08.18Z"/><path class="cls-32" d="M237.92,498.94a25.69,25.69,0,0,1,12.64,4.68,43.1,43.1,0,0,1,9.84,9.46,57.17,57.17,0,0,1,3.83,5.69c1.15,2,2.16,4,3.13,6.08A96.89,96.89,0,0,1,272,537.67l-1.32-1.33a126.52,126.52,0,0,1,14.1,4.84q3.44,1.38,6.81,2.93c2.24,1,4.45,2.15,6.64,3.29a169.38,169.38,0,0,1,25,16,148,148,0,0,1,21.6,20.42,139.83,139.83,0,0,1,16.68,24.66,136.92,136.92,0,0,1,11,27.62l1,3.59c.3,1.2.53,2.42.8,3.63.56,2.41.92,4.86,1.37,7.29.74,4.89,1.35,9.8,1.65,14.72.2,2.46.23,4.93.34,7.39s.1,4.92,0,7.38-.09,4.91-.3,7.37c-.09,1.22-.15,2.45-.27,3.67l-.37,3.66a206.81,206.81,0,0,1-5.09,28.9h0a.15.15,0,0,1-.19.11.17.17,0,0,1-.11-.18c3.88-19.09,5.63-38.71,4-58.14a138.52,138.52,0,0,0-53.73-99.91,167.51,167.51,0,0,0-24.44-15.94q-6.45-3.43-13.17-6.32a124.18,124.18,0,0,0-13.71-5,.23.23,0,0,1-.15-.15c-2.29-8.59-5.6-17-10.75-24.32a42.05,42.05,0,0,0-9.24-9.54,26,26,0,0,0-12.13-5.1h0a.15.15,0,0,1-.13-.16A.16.16,0,0,1,237.92,498.94Z"/><path class="cls-32" d="M53.23,702.64a26.56,26.56,0,0,1,6.2,5.91c.92,1.11,1.67,2.32,2.5,3.5s1.43,2.49,2.15,3.74,1.25,2.58,1.83,3.89,1,2.68,1.53,4a16.6,16.6,0,0,1,.64,2l.58,2.07.56,2.07.45,2.09a81.19,81.19,0,0,1,1.59,16.93c-.06,2.82-.31,5.64-.54,8.44-.44,2.79-.87,5.57-1.52,8.32v0a.15.15,0,0,1-.18.11.14.14,0,0,1-.11-.15l.24-8.31c-.08-2.77-.11-5.54-.24-8.31a112.29,112.29,0,0,0-2.17-16.44,78.93,78.93,0,0,0-4.82-15.84c-.59-1.25-1.15-2.52-1.78-3.75s-1.28-2.45-2.05-3.6a33.06,33.06,0,0,0-5-6.52.15.15,0,0,1,0-.21.14.14,0,0,1,.18,0Z"/><path class="cls-32" d="M160.76,821.75q7.44,2,15,3.42c5,1,10,1.81,15,2.52s10,1.29,15.1,1.62,10.09.64,15.13.68a215.42,215.42,0,0,0,30.24-1.68,248.61,248.61,0,0,0,30-5.88h0a.15.15,0,0,1,.09.29,163.91,163.91,0,0,1-29.7,7.93c-5.06.85-10.16,1.44-15.27,1.86s-10.25.54-15.38.49a191.52,191.52,0,0,1-30.61-3c-5.05-.91-10.07-2-15-3.31A138.8,138.8,0,0,1,160.65,822a.16.16,0,0,1-.09-.2.17.17,0,0,1,.18-.09Z"/></g><g id="red_lines" data-name="red lines"><path class="cls-33" d="M1081.88,172.77c3.28,8.39,4.86,17.35,5.74,26.29l.32,3.37.15,3.37.14,3.38c0,1.12,0,2.25,0,3.38s0,2.25,0,3.38,0,2.25-.12,3.37l-.39,6.75c-.23,2.24-.52,4.47-.78,6.71-.13,1.11-.25,2.23-.4,3.35s-.36,2.22-.57,3.33l-1.23,6.63c-.5,2.19-1,4.37-1.59,6.55l-.82,3.27c-.3,1.08-.64,2.15-1,3.22l-2.06,6.4c-.34,1.07-.75,2.12-1.17,3.16s-.82,2.08-1.26,3.12q-1.26,3.1-2.63,6.17h0a.14.14,0,0,1-.19.08.16.16,0,0,1-.09-.18l2-6.38,1-3.19c.33-1.06.65-2.12.9-3.2l1.63-6.47c.26-1.07.55-2.15.8-3.23l.65-3.27,1.32-6.53,1-6.58.5-3.29c.14-1.1.24-2.21.36-3.31.23-2.21.5-4.42.69-6.63a200.26,200.26,0,0,0,.52-26.61,134.33,134.33,0,0,0-3.66-26.34.15.15,0,0,1,.11-.18.16.16,0,0,1,.18.09Z"/></g><g id="blue_lines" data-name="blue lines"><path class="cls-34" d="M900.78,606.85A197.55,197.55,0,0,0,915,636.49c2.79,4.69,5.63,9.34,8.76,13.8s6.34,8.85,9.79,13.05c1.68,2.14,3.46,4.19,5.23,6.26.89,1,1.83,2,2.74,3s1.85,2,2.79,3c3.68,4,7.72,7.68,11.7,11.41A276.27,276.27,0,0,0,982,707.32h0a.14.14,0,0,1,0,.2.15.15,0,0,1-.2.05,183.09,183.09,0,0,1-27.3-18.77,171.61,171.61,0,0,1-41.58-51.2q-3.9-7.32-7.09-15a120.93,120.93,0,0,1-5.34-15.7.14.14,0,0,1,.1-.18.15.15,0,0,1,.18.09Z"/><path class="cls-34" d="M1157.29,690.05c4.73.25,9.32.33,13.91.42,2.3,0,4.58.09,6.87,0s4.57,0,6.86-.06l3.43,0c1.15,0,2.29-.11,3.44-.11s2.29,0,3.44-.07,2.3-.08,3.46-.09,2.3-.08,3.46-.1l3.5,0c2.33,0,4.67-.1,7.07.07h0a.16.16,0,0,1,.14.16.17.17,0,0,1-.12.14c-2.3.39-4.6.82-6.9,1.19s-4.62.7-6.94.92-4.64.51-7,.63-4.66.26-7,.34a130.71,130.71,0,0,1-14-.6,77.93,77.93,0,0,1-13.79-2.49.15.15,0,0,1-.1-.18.16.16,0,0,1,.15-.11Z"/></g><g id="shsading" class="cls-16"><path class="cls-17" d="M890.56,56.92s47.17,52.34,67.71,47.14,30.67-36.73,30.67-36.73-17.66,14.45-38.48,14S890.56,56.92,890.56,56.92Z"/><path class="cls-17" d="M1010.75,423s32.23,29,60.31,28.33c48.5-1.15,37.28-21.83,37.28-21.83s-31.69,9.5-60.13,4.07C1020,428.19,1010.75,423,1010.75,423Z"/><path class="cls-17" d="M1158.21,589c-29.78,25.81-59.56,0-59.56,0s4.48,26.46,29.78,25.81C1154.84,614.11,1158.21,589,1158.21,589Z"/><path class="cls-17" d="M236.75,622.73s36.94,41,55.52,34.92c18.29-6,21.93-13.48,21.93-13.48s-14.95,2.4-38.73-2.52A89.35,89.35,0,0,1,236.75,622.73Z"/><path class="cls-17" d="M1032.15,338.31s-65.21-41.95-152-121l85,158.16S999.76,371.38,1032.15,338.31Z"/><path class="cls-17" d="M996.72,142.81s6.93,33.23,26,38.3c7.63,2,12.51-3.82,12.51-3.82l49.44-12.92s8,9.61,19.4,12.92c.31.1,55.74-11.58,55.74-11.58a43.62,43.62,0,0,0,28.81.28c15.12-5.4,37.84-32.92,35.23-77,0,0-10,45.73-21.36,4,0,0,1.6,41.05-26.08,65.13,3.12,1.29-27-12.75-32.71-65.25,0,0-8.49,30.15-25.39,6.25,0,0-19,7.56-53.36,21.1-7,8.29-24.9,25.53-51.84,20.46C1013.13,140.66,1014.8,178.66,996.72,142.81Z"/></g><g id="sand"><path class="cls-35" d="M424.67,669.75s43.75-36.2,74.55-30.75,52.2,5.77,52.2,5.77l20.82,5.7a87.27,87.27,0,0,0,19.52-7.2c37.62-19,29.28-.1,45.54-2.78,0,0,7-6.71,27.23,4.18,5.84,3.14,14.59,18.23,14.59,18.23l30.79,6.85,22.69,9.42s33.85,1.25,39.33,8.82,8.47-3.28,20.05,3.46,26.52,15.37,26.52,15.37,10.33-4.35,14.62-3.7,9.87,3.7,9.87,3.7l53,17.08Z"/></g></g></svg>