<svg width="26" height="18" viewBox="0 0 26 18" fill="none" xmlns="http://www.w3.org/2000/svg">
<path d="M24.12 7.2H1.08C0.0863999 7.2 0 8.0046 0 9C0 9.9954 0.0863999 10.8 1.08 10.8H24.12C25.1136 10.8 25.2 9.9954 25.2 9C25.2 8.0046 25.1136 7.2 24.12 7.2ZM24.12 14.4H1.08C0.0863999 14.4 0 15.2046 0 16.2C0 17.1954 0.0863999 18 1.08 18H24.12C25.1136 18 25.2 17.1954 25.2 16.2C25.2 15.2046 25.1136 14.4 24.12 14.4ZM1.08 3.6H24.12C25.1136 3.6 25.2 2.7954 25.2 1.8C25.2 0.8046 25.1136 0 24.12 0H1.08C0.0863999 0 0 0.8046 0 1.8C0 2.7954 0.0863999 3.6 1.08 3.6Z" fill="white"/>
</svg>
