<svg width="20" height="20" viewBox="0 0 20 20" fill="none" xmlns="http://www.w3.org/2000/svg">
<path fill-rule="evenodd" clip-rule="evenodd" d="M0.531756 0.55507C0.872341 0.214213 1.33421 0.0227305 1.8158 0.0227305C2.29739 0.0227305 2.75926 0.214213 3.09984 0.55507L9.98865 7.45143L16.8774 0.55507C17.045 0.381415 17.2454 0.242902 17.467 0.147612C17.6886 0.0523234 17.9269 0.0021665 18.168 6.86492e-05C18.4092 -0.0020292 18.6483 0.0439735 18.8715 0.135393C19.0947 0.226813 19.2975 0.361819 19.4681 0.532533C19.6386 0.703247 19.7734 0.90625 19.8648 1.1297C19.9561 1.35315 20.002 1.59256 19.9999 1.83398C19.9978 2.0754 19.9477 2.31398 19.8525 2.5358C19.7574 2.75763 19.619 2.95826 19.4455 3.12598L12.5567 10.0223L19.4455 16.9187C19.7764 17.2616 19.9594 17.7209 19.9553 18.1976C19.9512 18.6743 19.7602 19.1304 19.4234 19.4675C19.0867 19.8046 18.6312 19.9958 18.155 19.9999C17.6788 20.0041 17.22 19.8208 16.8774 19.4896L9.98865 12.5932L3.09984 19.4896C2.75731 19.8208 2.29853 20.0041 1.82234 19.9999C1.34614 19.9958 0.890615 19.8046 0.553879 19.4675C0.217143 19.1304 0.026136 18.6743 0.0219979 18.1976C0.0178599 17.7209 0.200922 17.2616 0.531756 16.9187L7.42056 10.0223L0.531756 3.12598C0.191273 2.78502 0 2.32264 0 1.84052C0 1.35841 0.191273 0.896029 0.531756 0.55507Z" fill="white"/>
</svg>
