<svg width="200" height="200" viewBox="0 0 200 200" fill="none" xmlns="http://www.w3.org/2000/svg">
<path d="M5 48C46.3694 48 46.3694 48 54.5196 51.6515C54.5997 51.6871 54.6798 51.7227 54.7623 51.7594C58.2848 53.3388 61.6571 55.6798 63.952 58.7057C64.0232 58.796 64.0947 58.8862 64.1662 58.9764C66.8425 62.3895 68.3348 66.5236 68.7555 70.7392C68.7653 70.8361 68.775 70.933 68.7851 71.0329C69.2906 76.9678 67.5167 83.0316 63.4744 87.6249C63.2591 87.8644 63.0388 88.0994 62.8166 88.333C62.7683 88.384 62.72 88.435 62.6702 88.4876C61.612 89.6001 60.4867 90.5742 59.2358 91.4866C59.0899 91.5969 58.9443 91.7074 58.7991 91.8186C58.8547 91.8369 58.9104 91.8551 58.9677 91.874C62.9684 93.1964 66.6872 94.9943 69.9782 97.5449C70.0249 97.5811 70.0717 97.6173 70.1199 97.6546C74.121 100.772 77.1596 104.716 78.9136 109.354C78.9625 109.496 78.9625 109.496 79.0611 109.578C79.0799 109.515 79.0987 109.452 79.118 109.387C80.6872 104.149 83.314 99.2248 87.2223 95.2046C87.3963 95.0234 87.5658 94.8402 87.7344 94.6545C88.0583 94.3017 88.4006 93.9692 88.75 93.6392C88.808 93.5837 88.8661 93.5282 88.9259 93.4711C89.3204 93.0969 89.7296 92.7441 90.1528 92.3995C90.242 92.3257 90.3312 92.2519 90.4203 92.1781C92.1964 90.7305 94.1326 89.492 96.179 88.416C96.244 88.3814 96.3089 88.3468 96.3758 88.3111C101.118 85.7958 106.813 84.4344 112.242 84.4156C112.355 84.4151 112.468 84.4145 112.585 84.4139C112.948 84.4122 113.311 84.4118 113.674 84.4117C113.735 84.4117 113.797 84.4117 113.861 84.4117C115.694 84.4116 117.505 84.4271 119.323 84.6815C119.447 84.6981 119.571 84.7148 119.695 84.7314C127.124 85.7422 133.874 88.688 139.827 94.6584C140 94.8629 140.178 95.0601 140.361 95.2568C142.486 97.571 144.145 100.509 145.278 103.37C145.31 103.45 145.343 103.53 145.376 103.612C145.782 104.671 146.07 105.751 146.397 106.84C146.426 87.5869 146.455 68.3341 146.485 48.4979C152.595 48.4979 158.705 48.4979 165 48.4979C165 82.0192 165 115.54 165 150.077C158.89 150.077 152.78 150.077 146.485 150.077C146.485 141.204 146.485 132.331 146.485 123.189C130.259 123.189 114.032 123.189 97.3144 123.189C97.8774 126.666 98.8216 129.943 101.42 132.557C101.579 132.718 101.725 132.883 101.872 133.054C104.857 136.279 109.766 137.641 114.123 137.932C118.927 138.204 123.901 137.43 128.231 135.388C128.31 135.352 128.389 135.315 128.47 135.277C129.791 134.661 131.109 133.975 132.255 133.091C132.424 132.981 132.424 132.981 132.686 132.981C132.843 133.137 132.843 133.137 133.024 133.36C133.349 133.751 133.683 134.131 134.028 134.506C134.426 134.94 134.82 135.376 135.21 135.816C135.502 136.145 135.796 136.472 136.092 136.799C136.468 137.215 136.842 137.633 137.214 138.053C137.508 138.383 137.804 138.712 138.1 139.04C138.477 139.456 138.85 139.874 139.223 140.293C139.476 140.577 139.73 140.86 139.986 141.142C140.16 141.335 140.334 141.529 140.508 141.723C140.63 141.858 140.754 141.992 140.877 142.126C140.95 142.206 141.022 142.287 141.097 142.37C141.162 142.44 141.226 142.51 141.293 142.583C141.419 142.774 141.419 142.774 141.421 142.945C141.297 143.17 141.139 143.282 140.928 143.438C140.84 143.504 140.752 143.569 140.662 143.637C140.614 143.672 140.567 143.707 140.518 143.743C140.37 143.854 140.225 143.968 140.081 144.082C139.177 144.794 138.215 145.41 137.227 146.011C137.169 146.046 137.11 146.082 137.05 146.119C130.039 150.342 121.638 151.68 103.52 150.689C102.488 150.466 101.471 150.203 100.459 149.911C100.382 149.89 100.305 149.868 100.227 149.845C96.341 148.718 92.682 146.884 89.5415 144.434C89.4959 144.399 89.4503 144.364 89.4034 144.327C88.7917 143.854 88.2074 143.354 87.631 142.842C87.5697 142.788 87.5084 142.733 87.4453 142.677C87.0911 142.36 86.7624 142.03 86.4454 141.679C86.2757 141.492 86.0962 141.314 85.917 141.135C84.4803 139.637 83.3285 137.9 82.2926 136.135C82.2556 136.073 82.2187 136.01 82.1807 135.946C80.7076 133.438 79.6578 130.633 78.9738 127.836C78.9497 127.904 78.9257 127.971 78.9009 128.041C78.365 129.534 77.7892 130.984 77.0524 132.401C77.017 132.469 76.9816 132.538 76.9451 132.609C75.9658 134.495 74.723 136.271 73.2969 137.878C73.1953 137.998 73.1953 137.998 73.0916 138.12C72.4884 138.821 71.8234 139.462 71.1517 140.103C71.1054 140.148 71.0591 140.192 71.0113 140.238C70.4051 140.818 69.7805 141.353 69.1048 141.861C68.9992 141.944 68.8939 142.028 68.7889 142.111C67.5053 143.119 66.097 143.984 64.6507 144.766C64.5818 144.803 64.5129 144.841 64.4419 144.879C59.685 147.444 54.4219 148.851 49.0175 149.512C48.8625 149.531 48.8625 149.531 48.7043 149.551C46.8468 149.767 44.9735 149.85 43.1042 149.907C42.8147 149.916 42.5251 149.926 42.2356 149.936C29.8519 150.335 17.306 150.077 5 150.077C5 116.392 5 82.7063 5 48ZM24.0393 61.8593C24.0393 70.6778 24.0393 79.4963 24.0393 88.582C30.3074 88.7715 30.3074 88.7715 36.7303 88.2656C36.8164 88.2513 36.9024 88.2371 36.9911 88.2224C40.8128 87.5664 44.3545 85.9065 46.6355 82.8434C48.8977 79.7171 49.4498 75.6437 48.7367 71.9671C48.1214 69.0519 46.3828 66.4665 43.772 64.8065C43.5154 64.6481 43.2543 64.4975 42.9913 64.349C42.8939 64.2936 42.7965 64.2381 42.6962 64.1811C37.2616 61.2071 29.7557 61.8593 24.0393 61.8593ZM102.467 101.777C102.402 101.833 102.336 101.889 102.269 101.947C99.9433 104.054 98.2544 107.26 97.6638 110.242C97.6638 110.324 97.6638 110.407 97.6638 110.491C108.039 110.491 118.415 110.491 129.105 110.491C128.796 107.854 127.639 105.09 125.873 103.022C125.83 102.971 125.787 102.92 125.742 102.868C123.347 100.091 119.954 98.2958 116.179 97.8768C111.018 97.3977 106.359 98.4422 102.467 101.777ZM24.0393 102.358C24.0393 113.286 24.0393 124.213 24.0393 135.471C34.2044 135.824 34.2044 135.824 44.2849 135.165C44.377 135.151 44.469 135.137 44.5638 135.123C48.5899 134.483 52.2485 133.009 55.2183 130.326C55.278 130.274 55.3377 130.223 55.3992 130.17C58.4307 127.47 59.7355 123.211 59.8663 119.381C59.9627 115.004 58.5049 111.045 55.3282 107.86C54.0862 106.647 52.5984 105.712 51.0262 104.931C50.9666 104.901 50.9069 104.871 50.8455 104.84C48.9236 103.88 46.7873 103.273 44.6507 102.939C44.5573 102.924 44.464 102.91 44.3678 102.895C37.6772 101.871 30.7225 102.358 24.0393 102.358Z" fill="white"/>
<path d="M178 49C183.94 49 189.88 49 196 49C196 82.33 196 115.66 196 150C190.06 150 184.12 150 178 150C178 116.67 178 83.34 178 49Z" fill="white"/>
</svg>
