<?xml version="1.0" encoding="UTF-8" standalone="no"?>
<!DOCTYPE svg PUBLIC "-//W3C//DTD SVG 1.1//EN" "http://www.w3.org/Graphics/SVG/1.1/DTD/svg11.dtd">
<svg xmlns="http://www.w3.org/2000/svg" version="1.1" viewBox="0.00 0.00 500.00 243.00">
<path fill="#ffffff" d="
  M 331.05 30.81
  C 330.32 25.38 332.78 19.79 338.07 18.23
  C 344.57 16.31 351.45 19.41 352.16 26.61
  Q 352.37 28.75 352.27 30.94
  A 0.53 0.53 0.0 0 0 353.09 31.41
  C 359.09 27.59 361.69 21.75 361.51 14.79
  Q 361.44 11.98 361.49 9.25
  A 0.56 0.55 0.5 0 1 362.05 8.71
  L 378.45 8.68
  Q 379.01 8.67 378.97 9.24
  C 377.69 26.39 369.07 42.40 352.81 49.38
  Q 352.27 49.62 352.27 50.21
  L 352.27 75.80
  A 0.96 0.95 -79.2 0 0 352.87 76.69
  Q 358.74 79.05 363.05 82.85
  Q 371.17 90.00 375.14 100.17
  Q 383.48 121.53 374.66 142.68
  C 370.65 152.28 362.74 161.37 352.78 165.00
  A 0.78 0.78 0.0 0 0 352.27 165.73
  L 352.27 191.53
  A 0.99 0.99 0.0 0 0 352.92 192.46
  C 358.65 194.57 363.67 198.53 367.60 203.22
  Q 377.31 214.81 379.07 232.36
  Q 379.13 233.00 378.48 233.00
  L 362.04 233.00
  Q 361.36 233.00 361.41 232.31
  C 362.06 223.43 361.29 215.46 353.14 210.30
  A 0.57 0.56 14.3 0 0 352.27 210.81
  C 352.66 216.87 351.24 221.87 344.70 223.69
  C 336.74 225.92 329.68 219.31 331.08 211.18
  A 0.65 0.64 78.2 0 0 330.09 210.53
  Q 324.54 214.18 322.87 219.82
  C 321.76 223.54 322.25 228.34 322.14 232.36
  Q 322.12 233.00 321.49 233.00
  L 305.29 233.00
  A 0.81 0.79 -87.4 0 1 304.50 232.12
  C 305.97 215.39 314.55 198.85 330.50 192.47
  A 0.80 0.79 79.1 0 0 330.99 191.73
  L 330.99 165.79
  Q 330.99 165.25 330.50 165.04
  C 309.86 156.08 301.73 132.56 305.22 111.09
  C 307.41 97.64 315.33 84.19 327.69 78.04
  Q 329.09 77.35 330.48 76.63
  Q 330.99 76.36 330.99 75.79
  L 330.99 49.79
  A 0.51 0.51 0.0 0 0 330.68 49.32
  C 314.54 42.67 305.93 26.48 304.47 9.32
  A 0.55 0.55 0.0 0 1 305.02 8.72
  L 321.53 8.69
  A 0.65 0.65 0.0 0 1 322.18 9.33
  C 322.20 13.57 321.73 18.47 323.03 22.32
  Q 324.92 27.90 330.32 31.29
  Q 331.19 31.84 331.05 30.81
  Z
  M 347.62 134.89
  C 352.09 137.54 352.29 141.62 352.31 146.73
  A 0.55 0.55 0.0 0 0 353.17 147.18
  Q 361.64 141.41 361.50 131.08
  Q 361.39 122.60 361.59 114.80
  C 361.81 105.97 360.55 99.04 352.94 94.47
  A 0.45 0.45 0.0 0 0 352.26 94.87
  C 352.35 97.61 352.45 100.66 351.05 103.10
  Q 348.07 108.36 341.64 108.30
  C 334.36 108.24 330.08 102.22 331.06 95.35
  Q 331.25 94.01 330.12 94.75
  C 324.56 98.41 322.03 103.51 322.13 110.26
  Q 322.29 120.87 322.14 130.86
  C 322.03 138.13 324.39 142.89 330.14 147.06
  A 0.53 0.52 -72.7 0 0 330.97 146.62
  C 330.91 143.96 330.84 141.60 332.12 139.11
  C 335.13 133.27 342.09 131.59 347.62 134.89
  Z"
/>
<path fill="#ffffff" d="
  M 439.08 223.55
  C 427.16 218.98 418.75 207.46 415.21 195.15
  Q 410.58 179.04 415.53 162.85
  C 419.06 151.32 427.63 139.54 439.41 135.44
  A 0.51 0.51 0.0 0 0 439.75 134.96
  L 439.75 106.78
  A 0.56 0.56 0.0 0 0 439.40 106.26
  C 417.64 97.73 409.64 70.79 414.32 50.02
  C 417.48 35.98 425.89 23.25 439.27 17.94
  Q 439.76 17.74 439.76 17.21
  L 439.78 9.29
  Q 439.78 8.73 440.34 8.71
  Q 450.53 8.49 460.47 8.77
  Q 461.16 8.79 461.15 9.48
  L 461.06 17.04
  A 1.01 1.00 12.5 0 0 461.66 17.97
  Q 471.86 22.35 478.11 31.14
  C 489.20 46.77 490.58 68.11 482.76 85.01
  Q 475.63 100.43 461.71 106.11
  Q 461.12 106.35 461.12 106.99
  L 461.13 134.74
  Q 461.13 135.23 461.55 135.47
  C 462.45 135.99 463.51 136.20 464.42 136.68
  C 475.85 142.68 483.51 154.33 486.20 166.60
  C 490.65 186.92 484.83 209.28 466.99 221.01
  C 465.22 222.18 463.28 222.69 461.47 223.70
  Q 461.05 223.94 461.06 224.42
  L 461.16 232.26
  Q 461.17 232.95 460.49 232.95
  L 440.46 232.92
  Q 439.76 232.91 439.75 232.21
  L 439.75 224.51
  Q 439.75 223.80 439.08 223.55
  Z
  M 439.80 87.62
  C 437.88 69.42 463.33 71.00 460.96 87.60
  A 0.59 0.59 0.0 0 0 461.87 88.18
  Q 470.14 82.82 469.90 72.66
  Q 469.69 63.89 469.93 53.19
  C 470.10 45.59 468.24 40.18 461.99 35.92
  A 0.67 0.66 -77.1 0 0 460.96 36.57
  C 463.43 53.15 437.80 54.75 439.81 36.41
  A 0.62 0.61 76.4 0 0 438.86 35.83
  C 432.76 39.86 430.43 45.50 430.65 52.84
  Q 430.92 61.58 430.67 71.18
  Q 430.53 76.68 431.96 80.12
  Q 434.08 85.23 438.87 88.20
  A 0.61 0.61 0.0 0 0 439.80 87.62
  Z
  M 430.68 189.12
  C 430.43 196.30 433.03 202.09 439.15 205.87
  A 0.41 0.41 0.0 0 0 439.77 205.51
  C 439.54 199.81 439.46 194.36 445.31 191.42
  C 452.70 187.70 461.31 192.76 461.13 201.37
  Q 461.09 203.25 461.02 205.10
  A 0.64 0.63 -16.1 0 0 462.01 205.64
  Q 470.15 200.22 470.01 190.08
  Q 469.85 178.95 469.94 168.02
  Q 470.02 158.85 462.08 153.49
  A 0.63 0.63 0.0 0 0 461.10 154.07
  C 461.59 159.40 457.54 164.59 451.97 165.21
  C 445.00 165.99 439.16 161.11 439.80 153.95
  A 0.62 0.61 76.6 0 0 438.86 153.37
  Q 433.69 156.64 431.65 162.42
  Q 430.47 165.75 430.68 172.61
  Q 430.94 181.23 430.68 189.12
  Z"
/>
<path fill="#ffffff" d="
  M 163.55 221.92
  Q 154.17 232.58 139.53 232.89
  C 132.50 233.04 124.85 233.41 118.29 231.19
  Q 109.63 228.26 104.25 221.81
  A 1.50 1.47 69.9 0 0 103.14 221.28
  Q 94.88 221.22 85.75 221.29
  Q 73.14 221.39 60.28 218.55
  C 27.12 211.23 8.90 184.13 12.22 150.84
  Q 13.25 140.60 18.09 131.24
  C 22.89 121.96 30.91 114.80 35.43 105.40
  Q 37.50 101.09 38.25 95.49
  Q 38.42 94.25 37.69 93.11
  Q 27.32 76.90 24.20 61.14
  Q 18.43 31.99 40.81 15.68
  Q 52.62 7.07 67.45 9.11
  C 80.17 10.86 93.16 19.04 102.13 27.86
  A 1.73 1.71 56.5 0 0 103.94 28.24
  Q 107.84 26.77 111.79 26.14
  Q 134.30 22.52 155.00 25.97
  Q 159.51 26.72 164.17 28.31
  A 1.45 1.43 -57.2 0 0 165.61 27.99
  C 174.30 19.61 185.03 12.78 196.56 9.95
  C 207.32 7.31 217.65 9.08 226.86 15.56
  C 254.98 35.36 245.34 70.01 229.86 93.64
  A 2.22 2.18 58.6 0 0 229.52 95.09
  C 230.74 105.76 236.98 113.10 243.20 121.27
  C 250.41 130.76 254.82 140.44 255.61 152.78
  Q 256.29 163.43 254.49 172.43
  C 249.66 196.64 231.68 213.24 207.94 218.50
  C 199.84 220.30 191.64 221.38 183.17 221.30
  Q 174.01 221.22 164.94 221.29
  A 1.85 1.84 20.5 0 0 163.55 221.92
  Z"
/>
</svg>
