<?xml version="1.0" encoding="UTF-8" standalone="no"?>
<!DOCTYPE svg PUBLIC "-//W3C//DTD SVG 1.1//EN" "http://www.w3.org/Graphics/SVG/1.1/DTD/svg11.dtd">
<svg xmlns="http://www.w3.org/2000/svg" version="1.1" viewBox="75.0 45.0 375.0 375.0">
<path fill="#ffffff" d="
  M 163.31 160.42
  C 171.19 167.84 183.68 167.71 191.72 160.79
  A 1.93 1.92 50.0 0 1 194.46 161.03
  Q 197.90 165.25 202.03 169.01
  Q 204.30 171.07 202.04 173.08
  Q 189.90 183.89 174.19 182.80
  Q 159.37 181.78 149.28 171.43
  C 140.35 162.27 137.18 149.89 139.57 137.43
  C 142.38 122.84 155.02 110.27 169.99 108.20
  Q 180.22 106.79 189.64 109.45
  C 194.40 110.79 198.41 114.21 202.38 117.12
  A 2.06 2.05 -47.1 0 1 202.49 120.34
  Q 198.49 123.73 195.09 127.95
  C 194.08 129.21 192.53 129.46 191.20 128.48
  C 183.20 122.56 174.57 121.23 166.19 126.77
  C 155.13 134.08 153.42 151.11 163.31 160.42
  Z"
/>
<path fill="#ffffff" d="
  M 232.24 152.22
  C 225.59 149.56 217.94 145.71 214.01 139.82
  Q 207.46 130.02 211.79 120.30
  C 214.46 114.32 220.39 109.76 227.17 108.46
  Q 243.71 105.29 257.37 115.53
  Q 259.27 116.95 257.84 118.82
  Q 254.76 122.85 252.45 126.90
  A 3.01 3.01 0.0 0 1 248.13 127.88
  C 243.70 124.81 238.50 121.59 233.17 121.84
  C 228.20 122.08 225.78 126.60 228.36 130.81
  C 229.99 133.48 234.00 135.33 236.72 136.43
  C 245.10 139.83 252.54 143.20 257.25 150.91
  C 261.05 157.12 260.64 167.33 255.92 172.92
  C 254.43 174.68 253.29 176.59 251.29 177.88
  Q 244.91 181.98 238.89 182.62
  C 229.06 183.66 218.19 181.20 210.93 174.60
  A 2.03 2.02 -53.6 0 1 210.55 172.06
  L 215.98 162.94
  A 2.07 2.07 0.0 0 1 218.96 162.31
  Q 223.69 165.66 230.50 167.64
  Q 234.69 168.86 238.30 167.11
  C 242.70 164.97 242.02 159.12 239.00 156.28
  Q 236.52 153.93 232.24 152.22
  Z"
/>
<path fill="#ffffff" d="
  M 289.29 124.47
  L 289.22 136.13
  A 0.66 0.65 -90.0 0 0 289.87 136.79
  L 314.05 136.87
  Q 315.04 136.87 315.10 137.87
  Q 315.49 145.29 315.10 151.18
  Q 315.02 152.48 313.73 152.48
  L 289.89 152.52
  Q 289.29 152.52 289.29 153.11
  L 289.25 165.44
  A 0.82 0.81 0.0 0 0 290.07 166.25
  L 319.32 166.25
  Q 320.23 166.25 320.29 167.17
  Q 320.72 173.67 320.34 180.72
  A 0.82 0.81 -8.2 0 1 319.79 181.44
  Q 318.07 182.01 316.12 182.01
  Q 296.16 182.03 275.44 181.98
  Q 272.48 181.98 272.48 179.02
  L 272.50 110.94
  Q 272.50 108.62 274.81 108.62
  L 318.81 108.58
  A 1.71 1.71 0.0 0 1 320.52 110.31
  L 320.44 122.21
  Q 320.43 123.86 318.79 123.85
  L 290.03 123.74
  Q 289.29 123.74 289.29 124.47
  Z"
/>
<rect fill="#ffffff" x="138.21" y="199.49" width="182.86" height="8.52" rx="1.80"/>
<path fill="#ffffff" d="
  M 185.57 241.26
  C 180.07 239.83 173.70 240.22 168.90 243.50
  Q 156.62 251.88 159.50 267.07
  Q 160.82 274.06 167.07 278.88
  Q 175.88 285.68 186.60 282.17
  C 189.39 281.26 191.66 279.45 194.26 278.18
  Q 195.63 277.51 196.68 278.60
  L 204.53 286.76
  A 2.21 2.20 -44.3 0 1 204.49 289.85
  C 195.15 299.16 180.88 302.22 168.36 298.54
  Q 150.40 293.28 143.22 275.72
  Q 141.25 270.90 140.93 265.09
  Q 139.99 248.09 151.58 236.22
  C 162.76 224.77 179.93 221.45 194.82 227.94
  Q 200.60 230.47 204.92 235.07
  A 1.15 1.14 -47.5 0 1 204.98 236.55
  C 202.29 239.97 199.17 242.61 196.28 245.85
  Q 195.34 246.90 194.17 246.11
  C 191.39 244.25 188.88 242.13 185.57 241.26
  Z"
/>
<path fill="#ffffff" d="
  M 221.93 279.87
  C 226.47 283.09 238.23 288.99 242.60 282.57
  C 245.63 278.11 241.70 272.70 237.59 270.87
  C 229.54 267.31 219.59 263.43 215.14 255.29
  Q 209.96 245.82 214.99 236.04
  C 218.57 229.08 226.25 225.48 233.54 224.81
  Q 245.26 223.72 257.70 231.24
  Q 261.47 233.52 259.14 237.24
  Q 256.85 240.89 253.73 244.79
  Q 252.70 246.08 251.21 245.37
  Q 249.17 244.39 247.36 243.08
  C 243.83 240.49 238.18 238.47 233.83 239.51
  C 229.73 240.50 227.72 244.37 230.59 247.98
  C 232.67 250.61 235.40 252.40 238.60 253.59
  Q 246.74 256.63 252.63 260.75
  C 256.45 263.43 259.89 267.45 261.17 272.09
  Q 263.95 282.14 258.22 290.10
  Q 251.88 298.90 239.14 299.94
  C 231.13 300.59 218.20 298.12 212.76 290.78
  A 0.94 0.93 -49.2 0 1 212.69 289.77
  L 217.57 280.88
  Q 219.19 277.93 221.93 279.87
  Z"
/>
<path fill="#ffffff" d="
  M 301.23 242.45
  L 301.23 297.27
  A 1.61 1.61 0.0 0 1 299.62 298.88
  L 286.11 298.93
  A 1.61 1.61 0.0 0 1 284.49 297.31
  L 284.52 242.38
  A 1.61 1.61 0.0 0 0 282.90 240.77
  L 268.73 240.89
  A 1.61 1.61 0.0 0 1 267.11 239.28
  L 267.08 227.37
  A 1.61 1.61 0.0 0 1 268.69 225.75
  L 316.29 225.60
  A 1.61 1.61 0.0 0 1 317.90 227.17
  L 318.14 239.32
  A 1.61 1.61 0.0 0 1 316.51 240.96
  L 302.86 240.84
  A 1.61 1.61 0.0 0 0 301.23 242.45
  Z"
/>
<path fill="#ffffff" d="
  M 194.68 364.26
  Q 194.94 364.45 194.77 364.72
  Q 191.73 369.59 189.38 370.62
  Q 185.50 372.32 180.60 371.38
  C 169.97 369.34 167.44 356.44 173.10 348.74
  C 174.41 346.95 176.61 345.84 178.61 344.84
  Q 184.05 342.10 189.92 344.40
  C 190.90 344.78 191.78 344.77 192.81 344.72
  A 0.52 0.51 -4.0 0 1 193.36 345.19
  L 193.93 352.32
  Q 193.96 352.65 193.64 352.74
  L 193.34 352.83
  Q 193.29 352.85 193.26 352.80
  Q 192.03 350.90 191.40 348.87
  C 190.29 345.33 185.32 344.30 182.30 345.32
  Q 179.14 346.40 177.67 348.97
  Q 173.29 356.61 176.87 364.79
  C 179.31 370.36 185.51 372.82 190.41 368.38
  Q 191.71 367.20 193.62 363.98
  Q 193.82 363.65 194.14 363.87
  L 194.68 364.26
  Z"
/>
<path fill="#ffffff" d="
  M 265.03 354.23
  Q 264.91 351.29 265.00 348.03
  C 265.04 346.58 263.85 345.65 262.57 345.31
  Q 261.02 344.90 262.60 344.67
  Q 265.00 344.32 267.35 344.64
  Q 268.05 344.73 268.05 345.43
  Q 268.00 355.38 267.93 365.93
  C 267.91 367.84 268.73 369.47 270.25 370.60
  A 0.40 0.40 0.0 0 1 270.11 371.31
  Q 267.15 372.04 264.76 371.21
  Q 264.20 371.02 263.63 371.15
  C 259.88 371.97 255.40 372.26 252.89 368.92
  Q 249.19 364.00 252.20 358.08
  C 254.64 353.28 259.41 353.06 264.16 354.86
  Q 265.07 355.20 265.03 354.23
  Z
  M 259.6991 370.6499
  A 7.82 5.21 90.3 0 0 264.9499 362.8573
  A 7.82 5.21 90.3 0 0 259.7809 355.0101
  A 7.82 5.21 90.3 0 0 254.5301 362.8027
  A 7.82 5.21 90.3 0 0 259.6991 370.6499
  Z"
/>
<path fill="#ffffff" d="
  M 275.02 349.28
  L 274.83 351.09
  Q 274.62 353.04 272.66 353.02
  L 272.14 353.01
  Q 270.05 352.98 270.12 350.89
  L 270.27 345.74
  Q 270.29 345.20 270.76 344.96
  Q 272.25 344.20 273.88 344.78
  Q 274.31 344.93 274.45 345.36
  L 275.07 347.22
  Q 275.33 348.01 276.00 347.53
  L 278.14 346.01
  Q 278.68 345.63 279.28 345.88
  Q 280.58 346.41 281.49 347.52
  A 1.12 1.11 33.6 0 1 281.70 348.55
  Q 281.16 350.36 279.36 351.37
  A 1.04 1.04 0.0 0 1 278.15 351.24
  L 275.69 349.02
  Q 275.10 348.49 275.02 349.28
  Z"
/>
<rect fill="#ffffff" x="-2.44" y="-4.23" transform="translate(285.12,348.76) rotate(-0.6)" width="4.88" height="8.46" rx="1.73"/>
<path fill="#ffffff" d="
  M 281.26 359.40
  Q 281.80 356.54 279.65 355.08
  A 2.13 2.12 -52.3 0 0 276.86 355.44
  C 275.81 356.63 274.84 359.03 272.99 358.76
  A 1.38 1.38 0.0 0 1 271.84 357.16
  C 272.77 351.96 285.08 352.93 284.93 357.19
  Q 284.74 362.80 284.84 368.15
  Q 284.89 370.54 287.45 370.36
  Q 290.20 370.16 287.70 371.32
  C 284.78 372.68 282.91 369.71 280.51 370.65
  C 278.16 371.58 273.02 372.75 271.67 369.42
  Q 270.23 365.89 272.70 363.80
  C 274.94 361.90 280.53 363.23 281.26 359.40
  Z
  M 278.59 370.46
  C 281.74 368.99 281.61 366.11 281.45 363.18
  A 0.81 0.81 0.0 0 0 280.28 362.50
  Q 277.82 363.74 275.67 365.65
  C 273.19 367.85 275.92 371.71 278.59 370.46
  Z"
/>
<path fill="#ffffff" d="
  M 212.81 370.24
  Q 214.99 370.13 214.99 367.94
  L 215.00 357.23
  A 1.22 1.19 25.3 0 0 214.71 356.45
  L 213.56 355.11
  Q 213.19 354.68 213.74 354.53
  Q 216.34 353.84 218.69 354.69
  Q 219.28 354.90 219.89 354.70
  C 223.59 353.47 230.42 352.64 230.68 358.31
  C 230.82 361.23 230.89 364.19 230.75 367.02
  Q 230.65 369.22 232.22 370.56
  Q 233.00 371.22 231.98 371.24
  L 225.50 371.37
  Q 224.49 371.39 225.27 370.74
  L 226.67 369.57
  Q 227.10 369.21 227.10 368.65
  Q 227.09 364.08 227.18 359.39
  Q 227.26 354.87 223.03 354.96
  Q 222.23 354.98 221.50 355.37
  Q 218.80 356.85 218.54 359.91
  Q 218.22 363.54 218.55 368.49
  Q 218.58 369.06 219.02 369.42
  L 220.01 370.25
  Q 221.64 371.63 219.51 371.45
  Q 214.88 371.07 210.55 371.47
  C 208.59 371.66 207.26 371.26 205.57 370.46
  A 1.36 1.36 0.0 0 0 204.38 370.48
  C 201.56 371.91 196.99 372.78 195.37 369.05
  Q 193.88 365.61 196.80 363.63
  C 198.66 362.36 200.80 362.74 202.76 361.86
  C 205.46 360.65 206.03 355.80 202.80 354.81
  A 2.47 2.46 -64.7 0 0 200.02 355.81
  L 198.36 358.30
  A 1.30 1.30 0.0 0 1 196.25 358.38
  Q 195.20 357.02 196.26 355.68
  C 198.45 352.92 208.74 352.92 208.62 357.43
  Q 208.47 362.81 208.66 367.95
  Q 208.75 370.44 211.23 370.31
  L 212.81 370.24
  Z
  M 198.01 367.68
  A 2.01 2.00 -63.7 0 0 198.52 369.21
  Q 200.69 371.59 202.96 370.07
  C 205.26 368.54 205.17 365.62 204.95 363.22
  A 0.71 0.70 74.0 0 0 203.94 362.65
  C 202.10 363.58 198.23 365.40 198.01 367.68
  Z"
/>
<path fill="#ffffff" d="
  M 247.99 370.10
  Q 249.20 370.55 250.57 370.04
  A 0.26 0.26 0.0 0 1 250.91 370.20
  L 251.00 370.49
  A 0.29 0.28 -21.8 0 1 250.84 370.85
  Q 247.41 372.37 244.49 370.47
  Q 243.96 370.12 243.36 370.33
  C 240.37 371.36 235.27 373.18 233.71 368.83
  Q 232.82 366.33 234.43 364.37
  C 235.87 362.62 238.16 362.63 240.21 362.14
  C 247.59 360.38 240.93 349.67 237.14 357.72
  Q 236.78 358.50 236.01 358.79
  Q 235.33 359.06 234.72 358.58
  A 1.23 1.21 19.1 0 1 234.26 357.65
  C 234.16 352.40 242.98 353.73 245.65 354.83
  A 1.90 1.89 10.9 0 1 246.82 356.55
  L 247.00 368.70
  A 1.53 1.52 -80.4 0 0 247.99 370.10
  Z
  M 242.18 369.42
  A 1.35 1.35 0.0 0 0 242.97 368.44
  L 243.79 364.15
  A 1.35 1.35 0.0 0 0 241.66 362.81
  L 237.26 366.01
  A 1.35 1.35 0.0 0 0 236.81 367.62
  L 237.75 369.86
  A 1.35 1.35 0.0 0 0 239.53 370.58
  L 242.18 369.42
  Z"
/>
</svg>
