<?xml version="1.0" encoding="UTF-8" standalone="no"?>
<!DOCTYPE svg PUBLIC "-//W3C//DTD SVG 1.1//EN" "http://www.w3.org/Graphics/SVG/1.1/DTD/svg11.dtd">
<svg xmlns="http://www.w3.org/2000/svg" version="1.1" viewBox="0.00 0.00 609.00 98.00">
<g stroke-width="2.00" fill="none" stroke-linecap="butt">
<path stroke="#09adf3" vector-effect="non-scaling-stroke" d="
  M 42.30 97.44
  Q 41.60 96.38 39.72 97.31"
/>
<path stroke="#09adf3" vector-effect="non-scaling-stroke" d="
  M 9.99 86.26
  L 16.95 87.20"
/>
<path stroke="#1290ce" vector-effect="non-scaling-stroke" d="
  M 16.95 87.20
  Q 25.66 88.18 33.23 83.91
  Q 33.51 83.75 33.72 83.51
  Q 33.92 83.28 34.18 83.13
  Q 42.53 78.05 45.40 69.90
  Q 46.69 66.23 48.13 62.56
  Q 49.60 58.82 50.69 55.25
  Q 53.92 44.73 58.11 34.60"
/>
<path stroke="#0982c4" vector-effect="non-scaling-stroke" d="
  M 51.43 29.89
  Q 45.96 41.31 42.15 53.42
  C 40.20 59.64 38.49 65.00 36.62 69.38
  Q 30.68 83.23 15.97 85.86
  Q 15.71 85.90 15.53 86.09
  Q 15.37 86.24 15.35 86.43
  Q 15.27 86.97 15.81 87.04
  L 16.95 87.20"
/>
</g>
<path fill="#ffffff" d="
  M 324.36 28.31
  Q 325.14 29.37 326.31 29.19
  Q 339.61 27.17 351.66 27.88
  C 364.28 28.64 367.78 36.55 367.83 47.55
  Q 367.93 67.41 367.83 88.70
  Q 367.83 90.02 366.50 90.02
  L 358.47 90.01
  A 2.34 2.33 -0.0 0 1 356.13 87.68
  Q 356.11 69.84 356.11 52.66
  Q 356.11 48.36 355.19 44.46
  C 354.01 39.46 349.41 38.03 344.77 37.83
  Q 337.06 37.50 327.86 38.62
  Q 324.02 39.09 324.02 43.01
  Q 324.00 65.91 324.01 89.21
  A 0.81 0.81 0.0 0 1 323.20 90.02
  L 313.70 90.01
  A 1.33 1.31 -0.0 0 1 312.37 88.70
  L 312.37 2.98
  Q 312.37 1.58 313.77 1.58
  L 322.57 1.53
  A 1.42 1.42 0.0 0 1 324.00 2.95
  L 324.01 27.27
  A 1.72 1.71 -63.8 0 0 324.36 28.31
  Z"
/>
<path fill="#11bbfd" d="
  M 42.30 97.44
  Q 41.60 96.38 39.72 97.31
  Q 31.80 96.70 29.25 96.28
  Q 18.18 94.47 9.99 86.26
  L 16.95 87.20
  Q 25.66 88.18 33.23 83.91
  Q 33.51 83.75 33.72 83.51
  Q 33.92 83.28 34.18 83.13
  Q 42.53 78.05 45.40 69.90
  Q 46.69 66.23 48.13 62.56
  Q 49.60 58.82 50.69 55.25
  Q 53.92 44.73 58.11 34.60
  C 67.50 13.51 89.63 1.40 112.16 6.54
  Q 122.89 8.99 132.74 18.01
  C 141.60 26.12 149.48 39.07 149.00 51.50
  C 148.29 69.62 140.07 96.48 118.06 96.93
  Q 110.05 97.10 103.25 97.29
  Q 74.82 98.07 46.25 97.57
  Q 44.18 97.53 42.30 97.44
  Z"
/>
<path fill="#ffffff" d="
  M 508.19 58.49
  C 506.49 54.92 502.94 54.33 499.29 54.35
  Q 478.73 54.47 467.86 54.30
  Q 466.52 54.27 466.13 53.07
  Q 465.81 52.10 466.25 51.06
  C 467.51 48.07 469.52 44.45 473.07 44.29
  C 482.16 43.88 491.29 43.97 500.25 44.00
  Q 504.55 44.02 506.49 39.83
  Q 509.50 33.34 507.09 26.38
  C 505.78 22.61 501.37 21.03 497.61 20.78
  Q 482.82 19.82 465.66 22.33
  A 1.72 1.71 5.0 0 1 463.78 20.10
  Q 466.60 11.53 476.15 10.38
  Q 489.84 8.74 503.47 10.11
  C 514.65 11.23 519.43 17.86 519.89 28.47
  Q 520.29 37.77 515.74 46.49
  A 2.26 2.26 0.0 0 0 515.81 48.71
  C 518.12 52.54 520.35 56.00 521.28 60.39
  C 523.42 70.55 521.44 84.07 510.52 88.35
  Q 505.45 90.34 498.59 90.83
  Q 485.45 91.78 474.19 90.45
  C 469.09 89.85 464.96 88.95 462.21 83.89
  C 461.47 82.53 460.59 81.16 460.91 79.54
  Q 461.15 78.33 462.37 78.50
  C 474.38 80.10 486.00 81.08 498.24 79.94
  C 502.01 79.58 506.70 78.14 508.39 74.45
  C 510.57 69.68 510.40 63.12 508.19 58.49
  Z"
/>
<path fill="#ffffff" d="
  M 544.30 90.37
  C 542.76 90.32 540.27 89.53 540.27 87.59
  Q 540.22 50.15 540.25 12.58
  Q 540.25 10.66 542.17 10.58
  C 555.88 10.00 568.94 9.53 582.22 10.56
  C 589.35 11.12 598.83 13.81 602.71 20.30
  Q 607.94 29.04 608.56 39.93
  C 609.57 57.61 609.27 84.23 586.86 88.86
  Q 579.12 90.46 571.80 90.57
  Q 557.90 90.77 544.30 90.37
  Z
  M 552.09 23.44
  L 551.91 76.62
  A 3.23 3.23 0.0 0 0 555.13 79.86
  L 576.80 79.94
  A 21.39 19.28 -89.8 0 0 596.15 58.62
  L 596.21 41.76
  A 21.39 19.28 -89.8 0 0 577.00 20.30
  L 555.33 20.22
  A 3.23 3.23 0.0 0 0 552.09 23.44
  Z"
/>
<path fill="#009ee8" d="
  M 51.43 29.89
  Q 45.96 41.31 42.15 53.42
  C 40.20 59.64 38.49 65.00 36.62 69.38
  Q 30.68 83.23 15.97 85.86
  Q 15.71 85.90 15.53 86.09
  Q 15.37 86.24 15.35 86.43
  Q 15.27 86.97 15.81 87.04
  L 16.95 87.20
  L 9.99 86.26
  Q 0.82 75.58 0.00 61.64
  L 0.00 60.51
  Q 0.49 57.78 0.89 55.02
  Q 1.86 48.34 5.40 42.61
  Q 15.05 26.96 32.75 25.60
  Q 42.52 24.85 51.43 29.89
  Z"
/>
<path fill="#ffffff" d="
  M 258.17 59.55
  C 258.10 71.42 259.65 79.43 273.35 80.36
  Q 284.65 81.13 294.38 79.44
  Q 299.00 78.63 297.16 82.95
  L 296.36 84.82
  Q 294.53 89.12 289.92 89.88
  Q 276.06 92.17 264.13 89.89
  Q 251.76 87.52 248.36 75.46
  Q 245.65 65.88 246.77 53.24
  C 247.85 41.05 253.40 30.29 266.63 28.18
  Q 276.39 26.62 286.78 27.63
  C 289.70 27.92 293.80 28.33 295.61 30.87
  Q 297.66 33.76 297.53 37.06
  A 1.46 1.44 3.8 0 1 295.94 38.44
  C 287.48 37.67 279.43 36.93 270.90 38.03
  C 259.43 39.51 258.22 50.38 258.17 59.55
  Z"
/>
<path fill="#ffffff" d="
  M 386.85 49.42
  C 388.75 37.42 395.07 29.78 407.41 28.03
  Q 421.87 25.98 432.44 29.26
  Q 442.01 32.23 444.63 42.90
  Q 448.99 60.59 443.85 76.18
  Q 440.07 87.64 427.64 90.32
  Q 415.55 92.92 403.84 90.36
  Q 390.51 87.45 387.45 73.91
  Q 384.82 62.25 386.85 49.42
  Z
  M 423.02 37.38
  Q 417.81 36.71 412.21 37.27
  Q 400.71 38.40 398.60 49.22
  Q 396.51 59.96 398.66 70.65
  Q 400.53 79.96 410.20 81.12
  Q 416.81 81.92 423.06 80.94
  C 428.91 80.03 432.55 76.07 433.78 70.32
  Q 435.71 61.26 434.73 52.14
  C 433.95 44.96 431.03 38.39 423.02 37.38
  Z"
/>
<path fill="#ffffff" d="
  M 187.81 64.25
  C 187.30 71.92 189.70 78.30 197.67 79.87
  Q 202.79 80.87 207.38 80.82
  Q 216.81 80.72 226.24 79.21
  Q 231.13 78.43 228.84 82.82
  Q 228.27 83.92 227.78 84.86
  Q 225.61 89.02 220.99 89.78
  Q 204.74 92.44 191.73 89.36
  C 180.57 86.71 177.06 78.10 175.98 67.87
  Q 174.47 53.60 178.07 42.76
  C 181.09 33.65 187.84 29.08 197.22 27.86
  Q 209.04 26.32 218.59 28.80
  Q 226.14 30.76 228.88 37.64
  C 231.63 44.53 231.93 51.75 231.87 59.73
  Q 231.85 62.74 228.78 62.74
  Q 208.87 62.73 189.37 62.78
  A 1.58 1.57 -88.2 0 0 187.81 64.25
  Z
  M 190.32 54.09
  L 218.20 53.61
  A 2.09 2.09 0.0 0 0 220.25 51.48
  L 220.21 48.95
  A 12.80 12.80 0.0 0 0 207.19 36.37
  L 200.73 36.49
  A 12.80 12.80 0.0 0 0 188.15 49.51
  L 188.20 52.04
  A 2.09 2.09 0.0 0 0 190.32 54.09
  Z"
/>
<path fill="#12659f" d="
  M 51.43 29.89
  Q 55.40 31.86 58.11 34.60
  Q 53.92 44.73 50.69 55.25
  Q 49.60 58.82 48.13 62.56
  Q 46.69 66.23 45.40 69.90
  Q 42.53 78.05 34.18 83.13
  Q 33.92 83.28 33.72 83.51
  Q 33.51 83.75 33.23 83.91
  Q 25.66 88.18 16.95 87.20
  L 15.81 87.04
  Q 15.27 86.97 15.35 86.43
  Q 15.37 86.24 15.53 86.09
  Q 15.71 85.90 15.97 85.86
  Q 30.68 83.23 36.62 69.38
  C 38.49 65.00 40.20 59.64 42.15 53.42
  Q 45.96 41.31 51.43 29.89
  Z"
/>
<path fill="#009ee8" d="
  M 42.30 97.44
  Q 40.89 97.72 39.72 97.31
  Q 41.60 96.38 42.30 97.44
  Z"
/>
</svg>
