<?xml version="1.0" encoding="utf-8"?>
<!-- Generator: Adobe Illustrator 26.0.3, SVG Export Plug-In . SVG Version: 6.00 Build 0)  -->
<svg version="1.0" id="Layer_1" xmlns="http://www.w3.org/2000/svg" xmlns:xlink="http://www.w3.org/1999/xlink" x="0px" y="0px"
	 viewBox="0 0 626 467.4" style="enable-background:new 0 0 626 467.4;" xml:space="preserve">
<path d="M102,243h68.1v-30H68v137h34v-48.4h58.9V272H102V243z M178.3,213v137h55.2c42.9,0,73.9-28.2,73.9-68.9
	c0-40.1-31-68.1-73.9-68.1L178.3,213z M212.3,319.4v-75.8h21.1c22.1,0,39.3,16.3,39.3,37.5c0,21.8-17.1,38.3-39.3,38.3L212.3,319.4z
	 M462.2,213h-25.3l-48.5,73.1L339.6,213h-25.2v137h34l-0.2-69.1l30.6,47.3v0.2h18.9v-0.2l30.4-46.9V350h34L462.2,213z"/>
<path d="M479.8,117.8l29,40c0.2,0.3,0.6,0.4,1,0.3l47-15.3c0.5-0.2,1,0.1,1.1,0.6c0.1,0.3,0,0.6-0.1,0.8l-29,40
	c-0.2,0.3-0.2,0.7,0,1l29,40c0.3,0.4,0.2,1-0.2,1.2c-0.2,0.2-0.5,0.2-0.8,0.1l-47-15.3c-0.4-0.1-0.8,0-1,0.3l-29,40
	c-0.3,0.4-0.8,0.5-1.2,0.2c-0.2-0.2-0.4-0.4-0.4-0.7v-49.5c0-0.4-0.3-0.7-0.6-0.8l-47-15.3c-0.5-0.1-0.7-0.6-0.6-1.1
	c0.1-0.3,0.3-0.5,0.6-0.6l47-15.3c0.4-0.1,0.6-0.5,0.6-0.8v-49.4c0-0.5,0.4-0.9,0.9-0.9C479.4,117.4,479.6,117.6,479.8,117.8"/>
</svg>
