<?xml version="1.0" encoding="UTF-8" standalone="no"?>
<!DOCTYPE svg PUBLIC "-//W3C//DTD SVG 1.1//EN" "http://www.w3.org/Graphics/SVG/1.1/DTD/svg11.dtd">
<svg xmlns="http://www.w3.org/2000/svg" version="1.1" viewBox="0.00 0.00 2519.00 832.00">
<path fill="#ffffff" d="
  M 62.14 0.00
  L 70.25 0.00
  Q 95.71 2.15 111.60 21.90
  C 120.68 33.19 124.34 46.56 123.75 61.31
  C 122.97 80.73 113.53 96.98 97.16 107.74
  Q 86.92 114.47 74.22 116.00
  C 55.96 118.21 38.38 113.30 25.33 100.55
  Q 2.97 78.70 9.01 45.32
  Q 11.23 33.01 19.65 22.37
  Q 35.82 1.91 62.14 0.00
  Z"
/>
<path fill="#ffffff" d="
  M 2452.37 0.00
  L 2460.45 0.00
  Q 2480.13 1.48 2494.13 13.87
  Q 2514.71 32.09 2513.97 60.00
  Q 2513.42 80.99 2500.85 95.82
  C 2487.50 111.55 2469.22 118.50 2448.22 116.03
  C 2423.16 113.09 2403.18 93.97 2398.88 69.62
  C 2395.64 51.24 2399.94 33.06 2412.50 19.07
  Q 2427.91 1.93 2452.37 0.00
  Z"
/>
<ellipse fill="#ffffff" cx="1183.39" cy="394.31" rx="231.00" ry="230.84"/>
<path fill="#ffffff" d="
  M 252.81 224.45
  C 285.11 186.24 333.64 167.86 383.36 167.67
  C 438.96 167.46 494.04 187.55 527.89 232.09
  Q 549.92 261.07 558.58 298.28
  C 563.19 318.12 564.82 338.41 564.80 358.95
  Q 564.69 488.70 564.77 613.92
  Q 564.77 614.63 564.06 614.63
  L 474.93 614.63
  Q 474.26 614.63 474.26 613.96
  Q 474.22 487.97 474.24 366.01
  Q 474.25 352.11 471.68 336.51
  C 466.70 306.25 452.25 280.16 426.27 263.23
  C 404.20 248.86 376.73 245.03 350.81 247.14
  C 306.63 250.75 271.65 276.40 258.76 319.44
  C 253.80 335.99 252.15 353.38 252.16 370.99
  Q 252.28 495.81 252.20 614.31
  A 0.32 0.32 0.0 0 1 251.88 614.63
  L 161.25 614.63
  A 0.38 0.38 0.0 0 1 160.87 614.25
  L 160.87 175.16
  A 0.34 0.33 0.0 0 1 161.21 174.83
  L 251.65 174.83
  Q 252.22 174.83 252.22 175.40
  L 252.22 224.23
  Q 252.22 225.15 252.81 224.45
  Z"
/>
<path fill="#ffffff" d="
  M 1813.77 549.09
  Q 1792.80 576.61 1759.51 596.27
  C 1728.50 614.57 1695.64 621.79 1660.25 621.81
  C 1613.63 621.85 1567.51 606.30 1531.69 575.79
  Q 1484.12 535.27 1464.93 474.74
  Q 1458.75 455.25 1455.98 435.68
  C 1447.38 374.87 1455.87 311.07 1489.51 259.82
  Q 1511.09 226.94 1541.35 205.59
  Q 1579.96 178.34 1624.28 170.81
  C 1665.28 163.83 1709.38 167.82 1747.16 186.08
  C 1773.77 198.94 1796.18 214.97 1813.86 238.09
  Q 1814.30 238.66 1814.30 237.94
  L 1814.30 175.26
  Q 1814.30 174.82 1814.74 174.82
  L 1906.13 174.83
  A 0.28 0.28 0.0 0 1 1906.41 175.11
  Q 1906.44 396.51 1906.40 617.99
  Q 1906.40 631.31 1906.00 637.99
  C 1902.58 695.09 1879.23 749.93 1833.99 786.06
  Q 1804.47 809.63 1768.04 820.98
  C 1732.90 831.93 1694.34 833.74 1657.31 830.17
  C 1612.71 825.87 1570.77 811.80 1535.25 784.64
  C 1500.40 757.98 1479.76 721.39 1474.59 676.65
  Q 1474.52 676.12 1475.06 676.12
  L 1564.66 676.12
  Q 1565.02 676.12 1565.12 676.47
  C 1578.45 719.49 1620.57 744.56 1663.78 750.84
  C 1694.87 755.37 1729.33 752.85 1756.78 736.84
  Q 1796.50 713.68 1808.62 668.75
  C 1812.86 653.02 1814.34 636.78 1814.31 620.28
  Q 1814.24 583.77 1814.32 549.28
  Q 1814.33 548.36 1813.77 549.09
  Z
  M 1811.58 361.85
  Q 1805.35 325.26 1781.53 294.88
  Q 1760.02 267.45 1726.00 254.71
  C 1699.05 244.62 1666.49 243.56 1638.34 253.49
  Q 1606.87 264.58 1586.21 286.09
  Q 1558.21 315.24 1550.18 355.12
  C 1544.19 384.81 1545.40 419.09 1554.79 448.40
  C 1564.55 478.90 1586.20 508.49 1614.17 524.84
  C 1669.42 557.11 1742.52 545.19 1782.01 494.05
  Q 1803.19 466.62 1810.18 433.98
  Q 1817.80 398.38 1811.58 361.85
  Z"
/>
<path fill="#ffffff" d="
  M 2048.25 224.45
  C 2076.33 191.43 2116.11 173.12 2159.26 168.68
  C 2203.59 164.12 2252.12 173.75 2288.96 199.34
  C 2339.44 234.40 2360.12 292.53 2360.16 352.95
  Q 2360.24 480.51 2360.18 614.35
  A 0.28 0.28 0.0 0 1 2359.90 614.63
  L 2270.30 614.63
  Q 2269.72 614.63 2269.72 614.04
  Q 2269.74 492.68 2269.71 368.52
  C 2269.70 338.24 2263.72 307.18 2244.69 283.88
  C 2221.12 255.03 2187.60 245.03 2151.03 246.83
  C 2105.18 249.08 2068.16 274.02 2054.43 318.72
  C 2049.03 336.31 2047.57 354.44 2047.60 373.10
  Q 2047.79 494.34 2047.65 614.21
  A 0.45 0.44 -0.0 0 1 2047.20 614.65
  L 1956.71 614.62
  Q 1956.30 614.62 1956.30 614.21
  L 1956.31 175.26
  Q 1956.31 174.82 1956.74 174.82
  L 2047.24 174.83
  A 0.41 0.41 0.0 0 1 2047.65 175.24
  L 2047.66 224.23
  Q 2047.66 225.14 2048.25 224.45
  Z"
/>
<rect fill="#ffffff" x="19.74" y="174.83" width="91.28" height="439.80" rx="0.26"/>
<path fill="#ffffff" d="
  M 603.34 400.43
  C 600.81 311.48 652.73 229.44 734.11 193.39
  C 763.33 180.45 793.82 174.67 825.74 174.70
  Q 916.96 174.79 1002.24 174.72
  Q 1003.06 174.72 1002.39 175.20
  Q 956.89 207.54 927.61 255.13
  A 0.99 0.99 0.0 0 1 926.77 255.60
  Q 879.74 255.68 832.75 255.60
  Q 818.37 255.58 812.77 256.01
  Q 769.90 259.29 736.74 285.56
  C 680.87 329.83 667.38 409.25 705.71 469.40
  C 728.87 505.74 767.40 529.33 810.53 533.15
  Q 818.04 533.82 829.95 533.78
  Q 879.18 533.62 927.81 533.76
  Q 928.30 533.76 928.56 534.18
  Q 958.41 581.95 1004.55 614.08
  Q 1005.22 614.55 1004.40 614.55
  Q 910.97 614.51 824.75 614.57
  C 798.56 614.59 773.45 610.62 748.52 601.71
  C 693.64 582.12 650.08 541.60 624.92 489.99
  Q 604.71 448.54 603.34 400.43
  Z"
/>
<path fill="#ffffff" d="
  M 2501.22 175.15
  L 2501.22 614.31
  A 0.32 0.32 0.0 0 1 2500.90 614.63
  L 2410.19 614.63
  A 0.32 0.32 0.0 0 1 2409.87 614.31
  L 2409.87 175.15
  A 0.32 0.32 0.0 0 1 2410.19 174.83
  L 2500.90 174.83
  A 0.32 0.32 0.0 0 1 2501.22 175.15
  Z"
/>
</svg>
