<svg width="148" height="31" viewBox="0 0 148 31" fill="none" xmlns="http://www.w3.org/2000/svg">
<path d="M47.9176 24V6.54545H50.5511V21.733H58.4602V24H47.9176ZM66.7741 24.2642C65.5469 24.2642 64.4759 23.983 63.5611 23.4205C62.6463 22.858 61.9361 22.071 61.4304 21.0597C60.9247 20.0483 60.6719 18.8665 60.6719 17.5142C60.6719 16.1562 60.9247 14.9687 61.4304 13.9517C61.9361 12.9347 62.6463 12.1449 63.5611 11.5824C64.4759 11.0199 65.5469 10.7386 66.7741 10.7386C68.0014 10.7386 69.0724 11.0199 69.9872 11.5824C70.902 12.1449 71.6122 12.9347 72.1179 13.9517C72.6236 14.9687 72.8764 16.1562 72.8764 17.5142C72.8764 18.8665 72.6236 20.0483 72.1179 21.0597C71.6122 22.071 70.902 22.858 69.9872 23.4205C69.0724 23.983 68.0014 24.2642 66.7741 24.2642ZM66.7827 22.125C67.5781 22.125 68.2372 21.9148 68.7599 21.4943C69.2827 21.0739 69.669 20.5142 69.919 19.8153C70.1747 19.1165 70.3026 18.3466 70.3026 17.5057C70.3026 16.6705 70.1747 15.9034 69.919 15.2045C69.669 14.5 69.2827 13.9347 68.7599 13.5085C68.2372 13.0824 67.5781 12.8693 66.7827 12.8693C65.9815 12.8693 65.3168 13.0824 64.7884 13.5085C64.2656 13.9347 63.8764 14.5 63.6207 15.2045C63.3707 15.9034 63.2457 16.6705 63.2457 17.5057C63.2457 18.3466 63.3707 19.1165 63.6207 19.8153C63.8764 20.5142 64.2656 21.0739 64.7884 21.4943C65.3168 21.9148 65.9815 22.125 66.7827 22.125ZM81.2095 29.1818C80.1697 29.1818 79.2749 29.0455 78.5249 28.7727C77.7805 28.5 77.1726 28.1392 76.701 27.6903C76.2294 27.2415 75.8771 26.75 75.6442 26.2159L77.8345 25.3125C77.9879 25.5625 78.1925 25.8267 78.4482 26.1051C78.7095 26.3892 79.0618 26.6307 79.505 26.8295C79.9538 27.0284 80.5305 27.1278 81.2351 27.1278C82.201 27.1278 82.9993 26.892 83.63 26.4205C84.2607 25.9545 84.576 25.2102 84.576 24.1875V21.6136H84.4141C84.2607 21.892 84.0391 22.2017 83.7493 22.5426C83.4652 22.8835 83.0732 23.179 82.5732 23.429C82.0732 23.679 81.4226 23.804 80.6214 23.804C79.5874 23.804 78.6555 23.5625 77.826 23.0795C77.0021 22.5909 76.3487 21.8722 75.8658 20.9233C75.3885 19.9687 75.1499 18.7955 75.1499 17.4034C75.1499 16.0114 75.3857 14.8182 75.8572 13.8239C76.3345 12.8295 76.9879 12.0682 77.8175 11.5398C78.647 11.0057 79.5874 10.7386 80.6385 10.7386C81.451 10.7386 82.1072 10.875 82.6072 11.1477C83.1072 11.4148 83.4964 11.7273 83.7749 12.0852C84.0589 12.4432 84.2777 12.7585 84.4311 13.0312H84.6186V10.9091H87.1158V24.2898C87.1158 25.4148 86.8544 26.3381 86.3317 27.0597C85.8089 27.7813 85.1016 28.3153 84.2095 28.6619C83.3232 29.0085 82.3232 29.1818 81.2095 29.1818ZM81.1839 21.6903C81.9169 21.6903 82.5362 21.5199 83.0419 21.179C83.5533 20.8324 83.9396 20.3381 84.201 19.696C84.468 19.0483 84.6016 18.2727 84.6016 17.3693C84.6016 16.4886 84.4709 15.7131 84.2095 15.0426C83.9482 14.3722 83.5646 13.8494 83.0589 13.4744C82.5533 13.0937 81.9283 12.9034 81.1839 12.9034C80.4169 12.9034 79.7777 13.1023 79.2663 13.5C78.755 13.892 78.3686 14.4261 78.1072 15.1023C77.8516 15.7784 77.7237 16.5341 77.7237 17.3693C77.7237 18.2273 77.8544 18.9801 78.1158 19.6278C78.3771 20.2756 78.7635 20.7812 79.2749 21.1449C79.7919 21.5085 80.4283 21.6903 81.1839 21.6903ZM100.258 11.1307C100.167 10.3239 99.7919 9.69886 99.1328 9.25568C98.4737 8.80682 97.6442 8.58239 96.6442 8.58239C95.9283 8.58239 95.3089 8.69602 94.7862 8.92329C94.2635 9.14489 93.8572 9.4517 93.5675 9.84375C93.2834 10.2301 93.1413 10.6705 93.1413 11.1648C93.1413 11.5795 93.2379 11.9375 93.4311 12.2386C93.63 12.5398 93.8885 12.7926 94.2067 12.9972C94.5305 13.196 94.8771 13.3636 95.2464 13.5C95.6158 13.6307 95.9709 13.7386 96.3118 13.8239L98.0163 14.267C98.5732 14.4034 99.1442 14.5881 99.7294 14.821C100.315 15.054 100.857 15.3608 101.357 15.7415C101.857 16.1222 102.261 16.5938 102.567 17.1562C102.88 17.7188 103.036 18.392 103.036 19.1761C103.036 20.1648 102.781 21.0426 102.269 21.8097C101.763 22.5767 101.028 23.1818 100.062 23.625C99.1016 24.0682 97.9396 24.2898 96.576 24.2898C95.2692 24.2898 94.1385 24.0824 93.1839 23.6676C92.2294 23.2528 91.4822 22.6648 90.9425 21.9034C90.4027 21.1364 90.1044 20.2273 90.0476 19.1761H92.6896C92.7408 19.8068 92.9453 20.3324 93.3033 20.7528C93.6669 21.1676 94.13 21.4773 94.6925 21.6818C95.2607 21.8807 95.8828 21.9801 96.5589 21.9801C97.3033 21.9801 97.9652 21.8636 98.5447 21.6307C99.13 21.392 99.5902 21.0625 99.9254 20.642C100.261 20.2159 100.428 19.7187 100.428 19.1506C100.428 18.6335 100.281 18.2102 99.9851 17.8807C99.6953 17.5511 99.3004 17.2784 98.8004 17.0625C98.3061 16.8466 97.7464 16.6562 97.1214 16.4915L95.0589 15.929C93.6612 15.5483 92.5533 14.9886 91.7351 14.25C90.9226 13.5114 90.5163 12.5341 90.5163 11.3182C90.5163 10.3125 90.7891 9.43466 91.3345 8.68466C91.88 7.93466 92.6186 7.35227 93.5504 6.9375C94.4822 6.51705 95.5334 6.30682 96.7038 6.30682C97.8857 6.30682 98.9283 6.5142 99.8317 6.92898C100.741 7.34375 101.457 7.91477 101.979 8.64204C102.502 9.36364 102.775 10.1932 102.798 11.1307H100.258ZM108.527 16.2273V24H105.979V10.9091H108.425V13.0398H108.587C108.888 12.3466 109.359 11.7898 110.001 11.3693C110.649 10.9489 111.464 10.7386 112.447 10.7386C113.339 10.7386 114.121 10.9261 114.791 11.3011C115.462 11.6705 115.982 12.2216 116.351 12.9545C116.72 13.6875 116.905 14.5937 116.905 15.6733V24H114.357V15.9801C114.357 15.0312 114.109 14.2898 113.615 13.7557C113.121 13.2159 112.442 12.946 111.578 12.946C110.987 12.946 110.462 13.0739 110.001 13.3295C109.547 13.5852 109.186 13.9602 108.919 14.4545C108.658 14.9432 108.527 15.5341 108.527 16.2273ZM124.132 24.2898C123.303 24.2898 122.553 24.1364 121.882 23.8295C121.212 23.517 120.68 23.0653 120.288 22.4744C119.902 21.8835 119.709 21.1591 119.709 20.3011C119.709 19.5625 119.851 18.9545 120.135 18.4773C120.419 18 120.803 17.6222 121.286 17.3438C121.768 17.0653 122.308 16.8551 122.905 16.7131C123.501 16.571 124.109 16.4631 124.729 16.3892C125.513 16.2983 126.149 16.2244 126.638 16.1676C127.126 16.1051 127.482 16.0057 127.703 15.8693C127.925 15.733 128.036 15.5114 128.036 15.2045V15.1449C128.036 14.4006 127.825 13.8239 127.405 13.4148C126.99 13.0057 126.371 12.8011 125.547 12.8011C124.689 12.8011 124.013 12.9915 123.518 13.3722C123.03 13.7472 122.692 14.1648 122.504 14.625L120.109 14.0795C120.393 13.2841 120.808 12.642 121.354 12.1534C121.905 11.6591 122.538 11.3011 123.254 11.0795C123.97 10.8523 124.723 10.7386 125.513 10.7386C126.036 10.7386 126.589 10.8011 127.175 10.9261C127.766 11.0455 128.317 11.267 128.828 11.5909C129.345 11.9148 129.768 12.3778 130.098 12.9801C130.428 13.5767 130.592 14.3523 130.592 15.3068V24H128.104V22.2102H128.001C127.837 22.5398 127.589 22.8636 127.26 23.1818C126.93 23.5 126.507 23.7642 125.99 23.9744C125.473 24.1847 124.854 24.2898 124.132 24.2898ZM124.686 22.2443C125.391 22.2443 125.993 22.1051 126.493 21.8267C126.999 21.5483 127.382 21.1847 127.643 20.7358C127.911 20.2812 128.044 19.7955 128.044 19.2784V17.5909C127.953 17.6818 127.777 17.767 127.516 17.8466C127.26 17.9205 126.967 17.9858 126.638 18.0426C126.308 18.0937 125.987 18.142 125.675 18.1875C125.362 18.2273 125.101 18.2614 124.891 18.2898C124.396 18.3523 123.945 18.4574 123.536 18.6051C123.132 18.7528 122.808 18.9659 122.564 19.2443C122.325 19.517 122.206 19.8807 122.206 20.3352C122.206 20.9659 122.439 21.4432 122.905 21.767C123.371 22.0852 123.964 22.2443 124.686 22.2443ZM139.475 29.1818C138.435 29.1818 137.54 29.0455 136.79 28.7727C136.046 28.5 135.438 28.1392 134.967 27.6903C134.495 27.2415 134.143 26.75 133.91 26.2159L136.1 25.3125C136.254 25.5625 136.458 25.8267 136.714 26.1051C136.975 26.3892 137.327 26.6307 137.771 26.8295C138.219 27.0284 138.796 27.1278 139.501 27.1278C140.467 27.1278 141.265 26.892 141.896 26.4205C142.526 25.9545 142.842 25.2102 142.842 24.1875V21.6136H142.68C142.526 21.892 142.305 22.2017 142.015 22.5426C141.731 22.8835 141.339 23.179 140.839 23.429C140.339 23.679 139.688 23.804 138.887 23.804C137.853 23.804 136.921 23.5625 136.092 23.0795C135.268 22.5909 134.614 21.8722 134.131 20.9233C133.654 19.9687 133.415 18.7955 133.415 17.4034C133.415 16.0114 133.651 14.8182 134.123 13.8239C134.6 12.8295 135.254 12.0682 136.083 11.5398C136.913 11.0057 137.853 10.7386 138.904 10.7386C139.717 10.7386 140.373 10.875 140.873 11.1477C141.373 11.4148 141.762 11.7273 142.04 12.0852C142.325 12.4432 142.543 12.7585 142.697 13.0312H142.884V10.9091H145.381V24.2898C145.381 25.4148 145.12 26.3381 144.597 27.0597C144.075 27.7813 143.367 28.3153 142.475 28.6619C141.589 29.0085 140.589 29.1818 139.475 29.1818ZM139.45 21.6903C140.183 21.6903 140.802 21.5199 141.308 21.179C141.819 20.8324 142.205 20.3381 142.467 19.696C142.734 19.0483 142.867 18.2727 142.867 17.3693C142.867 16.4886 142.737 15.7131 142.475 15.0426C142.214 14.3722 141.83 13.8494 141.325 13.4744C140.819 13.0937 140.194 12.9034 139.45 12.9034C138.683 12.9034 138.043 13.1023 137.532 13.5C137.021 13.892 136.634 14.4261 136.373 15.1023C136.117 15.7784 135.989 16.5341 135.989 17.3693C135.989 18.2273 136.12 18.9801 136.381 19.6278C136.643 20.2756 137.029 20.7812 137.54 21.1449C138.058 21.5085 138.694 21.6903 139.45 21.6903Z" fill="black"/>
<path fillRule="evenodd" clipRule="evenodd" d="M25.5205 10.9589C28.5468 10.9589 31 8.50567 31 5.47945C31 2.45323 28.5468 0 25.5205 0C22.4943 0 20.0411 2.45323 20.0411 5.47945C20.0411 8.50567 22.4943 10.9589 25.5205 10.9589ZM14.8356 0.958904L14.792 0.958904C12.5273 0.958899 10.7688 0.958896 9.35918 1.07407C7.92931 1.19089 6.77413 1.43098 5.73733 1.95926C4.01037 2.83919 2.6063 4.24326 1.72636 5.97022C1.19809 7.00702 0.958002 8.1622 0.841178 9.59207C0.726005 11.0017 0.726009 12.7602 0.726013 15.0249L0.726013 15.0685V16.1644L0.726013 16.2079C0.726009 18.4727 0.726005 20.2312 0.841178 21.6408C0.958002 23.0707 1.19809 24.2259 1.72636 25.2627C2.6063 26.9896 4.01037 28.3937 5.73733 29.2736C6.77413 29.8019 7.92931 30.042 9.35918 30.1588C10.7688 30.274 12.5273 30.274 14.792 30.274H14.792H14.8356H15.9315H15.9751H15.9751C18.2398 30.274 19.9983 30.274 21.4079 30.1588C22.8378 30.042 23.993 29.8019 25.0298 29.2736C26.7567 28.3937 28.1608 26.9896 29.0407 25.2627C29.569 24.2259 29.8091 23.0707 29.9259 21.6408C30.0411 20.2312 30.0411 18.4727 30.0411 16.208V16.2079V16.1644V15.6164C30.0411 15.0869 29.6118 14.6575 29.0822 14.6575C28.5526 14.6575 28.1233 15.0869 28.1233 15.6164V16.1644C28.1233 18.4818 28.1225 20.1622 28.0145 21.4846C27.9073 22.7959 27.6995 23.6706 27.332 24.392C26.6359 25.7581 25.5252 26.8688 24.1591 27.5648C23.4377 27.9324 22.563 28.1402 21.2517 28.2474C19.9293 28.3554 18.2489 28.3562 15.9315 28.3562H14.8356C12.5182 28.3562 10.8378 28.3554 9.51535 28.2474C8.20408 28.1402 7.32938 27.9324 6.608 27.5648C5.24189 26.8688 4.13121 25.7581 3.43514 24.392C3.06758 23.6706 2.85975 22.7959 2.75262 21.4846C2.64457 20.1622 2.64382 18.4818 2.64382 16.1644V15.0685C2.64382 12.7511 2.64457 11.0707 2.75262 9.74824C2.85975 8.43697 3.06758 7.56227 3.43514 6.84089C4.13121 5.47478 5.24189 4.3641 6.608 3.66803C7.32938 3.30047 8.20408 3.09264 9.51535 2.98551C10.8378 2.87746 12.5182 2.87671 14.8356 2.87671H15.3835C15.9131 2.87671 16.3425 2.4474 16.3425 1.91781C16.3425 1.38822 15.9131 0.958904 15.3835 0.958904H14.8356Z" fill="black"/>
</svg>
