<?xml version="1.0" encoding="UTF-8" standalone="no"?>
<!DOCTYPE svg PUBLIC "-//W3C//DTD SVG 1.1//EN" "http://www.w3.org/Graphics/SVG/1.1/DTD/svg11.dtd">
<svg xmlns="http://www.w3.org/2000/svg" version="1.1" viewBox="0.00 0.00 709.00 179.00">
<rect fill="#ffffff" x="364.00" y="0.51" width="2.24" height="177.98" rx="0.45"/>
<path fill="#ffffff" d="
  M 454.06 19.97
  Q 446.34 40.06 438.61 60.68
  Q 438.09 62.07 436.87 62.87
  A 1.00 1.00 0.0 0 1 435.37 62.36
  L 421.38 21.78
  Q 420.45 19.09 420.29 21.93
  Q 419.38 37.71 418.25 54.74
  C 418.09 57.18 418.54 61.53 422.00 61.54
  Q 423.51 61.55 424.99 62.15
  Q 425.46 62.34 425.62 62.83
  Q 425.94 63.83 425.40 64.52
  Q 425.08 64.92 424.57 64.92
  L 409.35 64.91
  A 1.40 1.39 -5.0 0 1 407.99 63.78
  C 407.66 62.03 409.50 61.52 410.83 61.56
  C 414.65 61.70 414.50 58.51 414.68 55.50
  Q 415.73 37.61 416.89 20.24
  Q 417.10 17.19 416.92 14.36
  Q 416.89 13.80 416.34 13.66
  Q 414.82 13.28 413.17 13.24
  A 1.94 1.88 -33.4 0 1 412.59 13.13
  Q 410.31 12.25 411.27 10.46
  A 1.25 1.23 -75.9 0 1 412.34 9.81
  L 422.99 9.72
  A 1.91 1.90 -9.9 0 1 424.80 10.99
  L 438.30 48.99
  Q 438.67 50.04 439.07 49.00
  L 453.90 10.77
  A 1.56 1.55 -79.1 0 1 455.34 9.79
  L 466.25 9.76
  Q 467.78 9.76 467.74 11.29
  Q 467.74 11.59 467.68 11.89
  A 1.46 1.45 -89.7 0 1 466.49 13.07
  L 462.81 13.72
  A 0.99 0.99 0.0 0 0 462.00 14.69
  Q 462.00 36.08 462.00 58.28
  C 462.00 61.51 464.90 61.42 467.17 62.02
  A 1.31 1.31 0.0 0 1 468.12 63.58
  L 468.03 63.96
  A 1.40 1.39 -82.0 0 1 466.59 65.05
  Q 458.17 64.60 449.18 65.08
  A 1.52 1.50 -14.0 0 1 447.74 64.23
  Q 447.06 62.82 448.36 62.14
  C 451.22 60.67 454.60 62.60 454.55 57.35
  Q 454.39 38.77 454.56 20.06
  Q 454.58 18.62 454.06 19.97
  Z"
/>
<path fill="#ffffff" d="
  M 545.52 20.55
  Q 545.52 18.47 544.79 20.42
  Q 537.07 40.87 529.35 60.92
  Q 528.88 62.12 528.05 62.77
  A 1.13 1.13 0.0 0 1 526.29 62.24
  L 512.08 21.02
  Q 511.41 19.07 511.29 21.13
  Q 510.48 35.96 509.25 53.38
  C 509.04 56.35 508.95 61.31 512.94 61.53
  Q 514.50 61.62 515.95 62.20
  Q 516.46 62.40 516.61 62.92
  Q 516.91 63.89 516.22 64.67
  Q 515.81 65.13 515.19 65.09
  Q 507.68 64.59 500.49 65.07
  Q 499.95 65.11 499.56 64.79
  Q 498.74 64.11 499.04 62.83
  A 1.25 1.24 -3.5 0 1 499.84 61.93
  C 502.05 61.15 505.15 62.17 505.39 58.60
  Q 506.72 38.53 508.00 17.27
  Q 508.09 15.77 507.96 14.39
  A 0.79 0.78 6.3 0 0 507.42 13.72
  Q 505.83 13.24 504.24 13.27
  Q 502.88 13.30 502.20 12.12
  Q 502.03 11.83 502.03 11.50
  Q 502.04 9.79 503.74 9.78
  L 514.24 9.74
  A 1.52 1.52 0.0 0 1 515.69 10.76
  L 529.26 48.99
  Q 529.63 50.04 530.04 49.01
  L 544.93 10.61
  Q 545.24 9.81 546.10 9.81
  L 557.09 9.74
  Q 558.71 9.73 558.72 11.35
  Q 558.72 11.61 558.62 11.87
  Q 558.22 12.92 557.12 13.12
  L 553.93 13.70
  A 1.13 1.13 0.0 0 0 553.00 14.81
  L 553.00 58.93
  A 2.16 2.16 0.0 0 0 554.19 60.86
  Q 555.92 61.72 557.99 61.97
  A 1.16 1.16 0.0 0 1 559.02 63.17
  L 559.00 63.74
  Q 558.95 65.13 557.55 65.05
  Q 549.01 64.58 540.37 65.08
  Q 539.06 65.16 538.59 63.92
  A 1.46 1.46 0.0 0 1 539.58 62.00
  C 542.55 61.19 545.52 61.90 545.51 57.55
  Q 545.47 39.45 545.52 20.55
  Z"
/>
<path fill="#ffffff" d="
  M 634.49 27.75
  Q 633.77 27.75 633.76 28.47
  Q 633.70 42.10 633.81 55.31
  C 633.83 57.29 634.56 60.13 636.44 61.03
  Q 639.14 62.32 642.72 58.79
  A 0.99 0.99 0.0 0 1 644.10 58.77
  L 644.37 59.03
  Q 645.26 59.87 644.53 60.86
  Q 641.16 65.45 636.32 65.99
  C 629.40 66.76 626.90 61.66 626.94 55.63
  Q 627.05 40.94 626.99 28.60
  Q 626.98 27.94 626.32 27.82
  L 623.63 27.37
  A 1.37 1.36 -57.4 0 1 623.09 24.90
  Q 628.80 20.96 630.94 16.00
  Q 631.36 15.03 632.34 14.63
  A 1.02 1.01 78.7 0 1 633.74 15.57
  L 633.76 23.01
  Q 633.76 23.75 634.51 23.75
  L 642.25 23.75
  Q 644.08 23.75 643.70 25.54
  Q 643.67 25.68 643.66 25.82
  Q 643.44 27.75 641.50 27.75
  L 634.49 27.75
  Z"
/>
<path fill="#ffffff" d="
  M 495.24 35.33
  C 492.97 31.52 490.11 24.66 484.24 26.68
  C 474.62 30.00 471.41 41.00 474.13 50.04
  C 477.24 60.38 488.73 66.05 497.09 57.02
  A 1.13 1.13 0.0 0 1 498.55 56.85
  Q 498.78 57.01 498.92 57.25
  Q 499.54 58.31 498.75 59.26
  C 488.93 71.09 471.62 66.77 467.02 52.47
  C 461.25 34.49 479.48 16.70 496.98 25.95
  A 3.31 3.30 -71.2 0 1 498.69 29.45
  C 498.33 31.46 499.19 33.21 498.25 35.19
  A 1.71 1.71 0.0 0 1 495.24 35.33
  Z"
/>
<path fill="#ffffff" d="
  M 578.74 60.17
  C 574.96 63.79 570.09 66.70 564.86 65.94
  C 562.70 65.63 560.59 64.45 559.48 62.51
  C 555.95 56.31 560.95 50.79 566.26 47.79
  Q 571.84 44.64 578.08 41.48
  A 2.58 2.57 76.7 0 0 579.49 39.20
  C 579.52 36.21 580.67 27.32 576.30 26.62
  C 570.44 25.69 567.75 29.56 565.91 34.42
  C 564.91 37.07 562.23 38.25 559.62 38.25
  A 1.43 1.43 0.0 0 1 558.20 36.70
  Q 558.47 33.61 560.23 31.56
  Q 568.38 22.07 580.08 23.77
  C 583.88 24.32 586.30 26.92 586.28 30.68
  Q 586.22 42.94 586.27 55.46
  Q 586.28 57.58 587.21 59.59
  A 1.52 1.51 -39.2 0 0 589.80 59.85
  Q 590.42 59.01 591.47 58.63
  Q 592.93 58.11 593.06 59.65
  Q 593.21 61.33 591.37 62.76
  Q 588.21 65.22 586.00 65.51
  C 582.24 66.01 580.99 63.34 579.88 60.43
  Q 579.51 59.44 578.74 60.17
  Z
  M 578.75 44.31
  C 575.29 46.50 571.39 48.09 568.30 50.61
  C 564.51 53.71 564.30 60.45 570.44 60.69
  Q 574.33 60.85 577.63 57.29
  C 580.45 54.25 579.47 48.52 579.51 44.74
  Q 579.52 43.82 578.75 44.31
  Z"
/>
<path fill="#ffffff" d="
  M 610.12 47.69
  C 606.40 46.33 601.15 44.73 598.58 41.82
  Q 593.68 36.29 597.80 29.42
  C 602.06 22.34 612.28 22.60 619.03 24.93
  A 1.72 1.71 8.2 0 1 620.19 26.48
  L 620.43 32.49
  A 2.09 2.08 -27.6 0 1 620.02 33.79
  Q 619.02 35.12 617.95 34.22
  Q 617.48 33.83 617.24 33.24
  C 616.38 31.16 615.58 28.75 613.59 27.46
  Q 610.58 25.51 607.02 26.55
  C 603.47 27.59 600.78 31.35 602.98 34.89
  Q 604.55 37.41 608.12 38.67
  C 614.13 40.79 621.52 43.21 622.22 50.71
  C 622.93 58.28 618.46 63.46 611.49 65.36
  Q 603.53 67.52 595.45 63.13
  Q 594.53 62.63 594.51 61.59
  C 594.47 58.70 594.04 54.34 595.07 51.67
  Q 595.27 51.16 595.79 51.04
  Q 597.44 50.66 597.92 52.23
  C 599.30 56.76 599.10 61.88 604.89 63.04
  C 615.35 65.14 621.25 51.76 610.12 47.69
  Z"
/>
<path fill="#ffffff" d="
  M 651.57 41.61
  C 651.01 48.54 654.40 57.11 660.97 59.75
  Q 667.17 62.23 672.89 59.21
  C 674.68 58.27 676.09 56.74 677.62 55.44
  Q 678.04 55.09 678.53 55.32
  Q 679.32 55.68 679.63 56.48
  A 0.95 0.94 53.0 0 1 679.51 57.37
  Q 674.43 64.49 666.88 65.78
  C 645.19 69.48 636.30 39.54 652.40 27.63
  C 663.58 19.35 679.85 23.10 680.16 39.10
  A 1.61 1.61 0.0 0 1 678.55 40.75
  L 652.51 40.75
  A 0.94 0.94 0.0 0 0 651.57 41.61
  Z
  M 652.34 35.59
  Q 651.75 37.19 653.46 37.24
  Q 660.48 37.40 667.70 37.02
  C 670.31 36.88 673.24 35.85 672.30 32.46
  Q 670.96 27.63 666.54 26.61
  C 659.97 25.10 654.54 29.54 652.34 35.59
  Z"
/>
<path fill="#ffffff" d="
  M 694.17 29.87
  Q 696.16 26.78 698.92 25.05
  C 701.52 23.42 705.43 23.25 707.34 26.09
  C 710.26 30.42 704.99 35.66 701.45 31.81
  Q 700.48 30.75 699.31 29.87
  A 0.96 0.94 45.5 0 0 698.19 29.85
  C 694.90 32.17 693.66 35.49 693.70 39.41
  Q 693.80 49.97 693.75 59.27
  A 2.56 2.56 0.0 0 0 695.98 61.82
  L 698.53 62.15
  Q 700.27 62.37 699.33 63.86
  L 699.13 64.18
  Q 698.48 65.20 697.26 65.21
  L 682.56 65.28
  Q 681.04 65.29 680.99 63.77
  Q 680.96 63.03 681.73 62.32
  A 1.51 1.51 0.0 0 1 682.83 61.94
  Q 687.08 62.21 686.94 58.29
  Q 686.59 48.09 686.79 35.22
  Q 686.82 32.93 684.55 32.85
  C 683.50 32.81 682.68 32.49 682.02 31.69
  A 1.17 1.17 0.0 0 1 682.55 29.83
  Q 687.08 28.33 691.15 24.17
  Q 692.80 22.49 693.57 24.72
  C 694.04 26.07 693.69 28.27 693.73 29.75
  Q 693.75 30.52 694.17 29.87
  Z"
/>
<path fill="#ffffff" d="
  M 85.00 72.00
  L 78.74 72.00
  Q 78.24 71.99 78.24 71.49
  L 78.26 67.75
  Q 78.26 67.25 78.76 67.25
  L 90.25 67.25
  Q 91.00 67.25 91.00 68.00
  L 91.00 86.47
  Q 91.00 87.03 90.50 87.27
  Q 83.31 90.71 75.86 89.78
  C 68.77 88.89 66.22 83.18 66.06 76.75
  Q 65.80 65.92 66.17 58.80
  C 66.61 50.31 73.11 47.52 80.89 47.95
  C 87.55 48.32 91.55 51.65 91.25 59.09
  Q 91.22 59.75 90.56 59.75
  L 86.50 59.75
  Q 85.68 59.75 85.67 58.93
  C 85.64 56.01 84.37 53.35 81.29 52.72
  C 73.35 51.12 71.22 56.12 71.41 62.86
  Q 71.62 70.47 71.54 76.93
  C 71.48 80.92 73.07 84.95 77.56 85.38
  Q 81.54 85.76 85.20 84.08
  Q 85.75 83.82 85.75 83.22
  L 85.75 72.75
  Q 85.75 72.00 85.00 72.00
  Z"
/>
<path fill="#ffffff" d="
  M 312.25 72.00
  L 306.00 72.00
  Q 305.50 72.00 305.50 71.50
  L 305.51 67.75
  Q 305.51 67.25 306.00 67.25
  L 317.75 67.25
  Q 318.25 67.25 318.25 67.75
  L 318.25 86.29
  Q 318.25 87.02 317.58 87.34
  Q 312.25 89.84 306.25 89.99
  Q 294.40 90.29 293.35 78.27
  Q 292.59 69.54 293.16 59.97
  Q 293.82 48.74 304.39 48.01
  C 312.50 47.46 318.86 49.76 318.47 59.35
  Q 318.45 59.75 318.05 59.75
  L 313.00 59.75
  Q 312.78 59.75 312.78 59.53
  Q 312.95 53.31 307.65 52.58
  Q 298.88 51.38 298.54 60.99
  Q 298.15 72.32 298.93 79.20
  C 299.79 86.71 307.28 86.47 312.41 84.01
  Q 313.00 83.73 313.00 83.07
  L 313.00 72.75
  Q 313.00 72.00 312.25 72.00
  Z"
/>
<path fill="#ffffff" d="
  M 6.00 71.06
  L 6.00 84.19
  A 0.31 0.31 0.0 0 0 6.31 84.50
  L 21.43 84.50
  A 0.31 0.31 0.0 0 1 21.74 84.81
  L 21.75 88.94
  A 0.31 0.31 0.0 0 1 21.44 89.25
  L 0.81 89.25
  A 0.31 0.31 0.0 0 1 0.50 88.94
  L 0.50 49.06
  A 0.31 0.31 0.0 0 1 0.81 48.75
  L 21.18 48.75
  A 0.31 0.31 0.0 0 1 21.49 49.06
  L 21.49 53.19
  A 0.31 0.31 0.0 0 1 21.18 53.50
  L 6.31 53.50
  A 0.31 0.31 0.0 0 0 6.00 53.81
  L 6.00 65.70
  A 0.31 0.31 0.0 0 0 6.31 66.01
  L 19.94 66.00
  A 0.31 0.31 0.0 0 1 20.25 66.31
  L 20.25 70.44
  A 0.31 0.31 0.0 0 1 19.94 70.75
  L 6.31 70.75
  A 0.31 0.31 0.0 0 0 6.00 71.06
  Z"
/>
<path fill="#ffffff" d="
  M 52.50 81.53
  L 52.50 49.00
  Q 52.50 48.75 52.75 48.75
  L 57.00 48.76
  A 0.25 0.24 0.0 0 1 57.25 49.00
  L 57.25 88.63
  Q 57.25 89.25 56.62 89.25
  L 50.68 89.25
  Q 50.04 89.25 49.78 88.67
  L 34.98 56.18
  Q 34.25 54.57 34.25 56.34
  L 34.25 89.00
  Q 34.25 89.24 34.00 89.24
  L 29.75 89.24
  A 0.25 0.24 0.0 0 1 29.50 89.00
  L 29.50 49.25
  Q 29.50 48.75 30.00 48.75
  L 36.45 48.75
  A 0.68 0.68 0.0 0 1 37.07 49.15
  L 51.86 81.67
  Q 52.50 83.09 52.50 81.53
  Z"
/>
<rect fill="#ffffff" x="100.50" y="48.75" width="5.50" height="40.50" rx="0.36"/>
<path fill="#ffffff" d="
  M 138.25 81.69
  L 138.25 49.00
  Q 138.25 48.76 138.50 48.76
  L 142.75 48.76
  A 0.25 0.24 0.0 0 1 143.00 49.00
  L 143.00 88.75
  Q 143.00 89.25 142.50 89.25
  L 136.50 89.25
  Q 135.86 89.25 135.60 88.67
  L 120.68 55.83
  Q 120.00 54.34 120.00 55.98
  L 120.00 89.00
  Q 120.00 89.25 119.75 89.25
  L 115.50 89.24
  A 0.25 0.24 0.0 0 1 115.25 89.00
  L 115.25 49.25
  A 0.50 0.50 0.0 0 1 115.75 48.75
  L 122.09 48.75
  Q 122.74 48.75 123.01 49.34
  L 137.75 81.80
  Q 138.25 82.90 138.25 81.69
  Z"
/>
<path fill="#ffffff" d="
  M 157.50 53.80
  L 157.49 65.70
  A 0.30 0.30 0.0 0 0 157.79 66.00
  L 171.70 66.00
  A 0.30 0.30 0.0 0 1 172.00 66.30
  L 171.99 70.45
  A 0.30 0.30 0.0 0 1 171.69 70.75
  L 157.79 70.74
  A 0.30 0.30 0.0 0 0 157.49 71.04
  L 157.50 84.20
  A 0.30 0.30 0.0 0 0 157.80 84.50
  L 173.19 84.50
  A 0.30 0.30 0.0 0 1 173.49 84.80
  L 173.49 88.95
  A 0.30 0.30 0.0 0 1 173.19 89.25
  L 152.55 89.25
  A 0.30 0.30 0.0 0 1 152.25 88.95
  L 152.25 49.05
  A 0.30 0.30 0.0 0 1 152.55 48.75
  L 172.95 48.75
  A 0.30 0.30 0.0 0 1 173.25 49.05
  L 173.25 53.20
  A 0.30 0.30 0.0 0 1 172.95 53.50
  L 157.80 53.50
  A 0.30 0.30 0.0 0 0 157.50 53.80
  Z"
/>
<path fill="#ffffff" d="
  M 186.56 84.50
  L 201.94 84.50
  A 0.31 0.31 0.0 0 1 202.25 84.81
  L 202.24 88.94
  A 0.31 0.31 0.0 0 1 201.93 89.25
  L 181.31 89.25
  A 0.31 0.31 0.0 0 1 181.00 88.94
  L 181.00 49.06
  A 0.31 0.31 0.0 0 1 181.31 48.75
  L 201.68 48.75
  A 0.31 0.31 0.0 0 1 201.99 49.06
  L 201.99 53.19
  A 0.31 0.31 0.0 0 1 201.68 53.50
  L 186.56 53.49
  A 0.31 0.31 0.0 0 0 186.25 53.80
  L 186.24 65.69
  A 0.31 0.31 0.0 0 0 186.55 66.00
  L 200.44 66.00
  A 0.31 0.31 0.0 0 1 200.75 66.31
  L 200.74 70.44
  A 0.31 0.31 0.0 0 1 200.43 70.75
  L 186.56 70.75
  A 0.31 0.31 0.0 0 0 186.25 71.06
  L 186.25 84.19
  A 0.31 0.31 0.0 0 0 186.56 84.50
  Z"
/>
<path fill="#ffffff" d="
  M 227.43 68.33
  Q 232.02 69.34 232.29 74.99
  Q 232.63 81.76 233.80 88.64
  Q 233.90 89.26 233.27 89.25
  L 229.03 89.24
  Q 228.44 89.24 228.23 88.69
  Q 227.40 86.52 227.28 84.08
  Q 227.06 79.41 226.79 75.35
  C 226.38 69.33 219.29 70.89 215.57 70.71
  Q 215.00 70.68 215.00 71.26
  L 215.00 89.00
  A 0.25 0.25 0.0 0 1 214.75 89.25
  L 210.00 89.25
  Q 209.75 89.25 209.75 89.00
  L 209.75 49.30
  Q 209.75 48.78 210.27 48.77
  Q 217.66 48.66 224.15 48.80
  Q 231.85 48.98 233.10 56.54
  Q 234.48 64.94 227.39 67.86
  Q 226.66 68.16 227.43 68.33
  Z
  M 214.95 53.82
  L 214.97 65.64
  A 0.37 0.37 0.0 0 0 215.34 66.01
  L 222.54 66.00
  A 5.56 5.29 89.9 0 0 227.82 60.43
  L 227.82 58.99
  A 5.56 5.29 89.9 0 0 222.52 53.44
  L 215.32 53.45
  A 0.37 0.37 0.0 0 0 214.95 53.82
  Z"
/>
<rect fill="#ffffff" x="241.75" y="48.75" width="5.50" height="40.50" rx="0.34"/>
<path fill="#ffffff" d="
  M 279.50 81.44
  L 279.50 49.00
  Q 279.50 48.75 279.75 48.75
  L 284.25 48.76
  A 0.25 0.24 0.0 0 1 284.50 49.00
  L 284.50 88.75
  A 0.50 0.50 0.0 0 1 284.00 89.25
  L 277.75 89.25
  A 0.83 0.83 0.0 0 1 276.99 88.76
  L 262.09 56.05
  Q 261.50 54.75 261.50 56.18
  L 261.50 89.00
  A 0.25 0.25 0.0 0 1 261.25 89.25
  L 256.75 89.24
  Q 256.50 89.24 256.50 89.00
  L 256.50 49.25
  Q 256.50 48.75 257.00 48.75
  L 263.51 48.75
  Q 264.07 48.75 264.31 49.26
  L 278.98 81.55
  Q 279.50 82.70 279.50 81.44
  Z"
/>
<path fill="#ffffff" d="
  M 667.93 176.09
  C 650.77 171.64 635.15 155.15 629.98 137.90
  Q 628.64 133.42 628.67 127.48
  Q 628.84 99.99 628.72 72.81
  A 0.31 0.31 0.0 0 1 629.03 72.50
  L 707.47 72.50
  A 0.26 0.26 0.0 0 1 707.73 72.76
  Q 707.75 101.61 707.74 131.22
  Q 707.74 134.92 705.30 141.09
  C 698.75 157.60 685.93 170.71 668.96 176.06
  Q 668.45 176.22 667.93 176.09
  Z
  M 703.28 140.84
  Q 705.78 134.72 705.77 129.05
  Q 705.72 105.68 705.78 75.07
  Q 705.78 74.50 705.20 74.50
  L 631.27 74.50
  Q 630.74 74.50 630.74 75.03
  Q 630.76 102.28 630.74 129.44
  C 630.74 134.03 632.09 138.63 634.01 142.82
  C 640.59 157.17 652.67 169.20 667.73 173.92
  Q 668.29 174.09 668.85 173.91
  C 684.66 168.77 697.06 156.06 703.28 140.84
  Z"
/>
<ellipse fill="#ffffff" cx="0.00" cy="0.00" transform="translate(474.60,76.98) rotate(90.4)" rx="3.25" ry="2.70"/>
<ellipse fill="#ffffff" cx="0.00" cy="0.00" transform="translate(572.82,76.98) rotate(92.0)" rx="3.24" ry="2.71"/>
<path fill="#ffffff" d="
  M 436.99 78.20
  Q 436.54 86.85 436.83 97.61
  C 436.99 103.65 434.48 107.56 428.31 108.52
  C 423.52 109.27 415.68 108.66 413.59 103.48
  Q 412.66 101.18 412.71 97.86
  Q 412.83 88.84 412.71 78.31
  A 1.02 1.01 -87.8 0 0 411.79 77.31
  L 409.54 77.10
  Q 409.00 77.05 408.76 76.56
  Q 408.45 75.92 408.69 75.12
  A 0.72 0.70 -81.8 0 1 409.37 74.60
  L 420.52 74.58
  A 1.31 1.29 -10.6 0 1 421.75 75.41
  Q 422.31 76.86 420.89 77.12
  Q 419.80 77.31 418.77 77.27
  A 0.97 0.97 0.0 0 0 417.76 78.24
  Q 417.74 88.25 417.70 98.00
  Q 417.70 99.92 418.21 101.90
  C 419.31 106.16 425.07 106.69 428.66 105.83
  C 432.72 104.85 434.32 102.14 434.30 98.14
  Q 434.26 88.82 434.19 79.17
  A 1.99 1.98 -1.7 0 0 432.10 77.20
  Q 430.95 77.26 430.06 76.63
  A 0.82 0.81 -64.6 0 1 429.75 75.74
  Q 430.16 74.30 431.74 74.46
  Q 435.51 74.85 439.24 74.46
  Q 440.52 74.33 440.74 75.60
  Q 440.77 75.79 440.75 75.99
  Q 440.68 76.86 439.82 77.02
  L 437.69 77.41
  A 0.85 0.85 0.0 0 0 436.99 78.20
  Z"
/>
<path fill="#ffffff" d="
  M 704.25 96.37
  A 0.38 0.38 0.0 0 1 703.87 96.75
  L 632.63 96.75
  A 0.38 0.38 0.0 0 1 632.25 96.37
  L 632.25 76.39
  A 0.38 0.38 0.0 0 1 632.63 76.01
  L 703.87 76.01
  A 0.38 0.38 0.0 0 1 704.25 76.39
  L 704.25 96.37
  Z
  M 657.37 82.00
  L 656.63 81.99
  Q 656.00 81.99 656.00 82.62
  L 656.00 93.25
  Q 656.00 93.76 656.50 93.76
  L 665.52 93.75
  Q 666.07 93.75 666.35 93.28
  C 667.26 91.76 669.53 91.40 670.41 93.23
  A 0.95 0.95 0.0 0 0 671.26 93.76
  L 680.25 93.75
  Q 680.74 93.75 680.74 93.25
  L 680.78 82.67
  Q 680.78 81.94 680.05 82.00
  Q 679.87 82.02 679.68 82.06
  A 0.70 0.69 77.2 0 1 678.86 81.54
  L 678.65 80.67
  Q 678.47 79.91 677.70 80.01
  Q 674.88 80.37 672.18 79.35
  C 671.00 78.90 669.78 79.17 668.90 80.06
  A 0.63 0.62 41.5 0 1 668.05 80.11
  Q 667.30 79.49 666.39 79.20
  A 2.09 2.06 -46.6 0 0 664.98 79.25
  Q 662.00 80.45 658.99 79.98
  A 0.75 0.75 0.0 0 0 658.13 80.72
  L 658.13 81.26
  Q 658.13 82.01 657.37 82.00
  Z
  M 646.24 84.27
  L 646.27 82.65
  Q 646.28 82.06 645.72 81.90
  Q 644.86 81.66 644.61 80.74
  Q 644.12 78.91 643.51 80.71
  Q 643.09 81.96 641.85 81.76
  Q 641.27 81.67 641.58 82.17
  Q 642.05 82.95 642.01 83.87
  Q 641.98 84.71 641.26 84.28
  Q 640.14 83.63 638.59 84.01
  Q 638.16 84.12 638.43 84.48
  Q 639.05 85.30 638.49 86.15
  Q 638.10 86.75 638.75 87.05
  Q 640.48 87.85 641.01 89.45
  Q 641.30 90.34 642.17 89.98
  Q 643.70 89.37 644.02 90.93
  Q 644.15 91.56 644.32 90.94
  Q 644.36 90.78 644.35 90.62
  Q 644.31 89.58 645.30 89.88
  Q 647.32 90.50 647.27 88.97
  Q 648.28 87.78 649.40 86.85
  Q 649.83 86.49 649.55 86.01
  Q 649.18 85.40 649.61 84.81
  Q 650.13 84.09 649.24 84.14
  Q 648.46 84.19 647.77 83.80
  Q 647.14 83.44 646.97 84.14
  Q 646.91 84.36 646.73 84.51
  Q 646.23 84.93 646.24 84.27
  Z
  M 694.30 84.13
  Q 694.42 83.23 694.59 82.35
  Q 694.75 81.53 693.96 81.80
  Q 693.72 81.88 693.51 81.74
  Q 692.95 81.37 692.84 80.71
  Q 692.77 80.25 692.46 79.95
  Q 691.97 79.48 691.85 80.15
  Q 691.62 81.46 690.44 81.77
  Q 689.85 81.92 689.95 82.53
  L 690.19 84.03
  Q 690.30 84.66 689.72 84.39
  Q 688.52 83.82 686.96 83.93
  Q 686.29 83.98 686.64 84.56
  Q 687.17 85.42 686.72 86.27
  Q 686.56 86.58 686.82 86.82
  L 688.90 88.75
  Q 689.21 89.03 689.17 89.44
  Q 689.11 90.04 689.65 90.04
  Q 690.52 90.04 691.39 89.80
  Q 692.01 89.64 692.19 90.25
  Q 692.28 90.52 692.23 90.81
  Q 692.10 91.56 692.60 90.99
  Q 692.77 90.80 692.74 90.57
  Q 692.63 89.57 693.59 89.84
  Q 694.01 89.96 694.46 90.05
  A 0.72 0.71 13.1 0 0 695.30 89.53
  Q 695.67 88.09 697.18 87.33
  Q 697.97 86.94 697.71 86.09
  Q 697.47 85.31 697.86 84.60
  Q 698.33 83.74 697.40 84.05
  Q 696.52 84.34 695.87 83.85
  Q 695.37 83.48 695.02 83.99
  L 694.79 84.32
  Q 694.16 85.24 694.30 84.13
  Z
  M 644.40 92.30
  Q 644.38 92.13 644.38 91.97
  Q 644.42 91.00 644.00 91.88
  Q 643.71 92.51 643.59 93.28
  Q 643.50 93.89 644.11 93.77
  Q 644.31 93.73 644.39 93.53
  Q 644.60 93.02 644.44 92.53
  Q 644.41 92.42 644.40 92.30
  Z"
/>
<path fill="#ffffff" d="
  M 586.51 83.51
  L 590.21 83.50
  Q 591.44 83.49 591.61 84.71
  L 591.67 85.08
  Q 591.84 86.25 590.66 86.25
  L 586.71 86.25
  Q 586.08 86.25 586.06 86.88
  Q 585.79 95.41 586.23 103.66
  A 1.78 1.78 0.0 0 0 588.83 105.14
  L 590.62 104.20
  Q 592.78 103.07 592.00 105.38
  Q 591.12 107.97 587.91 108.58
  C 582.80 109.56 581.38 105.66 581.45 101.55
  Q 581.56 93.97 581.49 86.78
  Q 581.48 86.29 581.00 86.26
  L 579.68 86.18
  Q 579.07 86.14 579.03 85.53
  Q 578.97 84.58 579.73 84.03
  Q 582.37 82.14 584.09 78.92
  Q 584.57 78.02 585.51 78.33
  Q 586.00 78.49 586.00 79.01
  L 586.00 83.01
  A 0.51 0.50 0.0 0 0 586.51 83.51
  Z"
/>
<path fill="#ffffff" d="
  M 676.96 91.09
  C 674.24 91.04 672.15 89.90 669.57 89.46
  Q 669.00 89.37 669.00 88.79
  L 669.00 81.77
  A 1.93 1.93 0.0 0 1 671.69 80.00
  Q 674.19 81.08 676.99 80.81
  Q 678.00 80.71 678.00 81.72
  L 678.00 90.07
  Q 678.00 91.11 676.96 91.09
  Z"
/>
<path fill="#ffffff" d="
  M 665.13 80.00
  A 1.91 1.91 0.0 0 1 667.75 81.78
  L 667.74 88.77
  Q 667.74 89.38 667.14 89.48
  Q 664.97 89.82 662.93 90.61
  C 661.74 91.07 660.60 91.03 659.33 91.02
  Q 658.75 91.02 658.75 90.44
  L 658.75 81.52
  A 0.71 0.70 2.9 0 1 659.53 80.82
  Q 662.33 81.13 665.13 80.00
  Z"
/>
<path fill="#ffffff" d="
  M 449.76 86.21
  C 451.17 84.58 453.46 83.55 455.52 83.39
  C 460.17 83.02 463.34 86.68 463.44 91.10
  Q 463.58 97.34 463.47 104.44
  Q 463.46 105.08 464.00 105.42
  Q 464.79 105.91 465.86 105.89
  A 0.92 0.91 -21.6 0 1 466.56 106.19
  Q 467.59 107.32 465.73 107.94
  Q 464.81 108.25 463.84 108.25
  Q 460.54 108.26 457.08 108.24
  Q 455.96 108.23 455.63 107.07
  Q 455.50 106.58 456.48 105.99
  A 0.88 0.86 28.6 0 1 456.94 105.86
  Q 457.87 105.85 458.57 105.36
  A 1.03 1.01 -17.5 0 0 459.00 104.55
  Q 459.02 98.48 458.98 92.63
  C 458.93 84.31 448.91 86.41 448.96 92.24
  Q 449.02 98.48 448.99 104.87
  Q 448.99 105.40 449.51 105.53
  L 451.54 106.04
  A 0.93 0.93 0.0 0 1 452.24 106.95
  Q 452.23 107.47 451.83 107.83
  Q 451.42 108.21 450.83 108.22
  Q 446.70 108.30 442.37 108.21
  A 1.30 1.27 70.0 0 1 441.41 107.75
  Q 440.54 106.71 441.57 106.14
  Q 442.43 105.67 443.40 105.68
  A 1.02 1.01 1.1 0 0 444.43 104.70
  Q 444.63 97.68 444.41 91.03
  Q 444.35 89.10 442.43 89.13
  A 0.72 0.72 0.0 0 1 441.75 88.69
  Q 441.57 88.24 441.81 87.79
  Q 442.11 87.21 442.69 86.92
  Q 445.32 85.62 447.35 83.51
  A 0.79 0.79 0.0 0 1 448.70 83.92
  L 449.08 86.02
  Q 449.23 86.83 449.76 86.21
  Z"
/>
<path fill="#ffffff" d="
  M 510.24 94.75
  C 510.23 103.22 517.81 109.25 525.00 101.99
  A 0.62 0.62 0.0 0 1 525.84 101.97
  L 526.05 102.15
  Q 526.96 102.95 526.23 103.91
  Q 523.07 108.09 518.58 108.68
  C 508.77 109.95 503.72 100.35 506.01 91.95
  C 508.82 81.65 525.64 79.19 526.93 92.44
  A 1.42 1.42 0.0 0 1 525.52 94.00
  L 510.99 94.00
  Q 510.24 94.00 510.24 94.75
  Z
  M 511.34 89.39
  Q 509.66 91.66 512.49 91.57
  L 519.50 91.33
  A 2.13 2.13 0.0 0 0 521.48 88.60
  Q 520.60 85.55 516.70 85.59
  A 5.15 5.14 -71.9 0 0 512.61 87.67
  L 511.34 89.39
  Z"
/>
<path fill="#ffffff" d="
  M 537.79 86.15
  Q 538.30 85.57 538.81 85.08
  C 540.35 83.63 543.52 82.92 544.96 84.87
  C 547.25 87.97 543.04 91.64 540.57 88.09
  Q 540.24 87.61 539.74 87.90
  Q 537.25 89.36 537.25 92.05
  Q 537.24 98.22 537.26 104.73
  A 0.92 0.91 -84.7 0 0 538.00 105.63
  L 539.86 105.99
  Q 540.59 106.13 540.48 106.86
  L 540.43 107.24
  Q 540.28 108.25 539.26 108.25
  L 532.32 108.25
  Q 531.38 108.25 530.49 107.94
  Q 529.20 107.49 529.28 106.90
  Q 529.43 105.88 530.46 105.86
  Q 531.24 105.85 531.90 105.59
  Q 532.69 105.27 532.71 104.24
  Q 532.83 97.45 532.68 90.79
  Q 532.66 89.59 531.48 89.32
  L 530.58 89.12
  A 0.92 0.92 0.0 0 1 530.33 87.43
  Q 533.25 85.77 535.63 83.54
  A 0.84 0.84 0.0 0 1 537.04 84.06
  L 537.26 85.99
  Q 537.33 86.67 537.79 86.15
  Z"
/>
<path fill="#ffffff" d="
  M 558.77 86.61
  C 555.14 82.69 548.58 89.48 554.71 91.92
  Q 557.28 92.94 559.62 93.96
  C 565.82 96.69 565.13 104.49 559.58 107.51
  Q 554.82 110.09 548.55 107.41
  A 1.42 1.42 0.0 0 1 547.80 106.62
  C 547.21 105.03 546.51 100.58 548.49 99.59
  A 0.84 0.84 0.0 0 1 549.68 100.17
  Q 550.05 102.03 550.63 103.75
  C 551.76 107.11 555.66 107.31 558.11 105.33
  C 561.66 102.46 559.14 98.89 555.79 97.78
  C 551.58 96.39 546.63 94.12 548.42 88.53
  C 550.13 83.17 556.67 82.60 561.40 84.14
  Q 561.94 84.31 562.15 84.83
  Q 562.92 86.73 562.63 88.69
  Q 562.11 92.15 560.47 89.06
  Q 559.69 87.59 558.77 86.61
  Z"
/>
<path fill="#ffffff" d="
  M 477.79 105.65
  L 479.30 105.94
  A 1.08 1.08 0.0 0 1 480.18 107.09
  Q 480.09 108.17 479.03 108.20
  Q 475.49 108.29 470.48 108.24
  Q 469.30 108.23 469.08 107.08
  Q 469.05 106.93 469.01 106.78
  A 0.63 0.62 77.6 0 1 469.50 106.00
  L 471.69 105.61
  Q 472.25 105.50 472.25 104.93
  L 472.25 90.18
  A 0.79 0.79 0.0 0 0 471.50 89.39
  Q 470.24 89.33 469.96 89.04
  Q 468.81 87.83 470.34 87.09
  Q 472.73 85.94 474.39 84.30
  Q 476.75 81.96 476.75 85.28
  L 476.75 104.38
  Q 476.75 105.45 477.79 105.65
  Z"
/>
<path fill="#ffffff" d="
  M 569.95 89.47
  L 568.20 89.01
  Q 567.67 88.87 567.70 88.32
  Q 567.74 87.50 568.55 87.10
  Q 570.94 85.92 572.69 84.27
  Q 575.00 82.09 575.00 85.27
  L 575.00 104.56
  Q 575.00 105.20 575.58 105.46
  Q 576.54 105.89 577.70 105.99
  A 0.76 0.76 0.0 0 1 578.36 106.98
  L 578.22 107.40
  Q 577.94 108.25 577.04 108.25
  L 568.75 108.25
  A 1.44 1.36 58.5 0 1 568.05 108.06
  Q 567.34 107.65 567.23 107.03
  A 0.93 0.92 80.2 0 1 567.99 105.95
  L 569.80 105.64
  Q 570.50 105.53 570.50 104.82
  L 570.50 90.19
  Q 570.50 89.62 569.95 89.47
  Z"
/>
<path fill="#ffffff" d="
  M 493.27 100.10
  Q 493.61 101.02 493.97 100.12
  L 498.95 87.90
  A 0.81 0.81 0.0 0 0 498.75 87.00
  Q 497.91 86.20 496.72 86.19
  A 0.65 0.65 0.0 0 1 496.16 85.22
  L 496.42 84.76
  A 1.46 1.45 14.1 0 1 497.70 84.00
  L 504.30 84.00
  Q 505.30 84.00 505.41 84.99
  L 505.45 85.31
  A 0.71 0.70 -5.5 0 1 504.80 86.09
  Q 502.42 86.29 501.47 88.58
  Q 497.54 98.03 493.78 107.03
  C 493.58 107.51 493.25 107.92 492.86 108.26
  Q 491.77 109.22 491.26 107.86
  L 483.67 87.54
  Q 483.42 86.87 482.76 86.59
  L 481.17 85.92
  Q 480.61 85.68 480.55 85.08
  Q 480.49 84.57 480.89 84.28
  Q 481.25 84.02 481.69 84.02
  Q 485.80 83.98 489.90 84.01
  A 2.33 2.15 -33.3 0 1 490.63 84.13
  Q 491.87 84.53 491.81 85.21
  Q 491.78 85.57 491.24 85.86
  Q 490.21 86.42 489.43 86.66
  A 0.91 0.91 0.0 0 0 488.84 87.84
  L 493.27 100.10
  Z"
/>
<path fill="#ffffff" d="
  M 606.22 100.36
  Q 606.63 101.45 607.05 100.36
  L 611.81 88.00
  A 1.07 1.06 19.2 0 0 611.13 86.60
  L 608.97 85.93
  Q 608.29 85.72 608.65 85.11
  Q 608.90 84.69 609.26 84.36
  Q 609.61 84.02 610.10 84.02
  Q 613.23 83.99 616.50 84.00
  C 617.22 84.00 617.79 84.51 618.13 85.11
  Q 618.48 85.74 617.79 85.93
  Q 615.14 86.68 614.02 89.56
  Q 608.19 104.49 602.79 118.99
  Q 602.62 119.46 602.14 119.58
  Q 600.27 120.07 598.20 119.31
  Q 597.66 119.11 597.48 118.57
  Q 596.93 116.95 597.62 115.61
  Q 597.87 115.12 598.39 114.98
  Q 599.52 114.66 600.65 114.78
  A 1.03 1.03 0.0 0 0 601.73 114.12
  L 603.95 108.24
  Q 604.12 107.79 603.95 107.33
  Q 600.23 97.56 596.65 88.07
  Q 595.97 86.27 594.06 86.03
  Q 593.46 85.96 593.54 85.36
  Q 593.70 84.09 595.03 84.06
  Q 598.98 83.96 603.19 84.00
  Q 604.20 84.01 604.71 84.87
  L 604.86 85.13
  Q 605.37 85.99 604.37 86.13
  Q 603.18 86.31 602.17 86.94
  A 1.12 1.11 63.9 0 0 601.72 88.28
  L 606.22 100.36
  Z"
/>
<path fill="#ffffff" d="
  M 648.07 125.61
  Q 643.70 126.21 640.21 124.59
  A 3.88 3.87 1.1 0 1 638.28 122.59
  L 636.96 119.50
  Q 636.36 118.07 637.64 118.94
  Q 641.24 121.40 646.04 120.96
  Q 648.27 120.76 646.27 119.77
  L 638.70 116.02
  A 3.10 3.07 -81.3 0 1 637.02 113.71
  L 636.46 109.99
  Q 636.25 108.59 637.32 109.51
  Q 640.68 112.37 646.32 113.64
  Q 647.16 113.83 646.49 113.29
  L 640.35 108.36
  Q 638.05 106.51 638.06 103.56
  Q 638.06 102.23 637.89 100.92
  Q 637.52 98.13 639.36 100.26
  Q 642.85 104.33 649.78 107.77
  A 2.00 2.00 0.0 0 1 649.99 111.23
  L 648.75 112.04
  Q 648.19 112.41 648.49 113.01
  L 649.20 114.46
  A 1.62 1.62 0.0 0 1 648.46 116.64
  Q 647.37 117.18 647.78 118.23
  Q 647.98 118.75 648.45 119.15
  Q 648.80 119.44 649.10 119.80
  Q 649.42 120.19 649.15 120.62
  L 648.40 121.82
  A 0.72 0.72 0.0 0 0 648.62 122.81
  L 649.91 123.61
  Q 650.60 124.04 650.27 124.78
  Q 649.16 127.28 651.95 127.83
  A 1.97 1.97 0.0 0 1 653.34 128.90
  Q 654.06 130.42 655.46 131.70
  Q 655.85 132.05 656.30 131.80
  L 658.24 130.76
  Q 658.77 130.47 659.06 130.99
  L 660.03 132.71
  Q 660.29 133.18 660.09 133.67
  Q 657.58 139.92 649.85 140.72
  Q 647.95 140.92 649.68 140.09
  Q 652.67 138.67 654.07 135.31
  Q 654.77 133.63 653.45 134.89
  C 651.29 136.97 648.62 139.33 645.60 139.76
  A 3.56 3.55 66.7 0 1 642.31 138.45
  L 640.78 136.53
  Q 639.58 135.03 641.46 135.42
  Q 645.98 136.37 649.08 132.47
  Q 650.48 130.70 648.55 131.87
  C 644.98 134.03 640.09 135.13 638.61 129.95
  Q 638.44 129.34 639.07 129.43
  Q 644.28 130.23 648.31 126.07
  Q 648.86 125.51 648.07 125.61
  Z"
/>
<path fill="#ffffff" d="
  M 687.82 131.89
  C 689.93 135.35 692.82 135.66 696.56 135.43
  Q 697.31 135.39 696.90 136.02
  Q 695.77 137.74 694.45 138.85
  C 691.20 141.57 686.29 137.34 684.00 134.95
  Q 682.80 133.70 683.35 135.34
  Q 684.42 138.53 687.62 140.06
  Q 689.07 140.76 687.46 140.65
  Q 680.26 140.15 677.29 133.94
  Q 677.06 133.46 677.28 132.98
  L 678.18 131.02
  Q 678.43 130.47 678.97 130.75
  L 681.02 131.81
  Q 681.53 132.07 681.96 131.70
  Q 683.52 130.35 684.15 128.57
  A 0.88 0.87 6.0 0 1 684.86 128.00
  Q 686.37 127.80 687.31 126.62
  Q 687.63 126.21 687.37 125.77
  Q 686.23 123.90 688.24 123.16
  A 1.10 1.08 88.0 0 0 688.92 122.42
  Q 689.15 121.52 688.33 120.96
  A 0.69 0.68 -51.9 0 1 688.21 119.93
  L 689.47 118.54
  A 0.96 0.95 52.2 0 0 689.60 117.46
  Q 689.04 116.40 688.03 115.77
  Q 687.55 115.46 687.80 114.95
  L 688.70 113.13
  A 0.91 0.91 0.0 0 0 688.41 111.99
  L 687.22 111.16
  A 1.91 1.90 48.1 0 1 687.39 107.94
  C 691.08 105.90 696.03 103.12 698.35 99.76
  Q 699.07 98.73 699.19 99.97
  L 699.52 103.32
  Q 699.67 104.89 698.72 106.14
  C 696.54 109.00 693.65 111.13 690.78 113.25
  Q 690.02 113.81 690.94 113.62
  Q 696.47 112.48 699.96 109.52
  Q 701.05 108.60 700.84 110.01
  L 700.32 113.62
  A 3.18 3.16 -9.1 0 1 698.59 116.00
  L 691.03 119.79
  Q 689.15 120.73 691.23 120.96
  Q 695.91 121.47 700.13 118.71
  Q 700.95 118.17 700.54 119.06
  C 699.62 121.06 699.02 123.72 696.82 124.70
  Q 693.42 126.22 689.36 125.64
  Q 688.33 125.49 689.08 126.21
  Q 693.19 130.18 697.95 129.42
  Q 699.07 129.24 698.61 130.28
  L 697.88 131.89
  A 2.61 2.60 3.8 0 1 696.24 133.32
  Q 692.57 134.38 688.24 131.49
  Q 687.12 130.75 687.82 131.89
  Z"
/>
<path fill="#ffffff" d="
  M 672.16 100.88
  Q 672.01 100.81 671.94 100.67
  A 0.22 0.22 0.0 0 1 672.03 100.38
  Q 673.41 99.67 674.03 101.12
  A 1.13 1.12 -27.2 0 1 673.57 102.54
  C 669.97 104.66 671.66 109.67 673.54 112.16
  Q 674.01 112.79 673.28 112.53
  Q 671.00 111.74 669.71 109.91
  Q 669.24 109.24 669.03 110.03
  L 668.82 110.79
  Q 668.52 111.90 668.06 110.85
  Q 667.91 110.50 667.84 110.13
  Q 667.73 109.49 667.43 110.07
  Q 666.44 111.97 664.31 111.74
  Q 663.42 111.64 664.29 111.42
  Q 664.73 111.31 664.99 110.90
  Q 665.69 109.83 664.42 109.77
  L 662.04 109.65
  Q 661.86 109.64 661.84 109.45
  L 661.81 109.12
  Q 661.79 108.77 662.13 108.77
  L 666.24 108.74
  Q 666.76 108.74 666.72 108.21
  Q 666.43 104.83 662.96 104.23
  Q 662.43 104.14 662.07 104.56
  L 661.80 104.88
  Q 661.06 105.75 661.09 104.61
  Q 661.10 103.88 661.23 103.14
  Q 661.31 102.71 661.73 102.58
  L 667.19 100.94
  A 0.86 0.86 0.0 0 1 667.95 101.06
  Q 669.87 102.38 672.13 101.60
  Q 673.03 101.28 672.16 100.88
  Z"
/>
<path fill="#ffffff" d="
  M 654.75 125.58
  Q 653.56 126.25 652.20 125.93
  A 0.49 0.49 0.0 0 1 651.87 125.25
  Q 652.45 124.00 653.48 123.19
  Q 654.03 122.76 653.34 122.73
  Q 652.00 122.67 650.90 122.12
  Q 650.30 121.81 650.79 121.34
  L 652.36 119.82
  Q 652.85 119.34 652.18 119.18
  Q 650.94 118.89 650.01 118.11
  Q 649.55 117.72 650.09 117.45
  Q 651.32 116.83 652.22 115.89
  A 0.47 0.46 -50.3 0 0 652.16 115.19
  Q 651.29 114.56 650.77 113.70
  Q 650.29 112.90 651.19 112.66
  L 652.84 112.23
  Q 653.30 112.10 653.16 111.64
  Q 652.01 107.99 654.11 104.53
  Q 654.53 103.82 654.48 104.64
  C 654.22 108.39 655.77 110.59 658.77 112.34
  C 661.96 114.19 660.51 119.47 656.57 117.05
  Q 655.83 116.60 655.75 117.47
  Q 655.44 120.70 657.78 122.10
  Q 658.16 122.32 658.12 122.76
  Q 657.91 125.23 658.01 127.76
  Q 658.06 129.13 656.76 129.63
  A 1.13 1.13 0.0 0 1 655.31 129.01
  Q 654.70 127.53 655.15 125.89
  Q 655.32 125.26 654.75 125.58
  Z"
/>
<path fill="#ffffff" d="
  M 684.90 119.83
  L 686.47 121.34
  A 0.50 0.49 51.8 0 1 686.38 122.13
  Q 685.30 122.76 684.07 122.76
  Q 683.16 122.76 683.88 123.32
  Q 684.76 124.01 685.39 125.14
  A 0.56 0.56 0.0 0 1 684.99 125.97
  Q 683.70 126.19 682.53 125.65
  Q 681.79 125.31 682.12 126.05
  Q 682.88 127.76 681.76 129.41
  Q 681.58 129.67 681.26 129.71
  C 680.14 129.81 679.23 128.87 679.24 127.76
  Q 679.25 125.24 679.26 122.94
  Q 679.26 122.39 679.70 122.07
  Q 681.93 120.42 681.48 117.22
  A 0.37 0.37 0.0 0 0 680.91 116.96
  Q 679.81 117.69 678.48 117.61
  Q 677.93 117.58 677.57 117.17
  C 675.96 115.31 676.92 113.02 678.91 111.99
  C 681.74 110.52 683.03 108.06 682.77 104.73
  Q 682.69 103.76 683.21 104.59
  Q 685.25 107.89 684.13 111.66
  Q 684.00 112.10 684.45 112.23
  L 686.29 112.72
  A 0.57 0.57 0.0 0 1 686.58 113.63
  L 685.23 115.27
  Q 684.80 115.79 685.34 116.19
  L 687.11 117.47
  A 0.53 0.53 0.0 0 1 687.12 118.32
  Q 686.26 118.97 685.10 119.18
  Q 684.36 119.31 684.90 119.83
  Z"
/>
<path fill="#ffffff" d="
  M 659.48 105.73
  Q 659.40 105.62 659.27 105.59
  A 0.03 0.02 48.3 0 1 659.27 105.54
  Q 659.96 105.48 660.29 106.12
  A 1.15 1.13 -12.8 0 0 661.32 106.76
  L 665.47 106.76
  A 0.33 0.33 0.0 0 1 665.77 106.95
  L 665.90 107.25
  Q 666.01 107.48 665.75 107.54
  C 664.34 107.84 663.02 107.65 661.61 107.75
  Q 659.83 107.87 659.65 106.20
  Q 659.62 105.93 659.48 105.73
  Z"
/>
<path fill="#ffffff" d="
  M 667.27 145.58
  Q 665.74 147.04 663.45 146.74
  Q 662.60 146.63 663.19 146.01
  C 665.56 143.57 667.63 141.50 665.15 137.98
  Q 662.04 133.58 660.20 129.42
  C 657.93 124.26 661.25 119.48 663.57 114.99
  Q 663.76 114.62 664.15 114.46
  L 667.28 113.20
  Q 667.79 113.00 668.13 113.42
  Q 668.67 114.09 669.30 113.42
  Q 669.72 112.98 670.31 113.13
  C 671.45 113.42 673.18 113.87 673.77 115.01
  C 676.37 120.06 679.66 124.47 676.70 130.34
  Q 674.82 134.08 672.05 138.08
  C 670.01 141.02 671.33 143.55 673.76 145.52
  Q 675.16 146.66 673.35 146.72
  Q 671.44 146.79 669.84 145.50
  Q 669.26 145.03 669.40 145.76
  Q 669.67 147.11 669.12 148.21
  Q 668.34 149.81 668.08 148.05
  L 667.74 145.74
  Q 667.66 145.20 667.27 145.58
  Z
  M 665.98 126.86
  Q 666.27 126.81 666.55 126.88
  A 0.60 0.60 0.0 0 1 667.01 127.38
  Q 667.26 129.16 666.15 130.17
  Q 665.82 130.47 665.91 130.90
  Q 666.38 133.25 667.97 134.76
  A 1.02 1.01 48.8 0 0 669.28 134.85
  Q 670.49 133.96 671.15 132.56
  Q 671.52 131.77 670.67 131.94
  Q 669.45 132.19 668.80 133.50
  A 0.17 0.16 38.1 0 1 668.52 133.53
  L 666.93 131.50
  Q 666.80 131.34 666.98 131.24
  L 667.54 130.94
  Q 668.00 130.70 668.00 130.19
  L 668.00 125.79
  A 0.59 0.59 0.0 0 0 667.44 125.20
  Q 666.51 125.15 665.67 125.40
  Q 665.28 125.51 665.24 125.91
  Q 665.22 126.06 665.08 126.12
  Q 664.49 126.40 664.20 125.80
  Q 663.87 125.09 663.15 124.84
  Q 662.26 124.54 663.09 124.09
  Q 663.88 123.67 664.31 122.90
  Q 664.75 122.12 665.21 122.88
  Q 665.98 124.15 667.53 123.79
  Q 667.91 123.70 667.98 123.32
  Q 668.44 120.71 667.07 119.68
  A 0.33 0.33 0.0 0 1 667.08 119.15
  Q 667.91 118.58 668.44 117.54
  Q 668.62 117.18 668.83 117.53
  Q 669.42 118.56 670.38 119.14
  Q 670.97 119.51 670.45 119.97
  Q 670.28 120.12 670.04 120.14
  A 0.58 0.58 0.0 0 0 669.50 120.71
  L 669.49 123.10
  Q 669.48 123.63 670.00 123.76
  Q 671.54 124.12 672.13 122.89
  Q 672.49 122.15 672.97 122.81
  Q 673.51 123.55 674.35 124.11
  Q 675.07 124.59 674.30 124.98
  Q 673.46 125.42 672.96 126.19
  Q 672.57 126.80 672.28 126.13
  Q 671.70 124.77 670.07 125.20
  Q 669.50 125.35 669.50 125.95
  L 669.48 129.99
  A 1.45 1.45 0.0 0 0 671.30 131.40
  Q 672.32 131.13 671.54 130.45
  Q 670.24 129.29 670.45 127.42
  Q 670.51 126.95 670.97 127.03
  Q 673.90 127.55 676.07 124.99
  Q 676.47 124.52 676.11 124.02
  Q 674.49 121.73 671.89 121.66
  Q 671.53 121.65 671.34 121.34
  Q 671.21 121.13 671.39 120.96
  Q 671.80 120.54 671.62 119.98
  Q 670.96 117.87 669.52 116.37
  A 1.06 1.05 47.2 0 0 668.07 116.31
  Q 665.41 118.66 666.25 121.28
  Q 666.34 121.56 666.04 121.56
  Q 663.24 121.48 661.32 124.05
  Q 660.96 124.54 661.37 124.99
  Q 663.18 126.94 665.66 127.25
  Q 665.71 127.26 665.72 127.21
  Q 665.74 127.08 665.80 126.97
  Q 665.87 126.88 665.98 126.86
  Z"
/>
<path fill="#ffffff" d="
  M 659.34 141.02
  Q 657.71 141.68 656.12 141.33
  Q 654.91 141.07 656.06 140.59
  Q 658.97 139.39 660.82 135.53
  A 0.50 0.50 0.0 0 1 661.71 135.51
  L 663.61 138.94
  Q 663.91 139.49 663.45 139.91
  Q 660.71 142.42 660.61 145.70
  Q 660.58 146.55 660.24 145.77
  Q 659.35 143.74 660.00 141.63
  Q 660.31 140.63 659.34 141.02
  Z"
/>
<path fill="#ffffff" d="
  M 677.22 141.47
  Q 677.88 143.54 677.16 145.55
  Q 676.87 146.38 676.78 145.50
  Q 676.48 142.22 673.85 139.96
  Q 673.32 139.50 673.67 138.89
  L 675.74 135.37
  A 0.43 0.43 0.0 0 1 676.51 135.42
  Q 678.12 139.33 681.52 140.76
  Q 682.26 141.07 681.48 141.27
  Q 679.55 141.75 677.74 140.99
  Q 676.96 140.66 677.22 141.47
  Z"
/>
<path fill="#ffffff" d="
  M 654.87 147.16
  Q 655.52 147.38 656.23 147.03
  A 0.64 0.64 0.0 0 1 657.07 147.27
  L 657.25 147.57
  Q 657.43 147.87 657.14 148.07
  L 655.91 148.94
  Q 655.51 149.22 655.07 149.00
  Q 652.84 147.83 652.20 150.31
  Q 651.90 151.49 651.50 152.57
  A 1.54 1.54 0.0 0 1 648.72 152.81
  Q 648.24 151.98 648.75 151.15
  C 649.47 149.95 650.75 149.65 651.48 148.34
  A 0.44 0.44 0.0 0 0 651.29 147.73
  C 648.94 146.59 648.32 149.42 646.16 148.08
  A 0.73 0.73 0.0 0 1 645.84 147.35
  Q 645.94 146.69 646.28 146.15
  A 0.87 0.86 16.6 0 1 647.03 145.75
  L 648.49 145.80
  Q 649.49 145.83 648.91 145.02
  Q 648.35 144.25 648.05 143.23
  Q 647.88 142.65 647.28 142.68
  Q 646.47 142.71 645.70 143.12
  Q 644.99 143.49 645.32 142.76
  Q 645.60 142.14 646.29 141.86
  Q 646.84 141.65 647.31 142.00
  Q 648.15 142.64 649.16 142.66
  A 0.79 0.78 83.8 0 1 649.91 143.27
  Q 650.19 144.51 650.91 145.49
  A 0.79 0.79 0.0 0 0 651.80 145.78
  Q 653.98 145.10 655.10 143.36
  A 0.59 0.58 18.9 0 1 655.64 143.10
  L 657.73 143.33
  Q 658.36 143.40 658.00 143.92
  Q 656.84 145.54 654.83 146.50
  A 0.36 0.36 0.0 0 0 654.87 147.16
  Z"
/>
<path fill="#ffffff" d="
  M 691.50 143.10
  L 690.12 142.75
  Q 689.68 142.64 689.94 142.27
  L 690.21 141.90
  A 0.26 0.25 24.3 0 1 690.49 141.80
  Q 691.26 141.99 691.78 142.66
  Q 692.27 143.29 691.50 143.10
  Z"
/>
<path fill="#ffffff" d="
  M 688.78 145.81
  Q 690.03 145.48 690.87 146.06
  Q 691.35 146.39 691.33 146.98
  Q 691.31 147.77 690.75 148.29
  A 0.99 0.97 -49.1 0 1 689.53 148.39
  Q 688.26 147.54 686.78 147.45
  A 0.80 0.80 0.0 0 0 686.14 148.79
  C 686.95 149.68 688.39 150.38 688.70 151.55
  Q 689.05 152.86 687.61 153.46
  A 1.33 1.33 0.0 0 1 685.83 152.63
  L 684.85 149.48
  Q 684.67 148.94 684.11 148.80
  Q 683.18 148.57 682.27 148.85
  A 1.82 1.81 57.4 0 1 680.51 148.46
  Q 679.58 147.62 680.24 147.18
  Q 680.50 147.01 680.80 147.07
  Q 681.28 147.15 681.78 147.18
  Q 683.77 147.30 682.03 146.31
  Q 680.34 145.35 679.26 143.79
  A 0.33 0.32 71.5 0 1 679.51 143.28
  L 681.41 143.17
  Q 681.86 143.14 682.19 143.44
  L 684.64 145.60
  A 1.25 1.25 0.0 0 0 686.61 145.17
  L 687.53 143.07
  A 1.00 1.00 0.0 0 1 688.60 142.49
  L 688.92 142.55
  Q 689.54 142.65 689.28 143.23
  L 688.35 145.30
  Q 688.02 146.01 688.78 145.81
  Z"
/>
<path fill="#ffffff" d="
  M 692.29 149.04
  Q 691.77 148.27 691.96 147.49
  Q 692.15 146.74 692.65 147.34
  Q 693.75 148.66 692.91 150.22
  Q 692.45 151.07 692.52 150.10
  Q 692.53 149.98 692.53 149.85
  Q 692.54 149.41 692.29 149.04
  Z"
/>
<path fill="#ffffff" d="
  M 644.59 149.78
  Q 644.70 150.11 644.54 150.46
  Q 644.32 150.93 644.26 150.41
  L 643.96 147.98
  A 0.47 0.47 0.0 0 1 644.53 147.47
  L 644.93 147.55
  Q 645.55 147.69 645.29 148.26
  Q 644.95 149.04 644.59 149.78
  Z"
/>
<path fill="#ffffff" d="
  M 658.38 149.98
  Q 657.87 149.35 657.91 148.51
  Q 657.95 147.74 658.58 148.18
  Q 659.65 148.94 659.11 149.92
  Q 658.79 150.49 658.38 149.98
  Z"
/>
<path fill="#ffffff" d="
  M 678.96 149.32
  Q 678.96 149.76 678.70 150.05
  Q 678.18 150.61 678.06 149.86
  Q 677.92 149.03 678.26 148.35
  Q 678.45 147.97 678.88 147.98
  Q 679.03 147.98 679.17 148.01
  Q 679.47 148.06 679.39 148.35
  Q 679.33 148.54 679.20 148.70
  Q 678.96 148.97 678.96 149.32
  Z"
/>
<path fill="#ffffff" d="
  M 678.30 153.82
  L 676.92 154.18
  Q 676.37 154.33 675.84 154.14
  Q 672.43 152.95 670.87 149.11
  Q 670.62 148.49 671.24 148.73
  Q 672.78 149.31 674.13 148.84
  Q 674.58 148.68 674.96 148.98
  C 676.80 150.40 679.14 150.95 680.59 152.79
  Q 683.19 156.08 680.24 160.15
  Q 680.02 160.45 679.69 160.63
  Q 679.07 160.96 679.35 160.32
  Q 680.73 157.14 679.26 154.26
  Q 678.96 153.66 678.30 153.82
  Z"
/>
<path fill="#ffffff" d="
  M 659.64 153.96
  A 1.60 1.60 0.0 0 0 657.51 155.33
  Q 657.29 157.93 657.71 160.24
  Q 657.90 161.27 657.27 160.44
  Q 653.86 155.99 656.97 152.42
  C 658.33 150.86 660.50 150.48 662.07 149.08
  Q 662.48 148.71 663.02 148.85
  Q 664.50 149.22 666.02 148.78
  Q 666.70 148.58 666.42 149.24
  C 665.40 151.61 662.62 155.01 659.64 153.96
  Z"
/>
<path fill="#ffffff" d="
  M 672.07 156.28
  Q 671.47 155.42 671.46 156.46
  Q 671.43 159.74 669.63 161.52
  A 1.46 1.46 0.0 0 1 667.45 161.38
  Q 665.81 159.28 665.91 156.39
  Q 665.94 155.54 665.41 156.20
  Q 663.26 158.89 665.50 161.74
  Q 665.90 162.25 665.26 162.32
  Q 665.01 162.35 664.80 162.20
  Q 663.74 161.48 663.29 160.35
  A 0.31 0.31 0.0 0 0 662.72 160.34
  Q 662.02 161.90 660.59 161.34
  Q 660.13 161.16 659.97 160.71
  Q 659.37 159.00 661.10 158.30
  A 0.33 0.33 0.0 0 0 661.10 157.69
  Q 660.39 157.39 659.85 156.86
  Q 659.28 156.31 660.08 156.30
  Q 664.57 156.27 666.98 152.08
  A 1.96 1.96 0.0 0 1 670.43 152.18
  Q 672.36 156.03 677.32 156.35
  Q 677.88 156.38 677.49 156.79
  Q 677.04 157.28 676.42 157.60
  Q 676.04 157.80 676.31 158.14
  L 677.37 159.47
  Q 677.76 159.96 677.42 160.49
  Q 676.97 161.20 676.18 161.60
  A 0.63 0.62 56.6 0 1 675.42 161.44
  L 674.56 160.42
  Q 674.20 160.00 673.99 160.51
  Q 673.40 161.94 672.01 162.20
  Q 671.20 162.35 671.75 161.74
  Q 674.08 159.19 672.07 156.28
  Z"
/>
<path fill="#ffffff" d="
  M 689.11 156.09
  Q 688.98 156.22 688.86 156.37
  Q 688.26 157.16 688.60 156.23
  Q 689.09 154.88 688.94 153.37
  Q 688.87 152.71 689.51 152.93
  Q 689.76 153.01 689.85 153.26
  Q 690.43 154.83 689.11 156.09
  Z"
/>
<path fill="#ffffff" d="
  M 647.94 155.83
  Q 646.80 154.50 647.35 153.42
  Q 647.74 152.66 648.09 153.43
  Q 648.61 154.57 648.45 156.06
  Q 648.38 156.71 648.12 156.12
  Q 648.05 155.96 647.94 155.83
  Z"
/>
</svg>
