<?xml version="1.0" encoding="UTF-8" standalone="no"?>
<!DOCTYPE svg PUBLIC "-//W3C//DTD SVG 1.1//EN" "http://www.w3.org/Graphics/SVG/1.1/DTD/svg11.dtd">
<svg xmlns="http://www.w3.org/2000/svg" version="1.1" viewBox="0.00 0.00 864.00 486.00">
<path fill="#353734" d="
  M 357.36 149.23
  L 369.98 155.00
  A 1.05 1.05 0.0 0 1 370.44 156.50
  Q 362.65 169.31 347.78 170.43
  Q 343.08 170.79 336.00 168.43
  C 326.61 165.29 320.62 157.53 320.53 147.32
  Q 320.42 135.29 320.57 123.23
  C 320.73 109.70 331.90 102.57 344.05 101.07
  C 354.97 99.71 365.32 105.36 370.11 115.20
  A 1.13 1.13 0.0 0 1 369.51 116.74
  L 358.16 121.17
  Q 357.41 121.46 356.88 120.86
  Q 350.53 113.85 341.75 117.46
  Q 337.25 119.32 337.23 124.01
  Q 337.19 135.70 337.28 147.69
  C 337.30 150.52 339.04 152.67 341.60 153.66
  Q 351.04 157.31 356.32 149.52
  Q 356.71 148.94 357.36 149.23
  Z"
/>
<path fill="#353734" d="
  M 545.40 118.76
  C 541.40 114.97 533.41 112.40 528.69 116.40
  Q 526.93 117.90 526.77 120.18
  C 526.48 124.18 530.97 126.23 534.29 126.91
  C 545.80 129.27 558.47 132.75 558.95 146.94
  Q 559.10 151.25 558.45 153.90
  Q 556.47 161.94 548.48 166.20
  Q 529.94 176.08 514.19 162.97
  Q 512.00 161.15 510.44 158.88
  A 0.90 0.90 0.0 0 1 510.56 157.72
  L 519.58 149.06
  Q 520.00 148.66 520.48 148.98
  C 522.08 150.01 523.23 151.49 524.95 152.38
  C 528.88 154.41 534.80 156.01 539.06 154.13
  Q 541.14 153.21 541.98 151.55
  C 545.03 145.56 535.38 143.00 531.59 142.54
  Q 527.37 142.02 523.47 140.25
  Q 510.40 134.34 510.28 121.17
  Q 510.20 111.61 517.99 106.06
  C 529.79 97.63 546.37 99.61 556.21 110.34
  Q 557.32 111.54 556.03 112.55
  L 547.87 118.89
  Q 546.58 119.89 545.40 118.76
  Z"
/>
<path fill="#353734" d="
  M 408.50 133.72
  Q 409.36 135.72 410.22 133.72
  L 423.67 102.45
  Q 423.92 101.88 424.53 101.89
  L 439.49 101.92
  Q 440.80 101.92 440.80 103.24
  L 440.78 168.19
  A 1.22 1.22 0.0 0 1 439.55 169.41
  L 424.47 169.36
  A 0.56 0.56 0.0 0 1 423.91 168.82
  Q 423.70 158.52 424.03 148.11
  C 424.15 144.20 425.34 140.56 424.89 136.56
  A 0.40 0.40 0.0 0 0 424.29 136.25
  Q 423.82 136.51 423.63 137.02
  Q 419.49 148.14 415.78 157.77
  Q 415.23 159.21 413.69 159.18
  L 404.60 159.04
  A 1.45 1.44 -10.0 0 1 403.28 158.12
  Q 399.54 148.69 395.38 137.67
  Q 395.06 136.81 394.38 136.19
  A 0.38 0.38 0.0 0 0 393.74 136.48
  Q 393.89 141.45 394.35 146.70
  C 394.98 153.78 394.77 160.81 394.80 168.07
  A 1.24 1.24 0.0 0 1 393.56 169.31
  L 378.61 169.26
  A 0.41 0.41 0.0 0 1 378.21 168.85
  L 378.22 103.00
  Q 378.22 101.96 379.25 101.96
  L 393.62 101.96
  A 1.93 1.92 78.4 0 1 395.39 103.13
  L 408.50 133.72
  Z"
/>
<path fill="#353734" d="
  M 597.84 118.91
  L 597.89 168.42
  A 0.92 0.92 0.0 0 1 596.97 169.35
  L 581.91 169.43
  A 0.92 0.92 0.0 0 1 580.98 168.51
  L 580.99 118.94
  A 0.92 0.92 0.0 0 0 580.07 118.01
  L 563.90 117.93
  A 0.92 0.92 0.0 0 1 562.99 117.01
  L 562.94 102.74
  A 0.92 0.92 0.0 0 1 563.86 101.82
  L 615.06 101.79
  A 0.92 0.92 0.0 0 1 615.98 102.71
  L 615.98 117.09
  A 0.92 0.92 0.0 0 1 615.06 118.01
  L 598.76 117.99
  A 0.92 0.92 0.0 0 0 597.84 118.91
  Z"
/>
<path fill="#353734" d="
  M 264.00 136.81
  Q 263.75 137.24 263.81 137.70
  Q 265.61 153.51 264.70 168.62
  Q 264.66 169.30 263.98 169.30
  L 249.21 169.25
  A 0.79 0.79 0.0 0 1 248.43 168.46
  L 248.37 102.79
  Q 248.37 101.96 249.21 101.96
  L 263.91 101.99
  A 1.79 1.78 78.6 0 1 265.53 103.07
  L 278.82 134.02
  A 0.83 0.83 0.0 0 0 280.34 134.02
  L 293.82 102.74
  A 1.31 1.31 0.0 0 1 295.02 101.95
  L 309.99 101.96
  A 0.79 0.78 0.0 0 1 310.78 102.74
  L 310.80 168.52
  A 0.81 0.81 0.0 0 1 309.98 169.33
  L 294.93 169.23
  Q 294.05 169.23 294.05 168.35
  Q 294.05 158.77 294.17 150.05
  C 294.22 145.90 295.40 141.80 294.96 137.47
  Q 294.68 134.74 293.72 137.31
  L 285.81 158.28
  Q 285.49 159.14 284.58 159.13
  L 274.41 159.05
  A 0.84 0.84 0.0 0 1 273.63 158.52
  L 265.27 136.90
  Q 264.73 135.51 264.00 136.81
  Z"
/>
<path fill="#353734" d="
  M 486.36 155.80
  L 468.52 155.85
  A 0.41 0.41 0.0 0 0 468.13 156.13
  L 463.91 168.89
  A 0.41 0.41 0.0 0 1 463.53 169.17
  L 446.64 169.41
  A 0.41 0.41 0.0 0 1 446.24 168.87
  L 469.45 102.20
  A 0.41 0.41 0.0 0 1 469.84 101.92
  L 484.59 102.00
  A 0.41 0.41 0.0 0 1 484.98 102.27
  L 508.66 168.81
  A 0.41 0.41 0.0 0 1 508.28 169.36
  L 491.22 169.29
  A 0.41 0.41 0.0 0 1 490.83 169.00
  L 486.75 156.09
  A 0.41 0.41 0.0 0 0 486.36 155.80
  Z
  M 472.21 139.93
  A 0.82 0.82 0.0 0 0 473.01 140.94
  L 481.50 140.99
  A 0.82 0.82 0.0 0 0 482.30 139.99
  L 478.15 121.93
  A 0.82 0.82 0.0 0 0 476.55 121.92
  L 472.21 139.93
  Z"
/>
<path fill="#353734" d="
  M 640.90 128.70
  L 666.75 128.58
  A 0.99 0.99 0.0 0 1 667.75 129.58
  L 667.69 142.05
  A 0.99 0.99 0.0 0 1 666.70 143.04
  L 640.89 142.97
  A 0.99 0.99 0.0 0 0 639.90 143.96
  L 639.88 152.60
  A 0.99 0.99 0.0 0 0 640.88 153.60
  L 669.10 153.47
  A 0.99 0.99 0.0 0 1 670.09 154.46
  L 670.12 168.26
  A 0.99 0.99 0.0 0 1 669.13 169.25
  L 623.91 169.29
  A 0.99 0.99 0.0 0 1 622.92 168.30
  L 622.91 102.88
  A 0.99 0.99 0.0 0 1 623.90 101.89
  L 669.15 101.91
  A 0.99 0.99 0.0 0 1 670.14 102.90
  L 670.10 116.81
  A 0.99 0.99 0.0 0 1 669.11 117.79
  L 640.87 117.61
  A 0.99 0.99 0.0 0 0 639.87 118.60
  L 639.91 127.71
  A 0.99 0.99 0.0 0 0 640.90 128.70
  Z"
/>
<path fill="#353734" d="
  M 696.95 147.76
  A 0.87 0.87 0.0 0 0 696.47 148.54
  L 696.57 168.36
  A 0.93 0.93 0.0 0 1 695.64 169.30
  L 680.25 169.27
  A 0.77 0.77 0.0 0 1 679.48 168.50
  L 679.48 102.30
  A 0.31 0.31 0.0 0 1 679.78 101.99
  Q 695.75 101.83 709.92 102.06
  Q 715.04 102.14 721.69 105.70
  C 726.78 108.43 730.08 113.85 730.84 119.66
  C 732.06 129.09 730.51 139.27 721.86 144.33
  Q 720.30 145.23 718.67 146.06
  A 0.62 0.61 57.3 0 0 718.47 147.00
  L 735.27 168.24
  Q 736.15 169.36 734.73 169.35
  L 716.95 169.24
  A 2.83 2.83 0.0 0 1 714.67 168.06
  Q 707.94 158.70 700.69 148.76
  C 699.81 147.54 698.33 147.06 696.95 147.76
  Z
  M 696.49 118.64
  L 696.53 132.54
  A 1.04 1.04 0.0 0 0 697.58 133.58
  L 706.61 133.55
  A 8.41 7.75 -0.2 0 0 714.99 125.77
  L 714.99 125.29
  A 8.41 7.75 -0.2 0 0 706.55 117.57
  L 697.52 117.60
  A 1.04 1.04 0.0 0 0 696.49 118.64
  Z"
/>
<path fill="#353734" d="
  M 175.13 104.01
  C 153.55 124.95 151.26 161.65 159.19 189.62
  Q 162.45 201.10 169.09 211.61
  C 176.29 222.98 185.70 233.08 194.28 243.43
  Q 210.13 262.55 215.63 285.61
  C 216.98 291.25 217.54 296.57 218.46 302.16
  C 219.30 307.32 219.08 312.60 219.06 317.94
  C 219.04 324.11 217.84 330.69 216.51 336.95
  Q 212.83 354.28 202.07 369.41
  Q 199.33 373.25 196.26 376.36
  Q 194.82 377.82 195.69 375.97
  Q 196.70 373.84 197.32 371.80
  Q 200.17 362.48 200.89 353.09
  C 201.30 347.68 202.45 342.29 201.89 336.93
  Q 201.40 332.33 200.82 327.28
  C 198.65 308.42 190.77 290.42 179.04 274.92
  Q 169.50 262.31 160.35 250.11
  Q 143.13 227.14 138.78 199.20
  Q 136.83 186.71 136.91 177.13
  C 137.14 150.47 146.05 126.16 166.87 108.92
  Q 170.73 105.73 174.66 103.40
  Q 177.51 101.71 175.13 104.01
  Z"
/>
<path fill="#353734" d="
  M 114.25 230.11
  Q 114.91 229.12 115.53 227.55
  Q 119.29 217.95 124.32 208.06
  Q 126.29 204.18 128.65 201.18
  Q 129.49 200.12 129.59 201.47
  Q 130.20 209.53 132.41 217.30
  Q 132.56 217.84 132.17 218.23
  C 125.29 225.23 118.40 234.16 117.12 243.79
  C 116.45 248.88 119.64 256.17 121.79 260.61
  A 1.14 1.14 0.0 0 0 123.64 260.90
  C 129.51 254.74 136.03 248.74 143.43 244.49
  A 1.35 1.34 -32.0 0 1 145.22 244.90
  C 148.50 249.80 151.79 254.47 155.62 259.08
  Q 168.70 274.79 179.24 292.36
  Q 179.71 293.14 179.00 292.57
  C 175.08 289.46 171.09 286.11 166.90 283.56
  Q 142.41 268.68 113.26 272.88
  Q 111.31 273.16 110.49 271.22
  Q 107.06 263.13 105.38 255.80
  C 103.86 249.19 102.74 241.69 102.53 234.70
  Q 101.86 211.80 109.66 189.43
  Q 110.35 187.48 111.51 185.32
  Q 122.35 165.24 133.67 145.11
  Q 138.27 136.91 135.27 145.83
  Q 130.67 159.52 129.23 177.15
  Q 129.12 178.54 128.22 179.65
  Q 118.75 191.35 114.92 206.44
  C 113.00 213.97 113.32 222.00 113.46 229.87
  Q 113.49 231.24 114.25 230.11
  Z"
/>
<path fill="#353734" d="
  M 86.74 245.14
  Q 86.38 245.44 86.30 245.94
  Q 83.55 264.06 85.46 284.24
  Q 85.60 285.67 85.49 287.06
  Q 85.46 287.57 85.10 287.93
  L 77.28 295.82
  A 0.50 0.50 0.0 0 1 76.42 295.48
  Q 75.92 281.32 75.93 266.91
  Q 75.93 266.17 75.42 265.66
  Q 74.90 265.13 74.83 265.87
  C 74.43 270.45 73.12 274.73 72.67 279.33
  Q 71.98 286.36 71.51 293.64
  Q 71.39 295.65 71.47 297.75
  Q 71.58 300.78 71.09 301.77
  Q 66.32 311.49 63.32 321.02
  Q 62.22 324.48 62.41 320.85
  Q 63.63 297.61 66.76 274.74
  C 68.41 262.71 71.32 250.05 73.93 237.89
  Q 74.53 235.10 75.13 237.89
  Q 76.43 243.93 78.73 249.12
  Q 79.21 250.22 79.62 249.09
  C 81.17 244.80 81.90 240.39 83.18 236.03
  Q 88.83 216.79 98.72 198.16
  Q 99.11 197.43 99.22 198.24
  Q 99.31 198.97 99.16 199.70
  C 95.29 218.30 94.00 237.59 96.52 256.63
  Q 97.94 267.30 102.59 276.81
  A 0.90 0.89 69.5 0 1 102.02 278.07
  Q 101.04 278.32 100.20 278.83
  Q 95.75 281.51 91.30 283.92
  A 0.47 0.47 0.0 0 1 90.62 283.62
  Q 90.10 281.51 89.89 279.49
  Q 88.36 264.56 87.37 245.41
  A 0.38 0.38 0.0 0 0 86.74 245.14
  Z"
/>
<path fill="#353734" d="
  M 404.96 260.21
  A 0.76 0.75 87.0 0 0 404.21 259.53
  L 394.73 259.52
  A 0.67 0.67 0.0 0 1 394.06 258.85
  L 393.99 246.99
  Q 393.98 245.71 395.26 245.71
  L 419.96 245.72
  A 1.27 1.27 0.0 0 1 421.23 247.05
  C 420.97 253.29 421.43 259.48 420.80 265.60
  C 419.92 274.26 413.59 280.89 405.42 283.78
  Q 392.91 288.21 381.02 282.45
  Q 368.23 276.25 368.08 261.49
  Q 367.96 249.78 368.14 239.13
  C 368.34 227.71 375.19 220.29 385.93 217.37
  C 398.43 213.97 411.64 217.70 417.67 229.68
  A 0.68 0.68 0.0 0 1 417.34 230.61
  L 404.94 236.26
  Q 404.38 236.51 404.01 236.03
  Q 398.25 228.58 389.36 232.10
  C 386.43 233.26 384.67 236.29 384.67 239.40
  Q 384.65 249.43 384.69 260.89
  C 384.71 265.43 386.80 269.16 391.50 270.06
  C 398.40 271.39 405.90 268.92 404.96 260.21
  Z"
/>
<path fill="#353734" d="
  M 825.59 260.52
  A 1.08 1.08 0.0 0 0 824.55 259.52
  L 815.34 259.26
  A 0.68 0.67 0.5 0 1 814.68 258.60
  L 814.51 246.93
  Q 814.50 245.73 815.70 245.73
  L 840.45 245.74
  A 1.15 1.15 0.0 0 1 841.60 246.87
  Q 841.72 255.00 841.40 263.05
  C 840.97 274.02 834.19 281.34 823.94 284.33
  Q 809.63 288.51 797.39 280.03
  Q 788.42 273.81 788.53 261.71
  Q 788.59 254.68 788.45 248.17
  Q 788.23 238.69 788.98 234.61
  Q 791.04 223.38 802.92 218.57
  C 815.90 213.32 831.05 216.48 837.91 229.52
  A 0.78 0.78 0.0 0 1 837.54 230.60
  L 825.15 236.13
  Q 824.48 236.43 824.11 235.79
  Q 821.21 230.84 814.92 231.02
  Q 805.05 231.29 805.07 240.31
  Q 805.08 250.31 805.09 260.86
  C 805.09 268.33 810.18 270.86 816.78 270.35
  C 822.23 269.93 825.99 266.32 825.59 260.52
  Z"
/>
<path fill="#353734" d="
  M 266.81 243.84
  L 291.74 243.78
  A 1.31 1.31 0.0 0 1 293.05 245.10
  L 292.99 257.11
  A 1.31 1.31 0.0 0 1 291.67 258.41
  L 266.85 258.21
  A 1.31 1.31 0.0 0 0 265.53 259.50
  L 265.38 267.56
  A 1.31 1.31 0.0 0 0 266.70 268.89
  L 294.08 268.75
  A 1.31 1.31 0.0 0 1 295.40 270.07
  L 295.28 283.37
  A 1.31 1.31 0.0 0 1 293.97 284.67
  L 249.77 284.55
  A 1.31 1.31 0.0 0 1 248.46 283.24
  L 248.44 218.39
  A 1.31 1.31 0.0 0 1 249.75 217.08
  L 293.99 216.99
  A 1.31 1.31 0.0 0 1 295.30 218.30
  L 295.31 231.68
  A 1.31 1.31 0.0 0 1 294.00 232.99
  L 266.72 232.93
  A 1.31 1.31 0.0 0 0 265.40 234.26
  L 265.50 242.54
  A 1.31 1.31 0.0 0 0 266.81 243.84
  Z"
/>
<path fill="#353734" d="
  M 343.48 259.82
  Q 343.86 259.32 343.74 258.76
  Q 342.07 251.30 342.03 244.49
  Q 341.96 230.81 341.95 217.84
  Q 341.95 216.98 342.81 216.99
  L 357.38 217.11
  A 0.99 0.98 -90.0 0 1 358.36 218.10
  L 358.49 282.98
  Q 358.49 284.58 356.89 284.64
  Q 349.43 284.92 342.65 284.54
  A 2.32 2.30 -13.0 0 1 340.76 283.37
  Q 335.03 273.14 329.05 262.78
  C 325.74 257.05 323.36 251.23 320.67 245.04
  Q 320.56 244.79 320.24 244.68
  Q 319.26 244.36 319.40 245.38
  C 320.18 250.97 321.37 256.67 321.42 262.26
  Q 321.50 272.39 321.52 283.10
  Q 321.53 284.63 320.00 284.63
  L 306.22 284.70
  Q 305.07 284.70 305.07 283.55
  L 305.02 217.73
  A 0.76 0.76 0.0 0 1 305.78 216.97
  L 319.17 217.07
  A 2.52 2.51 -14.3 0 1 321.33 218.35
  Q 328.17 230.43 335.18 242.86
  C 338.18 248.16 340.07 254.17 343.03 259.78
  A 0.27 0.27 0.0 0 0 343.48 259.82
  Z"
/>
<rect fill="#353734" x="429.74" y="217.04" width="16.32" height="67.66" rx="1.07"/>
<path fill="#353734" d="
  M 496.19 259.48
  C 496.54 256.48 495.56 253.11 495.03 250.14
  Q 494.56 247.53 494.58 244.79
  Q 494.68 231.37 494.57 217.72
  A 0.75 0.75 0.0 0 1 495.32 216.97
  L 510.36 217.11
  A 1.00 1.00 0.0 0 1 511.35 218.11
  L 511.36 283.62
  Q 511.36 284.72 510.26 284.72
  L 495.98 284.72
  A 2.82 2.80 -14.8 0 1 493.51 283.29
  Q 487.38 272.51 481.32 261.88
  C 478.25 256.50 475.84 250.62 473.32 244.96
  A 0.61 0.61 0.0 0 0 472.35 244.75
  Q 472.08 245.00 472.14 245.36
  C 473.04 250.96 474.32 256.21 474.39 261.85
  Q 474.52 272.91 474.44 283.29
  A 1.50 1.49 -89.4 0 1 472.94 284.77
  L 458.54 284.68
  A 0.89 0.89 0.0 0 1 457.66 283.79
  L 457.65 218.16
  A 1.19 1.18 -89.8 0 1 458.84 216.97
  L 471.93 217.06
  A 2.59 2.58 75.3 0 1 474.16 218.37
  Q 480.70 230.01 487.81 242.42
  C 490.91 247.85 493.00 253.90 495.63 259.57
  Q 496.07 260.50 496.19 259.48
  Z"
/>
<path fill="#353734" d="
  M 539.51 268.06
  A 0.85 0.85 0.0 0 0 540.37 268.90
  Q 552.75 268.69 565.00 268.73
  Q 567.10 268.74 568.82 268.97
  A 0.97 0.97 0.0 0 1 569.65 269.94
  L 569.51 283.54
  A 0.95 0.95 0.0 0 1 568.66 284.47
  Q 566.74 284.65 564.86 284.67
  Q 544.67 284.80 524.07 284.64
  Q 522.52 284.62 522.52 283.08
  L 522.45 217.82
  A 0.56 0.54 85.8 0 1 522.91 217.27
  Q 524.71 216.97 526.63 216.97
  Q 548.10 216.95 567.84 217.02
  Q 569.55 217.03 569.55 218.74
  L 569.54 232.23
  A 0.77 0.76 0.0 0 1 568.77 232.99
  L 540.22 232.97
  A 0.81 0.80 -0.3 0 0 539.41 233.78
  L 539.49 242.52
  Q 539.50 243.86 540.83 243.85
  L 565.84 243.75
  Q 566.99 243.75 567.08 244.90
  Q 567.54 250.86 566.95 257.27
  A 1.35 1.34 -87.2 0 1 565.60 258.50
  L 540.96 258.28
  A 1.51 1.50 0.0 0 0 539.44 259.79
  L 539.51 268.06
  Z"
/>
<path fill="#353734" d="
  M 595.72 234.15
  L 595.82 242.68
  A 1.19 1.19 0.0 0 0 597.02 243.86
  L 622.09 243.78
  A 1.19 1.19 0.0 0 1 623.29 244.98
  L 623.27 257.29
  A 1.19 1.19 0.0 0 1 622.07 258.48
  L 597.03 258.21
  A 1.19 1.19 0.0 0 0 595.82 259.40
  L 595.78 267.68
  A 1.19 1.19 0.0 0 0 596.97 268.88
  L 624.81 268.76
  A 1.19 1.19 0.0 0 1 626.01 269.96
  L 625.96 283.52
  A 1.19 1.19 0.0 0 1 624.77 284.71
  L 580.18 284.68
  A 1.19 1.19 0.0 0 1 578.99 283.49
  L 578.94 218.18
  A 1.19 1.19 0.0 0 1 580.13 216.99
  L 624.81 216.99
  A 1.19 1.19 0.0 0 1 626.00 218.18
  L 626.00 231.82
  A 1.19 1.19 0.0 0 1 624.81 233.01
  L 596.91 232.94
  A 1.19 1.19 0.0 0 0 595.72 234.15
  Z"
/>
<path fill="#353734" d="
  M 652.62 263.06
  A 1.06 1.05 -10.6 0 0 651.94 264.04
  L 651.99 284.00
  A 0.74 0.73 -0.4 0 1 651.25 284.74
  L 635.99 284.73
  A 1.00 0.99 0.0 0 1 634.99 283.74
  L 634.98 217.95
  A 0.96 0.96 0.0 0 1 635.93 216.99
  Q 651.03 216.90 662.76 217.02
  C 669.75 217.09 677.09 219.47 681.84 224.67
  C 686.91 230.23 687.54 239.54 686.15 246.57
  Q 684.08 257.08 674.75 260.95
  A 1.08 1.08 0.0 0 0 674.32 262.62
  L 690.89 283.53
  Q 691.85 284.74 690.31 284.74
  L 672.73 284.73
  A 3.18 3.16 -17.7 0 1 670.18 283.42
  Q 663.57 274.27 656.70 264.69
  C 655.73 263.34 654.35 262.40 652.62 263.06
  Z
  M 651.87 233.82
  L 652.05 247.94
  A 0.86 0.86 0.0 0 0 652.92 248.79
  L 662.52 248.67
  A 7.96 7.73 -0.7 0 0 670.38 240.85
  L 670.38 240.47
  A 7.96 7.73 -0.7 0 0 662.32 232.84
  L 652.72 232.95
  A 0.86 0.86 0.0 0 0 651.87 233.82
  Z"
/>
<rect fill="#353734" x="697.26" y="217.02" width="16.64" height="67.72" rx="1.26"/>
<path fill="#353734" d="
  M 739.95 245.82
  Q 739.89 246.41 740.24 248.24
  C 741.14 253.02 742.01 257.91 742.01 262.77
  Q 742.01 273.48 742.05 283.63
  A 1.08 1.08 0.0 0 1 740.97 284.72
  L 726.50 284.74
  A 1.25 1.24 -0.0 0 1 725.25 283.50
  L 725.24 217.87
  A 0.89 0.89 0.0 0 1 726.14 216.98
  L 739.41 217.04
  A 2.81 2.78 75.3 0 1 741.82 218.46
  Q 748.69 230.71 755.24 242.22
  C 758.13 247.31 760.02 252.83 762.54 257.99
  Q 764.67 262.35 763.92 257.56
  C 763.21 253.05 762.13 248.53 762.17 243.88
  Q 762.29 231.06 762.05 217.98
  A 1.01 1.01 0.0 0 1 763.06 216.96
  L 777.41 217.06
  Q 778.99 217.07 778.99 218.66
  L 779.02 283.46
  A 1.24 1.23 -90.0 0 1 777.79 284.70
  L 763.75 284.73
  Q 762.06 284.73 761.20 283.27
  Q 754.55 271.89 748.73 261.45
  C 745.88 256.34 743.62 250.90 741.28 245.60
  Q 740.19 243.16 739.95 245.82
  Z"
/>
<path fill="#353734" d="
  M 193.88 345.37
  A 62.26 62.26 0.0 0 1 131.62 407.63
  A 62.26 62.26 0.0 0 1 69.36 345.37
  A 62.26 62.26 0.0 0 1 131.62 283.11
  A 62.26 62.26 0.0 0 1 193.88 345.37
  Z
  M 107.37 400.89
  C 89.28 389.41 82.02 368.56 90.13 348.44
  C 95.80 334.34 109.02 325.76 123.69 323.52
  Q 130.52 322.48 138.36 324.66
  Q 152.18 328.51 160.57 339.31
  Q 170.14 351.63 169.28 367.06
  Q 168.24 385.89 151.95 398.82
  Q 151.70 399.01 151.86 399.29
  L 151.98 399.51
  Q 152.09 399.70 152.28 399.60
  C 164.04 393.33 172.48 381.99 176.01 369.19
  C 180.78 351.93 175.76 333.34 163.43 320.90
  Q 146.65 303.98 122.06 306.19
  Q 114.60 306.86 108.15 309.69
  Q 84.99 319.85 78.76 344.88
  Q 76.23 355.02 78.23 365.00
  Q 82.87 388.18 102.93 399.50
  Q 104.05 400.14 105.29 400.57
  Q 106.35 400.93 107.30 401.52
  Q 107.33 401.54 107.35 401.51
  L 107.47 401.29
  Q 107.60 401.04 107.37 400.89
  Z
  M 125.20 401.10
  Q 125.04 400.98 124.84 400.93
  Q 121.99 400.20 119.47 398.47
  Q 107.91 390.54 108.38 377.39
  C 108.95 361.40 125.32 351.19 139.52 356.61
  C 150.87 360.96 156.46 371.82 154.47 383.75
  Q 154.43 384.01 154.66 384.12
  Q 155.01 384.28 155.16 383.94
  C 164.65 363.38 150.92 340.46 128.63 338.51
  Q 120.47 337.79 112.70 341.54
  C 91.48 351.78 87.99 381.07 107.07 395.65
  Q 114.86 401.61 125.02 402.06
  A 0.39 0.38 -76.0 0 0 125.40 401.82
  Q 125.59 401.39 125.20 401.10
  Z"
/>
<path fill="#353734" d="
  M 278.09 379.55
  C 277.73 375.62 270.85 373.95 267.59 373.42
  C 256.20 371.55 246.27 365.15 245.86 352.83
  C 245.53 343.09 251.35 336.41 260.25 333.41
  C 267.20 331.06 277.60 331.18 284.34 335.25
  Q 289.04 338.10 292.22 341.92
  A 0.54 0.53 -38.5 0 1 292.13 342.69
  L 282.80 349.82
  A 1.02 1.02 0.0 0 1 281.56 349.81
  C 277.03 346.30 272.31 344.27 266.54 345.78
  Q 264.41 346.33 263.18 348.08
  C 259.71 352.99 264.78 356.68 269.06 357.62
  Q 273.52 358.59 277.74 359.65
  C 284.63 361.37 292.07 366.10 293.65 373.32
  C 296.69 387.20 289.78 396.05 276.87 399.87
  Q 259.76 404.92 245.97 390.14
  A 1.13 1.13 0.0 0 1 246.03 388.54
  L 254.95 380.19
  A 1.08 1.08 0.0 0 1 256.46 380.23
  C 260.99 384.94 268.45 386.88 274.44 384.93
  Q 278.46 383.63 278.09 379.55
  Z"
/>
<path fill="#353734" d="
  M 314.37 397.92
  Q 300.86 391.85 300.92 376.29
  Q 300.97 364.73 301.10 353.23
  Q 301.16 347.70 305.05 342.27
  C 311.77 332.88 325.22 330.56 336.21 332.60
  C 347.52 334.70 356.44 342.83 356.66 354.98
  Q 356.86 366.22 356.72 377.23
  Q 356.52 391.79 343.49 397.82
  Q 329.03 404.51 314.37 397.92
  Z
  M 339.9685 355.7196
  A 8.66 8.66 0.0 0 0 331.3236 347.0445
  L 326.1636 347.0355
  A 8.66 8.66 0.0 0 0 317.4885 355.6804
  L 317.4515 376.9004
  A 8.66 8.66 0.0 0 0 326.0964 385.5755
  L 331.2564 385.5845
  A 8.66 8.66 0.0 0 0 339.9315 376.9396
  L 339.9685 355.7196
  Z"
/>
<path fill="#353734" d="
  M 401.40 379.93
  L 414.06 385.91
  Q 415.09 386.40 414.51 387.37
  Q 407.10 399.99 392.24 401.14
  Q 384.18 401.76 375.58 397.04
  Q 364.46 390.93 364.62 376.50
  Q 364.75 364.83 364.73 354.16
  C 364.69 334.48 390.44 326.30 405.27 335.75
  C 408.85 338.02 412.90 342.21 414.25 346.50
  A 0.81 0.80 -19.9 0 1 413.78 347.49
  L 402.75 351.87
  A 1.78 1.78 0.0 0 1 400.79 351.43
  Q 394.97 345.22 386.85 347.90
  Q 381.42 349.70 381.34 355.27
  Q 381.16 366.16 381.28 377.47
  Q 381.33 383.33 386.69 384.87
  Q 396.09 387.57 400.39 380.24
  A 0.78 0.78 0.0 0 1 401.40 379.93
  Z"
/>
<path fill="#353734" d="
  M 519.94 348.60
  L 503.53 348.52
  A 0.83 0.82 -0.4 0 1 502.71 347.72
  L 502.28 333.63
  Q 502.25 332.51 503.37 332.51
  L 554.51 332.51
  Q 555.75 332.51 555.75 333.75
  L 555.74 347.52
  A 1.01 1.00 -0.0 0 1 554.73 348.52
  L 539.02 348.54
  Q 537.64 348.54 537.64 349.92
  L 537.67 399.31
  A 0.98 0.98 0.0 0 1 536.70 400.29
  L 521.82 400.35
  A 0.81 0.80 89.7 0 1 521.01 399.54
  Q 520.98 377.45 520.99 354.71
  Q 520.99 351.99 520.72 349.31
  Q 520.65 348.61 519.94 348.60
  Z"
/>
<rect fill="#353734" x="422.33" y="332.72" width="16.64" height="67.58" rx="1.38"/>
<path fill="#353734" d="
  M 467.26 358.20
  A 0.94 0.93 -0.0 0 0 468.20 359.13
  L 493.94 359.07
  A 0.76 0.75 87.5 0 1 494.69 359.76
  Q 495.29 366.83 494.88 373.25
  A 0.88 0.88 0.0 0 1 494.00 374.07
  L 468.17 374.04
  A 0.94 0.94 0.0 0 0 467.23 374.98
  L 467.32 383.64
  A 0.92 0.91 89.1 0 0 468.25 384.55
  C 477.45 384.36 487.24 383.87 496.57 384.63
  A 0.75 0.74 2.5 0 1 497.25 385.37
  L 497.26 398.73
  Q 497.26 400.22 495.77 400.22
  L 451.24 400.29
  Q 450.54 400.30 450.46 399.60
  Q 450.36 398.73 450.36 397.93
  Q 450.27 369.11 450.27 340.01
  Q 450.27 336.46 450.53 333.18
  Q 450.57 332.68 451.07 332.68
  L 496.42 332.70
  A 0.73 0.72 89.6 0 1 497.14 333.42
  L 497.26 347.04
  Q 497.27 348.36 495.97 348.57
  Q 494.46 348.82 492.86 348.77
  Q 480.05 348.37 468.21 348.51
  A 0.95 0.94 89.7 0 0 467.28 349.46
  L 467.26 358.20
  Z"
/>
<path fill="#353734" d="
  M 589.02 357.11
  Q 589.30 356.88 589.46 356.55
  Q 594.63 345.87 600.67 333.32
  Q 600.94 332.78 601.54 332.78
  L 619.26 332.74
  A 0.71 0.71 0.0 0 1 619.88 333.81
  Q 609.01 352.42 598.24 371.32
  Q 597.18 373.18 597.19 375.37
  Q 597.25 387.82 597.15 399.00
  Q 597.14 400.18 595.97 400.18
  L 581.28 400.29
  A 0.81 0.81 0.0 0 1 580.47 399.47
  Q 580.58 387.93 580.26 375.53
  Q 580.21 373.63 579.34 372.07
  Q 569.88 355.22 560.80 339.55
  Q 559.06 336.54 556.93 333.41
  A 0.44 0.44 0.0 0 1 557.29 332.73
  L 574.57 332.80
  A 2.47 2.46 77.2 0 1 576.77 334.19
  L 587.85 356.87
  A 0.75 0.75 0.0 0 0 589.02 357.11
  Z"
/>
</svg>
