<?xml version="1.0" encoding="UTF-8" standalone="no"?>
<!DOCTYPE svg PUBLIC "-//W3C//DTD SVG 1.1//EN" "http://www.w3.org/Graphics/SVG/1.1/DTD/svg11.dtd">
<svg xmlns="http://www.w3.org/2000/svg" version="1.1" viewBox="0.00 0.00 280.00 394.00">
<path fill="#000000" d="
  M 68.25 102.94
  Q 69.80 104.33 71.58 105.68
  Q 73.51 107.13 72.20 109.53
  Q 71.95 109.99 72.11 110.49
  Q 72.83 112.75 71.44 114.67
  Q 70.60 115.83 69.71 117.09
  Q 69.41 117.51 69.45 118.03
  Q 69.51 118.93 70.13 119.72
  A 2.39 2.38 -42.5 0 1 69.99 122.83
  Q 66.91 126.09 63.31 123.25
  A 0.33 0.32 22.4 0 0 62.79 123.46
  C 62.25 127.44 61.95 131.34 60.92 135.30
  Q 59.59 140.40 60.09 145.76
  Q 60.44 149.58 60.27 153.47
  Q 60.10 157.49 59.77 161.50
  Q 59.66 162.82 58.61 162.02
  Q 58.04 161.60 58.61 160.96
  A 0.69 0.66 -31.2 0 0 58.76 160.40
  Q 58.63 159.82 58.22 159.96
  A 0.52 0.51 -17.2 0 1 57.57 159.62
  Q 57.46 159.21 57.54 158.79
  Q 57.89 156.92 56.62 158.33
  Q 54.60 160.57 54.00 163.36
  A 0.48 0.48 0.0 0 1 53.12 163.50
  Q 52.80 162.96 52.21 162.74
  Q 51.60 162.52 51.54 163.17
  Q 51.41 164.45 50.23 164.82
  Q 49.70 164.99 49.45 165.47
  L 48.82 166.67
  A 0.64 0.64 0.0 0 1 47.86 166.88
  Q 45.40 164.95 43.24 166.33
  A 0.50 0.50 0.0 0 1 42.47 165.92
  Q 42.42 163.98 41.41 162.27
  Q 41.12 161.80 40.59 161.92
  L 40.05 162.04
  Q 39.43 162.18 39.38 161.55
  L 39.24 160.05
  Q 39.20 159.61 38.76 159.51
  Q 37.84 159.32 37.62 160.26
  Q 37.26 161.77 36.34 162.84
  A 0.82 0.82 0.0 0 1 34.92 162.49
  Q 34.13 159.03 33.49 156.00
  Q 33.08 154.05 31.51 152.78
  Q 31.04 152.40 31.03 153.00
  Q 30.99 157.09 32.77 160.99
  A 0.33 0.33 0.0 0 1 32.70 161.38
  L 32.42 161.67
  Q 32.18 161.92 32.03 161.60
  C 31.01 159.30 29.63 157.19 29.76 154.55
  C 30.03 148.99 28.06 143.81 29.18 138.24
  Q 30.67 130.89 31.24 123.90
  Q 31.33 122.79 30.42 122.16
  A 1.02 1.00 -68.6 0 1 29.99 121.15
  Q 30.07 120.71 29.96 120.28
  Q 29.83 119.80 29.43 119.42
  Q 24.25 114.48 17.70 111.67
  Q 17.46 111.57 17.56 111.33
  L 17.66 111.10
  A 0.49 0.48 -70.0 0 1 18.26 110.82
  C 22.69 112.24 26.59 115.63 30.31 118.37
  Q 30.37 118.41 30.41 118.35
  L 30.59 118.15
  A 0.42 0.41 41.4 0 0 30.55 117.58
  Q 25.35 112.70 19.40 109.97
  Q 18.89 109.74 18.81 109.18
  L 18.74 108.73
  Q 18.66 108.18 18.22 107.85
  L 14.85 105.28
  Q 14.41 104.94 14.54 104.40
  L 14.70 103.77
  Q 14.85 103.19 14.35 102.84
  Q 13.67 102.36 13.64 101.52
  Q 13.63 100.91 13.03 100.81
  Q 12.15 100.67 11.53 99.98
  Q 11.03 99.44 11.74 99.22
  Q 12.80 98.90 13.46 98.10
  A 1.18 1.17 26.7 0 1 14.65 97.71
  Q 16.05 98.06 17.25 98.82
  Q 18.70 99.74 18.65 98.03
  Q 18.63 97.31 17.89 96.85
  Q 16.67 96.10 17.93 95.43
  Q 18.72 95.02 19.76 95.18
  Q 20.06 95.22 20.30 95.03
  Q 20.50 94.88 20.47 94.70
  Q 20.45 94.55 20.31 94.48
  Q 19.45 94.05 18.80 93.37
  A 0.43 0.43 0.0 0 1 18.95 92.67
  C 20.04 92.24 21.67 92.96 22.79 93.17
  A 0.33 0.33 0.0 0 0 23.10 92.62
  L 22.12 91.56
  Q 20.54 89.86 22.79 90.43
  Q 25.69 91.17 27.56 87.79
  Q 27.87 87.24 27.44 86.77
  Q 26.85 86.11 27.25 85.45
  Q 27.51 85.01 28.03 85.02
  Q 30.90 85.12 32.99 83.43
  A 0.97 0.96 -61.8 0 1 33.67 83.22
  C 34.96 83.31 36.05 84.25 37.34 84.10
  Q 38.41 83.97 38.44 82.75
  A 1.76 1.75 -11.8 0 1 39.45 81.21
  Q 40.38 80.77 40.67 79.77
  Q 41.85 75.69 43.26 71.81
  C 44.12 69.45 43.19 67.42 44.38 65.14
  A 0.76 0.76 0.0 0 0 43.70 64.03
  Q 36.27 64.14 30.28 64.46
  Q 26.79 64.64 19.01 62.75
  Q 14.43 61.64 8.65 57.58
  Q 8.27 57.31 8.13 56.88
  Q 6.46 51.86 1.32 48.99
  A 0.84 0.83 -53.8 0 1 1.12 47.69
  Q 2.26 46.46 3.09 44.98
  C 5.40 40.81 12.42 38.13 16.93 39.18
  Q 19.94 39.88 23.21 39.73
  Q 23.80 39.70 24.29 39.36
  Q 27.17 37.38 30.55 38.28
  A 3.52 3.40 -42.9 0 0 32.13 38.31
  Q 35.84 37.50 39.08 38.55
  Q 44.05 40.14 48.79 37.70
  Q 49.28 37.45 49.29 36.90
  C 49.38 31.01 50.56 24.72 51.96 18.34
  C 53.05 13.36 55.70 9.11 57.74 4.53
  Q 57.92 4.14 57.85 3.76
  Q 57.76 3.19 57.48 2.62
  Q 56.83 1.34 58.15 1.90
  Q 59.38 2.42 58.73 4.51
  Q 58.35 5.73 59.32 4.91
  Q 60.04 4.31 59.82 3.43
  Q 59.61 2.59 60.40 2.26
  Q 61.25 1.91 61.97 1.31
  A 2.73 2.73 0.0 0 1 66.08 2.08
  Q 66.30 2.48 66.69 2.76
  A 1.01 1.01 0.0 0 0 68.17 2.42
  Q 68.73 1.42 69.77 1.21
  Q 70.28 1.10 70.61 1.50
  Q 72.42 3.70 70.66 5.82
  Q 69.81 6.84 71.11 6.55
  Q 72.29 6.29 73.46 6.91
  C 74.18 7.30 74.42 8.02 75.11 8.47
  Q 75.57 8.77 76.08 8.55
  Q 76.42 8.39 76.67 8.84
  A 0.91 0.89 -55.5 0 1 76.77 9.42
  Q 76.12 12.75 76.04 16.23
  Q 76.03 16.69 76.35 17.03
  A 0.39 0.39 0.0 0 0 77.00 16.88
  Q 77.28 16.05 77.87 15.36
  A 0.29 0.29 0.0 0 1 78.37 15.47
  Q 78.68 16.55 79.61 17.27
  Q 80.23 17.74 79.47 17.88
  Q 79.22 17.93 79.23 17.72
  A 0.14 0.14 0.0 0 0 79.02 17.59
  Q 78.17 18.02 78.16 19.00
  Q 78.14 24.56 77.59 29.89
  Q 77.55 30.29 77.86 30.54
  Q 77.98 30.64 78.14 30.66
  Q 79.06 30.78 78.18 31.08
  Q 77.81 31.20 77.57 31.54
  A 1.05 1.05 0.0 0 0 78.39 33.18
  Q 82.48 33.36 86.70 33.24
  C 87.89 33.21 89.02 34.01 90.07 33.86
  Q 95.47 33.08 99.54 31.93
  C 103.31 30.86 106.02 25.41 110.61 27.92
  Q 111.12 28.20 111.69 28.20
  C 115.88 28.21 115.90 30.86 118.46 33.18
  Q 122.40 36.73 126.49 40.64
  Q 126.94 41.07 127.06 41.68
  L 129.13 52.54
  Q 129.22 53.01 128.97 53.42
  Q 128.57 54.09 128.72 54.76
  Q 129.75 59.23 128.76 63.15
  C 128.19 65.40 128.85 67.39 128.71 69.67
  Q 128.67 70.25 128.93 70.78
  Q 129.79 72.55 129.26 74.29
  Q 129.12 74.76 129.31 75.22
  Q 129.77 76.30 129.72 77.56
  A 0.60 0.59 6.9 0 0 130.20 78.16
  Q 130.53 78.22 130.86 78.14
  A 1.12 1.11 0.9 0 0 131.64 77.39
  Q 131.87 76.60 132.71 76.39
  Q 133.26 76.25 133.79 76.48
  C 135.27 77.11 136.32 76.30 137.75 76.14
  Q 141.27 75.75 144.71 75.03
  Q 145.75 74.81 144.93 75.47
  Q 143.83 76.36 142.33 76.98
  Q 141.81 77.20 142.31 77.47
  Q 142.75 77.70 143.27 77.60
  C 145.36 77.16 147.32 76.53 149.48 76.91
  Q 151.47 77.25 153.35 77.10
  Q 153.54 77.08 153.68 77.20
  Q 153.79 77.29 153.79 77.43
  Q 153.80 77.57 153.66 77.58
  Q 147.69 77.80 140.99 79.31
  Q 140.44 79.43 140.68 80.17
  A 0.78 0.76 81.9 0 0 141.36 80.69
  Q 145.31 80.88 149.56 79.80
  Q 152.92 78.95 157.53 80.49
  Q 158.05 80.66 158.19 81.19
  Q 158.60 82.69 160.35 82.39
  Q 160.95 82.28 161.49 82.58
  Q 164.68 84.35 168.23 84.44
  C 170.29 84.49 172.08 85.34 174.17 85.20
  Q 174.44 85.18 174.42 84.91
  L 174.40 84.49
  Q 174.39 84.43 174.33 84.42
  L 172.01 84.05
  Q 171.54 83.98 171.46 83.50
  Q 171.26 82.33 170.08 82.17
  Q 169.65 82.12 169.65 81.68
  Q 169.64 81.37 169.95 81.32
  Q 171.24 81.10 172.44 80.98
  Q 173.19 80.91 172.50 80.60
  L 170.72 79.79
  A 0.47 0.47 0.0 0 1 170.64 78.98
  Q 172.42 77.73 174.67 78.44
  Q 175.11 78.58 175.30 78.15
  Q 175.36 78.02 175.30 77.88
  Q 175.04 77.35 175.63 77.37
  Q 181.98 77.58 187.87 79.70
  Q 187.98 79.74 187.95 79.86
  L 187.89 80.12
  Q 187.82 80.38 187.56 80.34
  Q 185.39 80.03 183.22 79.22
  Q 181.59 78.62 179.91 79.13
  Q 178.19 79.65 179.97 79.87
  Q 183.84 80.36 187.38 82.78
  Q 187.67 82.98 187.70 83.33
  L 187.73 83.71
  A 0.82 0.79 15.9 0 0 188.07 84.30
  L 190.89 86.26
  Q 191.18 86.46 191.11 86.80
  Q 191.07 87.02 190.91 87.04
  Q 190.31 87.09 190.80 87.43
  Q 192.71 88.74 194.87 89.95
  Q 196.69 90.97 195.73 92.58
  Q 195.48 93.02 195.46 93.52
  Q 195.38 95.77 195.44 98.16
  C 195.56 103.31 189.21 106.75 186.65 110.66
  C 182.88 116.42 176.75 114.49 171.19 114.61
  Q 168.47 114.67 165.88 113.57
  C 161.33 111.63 155.94 111.32 151.15 112.13
  C 148.57 112.57 146.18 112.24 143.62 112.58
  Q 136.66 113.49 130.39 114.53
  Q 126.67 115.15 121.26 113.20
  Q 120.61 112.96 121.02 113.53
  Q 122.92 116.15 126.06 116.95
  Q 126.43 117.05 126.35 117.42
  L 126.28 117.76
  Q 126.24 117.95 126.05 117.92
  Q 121.92 117.25 118.20 115.12
  Q 116.42 114.10 114.65 113.05
  Q 106.04 107.92 103.82 97.98
  Q 102.31 91.18 102.28 91.08
  Q 100.85 85.85 99.94 80.48
  Q 99.85 79.98 100.04 79.51
  Q 100.61 78.08 99.88 76.57
  Q 99.65 76.07 99.71 75.53
  C 100.15 71.68 101.07 66.81 100.33 63.03
  Q 99.95 61.06 100.66 58.94
  A 0.76 0.75 -83.5 0 0 99.87 57.94
  Q 99.04 58.02 98.23 58.26
  Q 92.27 60.02 86.12 62.01
  C 83.10 62.99 80.06 62.89 77.26 61.41
  A 1.34 1.34 0.0 0 0 75.33 62.25
  L 71.57 76.29
  A 0.95 0.95 0.0 0 1 70.35 76.95
  Q 70.14 76.88 69.97 76.73
  Q 69.59 76.41 69.45 76.88
  Q 68.93 78.70 68.91 80.81
  A 1.00 1.00 0.0 0 0 69.26 81.57
  Q 70.39 82.56 70.01 84.46
  Q 68.67 91.25 67.29 97.92
  Q 67.18 98.46 67.64 98.77
  L 74.08 103.07
  Q 74.18 103.14 74.13 103.25
  L 74.03 103.48
  Q 73.77 104.06 73.25 103.69
  Q 72.34 103.03 71.17 102.26
  Q 71.10 102.21 71.05 102.27
  L 70.88 102.46
  Q 70.84 102.51 70.89 102.55
  Q 72.09 103.54 72.91 104.70
  Q 73.58 105.65 72.60 105.03
  Q 70.61 103.77 68.42 102.69
  Q 67.42 102.19 68.25 102.94
  Z
  M 63.02 4.83
  Q 62.71 5.70 63.46 5.17
  Q 64.43 4.48 64.34 3.27
  Q 64.28 2.54 63.87 3.15
  Q 63.35 3.93 63.02 4.83
  Z
  M 72.84 10.38
  Q 72.92 10.85 73.36 10.64
  Q 74.43 10.14 74.14 9.01
  Q 74.02 8.55 73.60 8.24
  A 0.42 0.41 26.0 0 0 72.95 8.46
  Q 72.68 9.48 72.84 10.38
  Z
  M 72.6572 65.7933
  A 0.26 0.26 0.0 0 0 72.4722 65.4755
  L 72.2402 65.4142
  A 0.26 0.26 0.0 0 0 71.9224 65.5991
  L 69.3628 75.2867
  A 0.26 0.26 0.0 0 0 69.5478 75.6045
  L 69.7798 75.6658
  A 0.26 0.26 0.0 0 0 70.0976 75.4809
  L 72.6572 65.7933
  Z
  M 140.65 77.37
  Q 141.58 76.91 140.59 76.62
  Q 139.33 76.26 138.84 77.16
  Q 138.43 77.92 139.29 77.79
  Q 140.03 77.67 140.65 77.37
  Z
  M 156.08 81.01
  A 0.49 0.49 0.0 0 0 155.31 81.28
  Q 155.25 81.54 155.34 81.80
  A 0.54 0.53 54.0 0 0 156.27 81.95
  Q 156.66 81.44 156.08 81.01
  Z
  M 179.59 81.91
  Q 180.27 81.90 179.70 81.54
  Q 179.05 81.13 178.29 81.11
  A 0.25 0.25 0.0 0 0 178.18 81.59
  Q 178.91 81.91 179.59 81.91
  Z"
/>
<path fill="#000000" d="
  M 148.73 140.34
  Q 150.53 140.09 151.88 139.00
  Q 152.52 138.48 152.19 139.23
  Q 151.09 141.75 149.20 142.93
  C 147.43 144.04 145.91 146.36 144.99 148.17
  C 144.01 150.10 141.85 150.87 140.54 152.57
  Q 135.83 158.66 129.47 164.23
  Q 128.75 164.87 128.26 165.66
  Q 128.09 165.94 128.18 166.25
  L 129.05 169.24
  A 0.27 0.27 0.0 0 0 129.51 169.34
  Q 131.87 166.55 134.64 164.34
  A 1.95 1.94 75.7 0 0 135.32 163.19
  Q 135.70 161.12 137.47 160.55
  A 1.11 1.08 7.1 0 0 138.05 160.11
  L 142.38 153.54
  Q 142.59 153.20 142.29 152.95
  Q 142.19 152.85 142.03 152.82
  A 0.05 0.05 0.0 0 1 142.01 152.74
  C 145.35 149.41 148.04 145.43 151.44 141.92
  C 153.64 139.65 155.68 137.38 158.17 135.39
  Q 166.61 128.63 178.30 124.98
  C 180.19 124.39 182.12 124.40 184.04 123.97
  C 189.90 122.66 195.16 126.23 198.08 131.52
  Q 198.66 132.56 198.47 133.65
  Q 198.38 134.16 198.87 134.35
  L 199.74 134.69
  A 0.67 0.67 0.0 0 1 200.09 135.62
  C 199.51 136.72 198.80 137.64 197.57 138.07
  Q 195.12 138.92 194.24 141.99
  Q 194.01 142.82 194.74 142.37
  L 198.17 140.28
  Q 198.42 140.13 198.51 140.42
  L 198.68 141.00
  Q 198.73 141.16 198.60 141.26
  Q 196.92 142.60 195.05 142.99
  Q 194.72 143.06 194.70 143.40
  L 194.66 143.92
  Q 194.63 144.33 195.03 144.23
  Q 204.23 141.97 212.79 141.35
  Q 214.56 141.22 217.45 140.25
  Q 219.90 139.43 222.64 139.69
  Q 226.51 140.04 230.39 140.44
  Q 232.59 140.67 234.69 139.76
  Q 238.99 137.90 242.84 137.71
  Q 249.93 137.36 259.65 137.79
  Q 260.33 137.82 260.35 138.49
  Q 260.43 140.95 262.03 142.58
  Q 262.28 142.83 261.97 143.01
  Q 260.92 143.62 261.26 144.79
  Q 262.53 149.16 264.55 151.94
  Q 264.86 152.37 264.48 152.75
  L 251.18 165.86
  Q 250.79 166.24 250.81 166.79
  C 250.94 169.70 248.52 169.61 247.14 171.39
  A 1.43 1.38 7.4 0 1 246.56 171.82
  Q 243.99 172.81 241.48 172.80
  Q 240.95 172.80 240.47 173.01
  L 236.22 174.91
  Q 235.35 175.30 235.52 174.36
  Q 235.63 173.80 235.38 173.34
  Q 235.01 172.67 234.25 172.81
  L 232.26 173.17
  Q 232.19 173.18 232.18 173.11
  L 232.16 172.82
  A 0.19 0.19 0.0 0 1 232.35 172.61
  Q 234.56 172.61 236.60 171.54
  Q 237.01 171.32 237.48 171.37
  Q 238.33 171.45 239.09 171.19
  Q 239.85 170.93 239.05 170.91
  Q 233.03 170.75 229.15 172.75
  C 225.30 174.73 221.80 174.53 217.77 175.16
  Q 215.34 175.54 212.91 176.20
  Q 212.29 176.37 212.87 176.65
  Q 213.59 177.00 214.41 176.91
  Q 216.74 176.65 219.11 176.53
  Q 219.34 176.52 219.36 176.75
  L 219.36 176.76
  Q 219.37 176.92 219.21 176.95
  C 215.71 177.60 212.21 177.63 208.80 178.82
  C 206.52 179.61 202.81 180.62 200.55 179.19
  A 1.86 1.85 -48.4 0 0 198.38 179.32
  Q 195.05 182.05 190.50 180.65
  Q 189.95 180.49 189.72 179.97
  Q 188.30 176.87 185.37 175.84
  Q 182.76 174.92 180.75 172.88
  Q 180.43 172.55 180.33 172.09
  C 179.77 169.38 177.18 170.99 175.89 169.46
  Q 175.35 168.82 176.08 169.24
  Q 176.85 169.69 177.71 169.81
  A 1.74 1.74 0.0 0 0 178.83 169.58
  Q 179.35 169.26 179.90 169.34
  Q 182.05 169.65 180.28 168.40
  Q 179.13 167.58 177.85 166.92
  Q 177.41 166.69 177.56 166.22
  Q 177.64 165.96 177.80 165.74
  Q 178.89 164.26 177.05 164.26
  Q 176.88 164.26 176.77 164.39
  Q 172.86 169.13 169.87 173.54
  Q 169.71 173.78 169.47 173.62
  L 169.25 173.46
  Q 169.20 173.43 169.24 173.37
  Q 170.83 171.02 172.45 168.68
  C 173.42 167.28 175.03 166.06 175.48 164.43
  Q 175.85 163.11 174.84 164.04
  Q 169.30 169.16 165.81 176.68
  Q 164.86 178.74 164.46 185.34
  C 164.21 189.51 155.52 193.72 157.64 198.09
  Q 157.85 198.54 157.36 198.62
  C 153.85 199.16 152.27 198.30 149.51 196.91
  A 0.61 0.61 0.0 0 0 148.69 197.19
  L 147.42 199.78
  Q 147.14 200.34 146.57 200.08
  L 146.06 199.85
  Q 145.55 199.61 145.07 199.93
  L 143.56 200.94
  Q 143.06 201.27 142.53 201.00
  C 139.91 199.68 140.34 197.88 140.07 195.49
  Q 140.00 194.88 139.42 194.64
  C 136.20 193.33 136.48 190.09 136.47 187.22
  Q 136.47 186.54 135.81 186.36
  Q 134.69 186.05 133.53 186.63
  A 0.70 0.70 0.0 0 0 133.21 187.56
  L 133.38 187.89
  Q 133.62 188.39 133.15 188.11
  Q 131.84 187.33 131.65 185.59
  Q 131.58 185.01 131.14 184.65
  Q 130.15 183.85 129.68 182.68
  Q 128.88 180.72 128.93 182.84
  Q 128.96 184.55 129.55 185.96
  Q 129.77 186.50 129.54 187.03
  Q 128.48 189.52 128.76 192.24
  Q 129.41 198.44 129.45 203.94
  Q 129.48 208.41 129.23 213.35
  Q 128.80 221.57 130.65 229.31
  C 131.07 231.05 130.56 232.52 130.78 234.29
  A 1.44 1.43 21.2 0 0 131.13 235.08
  Q 131.87 235.91 131.97 236.97
  Q 132.17 239.29 132.25 241.28
  Q 132.48 247.36 131.46 257.33
  C 131.23 259.63 131.93 261.81 131.53 264.04
  Q 131.20 265.85 131.72 267.57
  Q 131.94 268.27 131.68 268.95
  Q 130.84 271.19 131.83 273.57
  Q 132.11 274.25 131.80 274.92
  Q 130.84 276.99 130.47 279.27
  C 130.00 282.13 127.85 285.15 126.25 287.56
  C 125.20 289.15 125.51 291.12 125.79 292.87
  Q 125.86 293.27 125.69 293.65
  Q 125.53 294.00 125.22 294.23
  Q 124.61 294.68 124.42 293.95
  Q 124.36 293.72 124.29 293.49
  Q 124.10 292.88 124.64 293.23
  Q 124.98 293.47 124.94 292.44
  A 1.06 1.05 6.3 0 0 124.15 291.46
  Q 121.16 290.68 118.04 290.87
  Q 117.50 290.90 117.09 290.55
  Q 115.13 288.88 114.19 286.21
  A 0.34 0.33 76.7 0 0 113.84 285.99
  L 113.38 286.04
  Q 113.00 286.08 113.16 286.42
  L 114.94 290.32
  Q 114.99 290.43 114.88 290.47
  L 114.63 290.58
  Q 114.47 290.66 114.38 290.51
  Q 113.00 288.33 111.09 287.52
  A 0.60 0.60 0.0 0 0 110.26 288.06
  Q 110.20 289.92 110.84 291.81
  A 0.47 0.47 0.0 0 1 110.42 292.43
  Q 110.11 292.45 109.93 292.20
  Q 108.89 290.80 107.95 289.20
  Q 107.70 288.78 107.29 288.52
  C 105.55 287.43 104.93 285.32 104.28 283.45
  Q 103.80 282.07 103.69 280.53
  Q 103.54 278.34 102.21 276.31
  C 101.34 274.97 102.23 272.96 102.17 271.45
  Q 101.97 266.05 101.80 260.19
  Q 101.65 255.41 103.10 246.90
  C 103.76 243.01 103.37 237.39 102.84 232.77
  Q 101.96 225.04 101.20 217.05
  Q 100.82 213.09 101.41 209.74
  Q 102.73 202.25 103.07 194.84
  A 0.48 0.48 0.0 0 0 102.35 194.40
  Q 100.67 195.40 99.05 196.49
  Q 98.95 196.56 98.86 196.47
  L 98.86 196.46
  Q 98.72 196.30 98.86 196.15
  Q 100.16 194.84 102.05 194.00
  A 1.81 1.81 0.0 0 0 103.12 192.32
  L 103.05 189.24
  A 0.43 0.43 0.0 0 0 102.32 188.95
  Q 100.61 190.67 98.63 191.91
  Q 96.90 193.00 95.10 194.61
  Q 91.27 198.01 86.42 200.43
  A 0.42 0.41 -20.8 0 1 85.83 200.17
  L 85.71 199.71
  Q 85.59 199.26 85.99 199.05
  Q 90.31 196.73 93.65 193.55
  Q 94.08 193.15 93.88 192.60
  Q 93.72 192.15 93.27 192.32
  Q 89.95 193.62 86.77 195.72
  Q 86.29 196.04 85.72 196.08
  Q 84.62 196.16 83.81 196.93
  A 0.84 0.83 -45.8 0 1 82.68 196.95
  Q 81.80 196.18 81.32 197.21
  C 80.76 198.38 79.51 198.63 78.49 199.25
  Q 77.61 199.80 77.79 198.78
  L 78.03 197.45
  Q 78.18 196.65 77.45 197.02
  L 76.57 197.46
  Q 75.70 197.90 76.05 196.99
  Q 76.37 196.19 76.95 195.51
  Q 77.34 195.04 77.27 194.49
  Q 77.15 193.61 76.52 194.23
  L 76.24 194.51
  A 0.20 0.20 0.0 0 1 75.94 194.25
  Q 76.50 193.47 75.85 192.89
  Q 75.57 192.64 75.26 192.85
  Q 73.84 193.83 73.33 195.28
  Q 72.77 196.85 72.15 195.31
  L 71.04 192.57
  Q 70.85 192.12 71.08 191.68
  L 71.59 190.68
  Q 71.83 190.20 71.48 189.79
  Q 70.32 188.45 70.41 186.76
  A 1.86 1.83 33.6 0 0 70.21 185.81
  C 69.03 183.50 68.66 180.38 70.43 178.16
  C 72.32 175.77 73.60 173.58 76.36 171.94
  C 78.23 170.83 79.46 169.25 81.07 167.87
  C 88.70 161.36 95.56 154.98 104.09 148.35
  Q 108.87 144.63 114.84 138.54
  C 117.79 135.53 121.29 133.22 124.22 130.12
  Q 126.75 127.46 130.63 125.12
  Q 131.10 124.84 131.44 125.28
  Q 131.68 125.59 131.69 126.00
  A 0.62 0.62 0.0 0 0 132.25 126.59
  Q 134.61 126.80 136.45 126.39
  Q 137.27 126.21 136.76 126.88
  Q 136.65 127.02 136.81 127.21
  Q 137.12 127.56 137.55 127.38
  C 138.34 127.06 139.18 126.18 139.90 126.00
  Q 140.26 125.91 140.57 126.12
  A 0.43 0.43 0.0 0 1 140.49 126.86
  Q 140.29 126.96 140.18 127.17
  Q 140.08 127.38 140.17 127.59
  L 141.29 130.16
  Q 141.66 131.01 141.99 130.14
  Q 142.45 128.95 141.35 127.84
  Q 140.51 126.98 141.68 126.81
  Q 141.79 126.79 142.15 126.87
  Q 142.51 126.94 142.65 127.27
  L 143.34 128.85
  A 0.43 0.43 0.0 0 0 143.98 129.03
  L 144.33 128.78
  Q 144.50 128.67 144.68 128.77
  Q 144.94 128.92 145.02 129.20
  Q 145.18 129.76 145.77 129.81
  Q 146.91 129.89 147.85 130.60
  Q 148.26 130.92 148.05 131.40
  L 146.45 134.99
  A 0.49 0.49 0.0 0 0 147.12 135.63
  Q 148.07 135.16 148.13 134.05
  Q 148.17 133.27 148.89 133.58
  Q 149.24 133.73 149.45 134.06
  Q 149.70 134.45 149.45 134.84
  L 147.35 138.10
  Q 147.21 138.32 147.43 138.47
  L 147.66 138.64
  A 0.48 0.48 0.0 0 0 148.35 138.49
  Q 149.49 136.53 151.11 135.16
  Q 151.76 134.62 151.63 135.45
  Q 151.26 137.81 149.68 139.95
  Q 149.50 140.19 149.21 140.09
  Q 149.02 140.03 148.88 139.90
  Q 148.69 139.72 148.63 139.98
  Q 148.58 140.14 148.63 140.28
  Q 148.66 140.36 148.73 140.34
  Z
  M 145.31 131.14
  C 145.10 130.84 144.86 130.57 144.64 130.29
  Q 144.32 129.88 144.26 130.39
  Q 144.20 131.00 144.51 131.49
  Q 144.61 131.63 144.77 131.68
  Q 144.92 131.71 145.06 131.69
  Q 145.63 131.62 145.31 131.14
  Z
  M 146.96 142.32
  Q 147.04 141.98 146.70 142.07
  Q 145.75 142.30 145.53 143.28
  Q 145.36 144.03 146.02 143.64
  Q 146.75 143.19 146.96 142.32
  Z
  M 143.3110 147.3389
  A 1.35 0.35 132.9 0 0 144.4864 146.5883
  A 1.35 0.35 132.9 0 0 145.1490 145.3611
  A 1.35 0.35 132.9 0 0 143.9736 146.1117
  A 1.35 0.35 132.9 0 0 143.3110 147.3389
  Z
  M 141.77 149.34
  Q 141.86 149.27 141.91 149.16
  Q 142.35 148.02 141.45 148.85
  Q 138.79 151.30 136.49 154.09
  Q 136.35 154.26 136.52 154.40
  L 136.72 154.56
  A 0.07 0.06 -47.9 0 0 136.82 154.55
  Q 138.88 151.67 141.77 149.34
  Z
  M 128.31 162.00
  L 130.34 159.53
  Q 130.84 158.91 130.13 159.27
  Q 128.50 160.08 127.89 161.76
  Q 127.41 163.10 128.31 162.00
  Z
  M 130.39 174.19
  L 130.05 174.75
  A 1.31 1.27 53.0 0 0 129.92 175.78
  L 131.82 182.24
  Q 132.10 183.18 132.41 182.25
  C 132.98 180.51 131.87 179.56 132.83 177.71
  Q 133.08 177.22 132.85 176.71
  Q 132.17 175.24 133.01 174.02
  Q 133.37 173.48 133.31 172.84
  Q 133.01 169.69 134.03 167.07
  Q 134.51 165.84 133.45 166.63
  Q 130.93 168.52 129.04 171.00
  Q 128.72 171.43 128.77 171.96
  L 128.93 173.58
  Q 129.00 174.22 129.58 173.96
  L 130.02 173.77
  Q 130.87 173.40 130.39 174.19
  Z
  M 126.93 175.55
  Q 126.84 176.04 127.17 176.37
  Q 127.63 176.84 127.59 176.19
  Q 127.51 174.76 127.16 173.34
  Q 126.96 172.55 126.75 173.34
  Q 126.54 174.07 126.85 174.84
  Q 126.99 175.19 126.93 175.55
  Z
  M 81.3749 196.4671
  A 0.86 0.43 -25.7 0 0 80.4135 196.4525
  A 0.86 0.43 -25.7 0 0 79.8251 197.2129
  A 0.86 0.43 -25.7 0 0 80.7865 197.2275
  A 0.86 0.43 -25.7 0 0 81.3749 196.4671
  Z"
/>
<path fill="#000000" d="
  M 261.45 173.23
  Q 265.73 172.69 268.80 171.28
  Q 269.67 170.88 269.11 171.65
  Q 268.55 172.40 267.55 172.84
  Q 263.86 174.45 260.18 175.88
  Q 259.66 176.09 259.17 175.81
  Q 258.52 175.45 257.80 175.36
  A 0.28 0.28 0.0 0 1 257.66 174.86
  Q 258.87 173.86 259.62 172.55
  A 0.50 0.50 0.0 0 1 260.38 172.42
  Q 260.60 172.60 260.73 172.85
  Q 260.96 173.29 261.45 173.23
  Z"
/>
<path fill="#000000" d="
  M 221.80 176.82
  Q 222.62 176.22 223.70 176.32
  Q 224.55 176.40 223.74 176.65
  Q 222.56 177.01 221.43 176.81
  Q 221.36 176.80 221.37 176.87
  Q 221.37 176.87 221.37 176.87
  Q 221.37 176.87 221.39 176.87
  Q 221.52 176.87 221.65 176.87
  Q 221.73 176.86 221.80 176.82
  Z"
/>
<path fill="#000000" d="
  M 130.23 187.36
  Q 130.11 186.77 130.47 187.26
  Q 131.13 188.18 131.29 189.32
  Q 131.96 194.01 131.99 198.69
  Q 132.00 199.24 132.33 199.68
  Q 133.85 201.69 132.52 203.87
  Q 132.30 204.24 132.36 204.67
  Q 132.61 206.26 132.51 207.89
  Q 132.07 215.08 132.24 221.88
  Q 132.25 222.05 132.08 222.07
  L 132.07 222.07
  Q 131.88 222.09 131.85 221.90
  C 131.36 218.67 131.00 215.34 131.45 212.05
  C 131.71 210.10 130.87 207.94 131.33 206.11
  Q 131.54 205.26 131.47 204.35
  Q 131.10 199.97 131.08 195.92
  Q 131.06 191.75 130.23 187.36
  Z"
/>
<path fill="#000000" d="
  M 201.24 260.65
  Q 205.65 263.75 209.52 265.85
  Q 212.57 267.50 218.80 268.65
  Q 221.53 269.15 224.31 269.87
  Q 228.81 271.03 233.25 269.06
  Q 233.88 268.78 233.63 269.42
  L 233.33 270.20
  A 0.80 0.78 89.3 0 1 232.91 270.64
  Q 229.19 272.27 225.48 271.11
  Q 218.57 268.96 211.34 267.63
  C 207.45 266.91 205.34 263.94 201.93 262.35
  Q 195.70 259.45 188.28 257.13
  Q 187.76 256.97 187.71 257.50
  Q 187.03 264.41 186.63 271.80
  Q 186.46 275.00 187.26 278.01
  C 187.58 279.23 187.20 280.12 187.33 281.33
  Q 187.84 286.32 187.47 291.22
  Q 187.32 293.22 187.39 295.21
  C 187.44 296.99 187.04 298.69 187.29 300.50
  C 187.63 302.96 188.24 305.79 187.56 308.21
  Q 186.68 311.36 185.40 314.11
  A 0.77 0.74 -84.5 0 1 184.91 314.53
  L 184.30 314.68
  Q 183.70 314.84 183.97 314.28
  Q 185.82 310.33 186.72 305.79
  A 0.35 0.35 0.0 0 0 186.38 305.37
  L 186.06 305.37
  A 0.29 0.29 0.0 0 0 185.78 305.60
  C 185.20 308.10 184.87 311.08 182.29 311.32
  Q 181.58 311.38 181.75 310.69
  Q 181.85 310.27 181.58 309.92
  Q 181.27 309.50 180.79 309.70
  Q 179.36 310.27 178.60 311.63
  A 1.19 1.16 -80.4 0 1 177.79 312.22
  L 177.39 312.30
  Q 176.91 312.39 176.88 312.89
  L 176.43 320.75
  Q 176.39 321.45 175.97 320.88
  Q 175.53 320.28 174.80 320.45
  Q 173.96 320.65 173.97 319.79
  Q 173.99 318.49 172.70 318.72
  Q 172.11 318.82 172.00 318.23
  Q 171.88 317.58 171.29 317.21
  Q 170.82 316.92 170.29 317.07
  Q 169.57 317.27 169.50 316.52
  Q 169.42 315.63 168.61 315.99
  Q 167.87 316.32 167.12 316.31
  A 1.22 1.22 0.0 0 0 166.10 316.83
  Q 164.07 319.67 164.10 323.31
  A 0.09 0.09 0.0 0 1 164.01 323.40
  L 163.74 323.40
  A 0.38 0.37 -87.9 0 1 163.37 322.99
  Q 163.49 321.68 162.88 320.61
  Q 162.35 319.69 161.69 320.53
  Q 161.29 321.03 160.61 319.98
  A 1.37 1.35 40.3 0 1 160.50 318.73
  Q 161.59 316.01 161.01 313.62
  A 0.45 0.45 0.0 0 0 160.17 313.52
  L 158.45 316.89
  A 0.44 0.43 -58.9 0 1 157.81 317.05
  Q 157.39 316.76 157.35 316.26
  Q 157.06 312.39 158.10 309.12
  Q 158.66 307.32 156.81 307.57
  Q 156.07 307.67 155.87 306.96
  Q 155.75 306.55 155.39 306.36
  Q 154.66 305.96 154.54 306.79
  Q 154.17 309.50 153.49 312.24
  Q 153.44 312.44 153.23 312.40
  L 153.22 312.40
  Q 153.00 312.36 153.03 312.13
  Q 153.49 308.13 152.30 305.19
  C 151.27 302.64 151.48 300.13 150.45 297.66
  Q 150.30 297.30 150.33 296.91
  Q 150.53 293.94 150.36 290.18
  Q 150.11 284.95 151.13 277.49
  C 151.67 273.58 151.04 269.22 151.12 265.09
  Q 151.61 240.82 156.27 216.99
  Q 157.90 208.69 160.27 201.86
  Q 162.45 195.57 169.05 192.35
  C 170.44 191.68 171.19 190.71 172.27 189.65
  A 0.73 0.73 0.0 0 1 173.49 189.99
  Q 173.73 190.96 174.63 191.15
  Q 175.14 191.26 175.18 190.75
  Q 175.23 190.07 175.59 189.53
  Q 176.12 188.73 176.61 189.56
  Q 178.66 193.04 180.82 196.87
  C 181.78 198.56 183.18 199.19 184.33 200.59
  Q 184.63 200.96 184.68 201.43
  C 184.89 203.44 185.25 205.79 186.97 207.15
  C 189.91 209.48 190.63 215.11 190.43 218.74
  Q 190.06 225.52 189.41 233.27
  A 0.29 0.28 82.0 0 0 189.79 233.56
  L 192.57 232.56
  Q 192.86 232.45 192.86 232.14
  L 192.88 231.37
  Q 192.89 230.67 193.59 230.65
  Q 197.25 230.51 200.66 229.86
  Q 203.02 229.41 205.54 230.10
  Q 216.30 233.05 223.82 236.86
  Q 227.72 238.83 230.40 241.98
  A 1.71 1.68 -13.9 0 0 231.33 242.53
  Q 236.14 243.53 240.73 244.87
  C 243.54 245.69 246.13 244.54 248.77 246.22
  Q 249.98 247.00 251.35 247.51
  A 2.93 2.92 -76.1 0 1 253.23 250.63
  C 252.86 253.58 252.02 256.01 250.14 258.43
  Q 246.74 262.79 243.26 267.04
  Q 242.78 267.63 242.02 267.55
  Q 239.17 267.27 236.82 267.95
  C 234.82 268.53 231.13 269.11 229.16 267.89
  C 226.79 266.42 224.66 267.52 222.21 266.88
  Q 218.57 265.91 214.98 265.64
  C 209.82 265.24 206.32 261.13 201.38 260.31
  Q 200.56 260.17 201.24 260.65
  Z
  M 189.92 255.82
  Q 188.71 254.47 188.56 254.49
  Q 187.07 254.62 188.12 255.67
  Q 188.75 256.30 189.68 256.34
  Q 190.42 256.37 189.92 255.82
  Z"
/>
<path fill="#000000" d="
  M 27.33 220.87
  Q 23.25 231.16 10.96 237.39
  Q 10.45 237.65 10.25 237.09
  Q 10.08 236.62 10.47 236.31
  C 16.98 231.39 21.31 225.53 23.37 217.47
  A 1.07 1.06 -63.1 0 0 23.02 216.38
  Q 19.41 213.43 14.87 210.77
  Q 14.67 210.65 14.56 210.45
  Q 14.43 210.21 14.52 209.94
  Q 14.72 209.33 15.33 209.55
  L 23.92 212.68
  A 0.43 0.43 0.0 0 0 24.50 212.32
  L 25.58 202.22
  A 0.62 0.61 -87.9 0 0 24.96 201.54
  L 13.60 201.79
  Q 12.89 201.81 12.59 201.16
  L 12.06 200.00
  Q 11.82 199.46 12.41 199.53
  Q 18.66 200.24 25.21 199.98
  A 0.37 0.37 0.0 0 0 25.57 199.63
  Q 25.86 194.68 25.40 190.11
  A 0.42 0.42 0.0 0 1 25.86 189.65
  Q 29.32 190.07 32.14 190.71
  Q 35.00 191.37 32.33 192.57
  L 31.78 192.82
  Q 31.17 193.10 31.14 193.76
  L 30.91 199.33
  Q 30.89 200.01 31.57 200.02
  L 38.73 200.02
  Q 39.45 200.02 39.93 199.47
  L 41.58 197.58
  Q 42.38 196.65 43.44 197.26
  Q 45.55 198.46 47.33 200.27
  Q 48.29 201.26 47.13 202.00
  L 45.77 202.88
  A 1.43 1.43 0.0 0 0 45.11 204.05
  L 44.70 228.90
  Q 44.69 229.42 44.98 229.85
  Q 45.56 230.72 46.53 230.84
  C 49.06 231.16 51.37 231.37 52.04 228.23
  Q 52.91 224.19 53.34 220.73
  Q 53.40 220.23 53.91 220.23
  L 54.24 220.23
  Q 54.62 220.24 54.62 220.62
  L 54.59 228.69
  A 1.41 1.39 20.9 0 0 55.07 229.74
  L 56.42 230.90
  A 1.91 1.91 0.0 0 1 56.26 233.92
  C 52.77 236.35 46.78 236.09 43.05 235.29
  C 39.12 234.46 39.42 230.73 39.48 227.61
  Q 39.77 214.24 40.20 201.93
  Q 40.20 201.68 39.95 201.68
  L 30.99 201.70
  Q 30.67 201.70 30.66 202.02
  Q 30.38 208.26 29.13 214.49
  A 0.83 0.82 -68.5 0 0 29.50 215.35
  C 32.49 217.25 35.42 219.20 36.33 222.73
  C 36.78 224.46 36.12 226.23 34.24 226.73
  A 2.08 2.08 0.0 0 1 32.02 225.95
  L 28.21 220.75
  Q 27.67 220.02 27.33 220.87
  Z"
/>
<path fill="#000000" d="
  M 220.59 231.14
  Q 220.55 231.49 220.83 231.70
  Q 224.36 234.40 228.14 235.85
  A 0.62 0.61 20.9 0 1 228.50 236.64
  L 228.40 236.88
  Q 228.28 237.21 227.97 237.05
  Q 224.00 235.01 220.03 232.77
  Q 218.62 231.98 217.15 232.39
  A 2.21 2.21 0.0 0 1 214.63 231.32
  C 214.00 230.20 213.51 229.00 212.44 228.22
  Q 209.32 225.97 206.20 223.43
  Q 206.01 223.28 205.89 223.08
  Q 205.82 222.97 205.81 222.84
  Q 205.78 222.49 205.53 222.25
  Q 199.39 216.17 195.33 208.64
  A 0.70 0.70 0.0 0 1 195.54 207.73
  Q 196.66 206.93 198.03 206.72
  Q 198.54 206.64 198.85 206.23
  Q 201.56 202.65 202.81 202.02
  Q 205.57 200.62 207.12 197.97
  A 1.36 1.32 -85.2 0 1 207.76 197.41
  L 212.22 195.55
  A 1.18 1.16 43.9 0 1 213.09 195.54
  Q 213.68 195.76 214.28 195.62
  A 1.08 1.07 -89.1 0 0 215.10 194.82
  Q 215.24 194.25 215.80 194.11
  Q 216.26 193.98 216.73 194.17
  C 224.83 197.28 231.86 203.29 238.83 208.21
  C 242.17 210.57 244.72 213.55 248.11 215.73
  A 1.10 1.09 35.4 0 1 248.38 217.32
  Q 247.78 218.09 248.04 219.07
  Q 248.17 219.56 248.09 220.05
  Q 247.80 221.79 247.72 223.35
  C 247.63 225.13 246.57 226.24 245.65 227.60
  Q 245.32 228.08 245.57 228.60
  L 246.17 229.91
  Q 246.40 230.41 246.29 230.94
  C 245.78 233.44 243.22 233.97 241.22 232.85
  Q 240.76 232.59 240.23 232.68
  Q 239.55 232.80 238.96 233.13
  A 1.43 1.43 0.0 0 1 237.92 233.28
  Q 235.49 232.74 234.13 234.37
  A 1.06 1.04 23.6 0 1 233.18 234.73
  C 230.81 234.39 227.84 234.82 225.74 233.40
  Q 223.52 231.89 220.94 230.93
  A 0.26 0.25 13.1 0 0 220.59 231.14
  Z"
/>
<path fill="#000000" d="
  M 16.00 261.36
  L 10.69 266.81
  Q 10.25 267.26 9.77 266.86
  Q 9.48 266.61 9.68 266.32
  Q 17.14 255.62 20.52 242.50
  Q 20.67 241.91 21.25 242.11
  Q 24.77 243.30 27.70 244.90
  A 0.63 0.63 0.0 0 1 27.51 246.08
  L 25.91 246.34
  A 1.48 1.47 -82.0 0 0 24.83 247.16
  L 21.38 254.41
  A 0.64 0.63 16.1 0 0 21.88 255.31
  Q 22.78 255.41 23.30 256.08
  A 0.61 0.60 59.9 0 1 23.06 257.00
  Q 22.28 257.34 21.67 257.92
  Q 21.26 258.31 21.27 258.88
  L 21.52 288.09
  A 1.79 1.78 87.0 0 1 19.92 289.88
  L 17.85 290.08
  Q 16.48 290.22 16.49 288.85
  L 16.57 261.60
  Q 16.58 260.77 16.00 261.36
  Z"
/>
<path fill="#000000" d="
  M 35.78 251.32
  L 48.54 251.27
  A 1.22 1.20 20.0 0 0 49.46 250.85
  L 51.76 248.25
  Q 52.76 247.12 53.85 248.16
  L 57.43 251.56
  A 0.62 0.62 0.0 0 1 57.01 252.63
  L 42.62 252.72
  Q 41.46 252.73 41.46 253.89
  L 41.45 261.19
  Q 41.44 262.44 42.69 262.44
  L 47.23 262.44
  Q 47.85 262.44 48.28 261.98
  L 50.40 259.71
  A 1.19 1.18 42.4 0 1 52.06 259.64
  L 55.46 262.69
  A 0.64 0.64 0.0 0 1 55.04 263.80
  L 42.05 263.85
  Q 41.45 263.85 41.45 264.45
  L 41.45 273.39
  Q 41.45 274.07 42.14 274.08
  L 47.44 274.15
  A 1.65 1.64 20.9 0 0 48.70 273.59
  L 50.89 271.09
  A 0.79 0.79 0.0 0 1 52.03 271.04
  L 55.83 274.67
  A 0.47 0.46 -22.9 0 1 55.50 275.47
  L 41.97 275.47
  A 0.56 0.56 0.0 0 0 41.41 276.03
  L 41.56 287.99
  Q 41.58 289.58 40.01 289.75
  L 38.03 289.97
  Q 36.43 290.15 36.43 288.54
  L 36.47 253.47
  A 0.61 0.58 -75.5 0 0 36.18 252.95
  Q 34.70 252.07 33.90 253.59
  Q 30.56 259.87 24.30 264.45
  A 0.58 0.58 0.0 0 1 23.48 264.30
  Q 23.30 264.02 23.50 263.77
  Q 31.01 254.37 31.81 242.82
  Q 31.87 241.91 32.75 242.19
  L 39.02 244.18
  A 0.69 0.69 0.0 0 1 39.27 245.35
  Q 38.76 245.80 38.08 245.90
  A 1.89 1.87 3.7 0 0 36.52 247.25
  Q 36.07 248.84 35.23 250.39
  Q 34.72 251.32 35.78 251.32
  Z"
/>
<path fill="#000000" d="
  M 102.23 279.61
  Q 101.12 279.35 100.97 278.23
  A 0.22 0.22 0.0 0 1 101.30 278.01
  Q 101.92 278.35 102.19 279.01
  Q 102.29 279.28 102.51 279.48
  Q 102.64 279.60 102.74 279.74
  Q 103.25 280.42 102.61 279.86
  Q 102.51 279.77 102.40 279.70
  Q 102.32 279.64 102.23 279.61
  Z"
/>
<path fill="#000000" d="
  M 24.77 326.17
  Q 24.47 326.17 24.47 326.48
  L 24.49 334.97
  A 0.26 0.26 0.0 0 0 24.77 335.23
  Q 29.79 334.90 34.60 333.79
  Q 34.92 333.71 35.00 334.03
  L 35.06 334.28
  Q 35.18 334.77 34.72 334.97
  Q 26.96 338.29 18.40 339.84
  Q 17.91 339.93 17.68 340.37
  Q 17.35 340.99 17.30 341.71
  Q 17.28 342.05 16.97 342.21
  Q 16.69 342.36 16.38 342.24
  Q 15.99 342.10 15.84 341.71
  L 13.71 336.06
  A 0.51 0.50 -9.4 0 1 14.20 335.38
  L 18.74 335.53
  Q 19.49 335.55 19.50 334.80
  Q 19.77 322.03 19.32 310.26
  Q 19.30 309.58 18.69 309.90
  Q 14.34 312.20 10.11 313.50
  Q 9.97 313.54 9.92 313.41
  L 9.80 313.14
  Q 9.61 312.68 10.05 312.45
  C 18.32 308.22 25.52 302.74 30.27 294.79
  A 1.01 1.00 19.2 0 1 31.27 294.31
  Q 34.54 294.80 37.70 295.77
  Q 38.12 295.90 38.14 296.36
  A 0.67 0.66 -89.3 0 1 37.43 297.06
  Q 37.12 297.04 36.84 297.19
  Q 36.13 297.60 36.74 298.15
  Q 44.73 305.30 56.92 307.00
  A 0.60 0.60 0.0 0 1 57.09 308.14
  Q 55.24 309.01 54.34 310.86
  A 1.77 1.77 0.0 0 1 52.05 311.71
  Q 41.23 307.03 35.18 298.17
  Q 34.87 297.72 34.51 298.12
  Q 28.30 304.90 20.09 309.15
  A 0.36 0.36 0.0 0 0 20.14 309.81
  C 22.08 310.44 23.92 311.21 26.03 311.23
  Q 33.35 311.33 40.74 311.22
  Q 41.29 311.21 41.69 310.84
  L 43.39 309.27
  A 1.28 1.27 -47.7 0 1 45.01 309.19
  L 48.68 311.95
  A 0.83 0.83 0.0 0 1 48.64 313.31
  L 47.11 314.33
  Q 46.63 314.65 46.64 315.23
  L 46.80 325.85
  A 1.78 1.77 80.4 0 1 45.59 327.56
  Q 44.22 328.02 42.64 327.79
  Q 42.02 327.70 41.96 327.09
  Q 41.92 326.62 41.55 326.31
  A 0.81 0.77 -23.5 0 0 41.03 326.12
  L 34.71 326.10
  Q 33.93 326.10 34.35 326.76
  Q 36.85 330.71 40.64 333.03
  Q 41.23 333.39 41.78 332.97
  Q 45.14 330.41 47.76 326.98
  A 0.78 0.78 0.0 0 1 48.73 326.76
  Q 50.79 327.79 52.54 328.91
  Q 54.67 330.28 52.14 330.28
  C 51.33 330.28 50.68 330.25 49.96 330.69
  Q 46.93 332.52 43.68 333.45
  Q 41.93 333.94 43.64 334.58
  Q 49.63 336.80 56.18 337.17
  Q 58.28 337.28 56.50 338.41
  Q 55.05 339.33 54.26 340.75
  Q 53.41 342.27 51.73 341.81
  Q 37.16 337.88 32.91 326.89
  A 1.13 1.13 0.0 0 0 31.86 326.17
  L 24.77 326.17
  Z
  M 41.80 313.14
  A 0.56 0.56 0.0 0 0 41.24 312.58
  L 25.02 312.58
  A 0.56 0.56 0.0 0 0 24.46 313.14
  L 24.46 317.30
  A 0.56 0.56 0.0 0 0 25.02 317.86
  L 41.24 317.86
  A 0.56 0.56 0.0 0 0 41.80 317.30
  L 41.80 313.14
  Z
  M 41.80 319.68
  A 0.51 0.51 0.0 0 0 41.29 319.17
  L 24.97 319.17
  A 0.51 0.51 0.0 0 0 24.46 319.68
  L 24.46 324.22
  A 0.51 0.51 0.0 0 0 24.97 324.73
  L 41.29 324.73
  A 0.51 0.51 0.0 0 0 41.80 324.22
  L 41.80 319.68
  Z"
/>
<path fill="#000000" d="
  M 29.81 304.92
  Q 28.30 303.69 30.24 303.72
  Q 32.55 303.75 35.20 304.61
  A 3.47 3.44 80.1 0 1 36.82 305.76
  Q 38.23 307.57 37.37 309.39
  A 1.91 1.91 0.0 0 1 34.04 309.61
  Q 32.30 306.95 29.81 304.92
  Z"
/>
<path fill="#000000" d="
  M 76.11 356.82
  C 76.70 355.86 76.19 355.22 76.52 354.34
  Q 78.48 349.20 80.62 344.25
  Q 81.64 341.88 83.78 339.96
  Q 85.96 338.01 88.14 335.89
  Q 88.27 335.77 88.32 335.60
  Q 88.36 335.47 88.36 335.34
  Q 88.37 335.19 88.51 335.12
  Q 90.27 334.25 92.06 333.62
  C 94.16 332.88 96.03 334.08 98.18 334.20
  C 100.66 334.34 103.11 336.69 104.77 338.47
  Q 106.21 340.01 106.75 342.51
  Q 107.45 345.74 108.23 348.81
  C 110.25 356.71 115.00 362.35 110.22 370.83
  Q 109.05 372.90 107.41 374.23
  C 105.77 375.56 104.52 377.32 102.55 378.20
  C 99.07 379.76 95.09 380.29 91.35 380.75
  Q 90.90 380.80 90.52 381.04
  Q 89.63 381.58 88.56 381.72
  Q 80.18 382.82 74.88 377.72
  Q 73.97 376.85 73.68 375.67
  C 73.36 374.40 72.68 373.56 72.58 372.25
  Q 71.91 363.66 76.11 356.82
  Z
  M 82.12 371.14
  Q 86.42 372.93 89.88 371.85
  Q 91.50 371.35 93.26 371.20
  C 98.19 370.79 100.47 363.82 101.40 359.48
  Q 101.90 357.13 101.17 354.96
  Q 100.22 352.10 98.39 350.03
  C 97.10 348.56 95.38 348.24 93.91 347.09
  A 2.92 2.90 -42.3 0 0 90.51 346.94
  C 88.26 348.41 85.52 349.82 84.57 352.59
  C 84.03 354.17 82.88 354.92 81.82 356.06
  Q 81.40 356.52 81.41 357.13
  C 81.45 359.34 80.23 360.85 80.25 363.05
  Q 80.26 365.23 80.04 367.39
  Q 79.77 370.16 82.12 371.14
  Z"
/>
<path fill="#000000" d="
  M 181.40 343.38
  L 182.56 345.20
  A 1.36 1.28 32.5 0 1 182.76 345.99
  C 182.61 347.63 181.02 347.88 179.83 347.14
  Q 177.45 345.68 174.30 345.52
  C 172.36 345.43 171.46 346.33 170.13 347.43
  Q 169.69 347.78 169.75 348.34
  Q 169.93 350.03 169.44 351.64
  C 169.03 352.97 169.50 354.06 168.67 355.33
  Q 167.35 357.37 169.69 356.72
  Q 175.20 355.18 180.82 353.47
  C 183.92 352.53 185.44 350.88 189.06 352.37
  Q 189.51 352.56 189.29 353.00
  C 187.90 355.68 186.75 358.47 183.19 358.60
  Q 180.48 358.69 178.09 358.89
  C 173.89 359.23 172.90 363.95 168.01 362.72
  A 1.29 1.28 9.0 0 0 166.41 363.88
  Q 166.16 367.60 168.07 371.16
  A 1.89 1.89 0.0 0 0 170.80 371.83
  Q 172.77 370.50 174.90 369.23
  Q 180.03 366.17 185.43 365.83
  C 186.75 365.75 187.77 365.03 188.99 364.99
  A 1.85 1.82 -29.6 0 1 189.97 365.25
  Q 190.95 365.85 192.08 365.99
  Q 193.99 366.24 195.67 367.86
  Q 196.06 368.23 195.85 368.73
  Q 195.02 370.72 193.07 371.38
  Q 192.56 371.55 192.43 372.08
  L 192.34 372.49
  Q 192.20 373.09 191.61 373.27
  Q 188.47 374.22 185.73 376.08
  Q 185.24 376.41 184.67 376.27
  Q 183.62 376.02 182.89 376.75
  A 1.20 1.18 -65.5 0 1 181.95 377.11
  L 179.71 376.94
  A 1.42 1.37 -57.7 0 0 178.85 377.15
  Q 176.90 378.37 174.90 377.79
  Q 174.39 377.64 174.03 378.04
  L 173.32 378.86
  Q 172.98 379.25 172.47 379.34
  Q 170.09 379.76 168.12 381.25
  Q 167.73 381.55 167.25 381.42
  C 163.88 380.51 160.98 374.54 159.68 371.21
  Q 158.54 368.26 159.21 365.20
  A 1.62 1.57 42.0 0 0 159.15 364.31
  Q 158.56 362.78 158.70 361.15
  Q 159.12 356.51 159.42 351.82
  C 159.57 349.36 160.49 347.28 160.48 344.79
  Q 160.47 344.07 160.94 343.51
  Q 161.27 343.11 161.13 342.66
  A 0.71 0.71 0.0 0 0 160.37 342.16
  Q 157.67 342.49 155.49 341.80
  C 154.36 341.44 153.87 340.17 154.80 339.23
  A 1.56 1.56 0.0 0 1 156.06 338.77
  Q 156.97 338.87 157.52 338.16
  Q 158.02 337.50 158.81 337.25
  Q 164.49 335.48 170.00 335.59
  C 172.47 335.64 174.60 336.65 177.06 336.53
  C 178.08 336.48 179.03 336.89 179.62 337.74
  Q 179.95 338.20 180.47 338.45
  Q 182.52 339.41 183.55 341.58
  A 0.55 0.55 0.0 0 1 183.28 342.32
  Q 182.52 342.66 181.72 342.72
  Q 181.01 342.78 181.40 343.38
  Z"
/>
<path fill="#000000" d="
  M 220.52 352.00
  Q 217.25 350.30 213.89 349.41
  C 207.69 347.78 202.98 343.60 200.99 337.46
  A 1.43 1.43 0.0 0 1 202.44 335.60
  Q 208.10 335.96 213.53 338.41
  Q 215.51 339.30 217.37 340.00
  Q 217.97 340.23 218.60 340.11
  C 219.59 339.93 220.12 340.47 221.07 340.43
  Q 225.39 340.26 228.26 337.82
  Q 228.68 337.46 229.23 337.46
  C 230.27 337.45 230.71 337.93 231.86 337.59
  Q 238.86 335.52 242.82 342.99
  A 1.17 1.14 -46.3 0 1 242.83 344.07
  L 242.05 345.54
  Q 241.84 345.95 241.92 346.41
  Q 241.99 346.83 242.24 347.20
  Q 242.48 347.58 242.20 347.92
  Q 238.65 352.22 233.83 353.13
  Q 231.57 353.55 229.75 354.79
  C 227.82 356.11 225.89 357.16 224.18 358.79
  Q 220.91 361.91 217.65 365.19
  A 1.33 1.33 0.0 0 0 218.28 367.43
  C 220.57 367.98 223.53 367.64 225.77 366.78
  C 229.23 365.45 236.59 363.68 239.66 366.64
  Q 240.80 367.74 242.11 368.48
  Q 242.65 368.78 242.43 369.36
  Q 241.53 371.62 241.27 374.10
  C 240.91 377.55 238.57 377.54 235.93 377.61
  Q 232.67 377.70 230.10 376.32
  C 228.63 375.54 226.91 376.38 226.26 377.82
  C 224.73 381.17 220.96 383.32 217.46 381.27
  C 214.54 379.56 213.73 377.64 211.63 375.37
  C 210.68 374.34 209.32 373.65 208.99 372.17
  C 208.81 371.31 208.45 370.47 208.60 369.57
  C 208.87 367.94 208.42 366.23 209.10 364.73
  Q 209.94 362.86 211.89 361.19
  Q 212.44 360.72 213.18 360.64
  C 215.20 360.41 215.40 358.57 216.49 357.26
  Q 218.55 354.77 220.61 352.54
  A 0.34 0.34 0.0 0 0 220.52 352.00
  Z"
/>
<path fill="#000000" d="
  M 126.58 350.81
  C 126.68 351.52 126.45 352.23 126.62 352.91
  Q 127.70 357.08 127.77 360.91
  Q 127.84 364.55 127.08 368.12
  C 126.10 372.70 126.25 376.91 124.16 381.42
  Q 123.97 381.83 123.53 381.84
  C 120.61 381.91 118.70 376.76 118.09 374.49
  C 117.26 371.43 115.11 368.98 115.89 365.56
  Q 117.12 360.22 116.99 356.00
  Q 116.89 352.78 115.02 348.93
  Q 112.85 344.46 110.49 339.82
  A 0.73 0.73 0.0 0 1 111.27 338.77
  C 113.32 339.14 114.54 338.25 116.26 337.28
  C 119.02 335.74 122.11 337.67 124.06 339.67
  Q 124.27 339.89 124.57 339.94
  Q 127.02 340.35 128.26 341.91
  Q 130.78 345.11 133.08 349.21
  Q 135.34 353.26 138.19 357.58
  Q 138.28 357.71 138.42 357.64
  L 138.65 357.53
  Q 138.72 357.49 138.69 357.42
  Q 137.07 353.46 136.79 351.72
  Q 135.74 345.03 134.38 338.23
  A 1.03 1.03 0.0 0 1 135.66 337.03
  Q 138.27 337.74 140.62 337.10
  Q 143.10 336.41 145.02 337.01
  C 152.57 339.34 153.81 343.73 148.83 349.78
  Q 148.48 350.20 148.49 350.74
  Q 148.65 359.48 149.86 363.24
  Q 151.00 366.78 152.86 370.18
  A 2.31 2.31 0.0 0 1 152.57 372.83
  C 150.38 375.31 146.48 377.56 143.03 376.84
  C 140.83 376.38 138.53 376.55 136.77 374.86
  C 134.00 372.20 131.67 366.94 130.53 363.00
  Q 129.09 358.00 127.72 352.99
  Q 127.43 351.95 126.83 350.74
  Q 126.46 350.00 126.58 350.81
  Z"
/>
<path fill="#000000" d="
  M 246.37 353.43
  C 247.27 348.91 249.37 343.86 252.60 340.79
  Q 253.00 340.41 253.55 340.40
  Q 254.82 340.37 256.02 339.92
  A 1.25 1.24 -36.2 0 1 257.23 340.10
  L 258.57 341.13
  Q 259.07 341.51 259.68 341.43
  Q 263.90 340.91 267.56 338.67
  C 268.94 337.82 270.71 338.19 271.49 339.65
  Q 272.84 342.21 275.43 343.17
  Q 280.65 345.11 279.42 349.75
  Q 279.05 351.14 279.11 352.58
  C 279.19 354.24 278.41 355.56 278.21 357.22
  Q 277.73 361.19 277.39 365.46
  Q 277.15 368.45 274.69 374.01
  Q 274.49 374.48 274.00 374.63
  Q 271.04 375.58 268.99 377.58
  C 267.25 379.27 263.25 383.76 260.43 381.99
  Q 256.70 379.62 253.69 377.18
  C 252.05 375.86 249.65 375.27 248.71 373.30
  C 246.45 368.50 246.52 362.62 246.88 357.31
  C 246.97 355.94 246.11 354.77 246.37 353.43
  Z
  M 267.35 364.50
  Q 268.60 360.06 270.02 356.01
  C 270.98 353.26 267.78 351.03 265.89 349.60
  A 0.71 0.70 34.8 0 0 264.87 349.78
  Q 262.40 353.57 259.10 354.94
  C 257.13 355.76 256.44 357.70 257.33 359.65
  Q 259.01 363.35 259.97 367.30
  Q 260.65 370.05 263.00 370.27
  Q 263.49 370.31 263.89 370.02
  Q 266.29 368.26 267.35 364.50
  Z"
/>
<path fill="#000000" d="
  M 22.66 354.04
  L 10.97 354.38
  A 0.52 0.52 0.0 0 1 10.48 354.07
  L 9.83 352.65
  Q 9.57 352.09 10.19 352.18
  Q 16.15 353.07 22.82 352.72
  Q 23.37 352.69 23.34 352.14
  L 23.04 347.15
  Q 23.00 346.53 23.62 346.63
  Q 26.53 347.11 29.64 347.82
  Q 30.33 347.97 30.47 348.65
  Q 30.58 349.22 30.02 349.33
  Q 27.67 349.81 28.01 352.12
  Q 28.10 352.77 28.75 352.77
  L 38.54 352.79
  A 0.56 0.56 0.0 0 0 39.10 352.20
  L 38.80 347.11
  A 0.52 0.51 -85.5 0 1 39.43 346.57
  L 44.72 347.77
  Q 47.24 348.34 44.97 349.57
  Q 43.33 350.46 43.85 352.25
  Q 44.00 352.76 44.52 352.76
  L 48.51 352.82
  Q 49.07 352.83 49.42 352.40
  L 51.87 349.44
  A 1.01 1.00 41.8 0 1 53.34 349.36
  L 57.22 353.08
  A 0.61 0.61 0.0 0 1 56.80 354.13
  L 44.54 354.13
  A 0.76 0.75 87.2 0 0 43.79 354.96
  L 44.01 357.19
  A 1.36 1.36 0.0 0 1 43.04 358.64
  Q 41.53 359.07 40.10 359.02
  Q 38.89 358.97 38.94 357.76
  L 39.07 354.73
  A 0.59 0.58 1.4 0 0 38.48 354.12
  L 28.53 354.14
  A 0.56 0.56 0.0 0 0 27.98 354.80
  Q 28.30 356.52 28.12 357.87
  Q 27.99 358.91 26.98 359.20
  Q 25.56 359.62 24.17 359.42
  Q 23.19 359.28 23.21 358.29
  L 23.30 354.67
  Q 23.31 354.02 22.66 354.04
  Z"
/>
<path fill="#000000" d="
  M 36.58 360.22
  A 0.35 0.34 -26.6 0 0 36.37 360.84
  Q 45.33 367.44 56.77 367.95
  Q 58.09 368.01 57.09 368.87
  Q 55.54 370.20 55.01 372.08
  Q 54.52 373.84 52.79 373.22
  Q 41.83 369.32 34.96 361.56
  Q 34.56 361.11 34.15 361.54
  Q 24.99 371.04 10.44 374.46
  Q 9.91 374.59 9.72 374.08
  A 0.38 0.37 68.1 0 1 9.92 373.60
  C 17.85 370.21 26.31 364.27 30.51 356.58
  A 0.53 0.53 0.0 0 1 31.14 356.33
  Q 34.55 357.41 37.82 358.98
  Q 38.24 359.18 38.31 359.68
  A 0.47 0.47 0.0 0 1 37.84 360.21
  L 36.58 360.22
  Z"
/>
<path fill="#000000" d="
  M 32.88 394.00
  L 29.82 394.00
  C 28.95 390.32 26.20 390.11 23.18 389.38
  A 0.30 0.29 14.7 0 1 22.96 389.01
  L 23.05 388.72
  A 0.67 0.66 8.8 0 1 23.72 388.24
  L 30.39 388.51
  A 1.14 1.14 0.0 0 0 31.58 387.36
  L 31.52 376.27
  Q 31.52 375.81 31.07 375.80
  Q 24.71 375.56 18.66 376.10
  Q 18.00 376.16 17.73 375.55
  L 17.28 374.55
  A 0.43 0.43 0.0 0 1 17.72 373.95
  Q 24.11 374.70 31.13 374.41
  Q 31.60 374.39 31.59 373.92
  L 31.36 366.65
  A 0.42 0.42 0.0 0 1 31.87 366.23
  L 38.33 367.65
  A 0.52 0.52 0.0 0 1 38.48 368.61
  L 36.99 369.47
  Q 36.40 369.81 36.41 370.48
  L 36.44 373.83
  Q 36.45 374.46 37.08 374.46
  L 41.31 374.47
  Q 41.83 374.47 42.17 374.08
  L 44.27 371.66
  Q 45.20 370.59 46.26 371.53
  L 49.90 374.78
  A 0.54 0.53 65.6 0 1 49.55 375.72
  L 36.98 375.76
  A 0.61 0.61 0.0 0 0 36.37 376.38
  Q 36.45 383.64 36.36 390.27
  Q 36.33 392.48 32.88 394.00
  Z"
/>
<path fill="#000000" d="
  M 25.21 381.90
  Q 19.99 388.13 11.53 391.34
  A 0.39 0.39 0.0 0 1 11.09 391.23
  Q 10.72 390.80 11.18 390.47
  Q 18.30 385.44 22.25 378.05
  A 0.57 0.56 -62.7 0 1 22.99 377.81
  L 28.13 380.29
  A 0.49 0.47 2.1 0 1 28.37 380.54
  Q 28.65 381.16 28.27 381.47
  Q 28.01 381.67 27.69 381.62
  Q 27.01 381.53 26.34 381.45
  A 1.30 1.28 -66.2 0 0 25.21 381.90
  Z"
/>
<path fill="#000000" d="
  M 40.65 379.03
  C 44.72 379.97 51.48 382.02 53.41 385.93
  Q 54.45 388.03 52.94 389.77
  Q 52.22 390.61 50.39 389.86
  A 2.03 2.01 83.7 0 1 49.46 389.11
  Q 45.42 383.08 39.66 379.75
  A 0.41 0.40 55.2 0 1 39.79 379.00
  Q 40.22 378.94 40.65 379.03
  Z"
/>
</svg>
