<?xml version="1.0" encoding="UTF-8" standalone="no"?>
<!DOCTYPE svg PUBLIC "-//W3C//DTD SVG 1.1//EN" "http://www.w3.org/Graphics/SVG/1.1/DTD/svg11.dtd">
<svg xmlns="http://www.w3.org/2000/svg" version="1.1" viewBox="0.00 0.00 2560.00 634.00">
<path fill="#fefefe" d="
  M 138.38 249.88
  C 137.97 187.28 183.27 131.10 242.91 113.68
  Q 259.69 108.78 278.88 108.79
  Q 380.22 108.84 497.90 108.80
  A 0.16 0.16 0.0 0 1 498.01 109.07
  L 412.76 195.00
  A 1.33 1.33 0.0 0 1 411.82 195.39
  Q 342.37 195.36 275.81 195.39
  C 236.73 195.41 199.35 220.63 177.24 251.86
  Q 155.15 283.07 154.98 320.87
  Q 154.98 321.62 154.58 320.98
  C 141.95 300.54 138.54 274.31 138.38 249.88
  Z"
/>
<circle fill="#fefefe" cx="1351.45" cy="214.71" r="33.10"/>
<path fill="#fefefe" d="
  M 1698.48 279.80
  C 1715.11 268.64 1733.79 262.72 1753.50 263.55
  C 1796.06 265.33 1825.70 299.00 1829.06 340.18
  C 1831.32 367.89 1824.73 398.86 1804.29 419.05
  C 1784.08 439.00 1755.54 444.75 1728.01 438.37
  Q 1710.07 434.22 1696.62 421.49
  A 0.46 0.46 0.0 0 0 1695.84 421.80
  L 1695.02 436.57
  Q 1694.99 437.13 1694.43 437.13
  L 1639.25 437.13
  A 0.38 0.38 0.0 0 1 1638.87 436.75
  L 1638.87 198.30
  Q 1638.87 197.73 1639.45 197.73
  L 1697.26 197.73
  Q 1697.80 197.73 1697.80 198.26
  L 1697.80 279.44
  A 0.44 0.44 0.0 0 0 1698.48 279.80
  Z
  M 1737.52 394.86
  C 1749.77 393.50 1759.89 384.54 1764.41 373.16
  Q 1771.21 356.07 1766.34 337.32
  C 1761.30 317.95 1744.97 305.84 1724.88 310.28
  C 1709.54 313.66 1699.93 328.21 1697.69 342.94
  C 1693.69 369.17 1705.87 398.39 1737.52 394.86
  Z"
/>
<path fill="#fefefe" d="
  M 2354.69 359.44
  L 2354.69 436.91
  Q 2354.69 437.25 2354.34 437.25
  L 2296.00 437.25
  Q 2295.76 437.25 2295.76 437.00
  L 2295.76 198.24
  A 0.37 0.37 0.0 0 1 2296.13 197.87
  L 2354.36 197.87
  A 0.36 0.36 0.0 0 1 2354.72 198.23
  L 2354.70 337.50
  A 0.26 0.26 0.0 0 0 2355.08 337.73
  Q 2355.47 337.54 2355.72 337.18
  Q 2380.59 302.94 2405.82 268.18
  Q 2406.15 267.73 2406.72 267.73
  L 2471.21 267.73
  A 0.19 0.18 19.0 0 1 2471.36 268.03
  L 2410.37 346.87
  A 0.68 0.68 0.0 0 0 2410.35 347.67
  L 2472.83 436.64
  Q 2473.26 437.25 2472.51 437.25
  L 2408.24 437.25
  Q 2407.70 437.25 2407.41 436.81
  L 2355.70 359.13
  Q 2354.69 357.61 2354.69 359.44
  Z"
/>
<path fill="#fefefe" d="
  M 707.65 291.19
  Q 721.67 296.29 736.48 301.92
  C 751.27 307.55 766.34 315.74 776.55 327.92
  C 788.98 342.74 792.16 362.30 788.76 381.58
  C 780.57 428.17 730.21 440.33 690.33 440.45
  Q 655.08 440.56 621.50 431.09
  Q 621.02 430.96 621.07 430.46
  L 626.73 375.77
  Q 626.81 375.07 627.44 375.37
  C 650.13 386.32 674.41 395.70 699.84 392.31
  C 711.29 390.79 723.22 385.30 722.93 371.71
  C 722.63 358.22 708.16 350.76 697.35 346.57
  Q 684.78 341.70 672.09 336.92
  C 649.69 328.47 626.98 315.91 620.51 290.78
  Q 617.34 278.50 619.05 265.31
  C 624.59 222.34 670.18 207.42 707.26 205.65
  Q 733.15 204.42 758.68 208.83
  Q 768.08 210.45 777.29 213.39
  A 0.44 0.43 -79.5 0 1 777.60 213.85
  L 772.93 265.26
  A 0.40 0.40 0.0 0 1 772.39 265.59
  Q 748.30 256.07 726.71 253.38
  Q 711.89 251.53 699.15 254.95
  C 690.66 257.22 684.44 263.60 685.36 272.72
  Q 686.01 279.23 692.49 283.55
  Q 699.53 288.23 707.65 291.19
  Z"
/>
<path fill="#fefefe" d="
  M 242.56 251.76
  Q 241.40 254.11 239.68 259.26
  Q 239.51 259.76 238.99 259.76
  L 184.96 259.76
  Q 184.30 259.76 184.68 259.22
  Q 198.57 239.51 217.92 225.97
  Q 245.00 207.03 278.43 205.80
  Q 279.85 205.75 278.74 206.64
  Q 255.70 225.03 242.56 251.76
  Z"
/>
<path fill="#fefefe" d="
  M 289.10 205.94
  C 327.81 206.72 360.18 228.00 381.70 259.27
  Q 382.04 259.76 381.44 259.76
  L 328.93 259.76
  Q 328.32 259.76 328.08 259.20
  Q 314.50 228.05 288.94 206.36
  Q 288.42 205.93 289.10 205.94
  Z"
/>
<path fill="#fefefe" d="
  M 1251.71 310.74
  Q 1251.84 336.26 1251.68 363.06
  Q 1251.61 374.16 1253.42 379.01
  Q 1257.57 390.16 1269.07 392.93
  C 1276.84 394.81 1284.89 393.27 1292.54 391.10
  Q 1293.15 390.93 1293.06 391.55
  L 1285.91 437.03
  Q 1285.86 437.37 1285.52 437.43
  Q 1269.40 440.51 1253.55 440.59
  C 1240.49 440.65 1227.24 438.20 1216.41 431.17
  C 1198.21 419.35 1192.60 397.84 1192.65 376.48
  Q 1192.74 342.94 1192.62 310.64
  A 0.63 0.62 -0.0 0 0 1191.99 310.02
  L 1167.27 310.02
  Q 1166.78 310.02 1166.78 309.52
  L 1166.78 268.09
  Q 1166.78 267.47 1167.41 267.47
  L 1192.23 267.47
  Q 1192.67 267.47 1192.67 267.02
  L 1192.69 213.27
  Q 1192.69 212.73 1193.23 212.73
  L 1251.24 212.73
  Q 1251.75 212.73 1251.75 213.24
  L 1251.75 266.98
  A 0.48 0.48 0.0 0 0 1252.23 267.46
  L 1288.30 267.47
  Q 1288.88 267.47 1288.88 268.05
  L 1288.88 309.44
  Q 1288.88 310.02 1288.30 310.02
  L 1252.44 310.02
  Q 1251.71 310.02 1251.71 310.74
  Z"
/>
<path fill="#fefefe" d="
  M 314.64 255.10
  Q 315.83 257.18 316.59 259.24
  Q 316.78 259.76 316.23 259.76
  L 251.20 259.76
  Q 250.55 259.76 250.83 259.17
  C 258.32 243.43 270.30 229.05 283.41 217.09
  Q 283.82 216.72 284.22 217.09
  Q 302.35 233.60 314.64 255.10
  Z"
/>
<path fill="#fefefe" d="
  M 812.36 369.93
  C 806.65 336.43 816.00 302.45 843.67 281.68
  C 872.46 260.06 912.38 259.40 945.46 269.91
  Q 946.04 270.10 946.00 270.70
  L 943.20 318.75
  A 0.39 0.38 16.3 0 1 942.63 319.06
  C 931.82 313.08 918.54 309.63 906.57 311.61
  C 881.56 315.77 868.01 337.08 873.02 361.49
  C 876.66 379.23 891.08 390.82 909.03 392.44
  C 920.91 393.52 931.81 389.50 942.59 384.17
  Q 943.16 383.89 943.19 384.52
  L 946.01 432.76
  Q 946.04 433.38 945.45 433.57
  Q 921.98 441.05 899.51 440.69
  C 867.80 440.16 839.07 426.27 822.86 398.70
  Q 814.99 385.31 812.36 369.93
  Z"
/>
<path fill="#fefefe" d="
  M 1155.36 376.92
  C 1147.32 407.33 1122.22 429.20 1092.18 436.63
  C 1060.17 444.55 1023.20 441.49 995.98 422.19
  C 972.78 405.74 960.69 379.74 961.17 351.61
  Q 961.96 304.96 1000.22 279.59
  C 1009.15 273.67 1020.98 268.86 1032.01 266.38
  C 1075.98 256.50 1128.55 269.74 1149.89 313.26
  C 1159.51 332.88 1160.88 356.04 1155.36 376.92
  Z
  M 1096.42 366.17
  C 1103.27 336.10 1088.68 300.85 1052.39 306.36
  Q 1043.76 307.67 1036.37 313.85
  C 1025.01 323.34 1021.24 339.96 1021.79 354.69
  C 1022.65 377.59 1036.42 399.55 1062.04 398.17
  C 1080.47 397.18 1092.51 383.32 1096.42 366.17
  Z"
/>
<path fill="#fefefe" d="
  M 1542.52 420.75
  A 0.86 0.86 0.0 0 0 1541.05 420.19
  C 1524.98 436.42 1504.43 441.58 1482.15 440.85
  C 1443.62 439.59 1415.51 408.17 1409.29 371.56
  C 1398.95 310.68 1437.85 254.16 1504.59 264.86
  Q 1525.64 268.24 1540.21 282.76
  A 0.92 0.92 0.0 0 0 1541.68 282.52
  Q 1541.91 282.04 1541.93 281.50
  Q 1542.18 274.61 1542.42 267.81
  A 0.36 0.36 0.0 0 1 1542.78 267.47
  L 1599.98 267.47
  A 0.77 0.76 0.0 0 1 1600.75 268.23
  L 1600.73 436.76
  Q 1600.73 437.25 1600.24 437.25
  L 1543.93 437.25
  Q 1543.35 437.25 1543.32 436.67
  L 1542.52 420.75
  Z
  M 1542.10 358.85
  C 1544.00 341.09 1537.62 319.71 1520.07 311.68
  C 1509.14 306.68 1496.24 307.82 1486.45 315.04
  C 1476.82 322.13 1471.44 333.72 1470.38 345.56
  C 1469.09 359.86 1472.64 376.75 1483.08 386.74
  C 1497.32 400.37 1518.50 399.16 1531.44 384.06
  Q 1540.55 373.44 1542.10 358.85
  Z"
/>
<path fill="#fefefe" d="
  M 1983.13 282.42
  Q 1984.55 283.23 1984.95 282.49
  Q 1985.03 282.34 1985.04 282.18
  L 1985.59 267.75
  A 0.41 0.41 0.0 0 1 1986.00 267.36
  L 2043.52 267.37
  Q 2043.88 267.37 2043.88 267.73
  L 2043.88 436.85
  Q 2043.88 437.19 2043.53 437.19
  L 1987.10 437.19
  Q 1986.50 437.19 1986.47 436.60
  L 1985.68 420.78
  A 0.93 0.92 -24.5 0 0 1984.09 420.19
  Q 1970.09 434.59 1950.14 438.66
  Q 1935.96 441.56 1922.46 440.65
  C 1907.55 439.65 1892.60 433.35 1881.31 423.61
  C 1852.15 398.46 1844.62 356.70 1855.39 320.85
  Q 1859.61 306.79 1868.15 295.15
  C 1887.39 268.92 1917.05 259.58 1948.57 264.93
  Q 1968.88 268.38 1982.92 282.25
  A 0.92 0.82 -3.0 0 0 1983.13 282.42
  Z
  M 1982.38 333.76
  C 1973.75 308.40 1943.38 299.25 1924.47 319.62
  C 1911.88 333.18 1910.89 353.95 1916.58 371.05
  C 1922.61 389.17 1940.22 400.52 1958.94 394.55
  C 1968.45 391.51 1976.94 383.29 1980.94 374.30
  Q 1989.56 354.85 1982.38 333.76
  Z"
/>
<path fill="#fefefe" d="
  M 2134.73 286.64
  Q 2135.20 286.95 2135.87 286.37
  Q 2138.81 283.79 2141.74 281.24
  Q 2162.27 263.43 2190.01 263.66
  C 2219.31 263.90 2243.84 278.53 2254.36 306.48
  Q 2259.30 319.62 2259.34 333.72
  Q 2259.47 379.83 2259.41 437.03
  Q 2259.41 437.25 2259.19 437.25
  L 2202.52 437.25
  Q 2201.96 437.25 2201.96 436.69
  Q 2202.00 394.98 2201.96 349.29
  C 2201.94 333.19 2195.01 318.60 2177.85 315.53
  C 2167.98 313.76 2158.18 315.70 2150.72 322.45
  C 2142.01 330.33 2139.48 340.82 2139.51 352.47
  Q 2139.59 394.44 2139.54 436.70
  Q 2139.54 437.25 2138.99 437.25
  L 2082.73 437.25
  Q 2082.21 437.25 2082.21 436.73
  L 2082.22 268.05
  Q 2082.22 267.81 2082.45 267.81
  L 2133.37 267.81
  Q 2133.92 267.81 2133.94 268.37
  L 2134.50 286.20
  A 0.54 0.54 0.0 0 0 2134.73 286.64
  Z"
/>
<rect fill="#fefefe" x="1321.88" y="267.53" width="59.14" height="169.94" rx="0.29"/>
<path fill="#fefefe" d="
  M 164.95 318.68
  C 166.33 302.30 170.54 285.86 178.35 271.52
  Q 178.63 271.00 179.22 271.00
  L 234.79 271.00
  Q 235.50 271.00 235.26 271.66
  Q 227.09 294.22 226.97 318.75
  Q 226.97 319.27 226.44 319.27
  L 165.50 319.27
  Q 164.90 319.27 164.95 318.68
  Z"
/>
<path fill="#fefefe" d="
  M 236.83 318.78
  C 238.14 302.21 240.90 286.88 246.11 271.47
  Q 246.27 271.00 246.77 271.00
  L 320.55 271.00
  Q 321.14 271.00 321.34 271.56
  C 326.69 286.86 329.24 302.66 330.61 318.67
  Q 330.66 319.27 330.06 319.27
  L 237.29 319.27
  Q 236.79 319.27 236.83 318.78
  Z"
/>
<path fill="#fefefe" d="
  M 389.02 271.44
  C 397.21 285.57 401.64 302.61 402.49 318.73
  Q 402.51 319.27 401.97 319.27
  L 341.01 319.27
  Q 340.42 319.27 340.43 318.68
  Q 340.60 294.18 332.41 271.23
  A 0.17 0.17 0.0 0 1 332.57 271.00
  L 388.25 271.00
  Q 388.76 271.00 389.02 271.44
  Z"
/>
<path fill="#fefefe" d="
  M 350.03 433.91
  C 387.31 410.05 412.19 370.66 412.35 326.05
  Q 412.35 324.77 413.00 325.87
  Q 422.61 342.11 426.15 362.32
  Q 429.70 382.57 428.93 403.53
  C 426.83 461.50 384.29 512.79 330.30 531.03
  Q 316.30 535.76 302.11 537.06
  Q 294.86 537.72 282.54 537.71
  Q 175.54 537.59 69.90 537.66
  Q 69.18 537.66 69.69 537.15
  L 154.88 452.35
  A 0.90 0.88 21.6 0 1 155.52 452.08
  Q 223.86 452.11 292.28 452.08
  C 312.33 452.07 333.07 444.76 350.03 433.91
  Z"
/>
<path fill="#fefefe" d="
  M 178.44 377.06
  C 170.74 362.59 166.39 346.22 164.95 329.63
  Q 164.90 329.09 165.44 329.09
  L 226.67 329.09
  Q 226.90 329.09 226.90 329.32
  Q 227.33 353.20 235.40 376.97
  A 0.31 0.31 0.0 0 1 235.10 377.38
  L 178.97 377.38
  A 0.60 0.60 0.0 0 1 178.44 377.06
  Z"
/>
<path fill="#fefefe" d="
  M 330.55 329.67
  C 329.36 345.71 326.65 362.25 321.27 376.85
  Q 321.07 377.38 320.51 377.38
  L 246.80 377.38
  A 0.81 0.81 0.0 0 1 246.03 376.82
  Q 238.66 354.65 236.90 329.67
  Q 236.86 329.09 237.44 329.09
  L 330.02 329.09
  Q 330.60 329.09 330.55 329.67
  Z"
/>
<path fill="#fefefe" d="
  M 402.56 329.47
  C 401.42 346.18 397.04 362.84 388.91 377.14
  A 0.47 0.46 13.8 0 1 388.50 377.38
  L 332.73 377.38
  A 0.34 0.33 9.3 0 1 332.41 376.94
  Q 340.26 353.65 340.49 329.62
  Q 340.50 329.09 341.02 329.09
  L 402.20 329.09
  Q 402.58 329.09 402.56 329.47
  Z"
/>
<path fill="#fefefe" d="
  M 278.92 440.94
  C 239.44 440.63 206.43 419.53 184.50 387.42
  Q 184.22 387.00 184.73 387.00
  L 239.23 387.00
  A 0.50 0.49 81.1 0 1 239.70 387.35
  Q 241.27 392.63 244.01 397.78
  Q 257.22 422.62 279.08 440.50
  Q 279.62 440.95 278.92 440.94
  Z"
/>
<path fill="#fefefe" d="
  M 314.22 392.43
  Q 302.33 413.74 284.34 430.86
  Q 283.88 431.30 283.42 430.87
  Q 263.07 412.01 250.70 387.57
  Q 250.42 387.00 251.05 387.00
  L 316.20 387.00
  Q 316.86 387.00 316.60 387.60
  Q 315.52 390.10 314.22 392.43
  Z"
/>
<path fill="#fefefe" d="
  M 305.75 423.46
  C 314.77 412.56 322.92 400.15 328.07 387.47
  Q 328.26 387.00 328.77 387.00
  L 381.30 387.00
  Q 382.06 387.00 381.64 387.63
  C 360.01 420.15 328.04 440.47 288.99 440.97
  Q 288.22 440.98 288.81 440.49
  Q 297.89 432.96 305.75 423.46
  Z"
/>
</svg>
