<?xml version="1.0" encoding="UTF-8" standalone="no"?>
<!DOCTYPE svg PUBLIC "-//W3C//DTD SVG 1.1//EN" "http://www.w3.org/Graphics/SVG/1.1/DTD/svg11.dtd">
<svg xmlns="http://www.w3.org/2000/svg" version="1.1" viewBox="0.00 0.00 1672.00 1254.00">
<path fill="#000000" d="
  M 320.68 913.35
  A 0.37 0.37 0.0 0 0 320.38 912.85
  Q 227.69 901.58 154.13 844.87
  C 70.79 780.62 20.69 679.20 18.44 573.50
  Q 16.30 473.29 66.06 387.08
  C 126.35 282.61 237.71 218.02 358.81 220.54
  C 420.13 221.81 479.19 240.65 530.74 274.06
  A 1.09 1.08 34.6 0 0 532.19 273.80
  C 592.66 192.93 685.89 142.63 784.51 125.25
  C 877.13 108.92 978.45 123.72 1056.76 178.59
  Q 1057.14 178.86 1057.43 178.50
  C 1114.50 108.70 1201.48 74.24 1290.76 75.82
  Q 1291.90 75.84 1293.05 75.88
  Q 1352.06 77.92 1406.49 100.46
  C 1518.49 146.85 1599.29 261.39 1568.34 385.40
  A 1.76 1.76 0.0 0 0 1568.85 387.10
  Q 1627.71 442.33 1655.64 517.63
  C 1660.49 530.72 1662.28 541.57 1660.40 554.61
  C 1656.07 584.67 1641.72 614.36 1626.06 639.31
  Q 1548.46 762.90 1467.58 884.37
  C 1440.76 924.67 1413.52 964.75 1384.48 1003.50
  C 1372.83 1019.04 1361.84 1033.31 1347.14 1044.91
  C 1326.36 1061.29 1303.39 1074.09 1278.98 1084.22
  Q 1247.79 1097.15 1198.97 1112.22
  C 1101.15 1142.40 997.28 1154.58 895.25 1143.75
  C 757.25 1129.11 614.64 1066.97 546.48 939.04
  A 0.45 0.44 57.3 0 0 545.82 938.89
  Q 424.61 1031.10 303.26 1123.21
  Q 291.41 1132.21 277.70 1132.11
  C 265.30 1132.03 254.60 1125.08 251.58 1112.74
  C 249.87 1105.80 251.40 1099.19 254.15 1091.81
  Q 287.37 1002.51 320.68 913.35
  Z
  M 1251.53 312.75
  C 1262.65 374.50 1273.78 436.26 1285.16 497.98
  C 1288.53 516.26 1306.83 526.97 1324.17 521.15
  C 1335.59 517.32 1343.85 507.02 1344.65 494.94
  Q 1344.88 491.33 1343.43 483.13
  Q 1342.01 475.06 1340.59 466.99
  C 1339.90 463.01 1344.80 461.27 1347.72 463.54
  C 1370.86 481.49 1397.18 496.52 1425.76 503.66
  C 1438.67 506.89 1451.61 507.87 1464.86 507.31
  Q 1470.28 507.09 1473.51 505.87
  C 1502.42 494.98 1497.64 454.66 1467.00 451.45
  Q 1464.87 451.23 1457.00 451.98
  Q 1453.81 452.28 1445.94 450.83
  C 1420.07 446.07 1393.83 431.87 1373.19 415.92
  C 1371.15 414.35 1370.17 412.02 1371.73 409.87
  Q 1372.60 408.69 1375.51 407.73
  C 1395.28 401.27 1411.19 385.82 1416.75 365.78
  C 1422.99 343.25 1416.90 313.40 1402.29 295.04
  C 1373.14 258.42 1316.79 262.00 1277.21 273.49
  Q 1266.99 276.46 1262.04 280.23
  Q 1252.31 287.67 1250.54 300.74
  C 1250.00 304.82 1250.77 308.52 1251.53 312.75
  Z
  M 1084.80 396.00
  C 1085.82 401.60 1081.88 401.58 1077.98 402.40
  C 1068.12 404.48 1059.79 413.52 1057.47 423.44
  C 1052.90 442.89 1070.13 461.20 1089.99 457.46
  C 1093.48 456.80 1096.04 457.17 1096.73 461.00
  Q 1102.02 490.32 1107.40 519.64
  Q 1109.16 529.23 1111.41 533.48
  C 1117.34 544.69 1130.04 551.29 1143.00 548.91
  Q 1186.04 541.04 1229.07 533.15
  Q 1247.92 529.70 1254.14 513.69
  C 1261.67 494.30 1247.79 474.80 1227.85 473.17
  C 1224.77 472.91 1221.60 473.49 1218.51 474.06
  Q 1192.75 478.78 1167.00 483.48
  C 1162.47 484.31 1161.42 482.42 1160.67 478.30
  Q 1158.10 464.31 1155.56 450.72
  Q 1154.70 446.09 1159.33 445.26
  Q 1174.33 442.58 1189.98 439.63
  C 1210.62 435.74 1221.55 412.98 1208.85 395.31
  C 1202.88 387.00 1191.34 382.27 1181.25 384.05
  Q 1164.78 386.95 1148.73 389.89
  A 4.16 4.16 0.0 0 1 1143.88 386.53
  L 1139.56 362.49
  A 4.19 4.19 0.0 0 1 1142.94 357.63
  Q 1166.72 353.37 1190.04 349.14
  Q 1197.66 347.75 1201.60 345.66
  C 1227.88 331.74 1220.08 292.45 1191.25 289.34
  Q 1186.37 288.82 1177.35 290.45
  Q 1141.50 296.93 1105.65 303.39
  Q 1094.42 305.41 1089.94 307.75
  C 1077.50 314.25 1072.27 327.46 1074.75 341.00
  Q 1079.79 368.50 1084.80 396.00
  Z
  M 987.21 449.22
  C 985.15 447.69 984.79 445.36 986.19 443.22
  Q 1010.90 405.55 1035.66 367.90
  C 1052.04 342.99 1025.50 311.16 998.30 324.50
  Q 990.22 328.45 984.83 337.04
  Q 966.31 366.53 947.81 396.01
  C 945.57 399.58 940.78 398.27 940.04 394.25
  Q 938.01 383.39 936.07 372.52
  Q 933.82 359.93 931.49 355.38
  C 923.91 340.62 905.11 334.67 890.52 343.04
  C 879.77 349.21 873.16 361.83 875.48 374.51
  Q 892.44 467.45 909.37 560.40
  C 913.99 585.80 945.59 593.88 962.07 574.04
  Q 967.56 567.43 968.59 558.80
  Q 969.16 554.11 967.44 544.81
  Q 964.31 527.91 961.26 511.00
  C 960.54 507.00 965.30 504.95 968.28 507.23
  Q 998.88 530.64 1029.43 554.10
  Q 1039.51 561.84 1043.94 563.60
  C 1061.86 570.69 1081.78 558.10 1084.00 539.25
  C 1085.49 526.65 1079.44 517.28 1069.38 509.87
  Q 1028.26 479.60 987.21 449.22
  Z
  M 304.50 360.42
  C 261.69 370.23 228.56 399.62 224.78 445.18
  Q 223.01 466.57 228.83 487.55
  C 236.50 515.21 254.50 532.83 282.00 540.74
  C 301.98 546.49 323.33 548.78 343.84 552.07
  C 361.73 554.93 381.52 561.69 384.71 580.96
  C 391.39 621.30 346.72 627.39 318.75 623.76
  Q 307.65 622.31 294.47 619.41
  Q 286.08 617.57 283.69 617.30
  Q 263.36 615.06 255.51 632.52
  C 251.30 641.89 251.08 655.66 255.91 665.00
  C 263.81 680.33 285.90 687.00 301.74 689.37
  C 367.34 699.22 448.25 672.51 450.35 593.48
  Q 451.15 563.23 439.94 537.54
  C 420.33 492.59 371.84 489.17 329.50 482.53
  C 320.08 481.05 309.63 479.30 301.09 474.89
  C 288.58 468.44 286.44 451.91 291.72 440.44
  C 300.35 421.71 325.84 418.85 343.76 420.81
  C 355.91 422.15 372.87 428.34 386.52 421.24
  C 402.79 412.77 403.62 388.57 393.69 375.30
  C 375.37 350.80 329.88 354.61 304.50 360.42
  Z
  M 769.48 482.25
  C 767.45 467.62 766.35 452.07 771.33 437.52
  C 777.48 419.56 796.18 415.37 812.98 416.46
  Q 822.60 417.08 823.56 417.01
  Q 830.77 416.41 836.44 412.70
  C 855.44 400.26 855.14 372.04 834.68 361.18
  Q 828.84 358.09 818.83 357.23
  C 787.21 354.53 753.71 363.85 732.23 388.43
  C 718.03 404.68 709.90 427.44 707.65 448.76
  C 705.61 467.97 707.66 486.54 711.19 505.41
  C 721.52 560.70 761.77 611.13 824.00 603.46
  Q 843.39 601.07 863.00 591.80
  Q 872.74 587.20 877.56 578.92
  C 890.92 555.95 869.66 529.15 844.53 535.32
  C 841.37 536.10 838.10 537.82 834.99 539.25
  C 821.72 545.39 802.98 548.39 791.41 537.33
  C 778.08 524.60 771.97 500.10 769.48 482.25
  Z
  M 658.9105 412.2339
  A 29.63 29.63 0.0 0 0 624.4185 388.4395
  L 623.0808 388.6850
  A 29.63 29.63 0.0 0 0 599.2864 423.1770
  L 633.4695 609.4261
  A 29.63 29.63 0.0 0 0 667.9615 633.2205
  L 669.2992 632.9750
  A 29.63 29.63 0.0 0 0 693.0936 598.4830
  L 658.9105 412.2339
  Z
  M 576.17 421.61
  C 572.70 410.93 563.90 402.48 552.74 401.16
  Q 548.32 400.64 536.86 402.73
  Q 491.18 411.02 445.52 419.39
  Q 428.92 422.43 422.44 436.44
  C 413.57 455.62 427.04 477.00 447.31 478.41
  Q 451.67 478.71 461.07 477.00
  Q 467.91 475.75 474.79 474.72
  Q 478.98 474.10 479.74 478.25
  Q 493.33 552.11 506.92 625.98
  Q 508.69 635.61 510.72 639.68
  C 520.91 660.10 548.60 661.40 561.97 643.46
  C 568.27 635.01 567.90 626.47 565.87 615.42
  Q 552.21 541.21 538.57 466.96
  A 3.99 3.99 0.0 0 1 541.77 462.32
  C 547.48 461.28 554.23 460.52 559.11 458.45
  C 573.50 452.33 581.05 436.62 576.17 421.61
  Z
  M 1347.12 795.87
  C 1352.22 832.37 1360.56 868.27 1363.98 905.00
  Q 1366.22 929.14 1363.60 952.49
  Q 1359.20 991.68 1336.30 1023.59
  Q 1336.20 1023.73 1336.33 1023.84
  L 1336.53 1024.00
  Q 1336.84 1024.27 1337.14 1023.98
  Q 1358.66 1002.54 1371.41 983.66
  Q 1386.45 961.39 1401.30 939.00
  Q 1500.31 789.69 1599.11 640.23
  C 1610.67 622.73 1620.77 605.20 1629.10 585.90
  C 1635.86 570.24 1642.93 550.49 1639.18 533.27
  Q 1638.89 531.94 1638.46 533.23
  C 1632.74 550.30 1612.40 555.52 1596.50 556.29
  C 1539.35 559.06 1479.64 566.91 1430.30 598.56
  Q 1380.24 630.66 1358.50 686.75
  Q 1349.74 709.35 1346.59 729.51
  C 1343.11 751.76 1343.98 773.40 1347.12 795.87
  Z
  M 1105.47 791.26
  C 1098.00 750.19 1090.43 709.12 1082.75 668.09
  Q 1081.54 661.60 1080.11 658.62
  C 1071.42 640.44 1046.41 637.76 1031.34 648.65
  C 1022.25 655.22 1016.70 665.51 1018.79 676.74
  Q 1028.72 730.11 1038.50 783.51
  Q 1039.42 788.49 1040.22 793.46
  Q 1042.57 808.07 1048.70 821.49
  C 1071.85 872.15 1124.39 878.56 1171.96 862.39
  C 1217.74 846.83 1236.79 805.47 1227.84 759.28
  Q 1225.73 748.44 1225.72 748.38
  Q 1217.29 697.97 1208.84 647.57
  Q 1207.70 640.77 1206.64 638.07
  C 1195.73 610.28 1149.16 616.20 1144.54 645.56
  Q 1143.85 650.00 1145.34 658.87
  Q 1155.37 718.31 1165.43 777.76
  C 1167.70 791.22 1163.93 804.45 1150.31 809.56
  C 1146.66 810.93 1141.97 811.59 1137.78 812.32
  C 1125.40 814.48 1115.78 812.00 1109.27 800.34
  Q 1106.09 794.65 1105.47 791.26
  Z
  M 733.12 901.63
  C 730.38 886.72 726.68 862.85 721.91 836.04
  C 713.75 790.15 723.01 737.51 754.12 701.38
  C 762.90 691.19 772.18 680.21 778.07 668.04
  Q 786.24 651.15 772.83 638.96
  C 760.52 627.76 742.17 630.39 730.07 640.37
  C 695.40 668.92 671.82 710.54 661.23 753.80
  Q 660.55 756.59 659.73 757.47
  C 657.92 759.41 655.24 758.90 653.33 757.17
  Q 630.23 736.27 607.16 715.35
  C 598.57 707.55 589.98 701.68 578.01 701.60
  Q 568.83 701.54 558.37 706.56
  C 541.03 714.89 535.87 733.22 549.85 748.15
  Q 558.04 756.89 568.23 765.78
  C 596.46 790.39 625.15 814.51 653.65 838.80
  C 655.58 840.44 656.63 841.89 657.04 844.24
  Q 664.65 887.75 672.23 931.27
  C 674.22 942.64 681.71 953.07 692.74 955.53
  C 706.47 958.59 724.86 954.48 732.81 942.19
  C 740.46 930.36 736.00 917.26 733.12 901.63
  Z
  M 828.52 686.67
  C 771.69 715.73 765.40 784.91 785.11 838.59
  C 799.21 876.99 828.09 905.00 869.04 911.12
  C 886.62 913.74 905.52 912.28 922.88 908.13
  C 967.88 897.35 998.83 861.85 1003.02 815.75
  Q 1006.77 774.63 989.52 736.09
  C 971.01 694.72 935.41 669.88 888.99 671.44
  Q 856.15 672.54 828.52 686.67
  Z
  M 1247.02 956.53
  A 0.26 0.25 -41.1 0 1 1247.50 956.56
  Q 1251.66 971.96 1255.91 987.41
  Q 1257.60 993.54 1258.97 995.67
  C 1268.69 1010.89 1295.36 1000.87 1290.46 982.76
  Q 1279.75 943.14 1269.03 903.52
  Q 1266.69 894.88 1264.41 891.95
  C 1258.49 884.32 1245.29 883.99 1238.62 890.64
  Q 1235.82 893.43 1232.28 902.11
  Q 1225.14 919.66 1218.06 937.11
  A 0.54 0.54 0.0 0 1 1217.19 937.30
  Q 1204.90 925.60 1192.81 913.87
  Q 1184.17 905.49 1180.28 903.86
  C 1171.84 900.32 1159.55 905.38 1156.93 914.94
  Q 1156.03 918.22 1156.81 924.58
  Q 1161.18 960.25 1165.51 995.92
  Q 1166.65 1005.28 1167.25 1007.00
  C 1170.39 1015.93 1181.44 1019.74 1189.86 1016.39
  Q 1197.92 1013.19 1200.28 1005.37
  Q 1201.22 1002.27 1200.61 997.09
  Q 1198.74 981.35 1196.84 966.05
  Q 1196.67 964.73 1197.64 965.65
  Q 1203.20 970.97 1208.86 976.34
  Q 1213.64 980.87 1216.09 982.10
  C 1222.78 985.47 1231.77 983.69 1236.78 978.32
  C 1241.11 973.68 1244.14 963.30 1247.02 956.53
  Z
  M 1093.53 918.66
  C 1075.63 918.20 1055.75 924.89 1045.33 940.07
  C 1032.35 958.96 1034.09 985.94 1043.14 1005.83
  C 1052.59 1026.58 1069.23 1038.24 1092.53 1037.73
  C 1115.18 1037.23 1134.82 1025.35 1141.98 1003.97
  C 1153.29 970.20 1134.66 919.71 1093.53 918.66
  Z
  M 982.26 1005.58
  C 979.00 996.02 976.07 981.38 980.32 971.75
  C 984.02 963.40 993.14 963.03 1001.25 963.30
  Q 1005.32 963.43 1007.21 963.04
  C 1018.19 960.76 1025.61 948.42 1018.13 938.37
  C 1013.16 931.71 1006.29 931.41 997.80 931.43
  C 964.49 931.50 941.50 955.28 943.12 988.75
  C 943.80 1002.95 946.92 1016.46 954.71 1028.51
  C 970.43 1052.81 998.88 1057.31 1024.14 1045.69
  C 1030.43 1042.80 1035.11 1038.56 1035.82 1031.76
  C 1036.82 1022.16 1027.83 1014.36 1018.40 1014.83
  C 1011.37 1015.19 1005.98 1020.00 998.50 1020.01
  C 989.02 1020.04 985.03 1013.72 982.26 1005.58
  Z
  M 944.7646 1044.7144
  A 17.37 16.27 -10.4 0 0 924.7430 1031.8473
  A 17.37 16.27 -10.4 0 0 910.5954 1050.9856
  A 17.37 16.27 -10.4 0 0 930.6170 1063.8527
  A 17.37 16.27 -10.4 0 0 944.7646 1044.7144
  Z"
/>
<path fill="#000000" d="
  M 1313.61 328.12
  A 5.72 5.72 0.0 0 1 1318.11 321.40
  L 1323.08 320.42
  A 35.94 26.31 -11.2 0 1 1363.44 339.25
  L 1364.11 342.62
  A 35.94 26.31 -11.2 0 1 1333.96 375.41
  L 1329.00 376.39
  A 5.72 5.72 0.0 0 1 1322.28 371.89
  L 1313.61 328.12
  Z"
/>
<path fill="#000000" d="
  M 936.65 821.95
  C 930.20 838.72 917.57 850.15 899.92 853.21
  C 854.63 861.05 835.86 815.08 837.60 778.50
  C 838.85 752.38 853.25 731.50 880.09 727.09
  C 905.00 723.00 923.85 736.98 933.13 758.95
  C 941.11 777.85 944.05 802.71 936.65 821.95
  Z"
/>
<path fill="#000000" d="
  M 1099.34 951.19
  C 1117.90 961.93 1119.32 1008.76 1089.23 1005.98
  C 1067.90 1004.01 1061.96 965.90 1076.33 953.60
  C 1082.41 948.40 1092.10 947.00 1099.34 951.19
  Z"
/>
</svg>
