<?xml version="1.0" encoding="UTF-8" standalone="no"?>
<!DOCTYPE svg PUBLIC "-//W3C//DTD SVG 1.1//EN" "http://www.w3.org/Graphics/SVG/1.1/DTD/svg11.dtd">
<svg xmlns="http://www.w3.org/2000/svg" version="1.1" viewBox="0.00 0.00 2840.00 737.00">
<path fill="#000000" d="
  M 337.46 391.20
  Q 380.41 297.46 394.74 195.26
  C 400.58 153.62 399.77 107.65 384.11 68.06
  C 376.84 49.71 365.20 31.98 348.32 21.18
  Q 347.90 20.91 348.26 20.57
  C 366.39 3.48 391.13 -3.70 415.31 2.74
  C 453.56 12.94 475.73 49.37 484.85 85.53
  C 496.98 133.55 492.23 184.43 481.84 232.23
  Q 457.49 344.34 403.24 445.34
  Q 386.21 477.04 365.16 506.21
  C 331.93 552.23 283.09 600.31 222.76 604.01
  C 165.76 607.50 146.05 566.63 143.59 517.25
  C 141.98 484.95 145.35 452.39 150.29 420.50
  C 161.86 345.87 180.68 272.41 190.23 197.50
  Q 193.73 170.06 192.08 145.75
  C 190.89 128.25 184.14 107.03 163.75 104.53
  C 146.79 102.45 129.19 111.52 116.84 122.85
  C 75.63 160.68 62.10 224.76 71.62 277.87
  Q 71.77 278.73 70.92 278.55
  C 19.48 267.55 -7.67 220.81 1.95 170.49
  C 10.86 123.81 45.75 88.88 90.02 73.47
  C 119.58 63.18 151.42 60.44 182.24 64.09
  C 215.46 68.02 245.27 83.11 262.39 112.61
  C 276.38 136.69 281.27 166.48 281.66 194.25
  Q 282.06 223.48 278.36 252.49
  Q 272.47 298.65 262.08 344.02
  C 253.68 380.63 244.84 417.03 238.09 454.01
  C 235.59 467.66 233.36 481.83 233.87 495.74
  C 234.15 503.22 235.91 512.38 245.29 512.98
  C 261.77 514.02 286.90 479.13 295.40 466.43
  Q 319.45 430.51 337.46 391.20
  Z"
/>
<path fill="#000000" d="
  M 884.81 84.00
  C 886.94 44.80 912.40 8.81 955.56 12.17
  C 983.97 14.38 1000.31 36.11 1002.14 63.22
  C 1004.94 104.78 975.64 149.96 928.82 144.14
  C 897.69 140.27 883.23 112.97 884.81 84.00
  Z"
/>
<path fill="#000000" d="
  M 1565.71 737.00
  L 1562.45 737.00
  Q 1556.59 736.44 1554.65 735.23
  Q 1546.48 730.13 1551.28 721.52
  Q 1565.72 695.65 1572.61 680.96
  C 1595.81 631.47 1604.24 576.66 1611.31 522.98
  Q 1617.17 478.55 1622.49 435.32
  Q 1622.82 432.63 1621.48 434.99
  C 1582.83 503.09 1520.00 567.36 1437.50 574.89
  C 1399.22 578.38 1363.09 567.85 1337.58 538.18
  C 1321.72 519.74 1311.65 495.79 1306.68 471.98
  A 0.51 0.50 56.6 0 0 1305.77 471.79
  C 1280.23 508.42 1247.16 544.12 1205.86 563.04
  Q 1166.83 580.93 1124.25 573.28
  C 1075.92 564.59 1043.72 531.76 1029.60 485.52
  A 0.44 0.44 0.0 0 0 1028.80 485.43
  C 1004.90 525.73 959.68 576.15 908.18 575.50
  C 889.00 575.26 871.76 569.41 860.35 553.13
  C 848.92 536.84 845.55 512.66 845.33 491.99
  C 844.89 450.20 851.60 408.16 858.41 367.02
  Q 866.68 317.08 873.90 266.99
  C 876.53 248.73 846.07 262.74 839.51 266.00
  Q 820.56 275.42 803.83 288.11
  A 1.08 1.05 73.2 0 0 803.41 288.92
  Q 802.87 302.15 801.29 314.99
  C 789.12 414.32 733.55 571.96 609.25 575.47
  C 512.14 578.22 482.90 483.66 485.90 405.25
  Q 487.93 352.44 505.84 302.77
  C 525.50 248.22 563.44 190.78 626.99 184.10
  C 647.62 181.93 669.17 188.53 674.51 211.17
  Q 674.75 212.17 673.89 212.73
  C 641.86 233.43 620.19 271.10 606.51 305.63
  C 591.08 344.55 582.23 385.07 580.60 427.00
  C 579.71 449.85 581.76 477.00 594.06 496.68
  C 605.61 515.17 626.37 514.65 643.90 505.40
  C 662.88 495.39 678.54 475.48 689.39 456.88
  C 715.13 412.74 728.99 360.30 730.85 309.50
  Q 730.87 308.91 730.29 308.80
  C 699.36 303.03 676.32 277.81 681.88 245.01
  C 685.93 221.10 702.57 200.92 726.29 194.92
  C 756.62 187.25 782.94 204.33 794.55 231.82
  Q 794.77 232.35 795.24 232.02
  C 826.58 210.05 863.91 192.62 902.24 189.13
  C 939.01 185.78 965.91 204.03 967.68 242.25
  Q 968.15 252.54 966.64 262.72
  C 958.09 320.48 950.62 360.37 942.51 409.25
  Q 937.02 442.36 936.05 461.49
  Q 935.50 472.26 936.28 480.75
  C 938.88 509.11 968.66 491.63 979.37 482.12
  C 996.87 466.59 1010.08 445.78 1019.73 424.64
  Q 1020.79 422.32 1020.87 419.65
  Q 1022.99 344.04 1061.24 279.01
  C 1095.69 220.46 1155.27 177.25 1225.88 186.07
  Q 1236.54 187.40 1247.57 191.57
  C 1297.55 210.47 1312.50 265.28 1291.15 311.43
  C 1280.73 333.96 1255.70 353.38 1229.79 341.90
  C 1219.70 337.43 1211.11 327.29 1209.81 315.46
  Q 1209.75 314.98 1209.99 314.56
  Q 1221.55 293.81 1224.72 270.26
  C 1226.30 258.53 1225.05 239.63 1211.35 235.43
  C 1188.46 228.41 1167.00 257.41 1157.43 273.94
  C 1134.07 314.26 1120.89 362.36 1116.35 408.49
  C 1113.69 435.50 1114.40 466.05 1125.81 491.20
  C 1140.56 523.70 1173.40 525.30 1201.68 510.34
  Q 1217.65 501.90 1231.20 489.94
  C 1259.01 465.41 1282.07 434.89 1301.17 403.24
  Q 1302.35 401.29 1302.55 398.96
  C 1309.04 324.20 1345.46 238.64 1414.89 201.16
  C 1448.73 182.90 1489.60 178.58 1526.50 189.30
  C 1568.59 201.53 1592.18 237.39 1588.91 280.75
  C 1586.09 318.20 1566.92 352.49 1539.59 377.60
  C 1501.53 412.57 1451.90 428.01 1400.64 425.57
  Q 1400.13 425.55 1400.11 426.05
  C 1398.52 453.72 1401.37 517.41 1442.75 518.18
  C 1474.89 518.78 1506.83 499.79 1530.68 479.92
  C 1574.00 443.82 1609.43 395.77 1634.67 345.56
  Q 1636.21 342.49 1636.80 339.00
  Q 1645.95 284.38 1657.72 230.28
  Q 1657.84 229.73 1657.27 229.73
  Q 1639.12 229.94 1621.18 229.39
  C 1615.57 229.22 1611.92 227.88 1609.82 222.75
  C 1605.16 211.35 1610.92 186.14 1623.93 181.78
  Q 1626.31 180.99 1632.13 181.02
  Q 1650.81 181.11 1669.45 181.01
  Q 1669.97 181.01 1670.11 180.51
  Q 1678.83 147.45 1691.36 115.73
  C 1702.13 88.48 1716.80 61.07 1737.71 40.23
  C 1766.11 11.92 1805.20 5.85 1842.74 16.84
  C 1909.19 36.31 1915.66 113.02 1908.12 169.38
  Q 1907.15 176.67 1902.57 205.00
  Q 1889.96 282.90 1882.28 331.75
  C 1876.64 367.65 1870.80 407.59 1866.85 445.75
  Q 1865.03 463.26 1864.67 480.86
  C 1864.51 488.92 1865.91 498.11 1871.30 504.19
  C 1893.14 528.77 1943.69 454.61 1952.47 440.51
  Q 1952.74 440.08 1952.71 439.57
  Q 1949.57 376.87 1970.25 317.75
  C 1984.02 278.41 2007.23 237.68 2042.67 213.95
  C 2060.01 202.34 2082.11 194.88 2103.50 195.52
  C 2120.56 196.04 2137.26 204.10 2140.54 222.19
  Q 2140.62 222.68 2140.20 222.95
  C 2105.98 244.72 2083.46 284.35 2069.39 321.24
  C 2055.19 358.46 2046.62 398.84 2046.51 438.75
  C 2046.45 458.53 2049.00 481.21 2060.06 498.19
  C 2073.29 518.51 2096.96 515.37 2114.89 504.14
  C 2141.65 487.38 2160.49 455.29 2172.45 426.95
  C 2187.03 392.41 2195.80 354.80 2196.83 317.29
  Q 2196.85 316.75 2196.32 316.66
  C 2171.09 312.15 2147.76 293.19 2147.16 265.98
  C 2146.13 218.97 2199.33 186.46 2239.25 214.78
  C 2252.28 224.02 2261.12 239.42 2265.14 254.83
  A 0.57 0.56 69.4 0 0 2265.94 255.20
  Q 2314.85 231.68 2363.23 207.19
  C 2378.90 199.25 2391.25 194.29 2407.49 192.14
  C 2420.72 190.39 2438.52 193.22 2436.51 211.25
  Q 2435.88 216.92 2432.87 229.87
  Q 2424.71 265.04 2416.67 300.23
  Q 2404.15 354.99 2395.74 410.53
  C 2392.59 431.33 2390.29 452.17 2390.81 473.25
  C 2391.13 486.47 2393.72 508.11 2412.24 506.45
  C 2430.01 504.85 2448.25 483.04 2457.81 469.53
  C 2481.23 436.46 2498.54 398.70 2512.55 360.80
  Q 2539.12 288.92 2553.08 213.54
  C 2553.20 212.85 2553.56 211.87 2554.03 211.20
  C 2567.16 192.59 2597.83 185.78 2618.75 185.19
  C 2629.76 184.88 2653.49 186.98 2655.40 201.87
  Q 2655.82 205.07 2653.70 213.14
  C 2640.72 262.70 2628.38 312.38 2617.82 362.51
  Q 2611.95 390.38 2607.64 418.53
  C 2604.71 437.67 2602.55 457.10 2603.09 476.49
  C 2603.33 485.19 2604.42 495.11 2608.87 502.93
  C 2615.49 514.56 2628.38 510.60 2636.81 504.08
  C 2652.41 492.00 2664.71 473.99 2674.93 456.71
  C 2698.99 416.02 2717.66 372.77 2732.27 328.27
  Q 2741.80 299.23 2747.83 269.20
  A 0.62 0.61 20.3 0 0 2747.52 268.54
  C 2712.13 249.25 2700.52 200.12 2721.41 166.50
  C 2736.14 142.79 2765.87 131.53 2792.77 138.59
  C 2824.10 146.82 2839.09 175.51 2839.78 206.01
  Q 2840.21 224.91 2836.16 247.28
  C 2831.58 272.57 2824.98 297.29 2817.22 321.78
  Q 2795.60 389.95 2760.01 452.10
  C 2728.28 507.50 2673.72 578.29 2601.62 575.38
  C 2537.57 572.79 2516.66 516.37 2517.31 461.83
  Q 2517.36 457.84 2515.51 461.37
  C 2488.52 513.02 2442.60 573.01 2378.01 574.17
  Q 2347.68 574.71 2327.29 553.46
  C 2305.40 530.65 2299.57 495.33 2300.87 465.11
  C 2303.26 409.44 2311.99 353.32 2322.64 298.70
  A 0.29 0.28 83.2 0 0 2322.24 298.38
  Q 2295.91 310.81 2268.28 320.01
  Q 2267.76 320.18 2267.70 320.71
  C 2254.89 424.60 2192.83 586.64 2059.02 574.82
  C 2011.30 570.60 1979.29 540.32 1964.00 496.60
  A 0.42 0.42 0.0 0 0 1963.26 496.50
  C 1939.22 530.41 1895.80 575.91 1850.59 575.51
  C 1819.00 575.23 1796.98 559.43 1787.96 528.96
  C 1779.33 499.81 1782.16 470.22 1785.64 440.76
  Q 1803.00 293.82 1830.17 148.38
  Q 1835.06 122.18 1835.45 98.00
  C 1835.72 81.80 1832.71 44.61 1807.35 48.48
  C 1791.12 50.96 1780.31 71.84 1774.72 84.90
  C 1761.95 114.73 1753.61 148.31 1747.19 181.16
  A 0.28 0.28 0.0 0 0 1747.47 181.49
  Q 1764.44 181.47 1781.48 182.24
  Q 1792.18 182.73 1794.61 191.15
  C 1798.70 205.36 1782.50 225.44 1769.13 228.64
  Q 1766.76 229.20 1762.84 229.22
  Q 1750.81 229.25 1738.98 229.21
  A 0.65 0.64 -85.2 0 0 1738.35 229.75
  Q 1731.13 275.64 1725.60 321.26
  C 1718.30 381.57 1712.12 442.03 1703.09 502.12
  C 1697.12 541.90 1689.80 581.76 1677.92 620.24
  C 1670.26 645.04 1659.28 666.89 1645.27 688.32
  C 1627.51 715.47 1598.48 734.73 1565.71 737.00
  Z
  M 1404.89 383.63
  C 1453.57 378.75 1490.56 338.98 1505.29 294.75
  C 1510.17 280.12 1513.52 258.93 1506.23 244.99
  C 1500.57 234.19 1488.66 231.07 1477.59 234.52
  C 1470.09 236.87 1462.54 243.04 1457.60 248.62
  C 1442.40 265.80 1431.71 288.35 1423.77 310.01
  Q 1410.69 345.71 1404.53 383.24
  A 0.34 0.33 -88.0 0 0 1404.89 383.63
  Z"
/>
</svg>
