<?xml version="1.0" encoding="UTF-8" standalone="no"?>
<!DOCTYPE svg PUBLIC "-//W3C//DTD SVG 1.1//EN" "http://www.w3.org/Graphics/SVG/1.1/DTD/svg11.dtd">
<svg xmlns="http://www.w3.org/2000/svg" version="1.1" viewBox="0.00 0.00 500.00 122.00">
<path fill="#dd1100" d="
  M 30.02 39.71
  L 27.86 18.21
  A 0.32 0.32 0.0 0 1 28.31 17.88
  L 48.09 26.57
  A 0.32 0.32 0.0 0 0 48.49 26.43
  L 59.38 7.78
  A 0.32 0.32 0.0 0 1 59.94 7.78
  L 70.85 26.43
  A 0.32 0.32 0.0 0 0 71.25 26.57
  L 91.02 17.88
  A 0.32 0.32 0.0 0 1 91.47 18.21
  L 89.31 39.71
  A 0.32 0.32 0.0 0 0 89.56 40.05
  L 110.66 44.64
  A 0.32 0.32 0.0 0 1 110.84 45.17
  L 96.47 61.30
  A 0.32 0.32 0.0 0 0 96.47 61.72
  L 110.84 77.85
  A 0.32 0.32 0.0 0 1 110.66 78.38
  L 89.56 82.96
  A 0.32 0.32 0.0 0 0 89.31 83.30
  L 91.46 104.80
  A 0.32 0.32 0.0 0 1 91.01 105.13
  L 71.24 96.44
  A 0.32 0.32 0.0 0 0 70.84 96.58
  L 59.94 115.22
  A 0.32 0.32 0.0 0 1 59.38 115.22
  L 48.48 96.58
  A 0.32 0.32 0.0 0 0 48.08 96.44
  L 28.31 105.12
  A 0.32 0.32 0.0 0 1 27.86 104.80
  L 30.01 83.30
  A 0.32 0.32 0.0 0 0 29.76 82.96
  L 8.66 78.37
  A 0.32 0.32 0.0 0 1 8.48 77.84
  L 22.85 61.71
  A 0.32 0.32 0.0 0 0 22.85 61.29
  L 8.49 45.15
  A 0.32 0.32 0.0 0 1 8.67 44.62
  L 29.77 40.05
  A 0.32 0.32 0.0 0 0 30.02 39.71
  Z
  M 59.98 16.23
  A 0.37 0.37 0.0 0 0 59.34 16.23
  L 51.90 28.98
  A 0.37 0.37 0.0 0 0 51.92 29.40
  L 59.37 38.92
  A 0.37 0.37 0.0 0 0 59.95 38.92
  L 67.41 29.40
  A 0.37 0.37 0.0 0 0 67.43 28.98
  L 59.98 16.23
  Z
  M 81.95 26.48
  Q 77.39 28.45 73.47 30.22
  C 70.25 31.66 68.42 34.90 66.34 37.61
  Q 65.87 38.23 66.60 37.98
  Q 70.51 36.69 74.38 35.27
  Q 76.31 34.56 77.56 32.97
  Q 80.00 29.89 82.16 26.73
  Q 82.49 26.25 81.95 26.48
  Z
  M 37.44 26.51
  Q 36.73 26.20 37.19 26.82
  L 42.61 34.14
  Q 42.88 34.52 43.32 34.67
  L 52.72 38.00
  Q 53.40 38.24 52.98 37.66
  C 50.84 34.72 48.99 31.58 45.52 30.05
  Q 41.57 28.30 37.44 26.51
  Z
  M 86.10 29.34
  Q 86.19 28.47 85.67 29.17
  L 80.18 36.56
  Q 79.85 37.02 79.83 37.58
  L 79.57 47.73
  Q 79.56 48.43 79.98 47.87
  Q 81.93 45.30 83.71 42.65
  C 85.93 39.35 85.69 33.60 86.10 29.34
  Z
  M 39.78 47.69
  L 39.46 37.49
  A 1.62 1.57 27.0 0 0 39.15 36.58
  L 33.77 29.29
  Q 33.13 28.41 33.24 29.50
  Q 33.68 33.85 34.12 38.40
  C 34.48 42.07 37.20 45.04 39.34 47.85
  Q 39.80 48.46 39.78 47.69
  Z
  M 44.17 39.45
  A 0.30 0.30 0.0 0 0 43.77 39.74
  L 44.13 53.74
  A 0.30 0.30 0.0 0 0 44.34 54.02
  L 57.13 58.33
  A 0.30 0.30 0.0 0 0 57.53 58.04
  L 57.53 44.40
  A 0.30 0.30 0.0 0 0 57.33 44.12
  L 44.17 39.45
  Z
  M 74.95 54.03
  A 0.30 0.30 0.0 0 0 75.16 53.75
  L 75.57 39.73
  A 0.30 0.30 0.0 0 0 75.17 39.44
  L 61.96 44.14
  A 0.30 0.30 0.0 0 0 61.76 44.42
  L 61.76 58.06
  A 0.30 0.30 0.0 0 0 62.16 58.35
  L 74.95 54.03
  Z
  M 31.54 44.18
  A 0.31 0.31 0.0 0 0 31.22 44.05
  L 16.61 47.23
  A 0.31 0.31 0.0 0 0 16.44 47.74
  L 26.35 58.86
  A 0.31 0.31 0.0 0 0 26.69 58.95
  L 38.41 54.60
  A 0.31 0.31 0.0 0 0 38.56 54.13
  L 31.54 44.18
  Z
  M 102.87 47.77
  A 0.33 0.33 0.0 0 0 102.70 47.23
  L 88.12 44.06
  A 0.33 0.33 0.0 0 0 87.78 44.19
  L 80.79 54.12
  A 0.33 0.33 0.0 0 0 80.94 54.62
  L 92.62 58.94
  A 0.33 0.33 0.0 0 0 92.98 58.85
  L 102.87 47.77
  Z
  M 34.21 69.19
  A 0.32 0.32 0.0 0 0 34.38 69.69
  L 47.75 73.65
  A 0.32 0.32 0.0 0 0 48.10 73.53
  L 55.99 62.84
  A 0.32 0.32 0.0 0 0 55.83 62.35
  L 43.06 58.03
  A 0.32 0.32 0.0 0 0 42.70 58.14
  L 34.21 69.19
  Z
  M 71.21 73.52
  A 0.33 0.33 0.0 0 0 71.57 73.64
  L 84.95 69.70
  A 0.33 0.33 0.0 0 0 85.12 69.18
  L 76.61 58.16
  A 0.33 0.33 0.0 0 0 76.25 58.05
  L 63.52 62.35
  A 0.33 0.33 0.0 0 0 63.36 62.85
  L 71.21 73.52
  Z
  M 20.23 71.93
  L 28.55 69.12
  Q 29.09 68.93 29.44 68.48
  L 35.32 60.79
  Q 35.88 60.06 35.01 60.37
  C 31.43 61.65 28.17 62.36 25.44 65.13
  Q 22.48 68.14 19.93 71.51
  Q 19.39 72.22 20.23 71.93
  Z
  M 93.09 64.32
  C 91.47 62.59 86.58 60.99 84.23 60.38
  Q 83.53 60.20 83.97 60.78
  L 89.91 68.49
  Q 90.25 68.93 90.79 69.12
  L 99.46 72.08
  Q 100.21 72.34 99.70 71.73
  Q 96.47 67.93 93.09 64.32
  Z
  M 59.37 87.84
  A 0.35 0.35 0.0 0 0 59.95 87.84
  L 67.80 76.40
  A 0.35 0.35 0.0 0 0 67.79 75.99
  L 59.94 65.35
  A 0.35 0.35 0.0 0 0 59.38 65.35
  L 51.54 75.99
  A 0.35 0.35 0.0 0 0 51.53 76.40
  L 59.37 87.84
  Z
  M 30.50 72.96
  A 0.32 0.32 0.0 0 0 30.30 72.96
  L 21.05 76.13
  A 0.32 0.32 0.0 0 0 21.09 76.74
  L 32.16 79.16
  A 0.32 0.32 0.0 0 0 32.32 79.15
  L 40.59 76.53
  A 0.32 0.32 0.0 0 0 40.58 75.92
  L 30.50 72.96
  Z
  M 98.20 76.77
  A 0.34 0.34 0.0 0 0 98.23 76.12
  L 89.00 72.96
  A 0.34 0.34 0.0 0 0 88.80 72.96
  L 78.83 75.91
  A 0.34 0.34 0.0 0 0 78.83 76.56
  L 87.01 79.15
  A 0.34 0.34 0.0 0 0 87.19 79.16
  L 98.20 76.77
  Z
  M 34.49 82.89
  A 0.34 0.34 0.0 0 0 34.26 83.18
  L 32.79 97.98
  A 0.34 0.34 0.0 0 0 33.26 98.33
  L 46.87 92.36
  A 0.34 0.34 0.0 0 0 47.07 92.04
  L 46.76 79.46
  A 0.34 0.34 0.0 0 0 46.32 79.15
  L 34.49 82.89
  Z
  M 86.03 98.33
  A 0.35 0.35 0.0 0 0 86.52 97.97
  L 85.06 83.19
  A 0.35 0.35 0.0 0 0 84.82 82.89
  L 73.03 79.15
  A 0.35 0.35 0.0 0 0 72.58 79.47
  L 72.23 92.02
  A 0.35 0.35 0.0 0 0 72.44 92.35
  L 86.03 98.33
  Z
  M 68.27 83.94
  Q 68.30 83.13 67.84 83.80
  L 62.00 92.31
  Q 61.76 92.66 61.76 93.08
  L 61.76 102.74
  Q 61.76 103.62 62.22 102.87
  Q 64.56 99.06 66.75 95.21
  C 68.68 91.81 68.12 88.07 68.27 83.94
  Z
  M 57.27 92.24
  L 51.69 84.08
  Q 51.17 83.32 51.17 84.24
  C 51.20 87.63 50.63 91.63 52.33 94.73
  Q 54.60 98.86 57.13 102.86
  Q 57.54 103.50 57.54 102.74
  L 57.53 93.09
  A 1.53 1.48 -63.1 0 0 57.27 92.24
  Z"
/>
<path fill="#231f20" d="
  M 239.6027 64.8034
  A 21.39 21.39 0.0 0 1 218.1010 86.0811
  L 213.7210 86.0582
  A 21.39 21.39 0.0 0 1 192.4433 64.5565
  L 192.4773 58.0566
  A 21.39 21.39 0.0 0 1 213.9790 36.7789
  L 218.3590 36.8018
  A 21.39 21.39 0.0 0 1 239.6367 58.3035
  L 239.6027 64.8034
  Z
  M 215.81 76.71
  C 229.00 77.22 229.65 53.27 221.33 47.54
  C 215.87 43.79 208.50 47.22 206.58 53.32
  C 204.21 60.86 204.49 76.27 215.81 76.71
  Z"
/>
<path fill="#231f20" d="
  M 143.29 68.75
  L 151.51 37.93
  Q 151.62 37.50 152.07 37.50
  L 162.00 37.50
  Q 162.46 37.50 162.60 37.94
  L 172.20 68.77
  Q 172.60 70.07 172.84 68.74
  L 178.45 37.98
  Q 178.53 37.50 179.02 37.50
  L 189.69 37.50
  Q 190.23 37.50 190.12 38.03
  L 180.33 84.85
  Q 180.22 85.39 179.67 85.39
  L 167.09 85.39
  Q 166.71 85.39 166.60 85.03
  L 157.96 56.26
  A 0.25 0.25 0.0 0 0 157.48 56.25
  L 148.71 84.79
  Q 148.53 85.38 147.90 85.38
  L 134.92 85.38
  Q 134.35 85.38 134.24 84.83
  L 125.03 37.79
  A 0.25 0.24 85.0 0 1 125.27 37.50
  L 136.74 37.50
  A 0.65 0.65 0.0 0 1 137.38 38.04
  L 142.94 68.74
  Q 143.08 69.53 143.29 68.75
  Z"
/>
<path fill="#231f20" d="
  M 259.81 75.94
  L 278.56 75.94
  A 0.39 0.39 0.0 0 1 278.95 76.33
  L 278.94 84.97
  A 0.39 0.39 0.0 0 1 278.55 85.36
  L 247.18 85.36
  A 0.39 0.39 0.0 0 1 246.79 84.97
  L 246.79 37.88
  A 0.39 0.39 0.0 0 1 247.18 37.49
  L 259.04 37.50
  A 0.39 0.39 0.0 0 1 259.43 37.89
  L 259.42 75.55
  A 0.39 0.39 0.0 0 0 259.81 75.94
  Z"
/>
<path fill="#231f20" d="
  M 296.75 46.85
  L 296.75 56.71
  A 0.32 0.32 0.0 0 0 297.07 57.03
  L 314.66 57.03
  A 0.32 0.32 0.0 0 1 314.98 57.35
  L 314.98 65.76
  A 0.32 0.32 0.0 0 1 314.66 66.08
  L 297.07 66.07
  A 0.32 0.32 0.0 0 0 296.75 66.39
  L 296.75 85.04
  A 0.32 0.32 0.0 0 1 296.43 85.36
  L 284.49 85.36
  A 0.32 0.32 0.0 0 1 284.17 85.04
  L 284.17 37.82
  A 0.32 0.32 0.0 0 1 284.49 37.50
  L 315.44 37.50
  A 0.32 0.32 0.0 0 1 315.76 37.82
  L 315.77 46.21
  A 0.32 0.32 0.0 0 1 315.45 46.53
  L 297.07 46.53
  A 0.32 0.32 0.0 0 0 296.75 46.85
  Z"
/>
<path fill="#231f20" d="
  M 351.69 61.95
  Q 354.36 63.46 354.97 65.05
  Q 358.79 75.02 362.21 85.06
  Q 362.31 85.36 361.99 85.36
  L 349.74 85.37
  A 0.79 0.78 -7.7 0 1 348.98 84.80
  Q 347.01 77.78 344.45 71.03
  Q 342.23 65.18 335.40 66.74
  Q 334.98 66.83 334.98 67.25
  L 334.98 85.06
  A 0.30 0.29 -90.0 0 1 334.69 85.36
  L 322.94 85.36
  Q 322.37 85.36 322.37 84.79
  L 322.37 38.22
  Q 322.37 37.61 322.97 37.60
  Q 338.18 37.24 347.00 37.58
  C 355.85 37.92 362.00 44.38 359.60 53.61
  Q 358.02 59.69 351.76 61.38
  Q 351.04 61.58 351.69 61.95
  Z
  M 334.97 46.87
  L 334.95 57.07
  A 0.32 0.32 0.0 0 0 335.27 57.39
  L 340.52 57.40
  A 6.97 4.90 0.1 0 0 347.50 52.51
  L 347.50 51.47
  A 6.97 4.90 0.1 0 0 340.54 46.56
  L 335.29 46.55
  A 0.32 0.32 0.0 0 0 334.97 46.87
  Z"
/>
<path fill="#231f20" d="
  M 379.94 75.37
  L 376.36 85.16
  A 0.30 0.30 0.0 0 1 376.08 85.36
  L 363.92 85.36
  A 0.30 0.30 0.0 0 1 363.64 84.95
  L 381.36 37.69
  A 0.30 0.30 0.0 0 1 381.64 37.50
  L 396.68 37.49
  A 0.30 0.30 0.0 0 1 396.96 37.68
  L 414.96 84.95
  A 0.30 0.30 0.0 0 1 414.68 85.36
  L 401.51 85.37
  A 0.30 0.30 0.0 0 1 401.23 85.17
  L 397.86 75.37
  A 0.30 0.30 0.0 0 0 397.58 75.17
  L 380.22 75.17
  A 0.30 0.30 0.0 0 0 379.94 75.37
  Z
  M 383.11 65.57
  A 0.40 0.40 0.0 0 0 383.49 66.09
  L 394.25 66.07
  Q 394.79 66.07 394.63 65.55
  L 389.36 48.02
  Q 389.10 47.16 388.82 48.01
  L 383.11 65.57
  Z"
/>
<path fill="#231f20" d="
  M 434.60 53.77
  L 428.86 85.07
  A 0.40 0.39 5.2 0 1 428.47 85.39
  L 417.49 85.38
  A 0.32 0.32 0.0 0 1 417.18 84.99
  L 427.04 37.84
  A 0.44 0.43 -84.2 0 1 427.46 37.49
  L 440.18 37.50
  Q 440.63 37.50 440.76 37.93
  L 449.33 66.50
  Q 449.60 67.40 449.88 66.50
  L 458.68 37.94
  A 0.62 0.61 8.2 0 1 459.27 37.50
  L 472.49 37.50
  Q 472.99 37.50 473.08 37.99
  L 482.30 85.01
  A 0.31 0.30 -5.5 0 1 482.00 85.37
  L 470.61 85.40
  Q 470.06 85.40 469.96 84.86
  L 464.49 54.51
  Q 464.26 53.26 463.93 54.49
  L 455.80 85.03
  A 0.47 0.46 -82.8 0 1 455.35 85.38
  L 445.53 85.39
  Q 444.88 85.39 444.69 84.77
  L 435.06 53.74
  Q 434.78 52.81 434.60 53.77
  Z"
/>
</svg>
