<svg xmlns="http://www.w3.org/2000/svg" viewBox="0 0 464.1 464.09"><defs><style>.cls-1{fill:#f8a900;}.cls-2{fill:#b47b00;}.cls-3{fill:#f8e38c;}.cls-4{fill:#ea8d00;}.cls-5{fill:#fff;opacity:0.15;}</style></defs><g id="Layer_2" data-name="Layer 2"><g id="Layer_5_copy" data-name="Layer 5 copy"><path class="cls-1" d="M418.8,232c0,103.15-83.61,186.76-186.75,186.76S45.3,335.19,45.3,232,128.91,45.3,232.05,45.3,418.8,128.91,418.8,232Z"/><path class="cls-2" d="M51,244.58C51,141.44,134.61,57.83,237.75,57.83A186.73,186.73,0,0,1,404.86,161.17,186.78,186.78,0,0,0,232.05,45.3C128.91,45.3,45.3,128.91,45.3,232a185.92,185.92,0,0,0,19.64,83.42A186.1,186.1,0,0,1,51,244.58Z"/><path class="cls-1" d="M232.05,0C103.89,0,0,103.89,0,232S103.89,464.09,232.05,464.09,464.1,360.2,464.1,232,360.21,0,232.05,0Zm0,418.8C128.91,418.8,45.3,335.19,45.3,232S128.91,45.3,232.05,45.3,418.8,128.91,418.8,232,335.19,418.8,232.05,418.8Z"/><path class="cls-3" d="M418.77,232.33c0,103.13-83.61,186.74-186.74,186.74A186.74,186.74,0,0,1,64.91,315.74,186.79,186.79,0,0,0,237.72,431.61c103.14,0,186.75-83.61,186.75-186.75a186,186,0,0,0-19.63-83.41A186.21,186.21,0,0,1,418.77,232.33Z"/><path class="cls-4" d="M322.61,138.58c-31.47-28.48-77.25-25.29-86.79-24.26a16.2,16.2,0,0,1-3.41,0c-9.54-1-55.32-4.22-86.79,24.26C128.16,154.39,115.1,180,115.1,221.06v46.16c0,7.15,6.48,12.94,14.47,12.94h5.78c7.66,0,14,5.35,14.45,12.2l1.92,14.11c0,23.58,12.22,42.7,27.29,42.7a17.84,17.84,0,0,0,5.2-.77,15.76,15.76,0,0,1,14.32,2.49,22.41,22.41,0,0,0,14.05,5.23,22,22,0,0,0,12.75-4.25,15.57,15.57,0,0,1,17.57,0,22,22,0,0,0,12.75,4.25,22.41,22.41,0,0,0,14-5.23A15.76,15.76,0,0,1,284,348.4a17.84,17.84,0,0,0,5.2.77c15.07,0,27.29-19.12,27.29-42.7l1.93-14.11c.44-6.85,6.78-12.2,14.44-12.2h5.78c8,0,14.47-5.79,14.47-12.94V221.06C353.13,180,340.08,154.39,322.61,138.58Z"/><path class="cls-1" d="M242.82,300.16H225.24c-2.5,0-4-4.56-2.61-8l8.79-21.51c1.24-3,4-3,5.21,0l8.79,21.51C246.81,295.6,245.32,300.16,242.82,300.16Z"/><path class="cls-1" d="M300,263.63c3.82-.94,4.77-11.09,2.6-14.37-6.22-9.43-18.35-21.19-29.66-23.26-14-2.57-13.57,24.06-13.34,29.42a5.7,5.7,0,0,0,.41,1.87c.76,1.9,2.69,6,5,6.51C267.56,264.3,286.42,267,300,263.63Z"/><path class="cls-1" d="M169.13,264c-3.81-.94-4.76-11.09-2.6-14.37,6.23-9.43,18.35-21.19,29.66-23.26,14-2.57,13.57,24.06,13.34,29.42a5.45,5.45,0,0,1-.4,1.87c-.77,1.9-2.69,6.06-5,6.51C201.62,264.69,182.75,267.37,169.13,264Z"/><path class="cls-5" d="M394.4,65.66,8.24,295.6a230.53,230.53,0,0,0,19.53,46.87c58.34-35,335.14-201.05,396.66-240.25A232.9,232.9,0,0,0,394.4,65.66Z"/><path class="cls-5" d="M54.31,380.82a233.56,233.56,0,0,0,18.86,19.67c67-41.95,315.11-197.45,379.22-239.74q-3.27-10.44-7.5-20.45Z"/></g></g></svg>