<svg width="140" height="175" viewBox="0 0 140 175" fill="none" xmlns="http://www.w3.org/2000/svg">
<ellipse cx="71.6876" cy="113.858" rx="56.463" ry="46" transform="rotate(-17.5114 71.6876 113.858)" fill="url(#paint0_linear_4_391)"/>
<ellipse cx="39" cy="147" rx="10" ry="10" fill="#C68E60"/>
<ellipse cx="67.6876" cy="104.858" rx="56.463" ry="46" transform="rotate(-17.5114 67.6876 104.858)" fill="url(#paint1_linear_4_391)"/>
<path d="M111.227 86.7625C117.343 106.145 103.014 127.942 79.223 135.449C55.4322 142.955 31.1884 133.328 25.073 113.946C18.9575 94.5635 33.2863 72.7659 57.0771 65.2595C80.8679 57.7531 105.112 67.3803 111.227 86.7625Z" fill="url(#paint2_linear_4_391)"/>
<path d="M102.029 93.4182C108.982 108.561 99.2976 127.871 80.3984 136.549C61.4993 145.226 40.542 139.985 33.5892 124.843C26.6364 109.7 36.3208 90.39 55.22 81.7123C74.1192 73.0346 95.0764 78.2755 102.029 93.4182Z" fill="#F4E2D2"/>
<path d="M66.4196 81.6696C66.5026 81.1525 67.1795 80.9821 67.316 81.4439L73.2005 101.357C73.2833 101.637 73.0798 101.975 72.784 102.05L63.3171 104.433C63.0213 104.508 62.7869 104.279 62.8373 103.966L66.4196 81.6696Z" fill="#656565"/>
<path d="M69.1296 131.355C69.2661 131.817 69.9429 131.646 70.026 131.129L73.6083 108.833C73.6587 108.519 73.4243 108.291 73.1284 108.365L63.6616 110.749C63.3658 110.823 63.1623 111.162 63.2451 111.442L69.1296 131.355Z" fill="#656565"/>
<path d="M44.1214 112.935C43.6399 112.942 43.6019 112.245 44.0711 112.012L64.3015 101.978C64.586 101.837 64.8736 101.993 64.8902 102.298L65.4219 112.045C65.4385 112.35 65.1755 112.645 64.8835 112.649L44.1214 112.935Z" fill="#656565"/>
<path d="M93.9079 100.4C94.377 100.168 94.339 99.4706 93.8575 99.4772L73.0954 99.7638C72.8034 99.7679 72.5405 100.063 72.5571 100.367L73.0887 110.115C73.1054 110.42 73.3929 110.576 73.6774 110.435L93.9079 100.4Z" fill="#656565"/>
<path d="M48.128 93.7407C47.8462 93.3798 48.298 92.7664 48.7262 92.9284L67.1923 99.9135C67.452 100.012 67.5115 100.362 67.314 100.63L60.9959 109.208C60.7985 109.476 60.4468 109.523 60.2759 109.304L48.128 93.7407Z" fill="#B1B1B1"/>
<path d="M88.0782 120.397C88.3599 120.758 87.9082 121.371 87.4799 121.209L69.0139 114.224C68.7542 114.126 68.6947 113.776 68.8922 113.508L75.2102 104.93C75.4077 104.662 75.7594 104.615 75.9302 104.834L88.0782 120.397Z" fill="#B1B1B1"/>
<path d="M69.7553 108.324L66.1139 105.953C64.7665 105.076 62.7832 105.704 61.7536 107.356C56.072 116.474 47.8716 130.614 49.6087 131.893C51.3273 133.159 62.5824 121.3 69.8834 113.109C71.2812 111.54 71.21 109.271 69.7553 108.324Z" fill="#2B71D9"/>
<path d="M67.6684 104.438L71.3098 106.808C72.6572 107.685 74.6405 107.058 75.6701 105.405C81.3517 96.2869 89.5521 82.1475 87.815 80.8681C86.0964 79.6023 74.8414 91.4609 67.5403 99.6528C66.1426 101.221 66.2137 103.49 67.6684 104.438Z" fill="#D92B2B"/>
<ellipse cx="6.32491" cy="5.30761" rx="6.32491" ry="5.30761" transform="matrix(0.708984 0.553685 -0.663848 0.866071 67.2865 99.0171)" fill="#F4E2D2"/>
<path d="M109.52 89.6643C115.141 107.479 102.335 129.012 78.3572 136.578C54.3792 144.143 31.5342 133.859 25.9132 116.044C20.2922 98.2288 33.0984 76.696 57.0764 69.1305C81.0544 61.565 103.899 71.8492 109.52 89.6643Z" stroke="#C68E60" stroke-width="10"/>
<path d="M90.8536 61.2275L92.3893 57.9654C94.5975 49.0421 121.168 57.7185 114.604 71.3354L111.953 77.2914" stroke="#7E5634" stroke-width="5"/>
<g filter="url(#filter0_d_4_391)">
<path d="M87.2074 43.9333L45.1809 32.1134C44.0229 31.7877 43.408 30.5205 43.9756 29.4598C50.5219 17.2263 68.3642 7.20536 80.2244 2.10193C81.9595 1.35532 84.015 3.4993 83.7294 5.36648C82.2133 15.2788 86.2936 31.2092 89.6875 41.2903C90.2098 42.8417 88.7831 44.3765 87.2074 43.9333Z" fill="url(#paint3_linear_4_391)"/>
</g>
<path d="M59.5 35.5C49.5 56.3 68.6667 75.5 79.5 82.5C63.5 63.7 68.8333 46.3333 73.5 40L66.5 37.75L59.5 35.5Z" fill="url(#paint4_linear_4_391)"/>
<path d="M93.7818 74.377L92.5562 73.7604L92.1636 70.4756L90.9241 72.9393L89.6984 72.3227L91.9163 67.9142L93.142 68.5308L93.5188 71.8469L94.7741 69.3519L95.9997 69.9685L93.7818 74.377Z" fill="#5F3818"/>
<path d="M104.648 115.513L104.286 116.232L105.693 116.94L105.225 117.871L103.818 117.163L103.418 117.958L105.013 118.76L104.519 119.742L101.698 118.323L103.916 113.914L106.737 115.333L106.243 116.315L104.648 115.513Z" fill="#5F3818"/>
<path d="M36.1258 87.0381L32.8261 90.9024L31.3191 90.1442L32.0715 87.1377L30.0934 89.5276L28.5864 88.7695L29.735 83.823L31.0607 84.4899L30.0571 87.7619L32.2675 85.0971L33.612 85.7734L32.7836 89.1023L34.8001 86.3712L36.1258 87.0381Z" fill="#5F3818"/>
<path d="M44.3398 138.203C43.827 137.945 43.4668 137.613 43.2591 137.205C43.0535 136.794 43.0525 136.354 43.2561 135.887L44.563 136.545C44.4979 136.705 44.4871 136.841 44.5307 136.952C44.5743 137.062 44.6586 137.149 44.7836 137.212C44.8962 137.269 45.0015 137.288 45.0997 137.269C45.2041 137.249 45.2814 137.188 45.3318 137.088C45.3968 136.959 45.3867 136.828 45.3014 136.697C45.2162 136.565 45.0601 136.387 44.8332 136.163C44.5938 135.923 44.4064 135.714 44.2712 135.536C44.1423 135.356 44.0541 135.147 44.0067 134.909C43.9655 134.669 44.0152 134.409 44.1557 134.13C44.2983 133.847 44.4909 133.64 44.7333 133.512C44.9778 133.379 45.2513 133.323 45.5539 133.345C45.8564 133.366 46.1661 133.457 46.483 133.616C46.9957 133.874 47.3435 134.201 47.5261 134.595C47.7151 134.988 47.7109 135.407 47.5137 135.851L46.1817 135.181C46.2447 135.045 46.2533 134.924 46.2076 134.818C46.1662 134.713 46.085 134.631 45.9641 134.57C45.8724 134.524 45.7837 134.513 45.6981 134.538C45.6124 134.563 45.5445 134.625 45.4941 134.725C45.4522 134.808 45.4467 134.897 45.4778 134.991C45.5152 135.083 45.5702 135.176 45.643 135.27C45.718 135.36 45.8324 135.486 45.9865 135.647C46.2175 135.883 46.3986 136.094 46.5296 136.28C46.6669 136.464 46.7572 136.674 46.8004 136.91C46.8499 137.144 46.8097 137.39 46.6796 137.649C46.5475 137.911 46.3623 138.113 46.124 138.255C45.8899 138.398 45.6174 138.467 45.3065 138.462C44.9997 138.46 44.6775 138.373 44.3398 138.203Z" fill="#5F3818"/>
<path d="M79.5 150.5C87.8333 148.167 106.6 139.6 115 124" stroke="#B07646" stroke-width="3" stroke-linecap="round"/>
<defs>
<filter id="filter0_d_4_391" x="39.7615" y="1.94963" width="54.0358" height="50.0612" filterUnits="userSpaceOnUse" color-interpolation-filters="sRGB">
<feFlood flood-opacity="0" result="BackgroundImageFix"/>
<feColorMatrix in="SourceAlpha" type="matrix" values="0 0 0 0 0 0 0 0 0 0 0 0 0 0 0 0 0 0 127 0" result="hardAlpha"/>
<feOffset dy="4"/>
<feGaussianBlur stdDeviation="2"/>
<feComposite in2="hardAlpha" operator="out"/>
<feColorMatrix type="matrix" values="0 0 0 0 0 0 0 0 0 0 0 0 0 0 0 0 0 0 0.25 0"/>
<feBlend mode="normal" in2="BackgroundImageFix" result="effect1_dropShadow_4_391"/>
<feBlend mode="normal" in="SourceGraphic" in2="effect1_dropShadow_4_391" result="shape"/>
</filter>
<linearGradient id="paint0_linear_4_391" x1="27.6839" y1="144.688" x2="126.47" y2="102.455" gradientUnits="userSpaceOnUse">
<stop stop-color="#8C5628"/>
<stop offset="1" stop-color="#532E10"/>
</linearGradient>
<linearGradient id="paint1_linear_4_391" x1="11.8833" y1="109.944" x2="111.651" y2="79.5558" gradientUnits="userSpaceOnUse">
<stop stop-color="#B87B48"/>
<stop offset="0.748243" stop-color="#825128"/>
<stop offset="1" stop-color="#532E10"/>
</linearGradient>
<linearGradient id="paint2_linear_4_391" x1="27" y1="113.5" x2="105" y2="79" gradientUnits="userSpaceOnUse">
<stop stop-color="#DFD3C9"/>
<stop offset="1" stop-color="#DD9A62"/>
</linearGradient>
<linearGradient id="paint3_linear_4_391" x1="67" y1="0" x2="67" y2="45" gradientUnits="userSpaceOnUse">
<stop stop-color="#472000"/>
<stop offset="1" stop-color="#7E5634"/>
</linearGradient>
<linearGradient id="paint4_linear_4_391" x1="68.0995" y1="35.5" x2="68.0995" y2="82.5" gradientUnits="userSpaceOnUse">
<stop stop-color="#724A28"/>
<stop offset="1" stop-color="#734A29"/>
</linearGradient>
</defs>
</svg>
