<svg xmlns="http://www.w3.org/2000/svg" xmlns:xlink="http://www.w3.org/1999/xlink" viewBox="0 0 684.92 593.4"><defs><style>.cls-1{fill:#b21f00;}.cls-2{fill:#b25e22;}.cls-3{fill:url(#linear-gradient);}.cls-4{fill:#ca7a42;}.cls-5{fill:#c8c8c8;}.cls-6{fill:#e5e7e9;}.cls-7{fill:#8c8c8c;}.cls-8{fill:#813719;}.cls-9{fill:#ffe077;}.cls-10{fill:#934b27;}.cls-11{opacity:0.32;}.cls-12{fill:#27003e;}.cls-13{fill:#b4b4b4;}</style><linearGradient id="linear-gradient" x1="388.98" y1="24.79" x2="254.78" y2="480.35" gradientUnits="userSpaceOnUse"><stop offset="0" stop-color="#ca7a42"/><stop offset="0.01" stop-color="#c87841"/><stop offset="0.33" stop-color="#934b27"/></linearGradient></defs><g id="Layer_2" data-name="Layer 2"><g id="Layer_3" data-name="Layer 3"><path class="cls-1" d="M2.22,535.53a443.32,443.32,0,0,1,39.57-22.7q20-10.37,40.25-19.42t40.73-17.1c6.82-2.72,13.67-5.27,20.51-7.86s13.72-5,20.61-7.37c27.52-9.63,55.29-18.06,83.23-25.66s56.07-14.27,84.38-20.09S388.28,404.5,417,400.39s57.5-7.34,86.58-9.43c7.26-.58,14.56-1,21.85-1.41s14.6-.72,21.94-.93c14.65-.48,29.37-.67,44.17-.49,7.4.11,14.81.25,22.25.59s14.89.61,22.39,1.22A449.33,449.33,0,0,1,681.45,395l1,.18a2.91,2.91,0,0,1,.16,5.7l-21.13,4.83-21.16,4.73-42.32,9.44-84.73,18.38-21.18,4.59-21.21,4.48-42.43,8.92-84.85,17.83-84.95,17.3L216.22,500,195,504.35l-21.27,4.18L88.63,525.28,46.05,533.4l-21.3,4.06L3.43,541.41a2.91,2.91,0,0,1-2.12-5.29Z"/><path class="cls-1" d="M595.89,593.21l-18.44-7.14-18.4-7.24-36.8-14.5-73.41-29.45-18.35-7.37L412.19,520,375.6,505l-73.19-30-73-30.49-36.49-15.24-18.24-7.64-18.19-7.74-72.76-31L47.46,367.2l-18.14-7.88-18.1-8a2.89,2.89,0,0,1,1.12-5.53l1.17,0a384.92,384.92,0,0,1,42,2.06c13.75,1.23,27.27,3,40.68,5.12s26.64,4.56,39.78,7.28c6.58,1.35,13.09,2.83,19.62,4.3s13,3.06,19.44,4.74c25.83,6.53,51.21,14.13,76.25,22.56s49.74,17.7,74.11,27.75,48.42,20.91,72.1,32.62,47,24.23,69.93,37.87c5.74,3.35,11.41,6.89,17.1,10.37s11.32,7.12,16.92,10.82q16.85,11,33.3,23c10.95,8,21.79,16.29,32.39,25.15a382.13,382.13,0,0,1,31.11,28.25l.82.85a2.89,2.89,0,0,1-3.12,4.7Z"/></g><g id="Layer_2-2" data-name="Layer 2"><polygon class="cls-2" points="136.73 443.3 56.83 169.33 406.9 235.92 393.58 511.8 136.73 443.3"/><path class="cls-3" d="M56.82,169.33S91.07-20.93,231.86,1.9l352,62.79s60.88,17.12,53.27,104.64L406.9,235.92Z"/><polygon class="cls-4" points="393.58 511.8 564.82 439.5 637.11 169.33 406.9 235.92 393.58 511.8"/><path class="cls-5" d="M367,228.3l-22.32-4.22s-20.85,50.52,31.16,47.35c0,0-13,50.1,26.94,50.1l4.13-85.62Z"/><path class="cls-6" d="M402.77,321.53s38.69,3.06,37.74-48.73c0,0,58-6.17,32.79-56.09l-66.4,19.2Z"/><path class="cls-6" d="M564.82,439.5l-30.43,12.84s-9.19-23.62,15.21-30c0,0-5.59-29.16,26.37-24.57Z"/><path class="cls-5" d="M136.73,443.3,127.31,411s23.19-9.41,29.54,15c0,0,26.86-3.33,22.27,28.64Z"/><path class="cls-5" d="M393.58,511.8l2.87-59.46S365.68,446.9,365,474c0,0-32.29,1.2-21.54,24.49Z"/><path class="cls-6" d="M393.58,511.8l2.87-59.46s24.24-5,24.88,22c0,0,26.79-8.09,27.86,13.94Z"/><path class="cls-5" d="M56.82,169.33l37,7,9.17,1.74s4.13,16.59-17,13.42c0,0,8.24,19.47-18.29,15.12Z"/><path class="cls-7" d="M56.88,169.38l30.35,5.74,1.23.16s4.14,8.95-13.16,7.13c0,0,9.91,14.78-10.94,12.45Z"/><path class="cls-8" d="M182.2,19.77c12.19,2,24.35,4.19,36.49,6.43l18.2,3.43C243,30.76,249,32,255.06,33.22L273.19,37l9.06,1.91,9.08,1.84c12.1,2.46,24.25,4.68,36.4,6.88s24.31,4.39,36.44,6.7,24.27,4.57,36.37,7q36.36,7.12,72.55,15.08l0,.19q-36.54-6.16-72.9-13.25c-12.13-2.29-24.24-4.73-36.34-7.17s-24.2-4.92-36.29-7.46-24.18-5-36.32-7.28l-9.1-1.71L273,38.12l-18.23-3.27c-6.07-1.17-12.14-2.27-18.19-3.49L218.4,27.71c-12.1-2.49-24.18-5-36.23-7.74Z"/><path class="cls-8" d="M158.53,36.68q20.68,2.93,41.14,7.11c6.81,1.44,13.59,3,20.42,4.41s13.68,2.55,20.54,3.69,13.74,2.28,20.58,3.52,13.7,2.46,20.53,3.79C295.39,61.91,309,64.74,322.57,68l0,.2c-13.79-2-27.5-4.37-41.19-6.87-6.84-1.28-13.66-2.67-20.48-4s-13.63-2.8-20.43-4.3S226.81,50.08,220,48.83s-13.74-2.25-20.6-3.41q-20.55-3.66-40.87-8.54Z"/><path class="cls-8" d="M290.44,84c5.52.59,11,1.34,16.5,2.19S317.89,88,323.33,89s10.85,2.33,16.3,3.36,10.93,1.85,16.42,2.63,11,1.57,16.45,2.47,10.95,1.75,16.4,2.73c10.91,2,21.79,4.13,32.6,6.66l0,.2c-11-1.29-22-2.94-32.93-4.76-5.47-.92-10.92-2-16.36-3s-10.89-2.1-16.32-3.24S345,93.89,339.51,93s-11-1.55-16.47-2.36-10.93-1.85-16.37-2.91-10.87-2.21-16.27-3.52Z"/><path class="cls-8" d="M123.86,71.35c5.36.74,10.68,1.64,16,2.62s10.6,2,15.87,3.22S166.2,79.8,171.47,81s10.58,2.14,15.9,3.06S198,85.88,203.3,86.91s10.6,2,15.88,3.16c10.56,2.26,21.08,4.7,31.52,7.5l0,.19c-10.7-1.56-21.32-3.5-31.91-5.6-5.29-1.07-10.56-2.24-15.83-3.4s-10.53-2.38-15.77-3.67-10.51-2.47-15.81-3.49-10.65-1.83-16-2.78-10.58-2.13-15.84-3.33S129,73,123.82,71.55Z"/><path class="cls-8" d="M225.33,118.71q22,3.24,43.69,7.73c7.23,1.55,14.43,3.25,21.67,4.73s14.53,2.77,21.82,4,14.58,2.49,21.85,3.84,14.54,2.67,21.8,4.11c14.49,2.91,29,6,43.36,9.4l0,.2c-14.63-2.2-29.19-4.79-43.73-7.51-7.26-1.38-14.5-2.87-21.75-4.35s-14.48-3-21.7-4.62-14.46-3.09-21.73-4.44-14.59-2.46-21.87-3.73q-21.82-4-43.41-9.18Z"/><path class="cls-8" d="M92.57,128.85c5.87.64,11.72,1.42,17.55,2.3s11.66,1.8,17.45,2.9,11.56,2.4,17.36,3.46,11.63,1.93,17.47,2.74,11.69,1.64,17.51,2.57,11.65,1.83,17.46,2.84c11.61,2.05,23.2,4.28,34.72,6.87l0,.2c-11.74-1.35-23.4-3.08-35.05-5-5.81-1-11.61-2-17.41-3.08s-11.6-2.17-17.38-3.35-11.58-2.27-17.4-3.18-11.69-1.61-17.53-2.46-11.63-1.92-17.43-3-11.57-2.29-17.33-3.63Z"/><path class="cls-8" d="M268.45,178.74c5.19.39,10.37.93,15.53,1.56s10.31,1.3,15.44,2.16,10.22,1.91,15.36,2.72,10.29,1.43,15.46,2,10.34,1.15,15.49,1.83,10.31,1.33,15.45,2.09c10.28,1.57,20.53,3.3,30.73,5.4l0,.2c-10.38-.86-20.7-2.09-31-3.48-5.15-.72-10.28-1.54-15.42-2.35s-10.26-1.68-15.37-2.61-10.25-1.77-15.41-2.44-10.34-1.12-15.5-1.71-10.3-1.43-15.42-2.28-10.25-1.79-15.34-2.89Z"/><path class="cls-5" d="M244.2,4.1S108.83,48.83,91.07,175.67l-34.25-6.34S85,4.2,206.17,0A310.85,310.85,0,0,1,244.2,4.1Z"/><path class="cls-5" d="M367,228.3S373.13,64.57,512.41,52l41.89,7.47S418.53,98.51,406.9,235.91Z"/><path class="cls-6" d="M554.3,59.42c-51.95,2.73-140.85,40.8-147.4,176.49l230.21-66.58S651.07,61.2,554.3,59.42Z"/><path class="cls-6" d="M637.11,169.33,626,211.5s-26.32,0-12-17.44c0,0-17,13.48-27.12-10.3Z"/><polygon class="cls-9" points="199.94 240.57 238.84 246.91 257.04 207.41 197.45 196.08 199.94 240.57"/><path d="M234.78,217.34c.7-4-3.58-8.14-9.56-9.18s-11.4,1.37-12.1,5.4c-.54,3.07,1.84,6.18,5.65,7.95l-8.85,10.37,21.66,3.78-4.82-12.75C231,222.53,234.24,220.41,234.78,217.34Z"/><polygon class="cls-10" points="115.73 231.7 358.77 282.02 359.27 455.77 157.24 400.39 115.73 231.7"/><polygon class="cls-10" points="455.56 276.46 598.32 228.19 554.69 395.37 438.03 446.66 455.56 276.46"/><path class="cls-10" d="M447.49,199.77s26-84.35,86.58-107.68C601.88,66,621.89,150.3,621.89,150.3Z"/><g id="shading" class="cls-11"><polygon class="cls-12" points="351.52 445.62 179.59 406.34 359.13 455.56 358.67 294.48 351.52 445.62"/><polygon class="cls-12" points="132 247.98 358.79 290.86 358.77 282.65 115.73 232.34 156.55 398.22 132 247.98"/><polygon class="cls-12" points="455.73 276.83 587.22 240.57 556.59 386.77 597.82 228.79 455.06 277.06 453.85 288.72 455.73 276.83"/></g><path class="cls-7" d="M407,235.3l-43.16-7.62c-3.15,14.44-9.77,32.31,27.87,30,0,0-13.89,38.08,11.73,47Z"/><path class="cls-8" d="M128.08,267.53q28.89,4.17,57.55,9.59c9.55,1.85,19.07,3.86,28.62,5.65s19.15,3.38,28.75,4.93,19.2,3.11,28.79,4.77,19.16,3.28,28.73,5c19.12,3.53,38.22,7.19,57.25,11.25l0,.2c-19.25-2.81-38.43-6-57.59-9.35-9.57-1.69-19.13-3.49-28.69-5.28s-19.1-3.63-28.64-5.54-19.09-3.71-28.67-5.37-19.2-3.08-28.8-4.66q-28.76-4.9-57.29-11Z"/><path class="cls-8" d="M139,315.73c18.18,2.49,36.3,5.38,54.39,8.4,9,1.53,18.06,3.18,27.09,4.8s18,3.32,27,5.07,18,3.39,27.08,4.9,18.13,2.75,27.2,4.17q27.15,4.44,54.09,10.08l0,.19q-27.29-3.68-54.35-8.63c-9-1.7-18-3.54-27-5.18s-18.09-3.06-27.15-4.45-18.13-2.79-27.18-4.29-18.1-3-27.13-4.56c-18.06-3.21-36.1-6.56-54.06-10.3Z"/><path class="cls-8" d="M150.39,368.05q25.37,4.09,50.48,9.43c8.36,1.83,16.7,3.81,25.07,5.57s16.79,3.33,25.22,4.86,16.84,3,25.24,4.69,16.81,3.23,25.2,4.95c16.76,3.48,33.49,7.09,50.15,11.09l0,.2c-16.91-2.76-33.73-5.92-50.53-9.2-8.4-1.67-16.77-3.44-25.15-5.2s-16.74-3.58-25.09-5.46-16.73-3.66-25.13-5.29-16.85-3-25.27-4.58q-25.22-4.83-50.19-10.86Z"/><path class="cls-8" d="M329.55,320.17c2.27.21,4.53.48,6.8.71l6.79.82a67.1,67.1,0,0,1,6.77.91,37.78,37.78,0,0,1,6.59,2l0,.2a38.52,38.52,0,0,1-6.89-.23,66.57,66.57,0,0,1-6.7-1.3l-6.69-1.41c-2.23-.5-4.46-1-6.68-1.5Z"/><path class="cls-8" d="M147.22,345.86c2.31.34,4.6.74,6.9,1.11l6.89,1.21a69.18,69.18,0,0,1,6.86,1.32,39.71,39.71,0,0,1,6.62,2.38l0,.2a40.82,40.82,0,0,1-7-.63c-2.3-.36-4.52-1.12-6.77-1.7l-6.75-1.8c-2.25-.64-4.5-1.24-6.73-1.9Z"/><path class="cls-8" d="M454.44,292.9c11.06-4.17,22.24-8,33.47-11.62,5.62-1.81,11.28-3.51,16.93-5.23s11.32-3.38,17-5,11.35-3.28,16.95-5.14,11.15-3.91,16.74-5.83,11.24-3.62,16.9-5.3,11.35-3.26,17.09-4.71l.06.19c-5.52,2.13-11.09,4.11-16.68,6S561.69,260,556,261.69s-11.39,3.15-17,4.86-11.24,3.62-16.82,5.57S511,276,505.41,277.84s-11.21,3.71-16.85,5.47c-11.28,3.49-22.62,6.82-34.06,9.78Z"/><path class="cls-8" d="M449.36,344.91c5.2-2.29,10.45-4.44,15.74-6.5s10.59-4.08,15.95-5.92,10.8-3.51,16.15-5.39,10.63-4,15.9-6.08,10.53-4.22,15.84-6.23,10.59-4.06,15.93-6c10.68-3.83,21.41-7.5,32.28-10.82l.07.19c-10.43,4.5-21,8.64-31.62,12.64-5.31,2-10.67,3.85-16,5.74s-10.72,3.73-16.11,5.5-10.76,3.63-16.05,5.66-10.53,4.25-15.8,6.34-10.63,4-16,5.81-10.76,3.62-16.2,5.24Z"/><path class="cls-8" d="M443,405.16c9.74-4.42,19.61-8.49,29.54-12.4,5-1.94,10-3.78,15-5.63s10-3.64,15.09-5.38,10.07-3.55,15-5.54,9.83-4.17,14.76-6.22,9.94-3.88,15-5.69,10.08-3.54,15.19-5.12l.07.18c-4.85,2.26-9.76,4.36-14.7,6.38s-9.9,4-14.92,5.8-10.12,3.43-15.13,5.28-9.94,3.87-14.86,5.95-9.84,4.15-14.8,6.12-9.91,4-14.9,5.86c-10,3.75-20.05,7.35-30.23,10.59Z"/><path class="cls-8" d="M551.47,334.76c1.56-.68,3.14-1.31,4.71-2l4.74-1.87a37.46,37.46,0,0,1,4.77-1.77,21.67,21.67,0,0,1,5.12-.73l.06.19a22,22,0,0,1-4.55,2.44,36,36,0,0,1-4.9,1.39l-4.93,1.3c-1.66.4-3.3.83-5,1.21Z"/><path class="cls-8" d="M452.22,316.05l14.62-5.14,14.65-5c4.89-1.67,9.73-3.5,14.68-4.95s9.94-2.83,15-3.9l.06.2c-4.75,2.1-9.6,3.9-14.47,5.61s-9.87,3.06-14.81,4.56l-14.84,4.48-14.86,4.37Z"/><path class="cls-8" d="M441.74,425.14c2.59-1.27,5.26-2.28,7.91-3.38l8-3.12c2.68-1,5.3-2.2,8.05-3a58.84,58.84,0,0,1,8.4-1.92l.07.19a62.11,62.11,0,0,1-7.82,3.63c-2.66,1.06-5.44,1.75-8.17,2.61L450,422.7c-2.73.84-5.48,1.66-8.15,2.62Z"/><path class="cls-8" d="M489.64,124.68c8.49-2.61,17.06-4.85,25.67-6.93,4.3-1,8.64-1.94,13-2.87s8.67-1.8,13-2.61,8.69-1.7,13-2.77,8.54-2.35,12.83-3.49,8.61-2.05,13-2.94,8.7-1.68,13.09-2.33l.05.19c-4.23,1.35-8.5,2.55-12.79,3.65s-8.59,2.17-12.93,3-8.73,1.57-13.06,2.5-8.61,2-12.89,3.21-8.55,2.32-12.85,3.38-8.59,2.14-12.91,3.11c-8.65,1.91-17.33,3.66-26.1,5Z"/><path class="cls-8" d="M460.3,169.39c12.52-4.15,25.14-7.91,37.8-11.55,6.33-1.8,12.7-3.49,19.06-5.19s12.73-3.35,19.13-4.93,12.76-3.27,19.08-5.1,12.59-3.89,18.89-5.8q19-5.55,38.25-9.92l.06.19q-18.77,6.28-37.86,11.33c-6.38,1.63-12.8,3.12-19.16,4.82s-12.67,3.59-19,5.53-12.59,3.86-18.92,5.69-12.64,3.69-19,5.43c-12.71,3.45-25.46,6.76-38.31,9.69Z"/><path class="cls-8" d="M593.17,116c.79-.42,1.61-.78,2.41-1.17s1.63-.74,2.45-1.08a10.36,10.36,0,0,1,2.48-1,6.83,6.83,0,0,1,2.8.07l.06.19a6.63,6.63,0,0,1-2.27,1.65,10.3,10.3,0,0,1-2.59.61c-.87.18-1.75.35-2.63.5s-1.76.3-2.65.41Z"/><path class="cls-8" d="M451.43,190.32,461.54,187l10.15-3.22c3.38-1.06,6.72-2.29,10.17-3.12a91.42,91.42,0,0,1,10.47-2.07l.06.19a92.13,92.13,0,0,1-10,3.8c-3.37,1.12-6.85,1.84-10.28,2.74L461.82,188l-10.34,2.55Z"/><path class="cls-13" d="M407.22,236l50.31-14.59c3.15,14.44,3.52,36.69-34.12,34.39,0,0,5.73,39.92-19.89,48.79Z"/><path class="cls-7" d="M136.77,443.3l-7.08-24.12s18.35-5.9,21.54,13c0,0,22.46-4.44,17.45,19.67Z"/><path class="cls-7" d="M393.58,511.76l2.33-49.43s-22.73-6.85-23.37,20.21c0,0-29-4.18-18.28,19.11Z"/><path class="cls-13" d="M393.62,511.78l2.34-49.4s18-4.7,18.6,22.36c0,0,23.88-14.35,24.94,7.67Z"/><path class="cls-13" d="M637.1,169.35,629,199.72s-14.55.25-3.53-18.66c0,0-14.74,22.61-24.89-1.17Z"/><path class="cls-13" d="M564.86,439.5l-21.71,9.19s-7.95-13.19,16.46-19.53c0,0-3-29.51,15.14-26.76Z"/></g></g></svg>